<svg width="25" height="25" viewBox="0 0 25 25" fill="none" xmlns="http://www.w3.org/2000/svg">
<path d="M2.08325 3.12506C4.124 3.12504 5.90492 4.39261 6.61424 6.23137M6.61424 6.23137C6.73811 6.55247 6.8293 6.89099 6.88349 7.24322L7.84328 13.4818C8.11922 15.2755 9.73597 16.5498 11.5444 16.3991L18.8461 15.7906C20.0006 15.6944 20.9229 14.7931 21.0663 13.6436C21.2912 11.8403 21.4724 10.6851 21.7064 8.74784C21.7478 8.40529 21.7684 8.23395 21.7445 8.08777C21.6841 7.7191 21.4257 7.40656 21.0749 7.27804C20.9358 7.22708 20.7618 7.21511 20.4137 7.19117L6.61424 6.23137ZM12.4999 20.8333C12.4999 21.4086 12.0335 21.875 11.4583 21.875C10.883 21.875 10.4166 21.4086 10.4166 20.8333C10.4166 20.258 10.883 19.7917 11.4583 19.7917C12.0335 19.7917 12.4999 20.258 12.4999 20.8333ZM20.8333 20.8333C20.8333 21.4086 20.3669 21.875 19.7916 21.875C19.2163 21.875 18.7499 21.4086 18.7499 20.8333C18.7499 20.258 19.2163 19.7917 19.7916 19.7917C20.3669 19.7917 20.8333 20.258 20.8333 20.8333Z" stroke="#292D32" stroke-width="1.5" stroke-linecap="round" stroke-linejoin="round"/>
</svg>
