<svg width="17" height="17" viewBox="0 0 17 17" fill="none" xmlns="http://www.w3.org/2000/svg">
<path d="M15.3499 10.1292L15.0666 13.6709C14.9604 14.7547 14.8754 15.5834 12.9558 15.5834H4.04495C2.12536 15.5834 2.04036 14.7547 1.93411 13.6709L1.65078 10.1292C1.59411 9.54133 1.77828 8.99591 2.1112 8.578C2.11828 8.57091 2.11828 8.57091 2.12536 8.56383C2.51495 8.08925 3.10286 7.79175 3.76161 7.79175H13.2391C13.8979 7.79175 14.4787 8.08925 14.8612 8.54966C14.8683 8.55675 14.8754 8.56383 14.8754 8.57091C15.2224 8.98883 15.4137 9.53425 15.3499 10.1292Z" stroke="#292D32" stroke-opacity="0.6" stroke-width="1.5" stroke-miterlimit="10"/>
<path d="M2.47852 8.09632V4.4484C2.47852 2.04007 3.0806 1.43799 5.48893 1.43799H6.38852C7.2881 1.43799 7.49352 1.70715 7.83352 2.16049L8.7331 3.36465C8.95977 3.66215 9.09435 3.84632 9.69643 3.84632H11.5027C13.911 3.84632 14.5131 4.44841 14.5131 6.85674V8.12466" stroke="#292D32" stroke-opacity="0.6" stroke-width="1.5" stroke-miterlimit="10" stroke-linecap="round" stroke-linejoin="round"/>
<path d="M6.67969 12.0417H10.3205" stroke="#292D32" stroke-opacity="0.6" stroke-width="1.5" stroke-miterlimit="10" stroke-linecap="round" stroke-linejoin="round"/>
</svg>
