<svg width="497" height="463" viewBox="0 0 497 463" fill="none" xmlns="http://www.w3.org/2000/svg">
<g clip-path="url(#clip0_228_4519)">
<path d="M329.95 68.9458C328.71 69.9081 327.437 70.5283 326.165 70.8063C322.368 71.651 312.252 71.2233 310.562 75.8639C308.872 80.5045 304.231 81.7662 304.231 81.7662C304.231 81.7662 296.222 82.1832 295.794 83.8727C295.377 85.5621 292.415 88.5132 292.415 88.5132H430.323C430.323 88.5132 434.965 81.3492 427.372 74.6022C420.731 68.6999 408.593 77.6496 407.085 70.3679" stroke="#263238" stroke-linecap="round" stroke-linejoin="round"/>
<path d="M405.845 59.6326C404.305 54.0831 401.065 46.5983 394.488 43.8183C383.527 39.1777 374.244 45.5077 371.71 51.827C369.176 58.157 367.497 62.3699 357.797 56.8846C348.098 51.3993 339.66 51.827 336.709 58.991C335.746 61.3327 334.698 63.3109 333.586 64.9361" stroke="#263238" stroke-linecap="round" stroke-linejoin="round"/>
<path d="M95.6999 142.479H143.598C143.598 142.479 146.4 138.138 141.812 134.064C137.224 129.979 128.295 137.635 129.568 128.963C129.568 128.963 128.552 118.249 121.911 115.448C117.719 113.673 113.922 114.55 111.324 116.41" stroke="#263238" stroke-linecap="round" stroke-linejoin="round"/>
<path d="M108.137 120.281C106.608 124.109 105.581 126.654 99.7208 123.339C93.8498 120.024 88.7488 120.281 86.963 124.612C85.1771 128.953 82.8779 131.241 80.5894 131.754C78.2902 132.267 72.1733 132.011 71.1466 134.812C70.12 137.614 67.3182 138.384 67.3182 138.384C67.3182 138.384 62.4739 138.64 62.2172 139.656C61.9606 140.672 60.1747 142.457 60.1747 142.457H88.1821" stroke="#263238" stroke-linecap="round" stroke-linejoin="round"/>
<path d="M335.458 142.479H358.075C358.075 142.479 360.877 138.138 356.289 134.064C351.702 129.979 342.772 137.635 344.045 128.963C344.045 128.963 343.029 118.249 336.388 115.448C329.747 112.646 324.143 116.464 322.614 120.292C321.085 124.12 320.058 126.664 314.198 123.35C308.327 120.035 303.226 120.292 301.44 124.622C299.654 128.963 297.355 131.251 295.067 131.765C292.768 132.278 286.651 132.021 285.624 134.823C284.597 137.624 281.796 138.394 281.796 138.394C281.796 138.394 276.951 138.651 276.695 139.667C276.438 140.682 274.652 142.468 274.652 142.468H327.929" stroke="#263238" stroke-linecap="round" stroke-linejoin="round"/>
<g opacity="0.1">
<path d="M10.341 213.114C14.5544 213.959 23.9116 211.692 23.9116 211.692C24.0078 211.671 20.5537 205.982 20.2864 205.64C17.2814 201.769 9.20746 196.07 4.05299 197.941C0.342195 199.289 -0.95177 203.587 0.695094 206.998C2.37404 210.484 6.74785 212.387 10.3303 213.114H10.341Z" fill="black"/>
<path d="M19.5271 239.642C23.6442 239.354 31.5043 235.098 32.1245 234.745C34.4772 239.151 37.2362 243.481 40.284 247.715C42.0164 250.132 43.8451 252.516 45.7058 254.89C44.7006 253.938 43.7809 253.094 43.6419 252.987C39.7279 250.046 30.4242 246.689 25.9541 249.854C22.7246 252.131 22.6176 256.612 25.1093 259.466C27.6545 262.386 32.3705 263.07 36.0171 262.813C39.7172 262.557 46.4971 259.06 48.2723 258.109C48.9995 259.007 49.7053 259.916 50.4325 260.814C53.9187 265.123 57.4156 269.411 60.7094 273.709C61.875 275.227 62.9658 276.767 64.0566 278.296C63.1583 277.451 62.399 276.746 62.2707 276.649C58.3567 273.72 49.053 270.352 44.5829 273.517C41.3641 275.794 41.2464 280.274 43.7381 283.129C46.2833 286.048 50.9993 286.733 54.6459 286.476C58.1749 286.23 64.4629 283.054 66.5803 281.932C67.6604 283.536 68.7405 285.139 69.703 286.743C70.3446 287.855 71.029 288.882 71.6065 290.026C72.2053 291.149 72.7935 292.271 73.3817 293.373C74.4297 295.543 75.5204 297.767 76.4936 299.917C77.178 301.403 77.809 302.825 78.4399 304.268C77.2956 302.739 75.0071 299.81 74.7826 299.585C71.3605 296.089 62.677 291.352 57.7685 293.811C54.2395 295.575 53.4482 299.991 55.48 303.188C57.5547 306.46 62.1103 307.85 65.7569 308.15C69.7671 308.481 77.8731 305.616 78.8783 305.252C79.9157 307.637 80.9102 309.957 81.8085 312.16C82.4822 313.796 83.1024 315.367 83.7013 316.875L87.0378 316.148C86.3427 314.469 85.6048 312.716 84.8028 310.887C83.7548 308.471 82.5891 305.904 81.3593 303.274C81.9261 302.889 85.1664 300.676 87.9361 298.238C91.3261 300.612 99.1112 302.547 100.116 302.793C99.678 305.348 99.2182 307.84 98.7476 310.171C98.5017 311.411 98.2557 312.577 98.0098 313.742L101.539 312.972C101.678 312.245 101.806 311.529 101.934 310.77C102.394 308.171 102.833 305.391 103.26 302.526C104.319 302.526 112.928 302.397 116.574 300.686C119.89 299.136 123.675 296.249 124.488 292.464C125.279 288.764 123.001 284.893 119.077 284.466C113.623 283.867 107.132 291.32 105.132 295.789C105.014 296.057 104.052 299.05 103.474 300.964C103.645 299.799 103.817 298.655 103.977 297.447C104.308 295.062 104.565 292.667 104.854 290.101C104.95 288.85 105.046 287.599 105.143 286.326C105.26 285.065 105.239 283.717 105.292 282.413C105.346 279.365 105.26 276.265 105.1 273.153C107.185 273.431 114.628 274.329 118.146 273.303C121.654 272.276 125.835 269.988 127.215 266.374C128.562 262.835 126.894 258.675 123.076 257.649C117.783 256.227 110.233 262.621 107.581 266.727C107.42 266.983 105.838 270.148 105.014 271.902C104.907 270.031 104.8 268.16 104.629 266.278C104.127 260.824 103.453 255.318 102.811 249.822C102.608 248.143 102.437 246.464 102.245 244.775C102.982 244.882 111.805 246.144 115.751 244.989C119.259 243.962 123.451 241.674 124.819 238.06C126.167 234.521 124.499 230.361 120.681 229.335C115.387 227.913 107.837 234.307 105.185 238.413C104.982 238.723 102.726 243.278 102.212 244.465C101.806 240.765 101.432 237.066 101.218 233.419C100.908 228.372 100.886 223.411 101.218 218.599C101.56 218.653 110.757 220 114.799 218.824C118.307 217.797 122.499 215.509 123.868 211.895C125.215 208.356 123.547 204.196 119.729 203.17C114.436 201.748 106.886 208.142 104.234 212.248C104.03 212.569 101.603 217.477 101.229 218.396C101.25 218.108 101.229 217.808 101.261 217.53C101.678 212.398 102.736 207.479 103.945 202.924C104.64 200.272 105.463 197.781 106.308 195.375C107.998 195.803 115.719 197.674 119.483 197.011C123.087 196.38 127.493 194.562 129.257 191.119C130.979 187.741 129.792 183.431 126.103 181.988C120.991 179.999 112.789 185.517 109.698 189.312C109.527 189.516 108.051 191.804 107.003 193.493C107.399 192.413 107.795 191.291 108.201 190.264C109.709 186.404 111.324 182.961 112.778 179.914C113.623 178.192 114.414 176.652 115.174 175.22C117.045 174.781 124.573 172.899 127.546 170.622C130.444 168.398 133.524 164.762 133.503 160.891C133.481 157.106 130.423 153.824 126.498 154.241C121.044 154.829 116.307 163.5 115.313 168.301C115.227 168.718 114.628 175.348 114.724 175.326C114.724 175.326 114.821 175.305 114.842 175.305C114.083 176.674 113.291 178.139 112.447 179.764C110.917 182.779 109.228 186.19 107.634 190.039C106.03 193.878 104.394 198.091 103.079 202.689C101.753 207.297 100.587 212.205 100.042 217.423C100.042 217.477 100.042 217.541 100.031 217.605C99.7208 216.033 98.6942 211.66 98.5765 211.328C96.9297 206.72 91.0373 198.786 85.5513 198.957C81.6053 199.085 79.0387 202.753 79.5414 206.517C80.0547 210.355 83.6051 213.531 86.7918 215.327C90.385 217.359 99.293 218.14 99.9988 218.193C99.5283 223.165 99.4428 228.308 99.6459 233.516C99.7636 236.488 99.9668 239.493 100.213 242.487C99.8919 241.129 99.6032 239.92 99.5497 239.76C97.9028 235.152 92.0105 227.218 86.5245 227.389C82.5784 227.517 80.0119 231.185 80.5145 234.948C81.0278 238.787 84.5782 241.963 87.765 243.759C90.9946 245.588 98.5765 246.4 100.587 246.593C100.694 247.747 100.79 248.892 100.897 250.046C101.421 255.564 101.977 261.06 102.352 266.481C102.491 268.384 102.544 270.266 102.619 272.159C102.341 270.961 102.095 269.945 102.041 269.796C100.395 265.187 94.5022 257.253 89.0162 257.424C85.0701 257.553 82.5036 261.22 83.0062 264.984C83.5195 268.823 87.0699 271.998 90.2567 273.795C93.3365 275.537 100.33 276.35 102.715 276.596C102.726 278.531 102.736 280.467 102.662 282.338C102.576 283.61 102.587 284.851 102.437 286.134C102.309 287.406 102.191 288.657 102.073 289.898C101.753 292.282 101.432 294.752 101.058 297.072C100.812 298.687 100.544 300.227 100.277 301.766C100.17 299.863 99.8705 296.153 99.8064 295.843C99.1861 292.646 96.9297 287.727 93.8926 284.594C93.8071 284.124 93.6787 283.664 93.4969 283.215C92.1174 279.686 88.0858 277.719 84.5675 279.526C79.6911 282.028 78.3864 291.833 79.1885 296.666C79.2312 296.955 80.0868 299.981 80.6642 301.895C80.1616 300.825 79.6804 299.778 79.1457 298.687C78.1084 296.516 76.9962 294.378 75.8199 292.079C75.2103 290.988 74.6008 289.887 73.9805 288.775C73.3924 287.663 72.6224 286.551 71.938 285.428C70.3018 282.851 68.5266 280.317 66.6766 277.815C68.5801 276.895 75.2745 273.549 77.6378 270.736C80.0012 267.946 82.2255 263.733 81.3807 259.958C80.5466 256.259 76.8679 253.703 73.1143 254.965C67.9171 256.708 65.1473 266.192 65.2008 271.089C65.2008 271.399 65.6393 274.907 65.9173 276.821C64.7944 275.324 63.6823 273.816 62.4953 272.34C59.0732 268.063 55.4693 263.85 51.8976 259.616C50.8068 258.322 49.7267 257.018 48.6466 255.724C49.331 255.403 57.3729 251.586 60.025 248.453C62.3883 245.662 64.6126 241.449 63.7678 237.675C62.9337 233.975 59.255 231.42 55.5121 232.682C50.3149 234.424 47.5452 243.909 47.5986 248.806C47.5986 249.18 48.2403 254.216 48.4541 255.5C46.0694 252.634 43.7274 249.758 41.5245 246.839C38.4874 242.807 35.7284 238.669 33.3543 234.478C33.6751 234.328 42.0913 230.383 44.8075 227.175C47.1709 224.384 49.3952 220.171 48.5504 216.397C47.7163 212.697 44.0375 210.152 40.284 211.403C35.0867 213.146 32.317 222.63 32.3705 227.528C32.3705 227.913 33.0549 233.344 33.2474 234.318C33.1084 234.072 32.9373 233.826 32.7982 233.58C30.3172 229.067 28.4886 224.384 26.9807 219.915C26.1038 217.316 25.4087 214.793 24.7885 212.312C26.4354 211.735 33.9104 209.03 36.6801 206.41C39.3322 203.897 42.0164 199.952 41.5779 196.102C41.1502 192.338 37.7709 189.398 33.9104 190.232C28.5527 191.387 24.7564 200.518 24.2752 205.394C24.2538 205.661 24.2752 208.377 24.3286 210.366C24.0613 209.243 23.7726 208.089 23.5373 207.009C22.6604 202.956 22.1043 199.192 21.6445 195.856C21.3985 193.953 21.206 192.231 21.0563 190.617C22.3717 189.216 27.6117 183.485 28.8415 179.946C30.0392 176.492 30.5953 171.755 28.4458 168.547C26.3391 165.404 21.976 164.345 18.9389 166.869C14.7148 170.365 15.5489 180.213 17.3669 184.768C17.5273 185.164 20.682 191.023 20.7569 190.948C20.7569 190.948 20.821 190.884 20.8317 190.863C20.9494 192.424 21.0991 194.081 21.2916 195.91C21.6766 199.267 22.1578 203.052 22.9491 207.137C23.7298 211.222 24.6922 215.638 26.1252 220.203C27.5582 224.78 29.2906 229.517 31.7181 234.168C31.7502 234.221 31.7823 234.275 31.8037 234.328C30.6701 233.184 27.3978 230.105 27.1198 229.901C23.2058 226.972 13.9021 223.604 9.43202 226.769C6.21315 229.057 6.09551 233.526 8.5872 236.392C11.1324 239.311 15.8484 239.995 19.495 239.739L19.5271 239.642Z" fill="black"/>
<path d="M105.902 194.456C105.998 194.488 106.255 187.837 106.223 187.409C105.848 182.533 102.255 173.316 96.9297 172.033C93.0906 171.114 89.6472 173.979 89.1338 177.732C88.6098 181.571 91.2085 185.57 93.7964 188.147C96.8442 191.173 105.891 194.445 105.902 194.445V194.456Z" fill="black"/>
</g>
<g opacity="0.1">
<path d="M487.108 305.199C483.494 305.338 476.029 302.205 476.018 302.205C475.944 302.173 479.58 297.906 479.836 297.661C482.852 294.848 490.316 291.191 494.348 293.437C497.257 295.051 497.749 298.794 495.931 301.403C494.07 304.076 490.177 305.081 487.108 305.199Z" fill="black"/>
<path d="M475.933 326.017C472.554 325.226 466.586 320.639 466.116 320.275C463.571 323.622 460.694 326.851 457.604 329.963C455.839 331.738 454 333.481 452.139 335.202C453.101 334.539 453.978 333.962 454.107 333.898C457.753 331.984 465.923 330.423 469.228 333.652C471.602 335.983 471.099 339.714 468.65 341.757C466.148 343.842 462.138 343.788 459.144 343.083C456.106 342.377 450.941 338.56 449.583 337.533C448.867 338.185 448.15 338.848 447.423 339.49C443.947 342.601 440.472 345.702 437.157 348.835C435.991 349.937 434.879 351.07 433.756 352.203C434.612 351.615 435.339 351.134 435.467 351.07C439.114 349.156 447.284 347.595 450.588 350.824C452.962 353.155 452.46 356.887 450.011 358.929C447.509 361.014 443.498 360.961 440.504 360.255C437.606 359.581 432.804 356.106 431.19 354.887C430.077 356.074 428.965 357.272 427.949 358.469C427.276 359.303 426.559 360.062 425.928 360.939C425.287 361.795 424.645 362.639 424.014 363.484C422.859 365.141 421.651 366.852 420.56 368.51C419.79 369.654 419.084 370.755 418.368 371.867C419.523 370.755 421.822 368.617 422.036 368.467C425.351 366.018 433.189 363.238 436.943 365.933C439.638 367.868 439.713 371.642 437.595 374.027C435.435 376.465 431.468 377.021 428.399 376.786C425.019 376.529 418.678 373.065 417.886 372.626C416.699 374.465 415.566 376.262 414.528 377.983C413.759 379.256 413.021 380.475 412.326 381.651L409.652 380.603C410.454 379.298 411.299 377.951 412.208 376.529C413.406 374.658 414.71 372.68 416.079 370.669C415.651 370.274 413.256 368.007 411.288 365.601C408.155 367.12 401.428 367.697 400.562 367.761C400.594 369.942 400.637 372.07 400.712 374.08C400.755 375.139 400.797 376.144 400.84 377.149L398.017 376.037C398.006 375.406 397.985 374.797 397.974 374.145C397.942 371.921 397.942 369.557 397.974 367.12C397.097 366.97 389.965 365.719 387.152 363.816C384.607 362.083 381.837 359.175 381.677 355.924C381.516 352.738 383.922 349.84 387.238 350.001C391.847 350.225 396.242 357.293 397.311 361.271C397.375 361.506 397.771 364.126 397.996 365.783C398.017 364.789 398.017 363.826 398.049 362.8C398.092 360.779 398.199 358.758 398.306 356.577C398.391 355.529 398.477 354.47 398.573 353.401C398.637 352.342 398.84 351.22 398.98 350.129C399.332 347.584 399.824 345.029 400.37 342.462C398.595 342.42 392.296 342.174 389.505 340.848C386.724 339.522 383.548 337.073 382.896 333.876C382.254 330.754 384.19 327.514 387.494 327.172C392.082 326.702 397.504 333.01 399.161 336.785C399.268 337.02 400.145 339.864 400.605 341.425C400.947 339.885 401.279 338.346 401.674 336.795C402.819 332.326 404.113 327.846 405.385 323.365C405.781 321.997 406.144 320.617 406.529 319.249C405.898 319.249 398.402 319.11 395.279 317.624C392.499 316.298 389.323 313.849 388.671 310.652C388.029 307.53 389.965 304.29 393.269 303.958C397.857 303.488 403.278 309.797 404.936 313.571C405.064 313.86 406.326 317.944 406.604 319.003C407.438 315.977 408.24 312.962 408.903 309.957C409.834 305.808 410.508 301.681 410.882 297.639C410.593 297.639 402.765 297.532 399.568 296.014C396.787 294.688 393.611 292.239 392.959 289.042C392.317 285.92 394.253 282.68 397.557 282.349C402.145 281.878 407.567 288.187 409.224 291.961C409.353 292.261 410.711 296.655 410.903 297.468C410.925 297.233 410.967 296.976 410.989 296.741C411.32 292.421 411.106 288.197 410.711 284.241C410.486 281.942 410.133 279.761 409.759 277.655C408.305 277.783 401.632 278.307 398.595 277.259C395.686 276.254 392.264 274.158 391.259 271.057C390.275 268.021 391.847 264.599 395.098 263.893C399.61 262.92 405.685 268.598 407.749 272.169C407.855 272.362 408.786 274.458 409.427 275.997C409.235 275.046 409.064 274.062 408.861 273.153C408.123 269.742 407.246 266.663 406.433 263.947C405.963 262.407 405.503 261.017 405.064 259.723C403.567 259.103 397.557 256.537 395.397 254.249C393.28 252.014 391.205 248.581 391.74 245.363C392.264 242.219 395.237 239.899 398.445 240.776C402.893 241.995 405.674 249.832 405.866 253.949C405.877 254.302 405.492 259.894 405.417 259.862C405.417 259.862 405.342 259.83 405.332 259.83C405.781 261.06 406.251 262.396 406.722 263.861C407.588 266.566 408.54 269.635 409.353 273.046C410.176 276.446 410.967 280.167 411.459 284.166C411.951 288.165 412.261 292.41 412.015 296.816C412.015 296.869 412.005 296.912 412.005 296.965C412.475 295.704 413.908 292.197 414.058 291.94C416.047 288.326 422.004 282.52 426.527 283.397C429.789 284.027 431.436 287.417 430.516 290.475C429.575 293.597 426.196 295.757 423.319 296.826C420.068 298.035 412.561 297.489 411.962 297.447C411.695 301.638 411.074 305.926 410.208 310.224C409.716 312.684 409.149 315.143 408.54 317.602C408.978 316.522 409.385 315.56 409.46 315.432C411.449 311.817 417.405 306.011 421.929 306.888C425.19 307.519 426.837 310.919 425.918 313.967C424.976 317.089 421.597 319.249 418.72 320.318C415.79 321.409 409.385 321.077 407.684 320.96C407.438 321.901 407.214 322.842 406.968 323.782C405.792 328.295 404.605 332.796 403.567 337.244C403.204 338.816 402.904 340.367 402.594 341.928C402.99 340.965 403.332 340.163 403.396 340.046C405.385 336.432 411.342 330.626 415.865 331.503C419.127 332.133 420.774 335.534 419.854 338.581C418.913 341.703 415.534 343.863 412.657 344.932C409.866 345.97 403.942 345.713 401.931 345.595C401.664 347.199 401.396 348.803 401.204 350.375C401.097 351.444 400.926 352.471 400.883 353.551C400.819 354.62 400.755 355.678 400.691 356.726C400.637 358.758 400.573 360.843 400.573 362.821C400.573 364.2 400.573 365.505 400.594 366.831C400.937 365.27 401.685 362.222 401.771 361.976C402.712 359.41 405.235 355.614 408.187 353.412C408.326 353.027 408.497 352.663 408.7 352.321C410.326 349.573 413.93 348.482 416.603 350.45C420.325 353.187 420.1 361.495 418.785 365.409C418.71 365.644 417.598 368.05 416.86 369.557C417.427 368.734 417.961 367.932 418.549 367.098C419.704 365.43 420.902 363.805 422.196 362.051C422.848 361.228 423.501 360.394 424.174 359.549C424.816 358.704 425.597 357.881 426.313 357.036C428.014 355.112 429.831 353.251 431.703 351.412C430.249 350.396 425.126 346.718 423.533 344.066C421.939 341.436 420.656 337.629 421.865 334.614C423.052 331.652 426.452 330.027 429.393 331.567C433.478 333.705 434.515 341.96 433.82 346.023C433.778 346.28 432.943 349.135 432.462 350.696C433.596 349.594 434.719 348.504 435.906 347.424C439.317 344.334 442.878 341.297 446.407 338.271C447.487 337.341 448.557 336.4 449.626 335.469C449.102 335.117 442.932 330.872 441.135 327.91C439.542 325.279 438.258 321.473 439.467 318.458C440.654 315.496 444.054 313.87 446.995 315.41C451.08 317.549 452.118 325.803 451.423 329.867C451.369 330.177 450.171 334.283 449.818 335.309C452.182 333.245 454.513 331.171 456.727 329.033C459.785 326.081 462.63 323.023 465.164 319.848C464.918 319.677 458.459 315.282 456.62 312.245C455.026 309.615 453.743 305.808 454.951 302.793C456.139 299.831 459.539 298.206 462.48 299.745C466.565 301.884 467.602 310.139 466.907 314.202C466.854 314.523 465.56 318.939 465.271 319.719C465.421 319.527 465.603 319.356 465.742 319.163C468.404 315.742 470.554 312.095 472.404 308.588C473.484 306.546 474.393 304.536 475.238 302.568C473.955 301.873 468.094 298.633 466.148 296.078C464.277 293.629 462.576 289.994 463.453 286.861C464.309 283.792 467.506 281.793 470.607 283.001C474.906 284.68 476.842 292.774 476.596 296.88C476.585 297.104 476.19 299.361 475.89 301.007C476.254 300.109 476.66 299.189 476.992 298.323C478.264 295.073 479.216 292.015 480.05 289.31C480.51 287.759 480.895 286.358 481.237 285.033C480.328 283.685 476.735 278.232 476.19 275.131C475.655 272.105 475.826 268.095 478.04 265.711C480.211 263.38 483.975 263.081 486.167 265.583C489.215 269.047 487.204 277.131 485.087 280.659C484.905 280.969 481.494 285.417 481.451 285.343C481.451 285.343 481.408 285.278 481.398 285.257C481.087 286.529 480.745 287.898 480.339 289.384C479.569 292.122 478.671 295.201 477.473 298.494C476.275 301.788 474.896 305.327 473.088 308.93C471.292 312.545 469.217 316.244 466.576 319.783C466.544 319.826 466.512 319.858 466.48 319.901C467.57 319.099 470.704 316.982 470.96 316.843C474.607 314.929 482.777 313.368 486.082 316.597C488.456 318.928 487.953 322.66 485.504 324.702C483.002 326.787 478.991 326.723 475.997 326.028L475.933 326.017Z" fill="black"/>
<path d="M410.197 276.949C410.112 276.96 410.796 271.399 410.871 271.057C411.834 267.048 416.047 259.873 420.645 259.52C423.961 259.263 426.442 262.108 426.356 265.294C426.281 268.545 423.586 271.528 421.095 273.324C418.164 275.431 410.197 276.949 410.197 276.949Z" fill="black"/>
</g>
<path d="M208.628 0.534668L221.995 127.552" stroke="#263238" stroke-linecap="round" stroke-linejoin="round"/>
<path d="M248.719 27.5334L238.763 29.811L229.631 47.8601L215.194 43.722L214.777 47.6676L232.742 55.1203L239.17 46.2027V61.7497L258.461 62.5838L262.407 44.9517L269.465 51.1748V67.5665H273.615L276.096 47.026L265.102 29.1908L248.719 27.5334Z" fill="white" stroke="#263238" stroke-linecap="round" stroke-linejoin="round"/>
<path d="M239.169 46.2026L239.02 37.4133" stroke="#263238" stroke-linecap="round" stroke-linejoin="round"/>
<path d="M248.602 33.3395L251.307 38.4185C251.307 38.4185 258.761 40.7922 260.119 41.1237C261.477 41.4659 265.541 40.1079 268.931 39.4343C272.321 38.7606 283.164 44.1818 283.164 44.1818L292.65 44.5239L287.57 38.4292L269.273 35.7239L259.787 38.7713L253.35 37.0819L254.708 34.3767L251.66 29.6292L248.612 33.3502L248.602 33.3395Z" fill="#E8A73F"/>
<path d="M249.543 26.0793C249.543 26.0793 247.468 25.6623 247.051 27.7367C246.634 29.811 246.217 34.9969 246.217 34.9969L251.2 33.5427L257.007 36.0341C257.007 36.0341 258.878 30.645 257.841 28.7738C256.804 26.9026 252.034 24.422 249.543 26.0793Z" fill="white" stroke="#263238" stroke-linecap="round" stroke-linejoin="round"/>
<path d="M248.505 23.1709C248.505 23.1709 249.126 28.977 249.339 31.0513C249.543 33.1257 250.794 36.2372 251.617 35.6171C252.451 34.9969 255.349 29.1908 255.349 29.1908L256.804 25.2453L248.505 23.1709Z" fill="white" stroke="#263238" stroke-linecap="round" stroke-linejoin="round"/>
<path d="M248.516 14.7023C248.516 14.7023 246.698 14.542 246.698 17.5038C246.698 20.4657 248.013 20.6367 248.013 20.6367L248.505 14.6917L248.516 14.7023Z" fill="white" stroke="#263238" stroke-linecap="round" stroke-linejoin="round"/>
<path d="M260.728 17.1723C260.728 17.1723 262.546 17.3327 262.215 19.1504C261.883 20.9682 258.75 23.4382 258.75 23.4382L260.728 17.1616V17.1723Z" fill="white" stroke="#263238" stroke-linecap="round" stroke-linejoin="round"/>
<path d="M254.729 8.6503C254.729 8.6503 251.414 7.81628 249.543 11.7618C247.671 15.7074 248.088 20.4763 248.505 23.1708C248.922 25.8654 251.414 27.1164 253.895 27.1164C256.376 27.1164 260.119 21.9305 260.953 17.9849C261.787 14.0394 261.156 8.6503 254.729 8.6503Z" fill="white" stroke="#263238" stroke-linecap="round" stroke-linejoin="round"/>
<path d="M211.173 41.4232L211.996 47.6463L215.728 48.0633L215.108 41.0168L211.173 41.4232Z" fill="white" stroke="#263238" stroke-linecap="round" stroke-linejoin="round"/>
<path d="M215.183 41.3269L216.691 41.1238L216.99 44.4385L215.482 44.6416L215.183 41.3269Z" fill="white" stroke="#263238" stroke-linecap="round" stroke-linejoin="round"/>
<path d="M269.465 67.5667L267.188 71.1166L267.776 74.6772L269.765 74.4741L273.123 73.2872L273.615 67.5667H269.465Z" fill="white" stroke="#263238" stroke-linecap="round" stroke-linejoin="round"/>
<path d="M239.169 61.7498L237.704 68.1439L221.471 89.5184L232.357 120.185L235.127 119.586L232.753 90.3097L246.014 76.2596L247.596 77.2433L247.639 92.9187L262.835 118.602L266.001 117.811L258.878 93.0791L259.274 66.7646L258.461 62.5838L239.169 61.7498Z" fill="#252541" stroke="#263238" stroke-linecap="round" stroke-linejoin="round"/>
<path d="M232.358 120.185L229.983 123.553C229.983 123.553 226.219 125.339 225.631 126.322C225.032 127.317 228.796 127.114 228.796 127.114L233.149 126.718L237.704 123.745L235.127 119.586L232.358 120.185Z" fill="white" stroke="#263238" stroke-linecap="round" stroke-linejoin="round"/>
<path d="M209.194 5.06836C209.194 5.06836 207.216 9.60202 199.003 12.7136C190.79 15.8251 178.899 17.5252 175.787 24.037C172.675 30.5488 172.675 29.9821 172.108 33.6604C171.541 37.3386 169.274 39.3274 169.274 39.3274C169.274 39.3274 172.108 39.6054 173.52 37.6273C174.931 35.6492 175.498 29.9821 177.765 29.1374C180.032 28.2927 184.278 26.8706 184.278 26.8706C184.278 26.8706 180.31 30.2708 180.032 31.9709C179.754 33.671 179.465 37.638 178.899 40.1828C178.332 42.7277 176.92 43.8611 176.92 43.8611C176.92 43.8611 180.599 43.8611 181.732 41.3163C182.866 38.7714 181.732 35.3712 185.411 32.8263C189.09 30.2815 193.057 31.4149 199.292 31.6929C205.526 31.9709 211.472 28.2927 211.472 28.2927L209.205 5.07905L209.194 5.06836Z" fill="#E8A73F"/>
<path d="M262.835 118.602L260.108 127.659L266.888 127.402L266.001 117.811L262.835 118.602Z" fill="white" stroke="#263238" stroke-linecap="round" stroke-linejoin="round"/>
<path d="M252.462 16.6485C252.344 17.1831 251.97 17.5573 251.607 17.4825C251.254 17.4076 251.05 16.9158 251.168 16.3811C251.286 15.8465 251.66 15.4723 252.024 15.5471C252.377 15.622 252.58 16.1138 252.462 16.6485Z" fill="#252541"/>
<path d="M257.413 17.8032C257.296 18.3379 256.921 18.7121 256.558 18.6373C256.205 18.5624 256.002 18.0706 256.119 17.5359C256.237 17.0013 256.611 16.6271 256.975 16.7019C257.328 16.7768 257.531 17.2686 257.413 17.8032Z" fill="#252541"/>
<path d="M254.13 17.3435L252.804 21.2998H254.954" stroke="#263238" stroke-linecap="round" stroke-linejoin="round"/>
<path d="M251.157 22.4546C251.157 22.4546 252.312 24.4327 255.285 23.2779" stroke="#263238" stroke-linecap="round" stroke-linejoin="round"/>
<path d="M250.986 13.8683C250.986 13.8683 252.302 13.0449 253.628 14.3601" stroke="#263238" stroke-linecap="round" stroke-linejoin="round"/>
<path d="M256.109 15.0338C256.109 15.0338 258.087 13.879 259.413 16.1886" stroke="#263238" stroke-linecap="round" stroke-linejoin="round"/>
<path d="M247.853 13.3765L259.734 11.8902C259.734 11.8902 259.242 13.8683 259.894 14.3709C260.557 14.8627 260.718 17.1723 260.718 17.1723L260.226 19.8134L262.867 15.1942C262.867 15.1942 263.691 11.5587 263.028 10.4039C262.365 9.24911 261.049 9.08872 261.049 9.08872C261.049 9.08872 259.071 5.62432 254.451 6.11618C249.831 6.60804 247.853 8.91764 247.853 10.7354V13.3765Z" fill="#252541" stroke="#263238" stroke-linecap="round" stroke-linejoin="round"/>
<path d="M239.084 462.284L260.044 342.024L180.93 269.432L209.644 171.616L178.909 172.301L165.938 183.913L138.796 183.25L135.128 196.487L127.685 195.546L125.119 200.198L112.425 225.528L105.827 250.848L81.231 281.579L78.5362 354.128L38.8831 411.344L26.414 462.284H239.084Z" fill="#808080" stroke="#263238" stroke-linecap="round" stroke-linejoin="round"/>
<path d="M417.598 462.284L391.344 404.725L434.098 433.221V387.617L408.968 357.838L412.689 324.338L374.523 251.746L372.662 226.619L359.626 214.515L292.735 219.369L287.966 195.899L245.147 171.702L219.461 233.836L195.816 244.294L212.478 267.133L209.783 285.236L215.365 313.154L122.285 333.63C122.285 333.63 121.355 378.304 121.355 382.025C121.355 385.746 102.737 407.153 102.737 407.153L101.86 462.273H417.598V462.284Z" fill="#ABABAB" stroke="#263238" stroke-linecap="round" stroke-linejoin="round"/>
<path d="M469.41 462.284L458.299 457.429L444.332 427.64L427.586 415.546L420.132 397.861L412.689 383.907L372.908 364.468L379.078 462.284H469.41Z" fill="#CCCCCC" stroke="#263238" stroke-linecap="round" stroke-linejoin="round"/>
<path d="M219.429 169.371L197.602 193.215L196.854 149.482L218.573 123.115L219.429 169.371Z" fill="#CCCCCC" stroke="#263238" stroke-linecap="round" stroke-linejoin="round"/>
<path d="M204.275 264.866L226.583 245.181C228.016 243.919 229.759 242.754 231.887 241.717C234.004 240.68 236.496 239.781 239.415 239.044C242.324 238.306 245.661 237.739 249.468 237.365C253.264 237.001 257.542 236.83 262.333 236.894C273.604 237.055 283.902 238.081 293.238 239.621C302.563 241.161 310.936 243.214 318.369 245.427C325.79 247.64 332.292 250.014 337.864 252.206C343.435 254.398 348.076 256.408 351.819 257.884L322.807 276.649C319.267 275.259 314.872 273.367 309.6 271.303C304.328 269.239 298.179 267.005 291.153 264.92C284.116 262.835 276.192 260.91 267.369 259.477C258.536 258.034 248.783 257.082 238.122 256.954C233.587 256.9 229.545 257.061 225.952 257.424C222.348 257.777 219.193 258.322 216.445 259.028C213.686 259.734 211.323 260.589 209.323 261.573C207.312 262.557 205.655 263.658 204.307 264.855L204.275 264.866Z" fill="#CCCCCC" stroke="#263238" stroke-linecap="round" stroke-linejoin="round"/>
<path d="M275.294 425.843L250.12 435.445C252.462 434.558 254.569 433.51 256.408 432.323C258.247 431.125 259.82 429.778 261.103 428.249C262.375 426.731 263.359 425.041 264.001 423.17C264.653 421.299 264.963 419.257 264.921 417.022C264.846 413.258 263.819 409.901 261.68 406.832C259.541 403.763 256.301 400.983 251.778 398.353C247.254 395.722 241.437 393.252 234.175 390.814C226.904 388.366 218.177 385.949 207.826 383.436C193.196 379.908 179.305 375.588 166.665 370.22C154.014 364.853 142.625 358.437 133.054 350.749C123.472 343.051 115.719 334.079 110.308 323.59C104.907 313.101 101.86 301.125 101.699 287.417C101.635 282.188 101.988 277.099 102.736 272.169C103.485 267.24 104.629 262.471 106.159 257.884C107.688 253.297 109.602 248.892 111.901 244.679C114.19 240.476 116.863 236.467 119.9 232.671L137.299 210.933C134.091 214.943 131.268 219.177 128.84 223.625C126.413 228.073 124.392 232.735 122.777 237.589C121.162 242.444 119.954 247.491 119.173 252.709C118.392 257.927 118.029 263.316 118.093 268.855C118.275 283.375 121.504 296.067 127.236 307.188C132.968 318.308 141.192 327.824 151.34 335.993C161.478 344.152 173.53 350.963 186.93 356.673C200.297 362.372 215.001 366.97 230.486 370.723C241.447 373.396 250.676 375.973 258.365 378.571C266.043 381.17 272.192 383.789 276.983 386.58C281.774 389.371 285.207 392.322 287.463 395.573C289.72 398.823 290.81 402.373 290.896 406.361C290.949 408.735 290.618 410.895 289.934 412.873C289.249 414.851 288.223 416.637 286.875 418.252C285.528 419.866 283.87 421.288 281.924 422.561C279.978 423.822 277.753 424.924 275.283 425.865L275.294 425.843Z" fill="#CCCCCC" stroke="#263238" stroke-linecap="round" stroke-linejoin="round"/>
<path d="M151.351 335.983C161.489 344.141 173.541 350.952 186.94 356.662C200.308 362.361 215.012 366.959 230.497 370.712C241.458 373.385 250.687 375.962 258.376 378.561C266.054 381.159 272.203 383.779 276.994 386.569C281.785 389.36 285.218 392.311 287.474 395.562C289.73 398.812 290.821 402.362 290.907 406.351C291.003 410.735 289.784 414.434 287.463 417.514C285.143 420.593 281.721 423.052 277.411 424.977C273.101 426.891 267.904 428.27 262.055 429.169C256.194 430.067 249.66 430.505 242.688 430.537C232.411 430.58 222.295 429.757 212.478 428.281C202.639 426.806 193.111 424.699 184.032 422.176C174.931 419.652 166.28 416.712 158.227 413.611C150.153 410.499 142.678 407.217 135.93 403.988L122.264 462.091H367.892C375.72 453.302 381.634 443.497 385.548 432.954C389.708 421.748 391.643 409.708 391.301 397.208C390.938 384.196 388.959 372.605 385.077 362.233C381.195 351.861 375.41 342.698 367.432 334.507C359.444 326.317 349.263 319.11 336.57 312.673C323.855 306.225 308.616 300.526 290.543 295.394C278.94 292.015 268.813 288.796 260.14 285.674C251.457 282.552 244.249 279.515 238.474 276.5C232.7 273.474 228.379 270.469 225.481 267.39C222.583 264.31 221.118 261.167 221.065 257.884C221.011 255.254 221.492 252.602 222.754 250.1C224.016 247.608 226.059 245.267 229.16 243.278C232.251 241.289 236.4 239.642 241.843 238.52C247.286 237.397 254.034 236.809 262.343 236.927C273.615 237.087 283.913 238.113 293.249 239.653C302.574 241.193 310.947 243.246 318.379 245.459C325.801 247.673 332.303 250.046 337.874 252.238C343.446 254.43 348.087 256.44 351.83 257.916L367.743 186.308C362.748 184.159 357.359 182.02 351.477 179.999C345.585 177.978 339.168 176.064 332.121 174.343C325.063 172.621 317.363 171.092 308.894 169.841C300.414 168.59 291.153 167.628 280.993 167.029L280.063 124.665L218.584 123.125L219.429 169.381C203.174 171.787 188.684 175.968 176.107 181.689C163.489 187.43 152.795 194.712 144.165 203.309C135.503 211.927 128.915 221.861 124.531 232.853C120.135 243.877 117.954 255.959 118.114 268.855C118.296 283.375 121.526 296.067 127.258 307.188C132.99 318.308 141.213 327.824 151.362 335.993L151.351 335.983Z" fill="white" stroke="#263238" stroke-linecap="round" stroke-linejoin="round"/>
<path d="M122.253 462.08L135.92 403.977L118.414 414.937L107.271 462.08H122.253Z" fill="#CCCCCC" stroke="#263238" stroke-linecap="round" stroke-linejoin="round"/>
<path d="M53.0312 462.177H102.769L103.667 433.232L99.015 416.477V371.803L87.8506 369.942L78.5362 380.186L63.6502 388.558L31.3867 462.284H53.0312V462.177Z" fill="#CCCCCC" stroke="#263238" stroke-linecap="round" stroke-linejoin="round"/>
<path d="M70.2377 413.707L71.3284 409.077" stroke="#263238" stroke-miterlimit="10"/>
<path d="M53.0311 462.284L59.6614 436.108L65.9173 432.12L69.5746 416.53" stroke="#263238" stroke-miterlimit="10"/>
<path d="M42.2944 462.572L52.8279 432.687" stroke="#263238" stroke-miterlimit="10"/>
<path d="M88.0002 382.303L86.9736 387.168" stroke="#263238" stroke-miterlimit="10"/>
<path d="M90.3957 370.948L88.4387 380.229" stroke="#263238" stroke-miterlimit="10"/>
<path d="M102.769 462.177L103.667 433.232L99.015 416.477V371.803L89.7113 431.371L81.338 434.162L78.5362 450.907L76.8038 462.177H102.769Z" fill="white" stroke="#263238" stroke-linecap="round" stroke-linejoin="round"/>
<path d="M262.055 429.158C267.915 428.26 273.101 426.88 277.411 424.966C281.721 423.052 285.143 420.582 287.463 417.503C287.773 417.086 288.062 416.648 288.34 416.209L280.993 383.062L266.535 370.413L264.129 359.571L250.27 348.728L245.447 365.601L237.619 376.443L237.02 416.209L244.495 430.516C250.794 430.42 256.718 430.003 262.076 429.169L262.055 429.158Z" fill="white" stroke="#263238" stroke-linecap="round" stroke-linejoin="round"/>
<path d="M262.055 429.158L260.579 416.776L264.931 405.046V398.096L264.065 387.232" stroke="#263238" stroke-miterlimit="10"/>
<path d="M270.877 391.531L273.187 404.618L277.529 405.484L276.662 416.348L278.395 421.994" stroke="#263238" stroke-miterlimit="10"/>
<path d="M269.273 382.453L270.043 386.815" stroke="#263238" stroke-miterlimit="10"/>
<path d="M254.932 354.652L258.408 390.28" stroke="#263238" stroke-miterlimit="10"/>
<path d="M212.478 428.27C222.295 429.735 232.411 430.569 242.688 430.527C244.72 430.527 246.709 430.473 248.666 430.388L248.452 419.214L244.837 414.391V380.047L250.858 374.027L250.259 348.718L243.03 361.976L233.384 370.413L227.363 387.885L217.718 399.336L215.311 411.387L203.858 421.032L199.303 425.897C203.623 426.806 208.007 427.618 212.467 428.292L212.478 428.27Z" fill="#CCCCCC" stroke="#263238" stroke-linecap="round" stroke-linejoin="round"/>
<path d="M386.628 462.284L437.157 462.198L371.732 422.988L355.915 384.837L342.879 382.977L331.715 368.082L326.122 373.663L329.854 406.244L315.888 429.511V444.395L309.375 461.15L340.869 462.284H386.628Z" fill="white" stroke="#263238" stroke-linecap="round" stroke-linejoin="round"/>
<path d="M361.283 462.23L358.899 448.907L362.652 441.059L361.626 425.683L364.706 428.762L385.537 462.23H361.283Z" fill="#CCCCCC" stroke="#263238" stroke-linecap="round" stroke-linejoin="round"/>
<path d="M361.626 425.683L376.319 432.858L382.126 440.032L398.862 448.565L410.465 455.74L417.598 462.284L385.537 462.23L361.626 425.683Z" fill="white" stroke="#263238" stroke-linecap="round" stroke-linejoin="round"/>
<path d="M315.888 429.511V444.395L308.873 461.984L335.447 462.326L329.854 430.441L341.019 420.198L326.122 373.663L329.854 406.244L315.888 429.511Z" fill="#CCCCCC" stroke="#263238" stroke-linecap="round" stroke-linejoin="round"/>
<path d="M342.879 382.977L352.707 403.742L357.059 404.18L360.535 414.605" stroke="#263238" stroke-miterlimit="10"/>
<path d="M349.477 445.817L350.975 450.671" stroke="#263238" stroke-miterlimit="10"/>
<path d="M343.585 408.094L346.622 419.823L351.841 428.516L345.756 433.724L348.387 442.278" stroke="#263238" stroke-miterlimit="10"/>
<path d="M417.694 448.062C416.764 447.784 415.641 448.095 414.571 448.661L419.362 451.538C419.833 450.126 419.191 448.512 417.683 448.062H417.694Z" fill="#252541"/>
<path d="M419.052 410.2C419.052 410.2 419.694 407.516 419.704 407.345C419.918 405.314 419.138 401.272 417.052 400.352C415.544 399.689 413.919 400.598 413.438 402.106C412.935 403.635 413.694 405.474 414.571 406.725C415.587 408.19 419.052 410.211 419.052 410.211V410.2Z" fill="#252541"/>
<path d="M450.76 426.645C452.053 425.073 453.636 421.267 452.406 419.353C451.519 417.974 449.658 417.835 448.428 418.818C447.166 419.823 446.792 421.769 446.824 423.288C446.867 425.073 448.642 428.666 448.642 428.666C448.664 428.698 450.653 426.784 450.77 426.645H450.76Z" fill="#252541"/>
<path d="M406.701 441.519C407.834 442.46 410.636 443.326 411.588 443.604C411.449 444.395 411.31 445.186 411.138 445.945C411.085 446.138 411.053 446.33 411.01 446.523L412.015 447.122C412.08 446.811 412.144 446.491 412.219 446.181C412.475 444.94 412.668 443.668 412.839 442.374C413.673 442.652 416.646 443.572 418.175 443.411C419.694 443.251 421.576 442.631 422.41 441.251C423.223 439.904 422.859 438.076 421.373 437.37C419.309 436.397 415.737 438.439 414.347 439.925C414.261 440.022 413.374 441.198 412.903 441.85C412.999 441.08 413.095 440.3 413.17 439.519C413.374 437.252 413.513 434.943 413.662 432.644C413.705 431.938 413.759 431.243 413.812 430.537C414.111 430.634 417.619 431.81 419.33 431.639C420.849 431.478 422.731 430.858 423.565 429.479C424.378 428.132 424.014 426.303 422.528 425.597C420.464 424.624 416.892 426.667 415.502 428.153C415.395 428.26 414.133 429.96 413.833 430.409C413.94 428.859 414.069 427.319 414.25 425.811C414.507 423.726 414.871 421.684 415.363 419.749C415.502 419.791 419.159 421.042 420.913 420.861C422.431 420.7 424.313 420.08 425.148 418.701C425.96 417.353 425.597 415.525 424.11 414.819C422.046 413.846 418.475 415.888 417.084 417.375C416.977 417.492 415.609 419.321 415.395 419.663C415.427 419.545 415.437 419.428 415.47 419.31C416.026 417.236 416.828 415.3 417.662 413.525C418.143 412.488 418.667 411.537 419.191 410.606C419.854 410.906 422.87 412.253 424.463 412.264C425.982 412.264 427.928 411.868 428.912 410.585C429.874 409.334 429.703 407.473 428.302 406.607C426.356 405.41 422.581 407.056 421.041 408.372C420.956 408.446 420.186 409.27 419.619 409.879C419.865 409.462 420.111 409.035 420.346 408.65C421.255 407.185 422.175 405.891 422.998 404.758C423.469 404.116 423.918 403.549 424.335 403.015C425.137 402.972 428.356 402.769 429.746 402.063C431.104 401.368 432.633 400.106 432.911 398.524C433.189 396.973 432.184 395.402 430.548 395.273C428.27 395.102 425.682 398.299 424.912 400.192C424.848 400.352 424.1 403.025 424.142 403.025H424.185C423.768 403.528 423.34 404.073 422.87 404.672C422.014 405.795 421.073 407.067 420.121 408.521C419.18 409.975 418.186 411.579 417.309 413.354C416.421 415.14 415.576 417.065 414.956 419.16C414.956 419.182 414.946 419.214 414.935 419.235C414.935 418.562 414.828 416.701 414.807 416.551C414.475 414.541 412.657 410.852 410.401 410.51C408.775 410.264 407.449 411.579 407.374 413.151C407.299 414.766 408.519 416.327 409.684 417.3C410.999 418.401 414.593 419.385 414.881 419.471C414.315 421.47 413.898 423.566 413.587 425.715C413.406 426.945 413.267 428.185 413.149 429.436C413.117 428.859 413.095 428.345 413.085 428.271C412.753 426.26 410.935 422.571 408.679 422.229C407.053 421.983 405.727 423.298 405.653 424.87C405.578 426.474 406.797 428.046 407.962 429.019C409.149 430.013 412.187 430.912 412.999 431.136C412.956 431.617 412.903 432.088 412.871 432.569C412.678 434.868 412.486 437.156 412.24 439.402C412.154 440.193 412.037 440.973 411.919 441.743C411.898 441.23 411.866 440.802 411.855 440.727C411.523 438.717 409.706 435.028 407.449 434.686C405.824 434.44 404.498 435.755 404.423 437.327C404.348 438.942 405.567 440.503 406.733 441.476L406.701 441.519Z" fill="#252541"/>
<path d="M466.415 422.561C464.608 421.16 460.683 422.4 459.005 423.555C458.855 423.651 456.77 425.469 456.802 425.491C456.802 425.491 456.834 425.512 456.844 425.512C456.224 425.704 455.561 425.918 454.834 426.164C453.508 426.624 452.011 427.169 450.428 427.864C448.835 428.549 447.134 429.351 445.413 430.345C443.68 431.339 441.916 432.483 440.247 433.895C440.226 433.906 440.215 433.927 440.194 433.948C440.558 433.382 441.509 431.778 441.563 431.639C442.397 429.778 442.921 425.694 441.221 424.165C440.001 423.063 438.173 423.427 437.232 424.699C436.28 426.004 436.43 427.982 436.868 429.436C437.36 431.083 439.809 433.884 440.001 434.109C438.429 435.467 436.922 436.985 435.478 438.6C434.654 439.53 433.852 440.482 433.061 441.455C433.361 440.952 433.617 440.514 433.649 440.449C434.483 438.589 435.007 434.504 433.307 432.975C432.088 431.874 430.259 432.238 429.318 433.51C428.366 434.804 428.516 436.793 428.955 438.247C429.393 439.722 431.436 442.16 431.981 442.791C431.682 443.165 431.382 443.54 431.083 443.914C429.65 445.721 428.227 447.528 426.784 449.271C426.27 449.88 425.746 450.468 425.222 451.046C425.479 450.607 425.704 450.233 425.725 450.169C426.559 448.309 427.083 444.224 425.383 442.695C424.164 441.594 422.335 441.957 421.394 443.23C420.442 444.523 420.592 446.512 421.03 447.966C421.447 449.378 423.319 451.645 423.961 452.404C423.576 452.81 423.191 453.206 422.806 453.601L423.757 454.168C424.41 453.484 425.041 452.789 425.672 452.072C426.217 452.757 428.185 455.173 429.543 455.879C430.89 456.585 432.804 457.109 434.259 456.413C435.681 455.74 436.387 454.008 435.531 452.607C434.355 450.65 430.238 450.394 428.26 450.864C428.131 450.896 426.752 451.388 425.992 451.677C426.495 451.089 427.008 450.49 427.5 449.88C428.923 448.095 430.313 446.256 431.703 444.416C432.131 443.85 432.558 443.294 432.986 442.738C433.179 442.984 435.457 445.903 436.975 446.694C438.322 447.4 440.237 447.924 441.691 447.229C443.113 446.555 443.819 444.823 442.964 443.422C441.787 441.465 437.67 441.209 435.692 441.679C435.542 441.711 433.553 442.428 433.05 442.641C433.991 441.412 434.954 440.193 435.938 439.038C437.296 437.434 438.729 435.937 440.215 434.59C440.301 434.708 442.675 437.766 444.226 438.578C445.573 439.284 447.487 439.808 448.942 439.113C450.364 438.439 451.07 436.707 450.214 435.306C449.038 433.35 444.921 433.093 442.942 433.563C442.782 433.596 440.643 434.376 440.269 434.536C440.354 434.462 440.44 434.365 440.525 434.291C442.13 432.868 443.873 431.703 445.541 430.676C446.514 430.078 447.476 429.575 448.428 429.094C448.813 429.714 450.588 432.494 451.914 433.382C453.176 434.226 455.026 434.953 456.545 434.43C458.031 433.916 458.919 432.27 458.235 430.783C457.272 428.709 453.219 428.003 451.198 428.249C451.091 428.26 449.99 428.527 449.188 428.72C449.615 428.506 450.064 428.281 450.481 428.099C452.043 427.372 453.529 426.806 454.845 426.314C455.593 426.036 456.278 425.811 456.919 425.597C457.614 426.004 460.416 427.608 461.967 427.789C463.475 427.96 465.453 427.757 466.565 426.592C467.656 425.448 467.677 423.587 466.383 422.582L466.415 422.561Z" fill="#252541"/>
<path d="M411.887 462.241L413.128 463C413.374 462.818 413.63 462.647 413.887 462.455C413.983 462.391 414.079 462.305 414.176 462.241H411.887Z" fill="#252541"/>
<path d="M57.5868 391.456C56.1859 392.311 56.0041 394.161 56.9558 395.423C57.6402 396.332 58.7952 396.802 59.9608 397.005L62.26 391.755C60.6345 391.082 58.7845 390.74 57.5975 391.456H57.5868Z" fill="#252541"/>
<path d="M68.2272 384.613C67.5321 385.051 67.0616 385.853 66.7621 386.804L70.7831 384.538C70.0024 384.131 69.0506 384.089 68.2272 384.602V384.613Z" fill="#252541"/>
<path d="M68.9544 346.387C70.3232 347.541 74.1837 348.589 74.1944 348.589C74.2372 348.6 74.1196 345.831 74.0875 345.66C73.7667 343.649 71.9701 339.95 69.7137 339.597C68.0882 339.34 66.7515 340.645 66.6766 342.227C66.591 343.831 67.7995 345.414 68.9651 346.387H68.9544Z" fill="#252541"/>
<path d="M40.7545 358.523C40.7545 358.523 39.1611 356.266 39.0435 356.138C37.664 354.63 34.1243 352.545 32.0497 353.497C30.5525 354.181 30.1675 356.01 30.9589 357.368C31.7716 358.758 33.6537 359.399 35.1616 359.581C36.9368 359.784 40.7438 358.533 40.7438 358.533L40.7545 358.523Z" fill="#252541"/>
<path d="M38.744 349.99C38.744 349.99 38.7654 349.958 38.7761 349.947C38.8831 350.589 39.0007 351.273 39.1397 352.022C39.4178 353.401 39.7386 354.951 40.2091 356.619C40.669 358.287 41.225 360.084 41.9736 361.934C42.7222 363.783 43.5991 365.687 44.7647 367.536C44.7754 367.558 44.7968 367.579 44.8075 367.601C44.3049 367.162 42.8398 365.997 42.7115 365.922C40.9898 364.842 37.0116 363.751 35.2685 365.216C34.0066 366.275 34.1136 368.135 35.2471 369.237C36.4021 370.359 38.3805 370.488 39.8883 370.252C41.5886 369.996 44.7006 367.964 44.9465 367.793C46.0694 369.547 47.3633 371.247 48.7749 372.904C49.577 373.845 50.4111 374.775 51.2666 375.695C50.8175 375.331 50.4111 375.011 50.347 374.979C48.6252 373.888 44.6471 372.808 42.904 374.273C41.6421 375.331 41.749 377.192 42.8826 378.293C44.0375 379.416 46.0159 379.544 47.5238 379.309C49.053 379.074 51.7479 377.395 52.4537 376.946C52.7852 377.299 53.106 377.652 53.4375 377.994C55.0309 379.662 56.6243 381.319 58.1428 382.998C58.6775 383.586 59.1801 384.185 59.6934 384.784C59.2871 384.463 58.9556 384.196 58.8914 384.163C57.1697 383.083 53.1915 381.993 51.4484 383.458C50.1865 384.516 50.2935 386.377 51.427 387.478C52.582 388.601 54.5604 388.729 56.0682 388.494C57.5226 388.269 60.025 386.74 60.8698 386.206C61.3724 386.837 61.875 387.467 62.3348 388.098C62.6343 388.537 62.9551 388.943 63.2331 389.392C63.2438 389.414 63.2652 389.435 63.2759 389.456L63.6823 388.526L63.9175 388.398C63.693 388.088 63.447 387.767 63.2224 387.457C62.4525 386.441 61.629 385.457 60.7842 384.474C61.5435 384.024 64.2063 382.41 65.0939 381.17C65.9815 379.929 66.7621 378.111 66.2809 376.572C65.8104 375.064 64.1956 374.134 62.6877 374.775C60.5917 375.674 59.7576 379.705 59.9501 381.736C59.9608 381.865 60.2602 383.308 60.442 384.089C59.9287 383.5 59.4154 382.923 58.87 382.346C57.3087 380.688 55.6725 379.063 54.0471 377.427C53.5444 376.925 53.0632 376.422 52.5606 375.919C52.8279 375.759 56.0361 373.909 57.0413 372.519C57.9289 371.279 58.7096 369.461 58.2284 367.921C57.7578 366.414 56.1431 365.483 54.6352 366.125C52.5392 367.023 51.7051 371.054 51.8976 373.086C51.9083 373.236 52.3467 375.31 52.4857 375.834C51.4057 374.722 50.3256 373.61 49.3203 372.476C47.9194 370.905 46.6362 369.29 45.5133 367.622C45.6416 367.547 48.9995 365.633 50.0154 364.2C50.903 362.96 51.6837 361.142 51.2025 359.603C50.7319 358.095 49.1172 357.165 47.6093 357.806C45.5133 358.704 44.6792 362.736 44.8717 364.767C44.8824 364.927 45.3529 367.152 45.4705 367.558C45.4064 367.462 45.3208 367.365 45.2566 367.269C44.0803 365.483 43.1499 363.602 42.38 361.795C41.9308 360.747 41.5566 359.72 41.2143 358.715C41.8774 358.426 44.8931 357.047 45.9518 355.86C46.9677 354.727 47.9408 352.995 47.6414 351.423C47.342 349.872 45.8341 348.771 44.2621 349.241C42.0806 349.904 40.808 353.818 40.7759 355.86C40.7759 355.967 40.8828 357.1 40.9684 357.924C40.8187 357.464 40.6583 356.994 40.5299 356.555C40.0273 354.908 39.6744 353.358 39.3643 351.989C39.1932 351.209 39.0649 350.503 38.9472 349.84C39.4498 349.209 41.4282 346.665 41.8132 345.146C42.1875 343.671 42.2624 341.692 41.2571 340.431C40.2733 339.201 38.4339 338.902 37.2576 340.056C35.6214 341.65 36.3058 345.713 37.2148 347.531C37.2897 347.691 38.8082 350.011 38.8296 349.979L38.744 349.99Z" fill="#252541"/>
<path d="M66.976 357.902C68.5373 358.619 72.2588 358.64 72.5582 358.651C72.5261 360.725 72.6651 362.864 72.9325 365.024C73.0822 366.253 73.264 367.494 73.4672 368.723C73.2854 368.167 73.125 367.686 73.0929 367.611C72.2481 365.751 69.5425 362.661 67.2754 362.917C65.6392 363.099 64.6982 364.714 65.0404 366.253C65.3826 367.825 66.9653 369.023 68.3448 369.664C69.7457 370.317 72.9218 370.391 73.7559 370.402C73.8415 370.873 73.9163 371.354 74.0019 371.824C74.4083 374.091 74.8253 376.358 75.1675 378.593C75.2852 379.384 75.3814 380.154 75.467 380.934C75.3065 380.442 75.1675 380.036 75.1461 379.972C74.3013 378.111 71.5958 375.021 69.3286 375.278C67.6925 375.46 66.7514 377.074 67.0936 378.614C67.4358 380.186 69.0185 381.383 70.398 382.025C71.2642 382.431 72.8042 382.613 74.0554 382.699L76.547 381.298V381.276C76.5577 381.276 76.5791 381.276 76.5898 381.276L78.5575 380.164L83.851 374.337C83.7334 374.294 83.6157 374.251 83.4767 374.23C81.231 373.824 78.3115 376.732 77.3491 378.518C77.2849 378.625 76.7395 379.993 76.4615 380.753C76.3546 379.983 76.2476 379.213 76.1086 378.432C75.7129 376.187 75.2531 373.92 74.7932 371.664C74.6542 370.969 74.5259 370.284 74.3869 369.589C74.697 369.611 78.3971 369.835 80.0012 369.215C81.4235 368.67 83.081 367.579 83.5302 366.029C83.9686 364.51 83.1345 362.842 81.5197 362.554C79.274 362.147 76.3546 365.045 75.3921 366.841C75.3172 366.98 74.5366 368.948 74.3655 369.45C74.0767 367.932 73.788 366.414 73.5741 364.895C73.2747 362.81 73.1036 360.757 73.0715 358.747C73.2212 358.747 77.0817 359.004 78.7179 358.384C80.1402 357.838 81.7978 356.748 82.2469 355.197C82.6854 353.679 81.8512 352.011 80.2364 351.722C77.9907 351.316 75.0713 354.214 74.1088 356.01C74.034 356.149 73.1892 358.266 73.0715 358.662C73.0715 358.544 73.0608 358.416 73.0608 358.298C73.0608 356.16 73.3282 354.075 73.6811 352.15C73.8843 351.027 74.1409 349.969 74.4083 348.942C75.1248 349.06 78.3971 349.573 79.9263 349.177C81.4021 348.792 83.1666 347.894 83.7868 346.397C84.3857 344.943 83.744 343.189 82.172 342.719C79.9798 342.067 76.7716 344.633 75.6167 346.312C75.5525 346.408 75.0178 347.402 74.6435 348.14C74.7719 347.68 74.9002 347.199 75.0285 346.761C75.5204 345.103 76.0765 343.628 76.5791 342.313C76.8679 341.575 77.1459 340.901 77.4132 340.281C78.1725 340.035 81.231 338.998 82.3966 337.95C83.5302 336.934 84.6851 335.32 84.5354 333.705C84.3964 332.133 83.0169 330.872 81.4021 331.182C79.1564 331.609 77.4881 335.373 77.2422 337.394C77.2208 337.565 77.1994 340.345 77.2422 340.324C77.2422 340.324 77.2742 340.313 77.2849 340.313C77.0176 340.901 76.7395 341.543 76.4401 342.248C75.9054 343.553 75.3172 345.029 74.7932 346.675C74.2585 348.322 73.7238 350.129 73.3282 352.075C72.9325 354.032 72.6117 356.106 72.5689 358.287C72.5689 358.309 72.5689 358.341 72.5689 358.362C72.3871 357.721 71.8096 355.935 71.7562 355.807C70.9113 353.946 68.2058 350.856 65.928 351.113C64.2918 351.294 63.3507 352.909 63.693 354.449C64.0352 356.021 65.6179 357.218 66.9974 357.86L66.976 357.902Z" fill="#252541"/>
<path d="M222.07 381.629C220.434 381.811 219.493 383.426 219.835 384.965C220.177 386.537 221.76 387.735 223.139 388.376C223.92 388.74 225.246 388.922 226.412 389.018L227.363 387.884L227.898 386.334V386.323C227.053 384.463 224.348 381.373 222.081 381.629H222.07Z" fill="#252541"/>
<path d="M210.339 397.786C208.938 398.641 208.756 400.491 209.708 401.753C210.681 403.036 212.617 403.463 214.135 403.463C214.905 403.463 216.017 403.153 217.033 402.8L217.664 399.668C217.664 399.668 217.611 399.614 217.6 399.603C216.06 398.267 212.296 396.599 210.349 397.786H210.339Z" fill="#252541"/>
<path d="M220.979 390.942C219.236 392.022 218.894 395.455 219.204 397.572L224.326 391.488C223.482 390.568 222.123 390.226 220.979 390.942Z" fill="#252541"/>
<path d="M205.184 383.287C205.516 383.64 205.837 383.992 206.168 384.335C207.761 386.003 209.355 387.66 210.873 389.339C211.408 389.927 211.911 390.526 212.424 391.124C212.018 390.804 211.686 390.536 211.622 390.504C209.9 389.424 205.922 388.334 204.179 389.798C202.917 390.857 203.024 392.718 204.158 393.819C205.313 394.942 207.291 395.07 208.799 394.835C210.253 394.61 212.756 393.081 213.6 392.546C214.103 393.177 214.606 393.808 215.065 394.439C215.365 394.877 215.686 395.284 215.964 395.733C216.252 396.182 216.53 396.62 216.808 397.059C217.193 397.711 217.589 398.385 217.963 399.037L218.787 398.053C218.466 397.519 218.135 396.984 217.782 396.417C217.493 395.989 217.204 395.551 216.905 395.102C216.627 394.664 216.263 394.225 215.942 393.787C215.172 392.771 214.349 391.787 213.504 390.804C214.263 390.355 216.926 388.74 217.814 387.5C218.701 386.259 219.482 384.442 219.001 382.902C218.53 381.394 216.915 380.464 215.408 381.105C213.312 382.004 212.477 386.035 212.67 388.066C212.681 388.195 212.98 389.638 213.162 390.419C212.649 389.831 212.135 389.253 211.59 388.676C210.029 387.018 208.392 385.393 206.767 383.757C206.264 383.255 205.783 382.752 205.291 382.25C205.558 382.089 208.767 380.239 209.772 378.849C210.659 377.609 211.44 375.791 210.959 374.251C210.488 372.744 208.874 371.814 207.366 372.455C205.27 373.353 204.436 377.384 204.628 379.416C204.639 379.566 205.077 381.64 205.216 382.164C204.136 381.052 203.056 379.94 202.051 378.806C200.65 377.235 199.367 375.62 198.244 373.952C198.372 373.877 201.73 371.963 202.746 370.53C203.634 369.29 204.414 367.472 203.933 365.933C203.462 364.425 201.848 363.495 200.34 364.136C198.244 365.034 197.41 369.066 197.602 371.097C197.613 371.258 198.083 373.482 198.201 373.888C198.137 373.792 198.051 373.695 197.987 373.599C196.811 371.814 195.88 369.932 195.111 368.125C194.661 367.077 194.287 366.05 193.945 365.045C194.608 364.756 197.624 363.377 198.682 362.19C199.698 361.057 200.682 359.325 200.372 357.753C200.073 356.202 198.565 355.101 196.993 355.572C194.811 356.234 193.539 360.148 193.506 362.19C193.506 362.297 193.613 363.431 193.699 364.254C193.549 363.794 193.389 363.324 193.26 362.885C192.758 361.239 192.405 359.688 192.095 358.319C191.924 357.539 191.795 356.833 191.678 356.17C192.18 355.539 194.159 352.995 194.544 351.476C194.918 350.001 194.993 348.023 193.988 346.761C193.004 345.531 191.164 345.232 189.988 346.387C188.352 347.98 189.036 352.043 189.945 353.861C190.02 354.021 191.539 356.341 191.56 356.309C191.56 356.309 191.582 356.277 191.592 356.267C191.699 356.908 191.817 357.592 191.956 358.341C192.234 359.72 192.555 361.271 193.025 362.939C193.485 364.607 194.03 366.403 194.79 368.253C195.538 370.103 196.415 372.006 197.581 373.856C197.592 373.877 197.613 373.899 197.624 373.92C197.11 373.482 195.656 372.316 195.528 372.241C193.806 371.161 189.828 370.071 188.085 371.536C186.823 372.594 186.93 374.455 188.063 375.556C189.218 376.679 191.197 376.807 192.704 376.572C194.405 376.315 197.517 374.284 197.763 374.112C198.885 375.866 200.179 377.566 201.591 379.224C202.393 380.164 203.227 381.095 204.083 382.014C203.634 381.651 203.227 381.33 203.163 381.298C201.441 380.207 197.463 379.127 195.72 380.592C194.458 381.651 194.565 383.511 195.699 384.613C196.854 385.735 198.832 385.864 200.34 385.628C201.869 385.393 204.564 383.714 205.27 383.265L205.184 383.287Z" fill="#252541"/>
<path d="M221.706 352.717C223.075 353.871 226.936 354.919 226.946 354.919C226.989 354.93 226.872 352.161 226.839 351.989C226.519 349.979 224.722 346.28 222.466 345.927C220.84 345.67 219.503 346.985 219.429 348.557C219.343 350.161 220.551 351.743 221.717 352.717H221.706Z" fill="#252541"/>
<path d="M193.506 364.853C193.506 364.853 191.913 362.597 191.795 362.468C190.416 360.961 186.876 358.876 184.802 359.827C183.304 360.511 182.919 362.34 183.711 363.698C184.524 365.088 186.406 365.729 187.914 365.911C189.689 366.114 193.496 364.863 193.496 364.863L193.506 364.853Z" fill="#252541"/>
<path d="M219.728 364.232C221.289 364.949 225.011 364.97 225.31 364.981C225.278 367.055 225.417 369.194 225.684 371.354C225.834 372.583 226.016 373.824 226.219 375.053C226.037 374.497 225.877 374.016 225.845 373.941C225 372.081 222.294 368.991 220.027 369.247C218.391 369.429 217.45 371.044 217.792 372.583C218.135 374.155 219.717 375.353 221.097 375.994C222.498 376.647 225.674 376.721 226.508 376.732C226.593 377.202 226.668 377.684 226.754 378.154C227.16 380.421 227.577 382.688 227.919 384.923C227.973 385.254 228.005 385.586 228.048 385.917L228.711 383.992C228.347 382.003 227.952 380.004 227.545 378.015C227.406 377.32 227.278 376.636 227.139 375.941C227.385 375.951 229.748 376.101 231.513 375.855L233.395 370.413L234.881 369.108C234.689 369.023 234.486 368.948 234.261 368.905C232.015 368.499 229.096 371.396 228.133 373.193C228.059 373.332 227.278 375.299 227.107 375.802C226.818 374.283 226.529 372.765 226.315 371.247C226.016 369.162 225.845 367.109 225.813 365.099C225.963 365.099 229.823 365.355 231.459 364.735C232.881 364.19 234.539 363.099 234.988 361.549C235.427 360.03 234.593 358.362 232.978 358.073C230.732 357.667 227.813 360.565 226.85 362.361C226.775 362.5 225.93 364.617 225.813 365.013C225.813 364.895 225.802 364.767 225.802 364.649C225.802 362.511 226.069 360.426 226.422 358.501C226.626 357.378 226.882 356.32 227.15 355.293C227.866 355.411 231.138 355.924 232.668 355.529C234.143 355.144 235.908 354.246 236.528 352.749C237.127 351.294 236.485 349.541 234.913 349.07C232.721 348.418 229.513 350.984 228.358 352.663C228.294 352.759 227.759 353.754 227.385 354.491C227.513 354.032 227.641 353.55 227.77 353.112C228.262 351.455 228.818 349.979 229.32 348.664C229.609 347.926 229.887 347.253 230.155 346.632C230.914 346.386 233.972 345.349 235.138 344.301C236.271 343.286 237.426 341.671 237.277 340.056C237.138 338.485 235.758 337.223 234.143 337.533C231.898 337.961 230.229 341.725 229.983 343.745C229.962 343.916 229.941 346.697 229.983 346.675C229.983 346.675 230.016 346.664 230.026 346.664C229.759 347.253 229.481 347.894 229.181 348.6C228.647 349.904 228.059 351.38 227.535 353.027C227 354.673 226.465 356.48 226.069 358.426C225.674 360.383 225.353 362.457 225.31 364.639C225.31 364.66 225.31 364.692 225.31 364.714C225.128 364.072 224.551 362.286 224.497 362.158C223.653 360.298 220.947 357.207 218.669 357.464C217.033 357.646 216.092 359.26 216.434 360.8C216.776 362.372 218.359 363.569 219.739 364.211L219.728 364.232Z" fill="#252541"/>
<path d="M381.859 270.843L377.602 265.561L381.431 262.535L384.019 265.743L383.131 267.785L383.869 269.411L382.351 270.501" fill="white"/>
<path d="M381.859 270.843L377.602 265.561L381.431 262.535L384.019 265.743L383.131 267.785L383.869 269.411L382.351 270.501" stroke="#263238" stroke-linecap="round" stroke-linejoin="round"/>
<path d="M416.443 280.028C416.443 280.028 413.523 277.419 412.432 277.59C411.342 277.761 397.033 280.146 397.033 280.146L383.858 269.4L381.859 270.833L394.456 286.636L408.144 285.781L405.203 300.74L392.756 310.224L413.074 322.36L417.17 309.444L433.339 293.512L427.072 285.578L416.432 280.007L416.443 280.028Z" fill="#E8A73F"/>
<path d="M420.635 276.585L418.336 281.408L417.491 280.638L415.876 292.389L427.083 285.61L425.96 283.835L426.217 280.167L420.635 276.585Z" fill="white" stroke="#263238" stroke-linecap="round" stroke-linejoin="round"/>
<path d="M415.876 292.389L422.431 288.422L416.956 284.573L415.876 292.389Z" fill="white" stroke="#263238" stroke-linecap="round" stroke-linejoin="round"/>
<path d="M433.606 265.059C433.606 265.059 438.547 259.263 443.584 262.931C448.621 266.599 447.23 270.159 450.824 268.202C454.417 266.246 461.165 261.274 465.228 267.604C469.292 273.934 466.159 280.563 463.603 282.081C461.058 283.6 461.71 280.702 461.774 279.301C461.828 277.901 457.636 276.051 456.705 278.981C455.775 281.91 450.888 286.305 444.685 285.888C438.483 285.471 437.285 277.858 437.413 273.378C437.542 268.897 433.574 266.738 433.574 266.738V265.059H433.606Z" fill="#252541" stroke="#263238" stroke-linecap="round" stroke-linejoin="round"/>
<path d="M421.704 263.872C421.704 263.872 418.614 270.769 419.255 274.853C419.897 278.938 419.555 282.049 421.629 282.84C423.704 283.632 430.58 279.483 432.099 276.735C433.617 273.987 435.777 270.02 435.178 266.214C434.58 262.407 427.297 256.857 421.704 263.872Z" fill="white" stroke="#263238" stroke-linecap="round" stroke-linejoin="round"/>
<path d="M422.838 271.111C422.677 271.645 422.324 272.009 422.057 271.934C421.79 271.849 421.704 271.357 421.865 270.822C422.025 270.287 422.378 269.924 422.645 269.999C422.913 270.084 422.998 270.576 422.838 271.111Z" fill="#252541"/>
<path d="M427.821 273.175C427.661 273.709 427.308 274.073 427.04 273.998C426.773 273.912 426.687 273.42 426.848 272.886C427.008 272.351 427.361 271.988 427.628 272.062C427.896 272.148 427.981 272.64 427.821 273.175Z" fill="#252541"/>
<path d="M424.132 271.998C424.132 271.998 424.463 272.234 424.003 273.046C423.543 273.848 422.485 273.581 422.592 274.286C422.699 274.992 424.078 275.366 424.078 275.366" stroke="#263238" stroke-linecap="round" stroke-linejoin="round"/>
<path d="M421.64 276.628C421.64 276.628 423.362 278.253 424.902 277.869" stroke="#263238" stroke-linecap="round" stroke-linejoin="round"/>
<path d="M429.446 271.453L426.249 270.64" stroke="#263238" stroke-linecap="round" stroke-linejoin="round"/>
<path d="M423.725 269.432L422.196 268.074" stroke="#263238" stroke-linecap="round" stroke-linejoin="round"/>
<path d="M421.704 263.872C421.704 263.872 421.244 264.898 420.72 266.395C422.527 265.465 425.639 264.396 428.484 266.149C431.371 267.935 432.74 271.934 433.339 274.404C434.547 271.966 435.628 269.047 435.189 266.214C434.59 262.407 427.308 256.857 421.715 263.872H421.704Z" fill="#252541" stroke="#263238" stroke-linecap="round" stroke-linejoin="round"/>
<path d="M432.601 274.308C432.601 274.308 434.826 272.266 434.687 274.115C434.548 275.965 432.045 277.077 431.489 277.163C430.933 277.248 430.965 276.543 430.965 276.543" fill="white"/>
<path d="M432.601 274.308C432.601 274.308 434.826 272.266 434.687 274.115C434.548 275.965 432.045 277.077 431.489 277.163C430.933 277.248 430.965 276.543 430.965 276.543" stroke="#263238" stroke-linecap="round" stroke-linejoin="round"/>
<path d="M433.35 293.544L429.928 317.934C429.778 319.003 428.89 319.805 427.81 319.847L427.072 319.88C425.885 319.922 424.88 319.035 424.773 317.859L423.437 303.199L433.35 293.554V293.544Z" fill="#E8A73F"/>
<path d="M427.179 314.587L416.175 304.889L413.716 306.952L424.271 319.142C424.709 319.655 425.361 319.933 426.035 319.912L426.912 319.88C428.334 319.826 429.34 318.468 428.976 317.089" fill="#E8A73F"/>
<path d="M416.175 304.889L413.598 300.772L407.802 300.13L407.834 303.573L410.615 305.894L412.379 306.14L413.716 306.952L416.175 304.889Z" fill="white" stroke="#263238" stroke-linecap="round" stroke-linejoin="round"/>
<path d="M385.142 317.677C385.142 317.677 373.036 333.427 373.699 336.036C374.362 338.645 392.05 366.264 392.05 366.264L394.509 364.639L384.789 334.293L404.326 326.52L385.142 317.677Z" fill="white" stroke="#263238" stroke-linecap="round" stroke-linejoin="round"/>
<path d="M394.894 323.569L396.327 329.856L402.797 327.375L394.894 323.569Z" fill="#252541" stroke="#263238" stroke-miterlimit="10"/>
<path d="M392.05 366.254L388.799 371.6C388.799 371.6 386.232 375.428 386.992 375.663C388.628 376.176 392.863 373.407 394.06 372.551C395.258 371.696 396.573 371.129 397.375 370.563C398.177 369.996 399.771 369.664 397.579 367.644C396.841 366.97 394.509 364.639 394.509 364.639L392.05 366.264V366.254Z" fill="white" stroke="#263238" stroke-linecap="round" stroke-linejoin="round"/>
<path d="M412.037 312.694C412.037 312.694 405.161 309.828 395.344 307.166C385.537 304.514 378.287 302.44 378.426 304.889C378.565 307.337 396.392 346.793 396.392 346.793L399.45 345.82L394.788 324.06C394.788 324.06 402.284 329.3 407.813 326.701C413.331 324.103 415.448 317.099 415.063 314.683" fill="#252541"/>
<path d="M412.037 312.694C412.037 312.694 405.161 309.828 395.344 307.166C385.537 304.514 378.287 302.44 378.426 304.889C378.565 307.337 396.392 346.793 396.392 346.793L399.45 345.82L394.788 324.06C394.788 324.06 402.284 329.3 407.813 326.701C413.331 324.103 415.448 317.099 415.063 314.683" stroke="#263238" stroke-linecap="round" stroke-linejoin="round"/>
<path d="M393.258 306.599C384.521 304.236 378.297 302.611 378.426 304.889C378.565 307.337 396.392 346.793 396.392 346.793L399.45 345.82L394.787 324.061C396.381 320.19 394.691 312.021 393.258 306.599Z" fill="white" stroke="#263238" stroke-linecap="round" stroke-linejoin="round"/>
<path d="M394.798 324.06L387.109 312.919" stroke="#263238" stroke-linecap="round" stroke-linejoin="round"/>
<path d="M396.402 346.793L393.547 352.182C393.547 352.182 387.762 357.785 389.034 358.084C390.317 358.373 401.193 353.7 402.006 352.577C402.819 351.465 399.461 345.809 399.461 345.809L396.402 346.782V346.793Z" fill="white" stroke="#263238" stroke-linecap="round" stroke-linejoin="round"/>
<path d="M383.099 268.234L410.069 300.355" stroke="#263238" stroke-miterlimit="10"/>
<path d="M300.114 168.804L379.26 263.498" stroke="#263238" stroke-miterlimit="10"/>
<path d="M412.379 306.14V462.241" stroke="#263238" stroke-miterlimit="10"/>
<path d="M154.827 262.749C154.827 262.749 160.516 296.035 154.335 306.621C148.154 317.206 132.637 309.583 132.637 309.583V461.204" stroke="#263238" stroke-miterlimit="10"/>
<path d="M120.659 275.217C120.659 275.217 125.696 274.639 126.081 275.794C126.466 276.959 126.081 278.702 126.081 278.702C126.081 278.702 128.99 281.803 128.99 283.931C128.99 286.059 125.889 287.032 125.889 287.032L125.311 292.068L117.569 292.453L116.596 286.455C116.596 286.455 113.687 275.035 120.659 275.227V275.217Z" fill="white" stroke="#263238" stroke-linecap="round" stroke-linejoin="round"/>
<path d="M122.21 283.535L120.082 280.434C120.082 280.434 121.248 278.692 121.248 276.564C121.248 274.436 121.055 270.565 116.607 270.565C112.158 270.565 109.249 274.051 108.287 281.6C107.324 289.149 111.773 292.827 118.157 291.469C124.541 290.111 122.221 283.535 122.221 283.535H122.21Z" fill="#252541" stroke="#263238" stroke-linecap="round" stroke-linejoin="round"/>
<path d="M122.018 282.177C122.018 282.177 118.724 281.793 118.916 284.305C119.109 286.818 122.403 287.599 123.761 285.663" fill="white"/>
<path d="M122.018 282.177C122.018 282.177 118.724 281.793 118.916 284.305C119.109 286.818 122.403 287.599 123.761 285.663" stroke="#263238" stroke-linecap="round" stroke-linejoin="round"/>
<path d="M117.43 294.335L110.297 296.377C110.297 296.377 109.741 297.767 108.907 299.585C107.784 302.055 104.683 307.08 104.683 307.08L90.4064 311.154L85.8187 325.931L84.8028 332.048L92.9623 327.974L93.4756 313.699L106.276 311.732L111.794 297.863L117.441 294.335H117.43Z" fill="#252541" stroke="#263238" stroke-linecap="round" stroke-linejoin="round"/>
<path d="M128.798 292.25C128.798 292.25 123.183 289.737 118.927 290.314C114.671 290.892 115.056 293.02 115.056 293.02L115.248 295.928C115.248 295.928 122.413 293.8 128.798 292.25Z" fill="#E8A73F"/>
<path d="M109.623 306.375L113.623 324.926C113.751 325.889 114.789 326.445 115.655 326.006L124.723 321.473L109.623 306.375Z" fill="#E8A73F"/>
<path d="M119.697 316.244L117.569 320.5" stroke="#263238" stroke-linecap="round" stroke-linejoin="round"/>
<path d="M138.476 335.02L150.153 354.352L148.613 380.507L154.217 380.314L159.831 349.124L151.629 327.279L138.476 335.02Z" fill="#252541" stroke="#263238" stroke-linecap="round" stroke-linejoin="round"/>
<path d="M115.238 295.928C115.238 295.928 109.623 305.605 109.623 306.375C109.623 307.145 131.492 328.241 131.492 328.241L148.143 317.206L137.695 299.008L152.752 284.241L153.918 264.31L151.212 264.118L146.368 278.638L130.348 291.277L115.248 295.917L115.238 295.928Z" fill="#E8A73F"/>
<path d="M151.201 264.128L151.394 259.669L156.238 255.991L156.623 256.964V259.862L156.816 262.193L153.907 264.321L151.201 264.128Z" fill="white" stroke="#263238" stroke-linecap="round" stroke-linejoin="round"/>
<path d="M131.503 328.252C131.503 328.252 135.182 334.443 137.887 336.378C140.593 338.313 149.116 332.315 151.244 330.572C153.372 328.829 161.5 318.382 161.5 318.382L169.06 350.546L173.701 348.61C173.701 348.61 170.985 305.808 169.627 304.642C168.269 303.477 147.362 317.024 147.362 317.024L131.492 328.252H131.503Z" fill="#252541" stroke="#263238" stroke-linecap="round" stroke-linejoin="round"/>
<path d="M173.712 348.6H180.289C181.454 348.6 184.352 346.857 184.545 348.215C184.737 349.573 178.931 353.251 176.61 354.406C174.29 355.571 169.638 356.149 169.638 356.149L169.06 350.535L173.701 348.6H173.712Z" fill="white" stroke="#263238" stroke-linecap="round" stroke-linejoin="round"/>
<path d="M154.217 380.314L157.511 386.313C157.511 386.313 161.574 388.055 161.574 388.825C161.574 389.595 154.998 389.21 154.41 389.21C153.821 389.21 147.245 382.827 147.245 382.827L148.603 380.506L154.217 380.314Z" fill="white" stroke="#263238" stroke-linecap="round" stroke-linejoin="round"/>
<path d="M156.238 255.991L219.429 169.371" stroke="#263238" stroke-miterlimit="10"/>
</g>
<defs>
<clipPath id="clip0_228_4519">
<rect width="497" height="463" fill="white"/>
</clipPath>
</defs>
</svg>
