<svg width="64" height="63" viewBox="0 0 64 63" fill="none" xmlns="http://www.w3.org/2000/svg">
<circle cx="32.1992" cy="31.5" r="31.5" fill="#30449C"/>
<g clip-path="url(#clip0_6_138)">
<path d="M51.5561 28.6524C51.5561 28.6524 52.0156 28.625 52.4014 28.6879Z" fill="white"/>
<path d="M52.4003 28.7013C52.403 28.4662 52.4048 28.2149 52.4066 27.9774C52.411 27.4097 52.2496 26.8846 51.9134 26.4047C51.8202 26.271 51.7156 26.1446 51.6153 26.0141C51.5408 25.9465 51.4663 25.878 51.3927 25.8104C51.2455 25.7154 51.1044 25.6107 50.951 25.5253C49.9096 24.9487 48.8284 24.8964 47.7604 25.4214C46.6801 25.9521 46.1221 26.8113 46.1079 27.9323C46.0973 28.7456 46.1221 29.5605 46.1319 30.3739C46.1381 30.9376 46.1523 31.5021 46.1505 32.0657C46.1479 32.9298 45.7336 33.5909 44.8865 33.9823C44.0403 34.3737 43.2003 34.2955 42.4375 33.781C41.9 33.4186 41.5754 32.962 41.5754 32.0037V23.9703H41.0023C40.8019 23.9703 40.7017 24.0613 40.7017 24.2441V32.1157C40.6759 32.6987 40.9376 33.4242 41.4299 33.9493C42.4952 35.0847 44.2603 35.3118 45.6157 34.4711C46.5346 33.901 46.9958 33.086 46.9932 32.0706C46.9896 30.7032 46.9763 29.3359 46.9648 27.9685C46.9612 27.5482 47.0748 27.1592 47.3187 26.8017C47.8332 26.0487 48.8443 25.6711 49.8014 25.8748C50.7629 26.0785 51.5009 26.8323 51.5745 27.7181C51.6003 28.0289 51.563 28.3695 51.5541 28.6796" fill="white"/>
<path d="M43.8347 35.0591C42.9184 35.0591 42.0163 34.6967 41.3626 34.0002C40.8792 33.4848 40.5856 32.7431 40.6131 32.111V24.2435C40.6131 24.0156 40.7515 23.8892 41.0025 23.8892H41.6642V32.0031C41.6642 32.9622 41.9951 33.3817 42.4909 33.7159C43.2289 34.2144 44.044 34.2812 44.8468 33.91C45.6513 33.5387 46.0602 32.9179 46.0629 32.0651C46.0637 31.6842 46.0575 31.2961 46.0522 30.9208C46.0495 30.7388 46.0469 30.556 46.0442 30.374C46.0416 30.1276 46.0371 29.882 46.0327 29.6356C46.0229 29.0767 46.0132 28.4993 46.0203 27.93C46.0354 26.7809 46.6226 25.8887 47.7198 25.3491C48.8055 24.8152 49.9089 24.8515 50.999 25.4546C51.1055 25.5134 51.2057 25.581 51.3024 25.6471C51.3503 25.6793 51.3982 25.7115 51.447 25.7429L51.4585 25.7518L51.6909 25.9668C51.7219 26.007 51.753 26.0465 51.784 26.0867C51.8532 26.1753 51.9251 26.2663 51.9907 26.3605C52.3322 26.8477 52.5025 27.3913 52.4972 27.9767C52.4954 28.2143 52.4936 28.4655 52.491 28.7007L52.3136 28.6991C52.3162 28.4639 52.318 28.2127 52.3198 27.9751C52.3242 27.4211 52.1637 26.9073 51.8408 26.4459C51.7778 26.3557 51.7077 26.2663 51.6394 26.1794C51.6093 26.1407 51.5791 26.1029 51.549 26.0642L51.337 25.8701C51.2891 25.8395 51.243 25.8073 51.1959 25.7759C51.1019 25.7123 51.0052 25.6471 50.9068 25.5923C49.8743 25.0206 48.8312 24.9859 47.8049 25.4908C46.7538 26.0078 46.2128 26.8284 46.1986 27.9316C46.1915 28.4977 46.2012 29.0743 46.211 29.6324C46.2154 29.8788 46.2199 30.1252 46.2225 30.3716C46.2243 30.5536 46.2278 30.7356 46.2305 30.9176C46.2367 31.2936 46.242 31.6818 46.2411 32.0643C46.2385 32.9694 45.7843 33.6571 44.9284 34.0525C44.0609 34.4535 43.1819 34.3811 42.3862 33.8439C41.7485 33.4139 41.4877 32.88 41.4877 32.0023V24.051H41.0034C40.8526 24.051 40.7914 24.1066 40.7914 24.2443V32.1158C40.7648 32.7133 41.0424 33.4107 41.4983 33.8971C42.5406 35.0076 44.2516 35.221 45.567 34.4052C46.4585 33.852 46.9082 33.0669 46.9064 32.0715C46.9037 30.9619 46.894 29.8337 46.8851 28.7425L46.8789 27.9695C46.8754 27.529 46.9995 27.1223 47.2461 26.76C47.7765 25.9837 48.8365 25.5875 49.8246 25.7969C50.8323 26.0102 51.5898 26.7986 51.6661 27.7126C51.6847 27.934 51.6714 28.1692 51.659 28.3955C51.6536 28.4929 51.6483 28.5887 51.6457 28.6821L51.4683 28.6781C51.4709 28.5839 51.4762 28.4865 51.4816 28.3882C51.494 28.166 51.5064 27.9365 51.4887 27.7255C51.4177 26.8807 50.717 26.1528 49.7838 25.9547C48.8702 25.7606 47.8874 26.127 47.3969 26.8461C47.1645 27.1868 47.0528 27.5548 47.0563 27.9703L47.0625 28.7425C47.0723 29.8337 47.0811 30.9627 47.0838 32.0723C47.0865 33.124 46.6101 33.9543 45.6673 34.5389C45.1005 34.8908 44.4645 35.0615 43.8356 35.0615L43.8347 35.0591Z" fill="white"/>
<path d="M41.4709 21.5799C41.682 21.5799 41.8372 21.5871 41.9374 21.6C42.0377 21.6137 42.1184 21.6258 42.1778 21.6347C42.2878 21.6532 42.3579 21.6121 42.3889 21.5114C42.4084 21.4116 42.4244 21.3109 42.4342 21.2111C42.3534 21.1926 42.2231 21.17 42.0439 21.1426C41.8629 21.1153 41.6678 21.1016 41.4567 21.1016C41.2757 21.1016 41.1028 21.1201 40.9369 21.1563C40.771 21.1926 40.6238 21.2521 40.4934 21.3343C40.363 21.4172 40.2575 21.5211 40.1767 21.6483C40.096 21.7756 40.0561 21.935 40.0561 22.1267C40.0561 22.3819 40.151 22.5961 40.3417 22.7685H40.1306C39.9302 22.7685 39.8299 22.8595 39.8299 23.0423V23.2202H42.373V23.0423C42.373 22.8603 42.2727 22.7685 42.0723 22.7685H41.47C41.3698 22.7685 41.2669 22.7564 41.1613 22.7338C41.0566 22.7113 40.9582 22.6767 40.8686 22.6316C40.7781 22.5857 40.7054 22.5221 40.6504 22.4399C40.5954 22.357 40.5679 22.2579 40.5679 22.1396C40.5679 21.9849 40.6229 21.8529 40.732 21.7434C40.842 21.6338 41.0886 21.5799 41.47 21.5799H41.4709Z" fill="white"/>
<path d="M42.5506 23.3799H39.6527V23.0408C39.6527 22.8105 39.7813 22.6583 40.0022 22.6173C39.9197 22.4707 39.878 22.3064 39.878 22.1253C39.878 21.907 39.9268 21.7194 40.0226 21.5672C40.1149 21.4206 40.239 21.2974 40.3916 21.2008C40.5406 21.1074 40.7092 21.0397 40.8954 20.9987C41.0737 20.9592 41.2626 20.9391 41.4569 20.9391C41.6742 20.9391 41.8818 20.9536 42.0725 20.9818C42.2658 21.0116 42.3945 21.0341 42.477 21.0534L42.6242 21.0865L42.6109 21.2233C42.602 21.3176 42.5861 21.4206 42.5639 21.5374L42.5603 21.5527C42.5053 21.7331 42.3466 21.8241 42.1461 21.7911C42.0902 21.783 42.0104 21.7709 41.9102 21.7572C41.8463 21.7492 41.7168 21.7387 41.4702 21.7387C41.024 21.7387 40.8972 21.8168 40.8635 21.8499C40.7845 21.9288 40.7455 22.023 40.7455 22.1373C40.7455 22.2259 40.7641 22.2968 40.8023 22.3548C40.8404 22.4119 40.891 22.4562 40.9557 22.4892C41.0302 22.5271 41.1145 22.5561 41.2032 22.5754C41.2955 22.5955 41.3859 22.6052 41.4702 22.6052H42.0725C42.3714 22.6052 42.5506 22.7679 42.5506 23.04V23.3791V23.3799ZM40.0075 23.0578H42.1958V23.0408C42.1958 22.9474 42.1754 22.9281 42.0725 22.9281H41.4702C41.3584 22.9281 41.2405 22.9152 41.1207 22.8895C41.0001 22.8637 40.8866 22.8234 40.7828 22.7711C40.6639 22.7107 40.569 22.6269 40.4989 22.5223C40.4271 22.4143 40.3907 22.2847 40.3907 22.1381C40.3907 21.9433 40.4617 21.7733 40.6009 21.634C40.75 21.4859 41.0258 21.4174 41.4702 21.4174C41.6849 21.4174 41.8507 21.4247 41.9616 21.44C42.0645 21.4545 42.1452 21.4657 42.2055 21.4746C42.2091 21.4746 42.2117 21.4754 42.2144 21.4762V21.4746C42.2233 21.4263 42.2313 21.3812 42.2383 21.3377C42.1763 21.3272 42.1017 21.3143 42.0122 21.3007C41.841 21.2749 41.6529 21.262 41.4551 21.262C41.2875 21.262 41.1314 21.2781 40.9779 21.3119C40.8324 21.3441 40.7065 21.3941 40.593 21.4657C40.483 21.5358 40.3969 21.6212 40.3295 21.7274C40.2648 21.8305 40.2319 21.9642 40.2319 22.1261C40.2319 22.3395 40.3082 22.5118 40.4652 22.6535L40.7695 22.9289H40.1291C40.027 22.9289 40.0058 22.9474 40.0058 23.0417V23.0586L40.0075 23.0578Z" fill="white"/>
<path d="M25.6468 35.1961C25.6734 35.1961 25.7027 35.1937 25.732 35.1888C25.763 35.184 25.7896 35.1751 25.8153 35.1622C25.8402 35.1494 25.8606 35.1325 25.8765 35.1107C25.8925 35.089 25.9005 35.0624 25.9005 35.0294C25.9005 35.0004 25.8925 34.973 25.8765 34.9489C25.8606 34.9247 25.8393 34.903 25.8127 34.8828C25.7861 34.8627 25.7559 34.8458 25.7204 34.8305C25.6849 34.8152 25.6477 34.8007 25.6113 34.7878C25.6211 34.7604 25.6291 34.7355 25.6379 34.7097C25.6441 34.6879 25.661 34.6815 25.6876 34.6912L25.7444 34.7129C25.7665 34.7226 25.7905 34.733 25.8136 34.7427C25.8366 34.7524 25.8623 34.7628 25.8907 34.7709C25.9191 34.7789 25.9502 34.7862 25.9847 34.791C26.0193 34.7958 26.0601 34.7983 26.1072 34.7983H26.1976V34.8973H25.9626C25.9723 34.907 25.9803 34.9183 25.9865 34.9311C25.9927 34.944 25.9998 34.9593 26.0051 34.9786C26.0105 34.998 26.0131 35.0213 26.0131 35.0487C26.0131 35.0688 26.0078 35.093 25.9972 35.1212C25.9865 35.1486 25.9661 35.1751 25.9377 35.2009C25.9094 35.2267 25.8686 35.2476 25.8171 35.2661C25.7657 35.2838 25.6991 35.2927 25.6166 35.2927H25.4295C25.3638 35.2927 25.2982 35.2887 25.2343 35.2798C25.1696 35.271 25.1119 35.2532 25.0614 35.2275C25.0108 35.2001 24.9691 35.1622 24.9372 35.1131C24.9062 35.0632 24.8893 34.998 24.8893 34.9166C24.8893 34.8579 24.8964 34.8007 24.9106 34.7427C24.9239 34.6855 24.939 34.6356 24.954 34.5953C24.9851 34.6002 25.0108 34.605 25.0303 34.6098C25.0481 34.6139 25.0525 34.6259 25.0463 34.6461C25.0365 34.6791 25.0259 34.7177 25.0153 34.762C25.0046 34.8063 24.9984 34.8579 24.9984 34.9166C24.9984 34.9883 25.0144 35.0431 25.0463 35.0809C25.0782 35.1188 25.119 35.1461 25.166 35.1631C25.2139 35.18 25.2663 35.1904 25.3222 35.192C25.378 35.1937 25.4313 35.1961 25.4792 35.1961H25.6468ZM25.3204 35.5319C25.3204 35.5117 25.3284 35.494 25.3434 35.4803C25.3585 35.4666 25.378 35.4594 25.4002 35.4594C25.4224 35.4594 25.4419 35.4658 25.457 35.4803C25.4721 35.494 25.48 35.5117 25.48 35.5319C25.48 35.552 25.4721 35.5697 25.457 35.5834C25.4419 35.5971 25.4224 35.6043 25.4002 35.6043C25.378 35.6043 25.3585 35.5971 25.3434 35.5834C25.3284 35.5697 25.3204 35.552 25.3204 35.5319ZM25.5377 35.5319C25.5377 35.5117 25.5457 35.494 25.5608 35.4803C25.5758 35.4666 25.5954 35.4594 25.6175 35.4594C25.6397 35.4594 25.6592 35.4658 25.6743 35.4803C25.6894 35.4948 25.6974 35.5117 25.6974 35.5319C25.6974 35.552 25.6894 35.5697 25.6743 35.5834C25.6592 35.5971 25.6397 35.6043 25.6175 35.6043C25.5954 35.6043 25.5758 35.5971 25.5608 35.5834C25.5457 35.5697 25.5377 35.552 25.5377 35.5319Z" fill="white"/>
<path d="M25.6201 35.6347C25.5891 35.6347 25.5607 35.6243 25.5394 35.6049C25.5261 35.5929 25.5163 35.5784 25.511 35.5631C25.5057 35.5792 25.4959 35.5929 25.4826 35.6049C25.4392 35.6444 25.3647 35.6444 25.3212 35.6049C25.2999 35.5848 25.2884 35.5598 25.2884 35.5317C25.2884 35.5035 25.2999 35.4777 25.3212 35.4584C25.3656 35.4181 25.4418 35.4189 25.4835 35.4584C25.4968 35.4697 25.5057 35.4841 25.511 35.4994C25.5163 35.4841 25.5261 35.4697 25.5385 35.4576C25.5829 35.4173 25.6592 35.4189 25.7008 35.4576C25.7221 35.4785 25.7337 35.5027 25.7337 35.53C25.7337 35.5574 25.7221 35.584 25.7008 35.6033C25.6787 35.6227 25.6512 35.6331 25.6201 35.6331V35.6347ZM25.6201 35.4882C25.6068 35.4882 25.5953 35.4922 25.5864 35.5003C25.5776 35.5083 25.5731 35.5188 25.5731 35.5309C25.5731 35.5429 25.5776 35.5534 25.5864 35.5615C25.605 35.5784 25.6352 35.5784 25.6538 35.5615C25.6627 35.5534 25.6671 35.5429 25.6671 35.5309C25.6671 35.5188 25.6627 35.5091 25.6529 35.4994C25.645 35.4914 25.6343 35.4874 25.6201 35.4874V35.4882ZM25.4028 35.4882C25.3895 35.4882 25.378 35.4922 25.3691 35.5003C25.3602 35.5083 25.3558 35.5188 25.3558 35.5309C25.3558 35.5429 25.3602 35.5534 25.3691 35.5615C25.3877 35.5784 25.4179 35.5784 25.4365 35.5615C25.4454 35.5534 25.4498 35.5429 25.4498 35.5309C25.4498 35.5188 25.4454 35.5083 25.4365 35.5003C25.4276 35.4914 25.417 35.4882 25.4028 35.4882ZM25.6175 35.3231H25.4303C25.3629 35.3231 25.2955 35.3183 25.2307 35.3094C25.1624 35.2997 25.1003 35.2812 25.0462 35.253C24.9895 35.2224 24.9442 35.1806 24.9096 35.1282C24.8742 35.0727 24.8573 35.0034 24.8573 34.9164C24.8573 34.8568 24.8644 34.7972 24.8786 34.736C24.8928 34.6773 24.9079 34.6257 24.9229 34.5847L24.9318 34.5597L24.9602 34.5645C24.9921 34.5702 25.0187 34.5742 25.04 34.5798C25.0595 34.5839 25.0702 34.5943 25.0755 34.6032C25.0844 34.6169 25.0853 34.6338 25.0791 34.6539C25.0693 34.6861 25.0595 34.7248 25.048 34.7683C25.0374 34.8101 25.032 34.8601 25.032 34.9156C25.032 34.98 25.0462 35.0292 25.0737 35.0614C25.1012 35.0944 25.1376 35.1186 25.1793 35.1339C25.2245 35.15 25.2733 35.1588 25.3248 35.1612C25.3806 35.1636 25.4321 35.1645 25.48 35.1645H25.6476C25.6742 35.1645 25.7008 35.1612 25.7266 35.1572C25.7532 35.1524 25.7771 35.1451 25.8002 35.1339C25.8206 35.1234 25.8366 35.1097 25.8499 35.092C25.8623 35.0759 25.8685 35.0549 25.8685 35.0284C25.8685 35.005 25.8623 34.9825 25.849 34.9639C25.8348 34.9422 25.8162 34.9229 25.7931 34.906C25.7683 34.8874 25.7399 34.8713 25.7071 34.8576C25.6725 34.8423 25.6361 34.8287 25.6006 34.8166L25.5705 34.8069L25.5802 34.7795C25.5855 34.7634 25.5909 34.7489 25.5962 34.7336L25.6068 34.7014C25.613 34.6797 25.6281 34.6684 25.6388 34.6636C25.6565 34.6555 25.6769 34.6555 25.7 34.6636L25.7576 34.6861C25.7816 34.6958 25.8046 34.7063 25.8286 34.7167C25.8507 34.7264 25.8756 34.7352 25.9022 34.7441C25.9279 34.7522 25.9563 34.7578 25.9909 34.7634C26.0228 34.7683 26.061 34.7707 26.108 34.7707H26.2313V34.9301H26.0219C26.0273 34.943 26.0335 34.9567 26.0379 34.9736C26.0441 34.9945 26.0468 35.0203 26.0468 35.0517C26.0468 35.0751 26.0406 35.1016 26.029 35.1339C26.0166 35.1661 25.9936 35.1967 25.9607 35.2257C25.9288 35.2538 25.8862 35.2772 25.8286 35.2973C25.7727 35.3158 25.7017 35.3255 25.6157 35.3255L25.6175 35.3231ZM24.9779 34.6289C24.9664 34.6628 24.9549 34.703 24.9442 34.7481C24.9309 34.8053 24.9238 34.8601 24.9238 34.9156C24.9238 34.9905 24.938 35.0517 24.9673 35.0976C24.9948 35.1411 25.0329 35.1757 25.0791 35.2007C25.1252 35.2248 25.1802 35.241 25.2405 35.2498C25.3026 35.2587 25.3664 35.2627 25.4303 35.2627H25.6175C25.6955 35.2627 25.7585 35.2546 25.8064 35.2385C25.8543 35.2216 25.8907 35.2023 25.9155 35.1806C25.9403 35.158 25.9581 35.1355 25.9669 35.1121C25.9767 35.0871 25.9811 35.0662 25.9811 35.0501C25.9811 35.0235 25.9785 35.0034 25.974 34.9881C25.9687 34.9712 25.9634 34.9567 25.9572 34.9446C25.9519 34.9349 25.9457 34.9261 25.9386 34.9188L25.8871 34.8681H26.1647V34.8295H26.108C26.0574 34.8295 26.0157 34.827 25.9803 34.8214C25.9421 34.8158 25.9093 34.8085 25.8809 34.7997C25.8516 34.7908 25.8241 34.7803 25.8002 34.7699C25.7771 34.7602 25.7541 34.7497 25.7319 34.7401L25.676 34.7183C25.6707 34.7167 25.6671 34.7159 25.6671 34.7167L25.66 34.7497C25.6583 34.7562 25.6556 34.7626 25.6538 34.7691C25.6822 34.7795 25.7097 34.7908 25.7363 34.8021C25.7736 34.8182 25.8064 34.8367 25.8357 34.8584C25.8649 34.8802 25.8889 34.9043 25.9066 34.9317C25.9261 34.9607 25.9359 34.9929 25.9359 35.0276C25.9359 35.067 25.9261 35.1 25.9057 35.1258C25.8871 35.1508 25.8632 35.1701 25.8339 35.1862C25.8046 35.2007 25.7745 35.2104 25.7399 35.216C25.7142 35.22 25.6884 35.2232 25.6627 35.2232H25.6618L25.4818 35.224C25.433 35.224 25.3798 35.2224 25.323 35.2208C25.2644 35.2184 25.2086 35.2079 25.1562 35.1894C25.1021 35.1701 25.0578 35.1395 25.0223 35.0976C24.9859 35.0541 24.9673 34.9929 24.9673 34.9148C24.9673 34.8536 24.9735 34.8013 24.985 34.7538C24.9966 34.7087 25.0072 34.67 25.017 34.6362V34.6346C25.0054 34.6322 24.993 34.6298 24.9788 34.6273L24.9779 34.6289Z" fill="white"/>
<path d="M26.5139 34.2683C26.5139 34.2441 26.5272 34.2321 26.5538 34.2321H26.6301V34.621C26.6301 34.8062 26.5077 34.8988 26.2638 34.8988H26.1227V34.7998H26.2558C26.3347 34.7998 26.3977 34.7821 26.4438 34.7482C26.49 34.7128 26.513 34.6621 26.513 34.5936V34.2683H26.5139ZM26.4802 34.009C26.4802 33.9889 26.4873 33.9711 26.5033 33.9575C26.5192 33.9438 26.5379 33.9365 26.56 33.9365C26.5822 33.9365 26.6017 33.9438 26.6168 33.9575C26.6319 33.9711 26.6399 33.9889 26.6399 34.009C26.6399 34.0291 26.6319 34.0468 26.6168 34.0605C26.6017 34.0742 26.5822 34.0815 26.56 34.0815C26.5379 34.0815 26.5183 34.0742 26.5033 34.0605C26.4882 34.0468 26.4802 34.0291 26.4802 34.009Z" fill="white"/>
<path d="M26.2646 34.9288H26.0907V34.7693H26.2566C26.3267 34.7693 26.3835 34.754 26.4243 34.7242C26.4624 34.6952 26.481 34.6517 26.481 34.5938V34.2684C26.481 34.2282 26.5103 34.2016 26.5546 34.2016H26.6646V34.6211C26.6646 34.7621 26.5954 34.9296 26.2646 34.9296V34.9288ZM26.1573 34.8684H26.2646C26.489 34.8684 26.5981 34.787 26.5981 34.6203V34.2612H26.5546L26.5476 34.2676V34.593C26.5476 34.6695 26.5201 34.7291 26.4668 34.7701C26.4136 34.8096 26.3427 34.8289 26.2566 34.8289H26.1573V34.8676V34.8684ZM26.5609 34.1122C26.5298 34.1122 26.5014 34.1017 26.4801 34.0824C26.4588 34.0623 26.4473 34.0373 26.4473 34.0091C26.4473 33.9793 26.4589 33.9544 26.481 33.9351C26.5271 33.8956 26.599 33.8964 26.6416 33.9351C26.6629 33.9544 26.6744 33.9801 26.6744 34.0083C26.6744 34.0365 26.6629 34.0623 26.6416 34.0816C26.6194 34.1009 26.5919 34.1114 26.5609 34.1114V34.1122ZM26.5609 33.9657C26.5476 33.9657 26.5369 33.9697 26.5263 33.9785C26.5174 33.9866 26.513 33.9955 26.513 34.0083C26.513 34.0204 26.5174 34.0309 26.5263 34.0389C26.5449 34.0558 26.575 34.0558 26.5937 34.0389C26.6025 34.0309 26.607 34.0204 26.607 34.0083C26.607 33.9963 26.6025 33.9858 26.5937 33.9777C26.5848 33.9697 26.5733 33.9657 26.56 33.9657H26.5609Z" fill="white"/>
<path d="M27.2833 34.1933C27.3312 34.1933 27.3827 34.1973 27.4359 34.2062C27.4891 34.2151 27.5361 34.2255 27.5805 34.2368V34.9036C27.5805 34.9825 27.5734 35.0485 27.5583 35.1009C27.5441 35.1532 27.521 35.1951 27.4909 35.2257C27.4607 35.2563 27.4235 35.2788 27.3773 35.2917C27.3312 35.3046 27.2771 35.311 27.2141 35.311C27.184 35.311 27.152 35.3094 27.1166 35.307C27.0811 35.3046 27.0421 35.2965 27.0004 35.2861C26.98 35.282 26.9738 35.2675 26.98 35.2426C26.9844 35.2265 26.9897 35.2071 26.9959 35.1862C27.0288 35.1959 27.0633 35.2031 27.0979 35.208C27.1325 35.2128 27.1707 35.2152 27.2106 35.2152C27.2682 35.2152 27.3135 35.2063 27.3463 35.1894C27.3791 35.1725 27.404 35.1508 27.4217 35.1234C27.4394 35.096 27.4501 35.0662 27.4545 35.0324C27.4589 34.9986 27.4616 34.9648 27.4616 34.9309V34.8722C27.4315 34.8842 27.4022 34.8923 27.372 34.8971C27.341 34.9011 27.3099 34.9036 27.2762 34.9036C27.2381 34.9036 27.1964 34.8995 27.1494 34.8915C27.1024 34.8834 27.0589 34.8673 27.019 34.8424C26.9791 34.8174 26.9445 34.7828 26.917 34.7369C26.8895 34.691 26.8744 34.6322 26.8744 34.5581C26.8744 34.4905 26.8868 34.4349 26.9108 34.3882C26.9347 34.3415 26.9658 34.3044 27.003 34.2746C27.0403 34.2448 27.0846 34.2239 27.1334 34.2118C27.1831 34.1998 27.2328 34.1925 27.2824 34.1925L27.2833 34.1933ZM27.4625 34.3189C27.4421 34.3133 27.4146 34.3077 27.3791 34.3036C27.3436 34.2996 27.309 34.2972 27.2753 34.2972C27.192 34.2972 27.1237 34.3173 27.0696 34.3584C27.0154 34.3995 26.9888 34.4647 26.9888 34.5549C26.9888 34.6008 26.9968 34.6402 27.0128 34.6716C27.0288 34.703 27.05 34.7288 27.0767 34.7473C27.1024 34.7659 27.1334 34.7787 27.1689 34.7868C27.2044 34.7948 27.2416 34.7989 27.278 34.7989C27.3144 34.7989 27.3463 34.7973 27.3738 34.794C27.4013 34.7908 27.4306 34.782 27.4616 34.7667V34.3189H27.4625Z" fill="white"/>
<path d="M27.2116 35.3407C27.1806 35.3407 27.1478 35.3391 27.1114 35.3358C27.075 35.3326 27.0351 35.3254 26.989 35.3133C26.9704 35.3101 26.9588 35.2988 26.9526 35.2907C26.942 35.2762 26.9402 35.2577 26.9455 35.2336C26.95 35.2175 26.9553 35.1973 26.9624 35.1764L26.9712 35.1458L27.0041 35.1554C27.0351 35.1643 27.0679 35.1716 27.1016 35.1764C27.1336 35.1812 27.1682 35.1836 27.209 35.1836C27.2604 35.1836 27.3003 35.1764 27.3287 35.1619C27.3562 35.1482 27.3775 35.1297 27.3917 35.1071C27.4068 35.0846 27.4156 35.0588 27.4201 35.0282C27.4245 34.9952 27.4272 34.9638 27.4272 34.9308V34.9163C27.4103 34.9211 27.3935 34.9243 27.3766 34.9268C27.3056 34.9372 27.232 34.9364 27.1424 34.9211C27.091 34.9123 27.0422 34.8945 26.9996 34.8672C26.9562 34.8398 26.918 34.8011 26.887 34.752C26.855 34.7013 26.84 34.6377 26.84 34.5579C26.84 34.4871 26.8533 34.4251 26.879 34.3751C26.9056 34.3244 26.9393 34.2833 26.9801 34.2519C27.0218 34.2197 27.0697 34.1964 27.1229 34.1827C27.1717 34.1706 27.2187 34.1642 27.2657 34.1625L27.2817 34.1617C27.3314 34.1617 27.3846 34.1666 27.4396 34.1754C27.4919 34.1843 27.5407 34.1948 27.5868 34.2068L27.6108 34.2133V34.9026C27.6108 34.9855 27.6028 35.0532 27.5868 35.1079C27.5709 35.1651 27.546 35.211 27.5114 35.2456C27.4768 35.2811 27.4334 35.306 27.3828 35.3197C27.3358 35.3334 27.279 35.3399 27.2098 35.3399L27.2116 35.3407ZM27.0174 35.2223C27.0147 35.2311 27.012 35.24 27.0103 35.2481C27.0076 35.2569 27.0085 35.2601 27.0085 35.2601C27.0484 35.2666 27.0839 35.2738 27.1167 35.2762C27.2249 35.2851 27.3039 35.2803 27.3651 35.2626C27.4041 35.2521 27.4369 35.2328 27.4635 35.2054C27.491 35.178 27.5105 35.141 27.5238 35.0926C27.538 35.0435 27.5451 34.9791 27.5451 34.9026V34.2584C27.5079 34.2495 27.4697 34.2415 27.428 34.235C27.3828 34.2278 27.3385 34.2229 27.2968 34.2221H27.2817C27.2356 34.2221 27.1894 34.2278 27.1415 34.2399C27.0981 34.2511 27.0582 34.2705 27.0236 34.297C26.9899 34.3228 26.9615 34.3574 26.9393 34.4001C26.9171 34.442 26.9065 34.4943 26.9065 34.5571C26.9065 34.6248 26.9198 34.6803 26.9446 34.7214C26.9704 34.7633 27.0005 34.7947 27.0369 34.8164C27.0732 34.839 27.1114 34.8535 27.1548 34.8607C27.2365 34.8744 27.303 34.8744 27.3668 34.8656C27.3943 34.8615 27.4209 34.8543 27.4476 34.843L27.4946 34.8237V34.9292C27.4946 34.9646 27.4919 34.9992 27.4875 35.0347C27.4822 35.0733 27.4697 35.1071 27.4502 35.1369C27.4298 35.1683 27.3997 35.1941 27.3624 35.2134C27.3243 35.2328 27.2728 35.2432 27.2098 35.2432C27.1655 35.2432 27.1265 35.2408 27.0919 35.2352C27.067 35.2311 27.0422 35.2263 27.0182 35.2207L27.0174 35.2223ZM27.2773 34.8293C27.2365 34.8293 27.1965 34.8253 27.1593 34.8164C27.1185 34.8076 27.0839 34.7923 27.0546 34.7713C27.0253 34.7512 27.0005 34.7214 26.981 34.6852C26.9633 34.6497 26.9535 34.6063 26.9535 34.5555C26.9535 34.4565 26.9845 34.3824 27.0457 34.3357C27.1052 34.2906 27.1815 34.2672 27.2728 34.2672C27.3083 34.2672 27.3447 34.2696 27.381 34.2745C27.4192 34.2793 27.4484 34.2841 27.4706 34.2914L27.4937 34.2978V34.7858L27.4759 34.7939C27.4414 34.81 27.4094 34.8197 27.3775 34.8237C27.3491 34.8277 27.3172 34.8293 27.2764 34.8293H27.2773ZM27.2728 34.3276C27.1974 34.3276 27.1371 34.3453 27.0892 34.3824C27.0431 34.417 27.0209 34.4742 27.0209 34.5555C27.0209 34.5974 27.028 34.6328 27.0422 34.6594C27.0564 34.6876 27.0741 34.7085 27.0954 34.723C27.1176 34.7391 27.1442 34.7504 27.1761 34.7568C27.2409 34.7713 27.3198 34.7697 27.3686 34.7633C27.3872 34.7609 27.4068 34.7552 27.428 34.7472V34.3421C27.413 34.3389 27.3943 34.3365 27.3731 34.3333C27.3393 34.3292 27.3056 34.3268 27.2737 34.3268L27.2728 34.3276Z" fill="white"/>
<path d="M28.0152 34.2658C28.0152 34.2425 28.0285 34.2312 28.0551 34.2312H28.1314V34.7248C28.1314 34.7248 28.1438 34.7345 28.1562 34.7434C28.1687 34.7522 28.1855 34.7603 28.205 34.7683C28.2245 34.7764 28.2494 34.7836 28.2786 34.7901C28.3079 34.7965 28.3407 34.8005 28.3789 34.8005H28.3975V34.8996H28.3789C28.3505 34.8996 28.3132 34.8956 28.2689 34.8891C28.2228 34.8827 28.1775 34.8633 28.1323 34.8311V35.0687C28.1323 35.1524 28.1119 35.2144 28.0711 35.2539C28.0303 35.2926 27.9735 35.3127 27.9008 35.3127C27.8538 35.3127 27.8014 35.3038 27.7438 35.2869C27.7101 35.2773 27.6968 35.2571 27.7048 35.2265L27.7207 35.175C27.7393 35.1822 27.7633 35.1903 27.7935 35.1975C27.8236 35.2056 27.8484 35.2096 27.8697 35.2096C27.9301 35.2096 27.97 35.1999 27.9877 35.1806C28.0054 35.1605 28.0152 35.1218 28.0152 35.0639V34.2666V34.2658Z" fill="white"/>
<path d="M27.9015 35.3415C27.8518 35.3415 27.7968 35.3327 27.7347 35.3149C27.6841 35.3004 27.662 35.265 27.6735 35.2183L27.7001 35.1329L27.7347 35.1466C27.7551 35.1547 27.7782 35.1619 27.8021 35.1676C27.8287 35.1748 27.8509 35.178 27.8704 35.178C27.9405 35.178 27.9582 35.1644 27.9627 35.1595C27.9689 35.1531 27.9822 35.1297 27.9822 35.0621V34.2649C27.9822 34.2254 28.0106 34.2004 28.0558 34.2004H28.1658V34.7102C28.1658 34.7102 28.1729 34.715 28.1773 34.7182C28.188 34.7255 28.2013 34.7327 28.2199 34.74C28.2385 34.7472 28.2616 34.7545 28.2882 34.7601C28.3157 34.7665 28.3458 34.7698 28.3796 34.7698H28.431V34.9292H28.3796C28.3503 34.9292 28.313 34.926 28.2642 34.9187C28.2305 34.9139 28.1986 34.9034 28.1658 34.8873V35.0685C28.1658 35.1611 28.1427 35.2288 28.0957 35.2739C28.0478 35.319 27.9831 35.3415 27.9015 35.3415ZM27.7436 35.2143L27.7374 35.2336C27.7338 35.2465 27.7356 35.2521 27.7542 35.257C27.8926 35.2972 27.9884 35.2876 28.0469 35.232C28.0815 35.199 28.0993 35.1434 28.0993 35.0677V34.769L28.1525 34.8068C28.1942 34.8358 28.2341 34.8527 28.274 34.8583C28.3104 34.864 28.3405 34.8672 28.3645 34.868V34.8302C28.3308 34.8294 28.2997 34.8253 28.2713 34.8189C28.2412 34.8116 28.2155 34.8044 28.1924 34.7955C28.1693 34.7859 28.1516 34.777 28.1365 34.7674C28.1214 34.7577 28.1126 34.7504 28.1081 34.7464L28.0984 34.7376V34.2616H28.0549C28.0487 34.2616 28.0469 34.2624 28.0469 34.2624L28.0487 34.2657V35.0629C28.0487 35.1281 28.0372 35.1724 28.0141 35.199C27.9893 35.2264 27.944 35.2392 27.8704 35.2392C27.8447 35.2392 27.8163 35.2352 27.7844 35.2264C27.7702 35.2231 27.7569 35.2191 27.7436 35.2151V35.2143Z" fill="white"/>
<path d="M28.617 34.2675C28.617 34.2433 28.6303 34.2312 28.6569 34.2312H28.7332V34.7265C28.7491 34.7394 28.7687 34.7523 28.79 34.7619C28.8112 34.7716 28.8387 34.7812 28.8716 34.7885C28.9035 34.7957 28.9381 34.7998 28.9762 34.7998H28.9984V34.8988H28.9762C28.9603 34.8988 28.9416 34.8988 28.9203 34.8956C28.8991 34.894 28.8769 34.89 28.852 34.8835C28.8272 34.8771 28.8033 34.869 28.7784 34.8569C28.7545 34.8449 28.7323 34.8288 28.7137 34.8086C28.6711 34.8682 28.5939 34.8988 28.4822 34.8988H28.3376V34.7998H28.4281C28.4964 34.7998 28.5451 34.7877 28.5726 34.7635C28.601 34.7394 28.6143 34.6999 28.6143 34.6468V34.2691L28.617 34.2675ZM28.4822 33.9929C28.4822 33.9728 28.4901 33.955 28.5052 33.9413C28.5203 33.9277 28.5398 33.9204 28.562 33.9204C28.5842 33.9204 28.6037 33.9277 28.6188 33.9413C28.6338 33.955 28.6418 33.9728 28.6418 33.9929C28.6418 34.013 28.6338 34.0307 28.6188 34.0444C28.6037 34.0581 28.5842 34.0654 28.562 34.0654C28.5398 34.0654 28.5203 34.0581 28.5052 34.0444C28.4901 34.0307 28.4822 34.013 28.4822 33.9929ZM28.6995 33.9929C28.6995 33.9728 28.7075 33.955 28.7225 33.9413C28.7376 33.9277 28.7571 33.9204 28.7793 33.9204C28.8015 33.9204 28.821 33.9277 28.8361 33.9413C28.8512 33.955 28.8591 33.9728 28.8591 33.9929C28.8591 34.013 28.8512 34.0307 28.8361 34.0444C28.821 34.0581 28.8015 34.0654 28.7793 34.0654C28.7571 34.0654 28.7376 34.0581 28.7225 34.0444C28.7075 34.0307 28.6995 34.013 28.6995 33.9929Z" fill="white"/>
<path d="M28.4839 34.9287H28.3056V34.7692H28.4289C28.4874 34.7692 28.5291 34.7596 28.5513 34.741C28.5726 34.7233 28.5823 34.6911 28.5823 34.646L28.5841 34.2538C28.5894 34.2208 28.6169 34.2007 28.6568 34.2007H28.7668V34.712C28.7792 34.7209 28.7926 34.729 28.8059 34.7354C28.8254 34.7443 28.8502 34.7523 28.8795 34.7588C28.9096 34.7652 28.9407 34.7692 28.9762 34.7692H29.032V34.9287H28.9762C28.9593 34.9287 28.9389 34.9287 28.9167 34.9254C28.8928 34.9238 28.8662 34.9182 28.844 34.9134C28.8165 34.9069 28.7908 34.8973 28.7633 34.8844C28.7464 34.8763 28.7313 34.8667 28.7172 34.8554C28.6657 34.9045 28.5877 34.9295 28.4839 34.9295V34.9287ZM28.3721 34.8683H28.4839C28.5841 34.8683 28.6506 34.8433 28.687 34.7918L28.7118 34.7571L28.7411 34.7894C28.7562 34.8063 28.7748 34.82 28.7952 34.8304C28.8174 34.8409 28.8396 34.8489 28.8609 34.8538C28.8883 34.8602 28.907 34.8634 28.9238 34.8642C28.9398 34.8659 28.954 34.8667 28.9664 34.8667V34.828C28.93 34.828 28.8963 34.8232 28.8644 34.8159C28.8298 34.8079 28.7996 34.7982 28.7757 34.7869C28.7526 34.7757 28.7305 34.7628 28.7118 34.7467L28.7012 34.7378V34.2595H28.6577V34.2724L28.6497 34.2796V34.6452C28.6497 34.708 28.632 34.7547 28.5974 34.7845C28.5628 34.8143 28.5061 34.8296 28.4298 34.8296H28.373V34.8683H28.3721ZM28.7801 34.0968C28.7491 34.0968 28.7207 34.0863 28.6994 34.067C28.6861 34.0549 28.6764 34.0404 28.671 34.0251C28.6657 34.0404 28.656 34.0549 28.6426 34.067C28.5992 34.1065 28.5247 34.1065 28.4812 34.067C28.4599 34.0469 28.4484 34.0219 28.4484 33.9937C28.4484 33.9656 28.4599 33.9398 28.4812 33.9205C28.5247 33.881 28.5992 33.881 28.6426 33.9205C28.656 33.9325 28.6657 33.947 28.671 33.9623C28.6764 33.947 28.6861 33.9325 28.6994 33.9205C28.7429 33.881 28.8174 33.881 28.8609 33.9205C28.8821 33.9398 28.8937 33.9656 28.8937 33.9937C28.8937 34.0219 28.8821 34.0477 28.8609 34.067C28.8387 34.0863 28.8112 34.0968 28.7801 34.0968ZM28.7801 33.9503C28.7668 33.9503 28.7553 33.9543 28.7464 33.9623C28.7376 33.9704 28.7331 33.9809 28.7331 33.9929C28.7331 34.005 28.7376 34.0155 28.7464 34.0235C28.7651 34.0404 28.7952 34.0404 28.8138 34.0235C28.8227 34.0155 28.8271 34.005 28.8271 33.9929C28.8271 33.9809 28.8227 33.9704 28.8138 33.9623C28.805 33.9543 28.7934 33.9503 28.7801 33.9503ZM28.5628 33.9503C28.5495 33.9503 28.538 33.9543 28.5291 33.9623C28.5202 33.9704 28.5158 33.9809 28.5158 33.9929C28.5158 34.005 28.5202 34.0155 28.5291 34.0235C28.5477 34.0404 28.5779 34.0404 28.5965 34.0235C28.6054 34.0155 28.6098 34.005 28.6098 33.9929C28.6098 33.9809 28.6054 33.9704 28.5965 33.9623C28.5877 33.9543 28.5761 33.9503 28.5628 33.9503Z" fill="white"/>
<path d="M29.9851 34.7227C29.9993 34.7372 30.0179 34.7501 30.0409 34.7598C30.064 34.7694 30.0897 34.7799 30.1217 34.788C30.1536 34.796 30.1908 34.8 30.2352 34.8H30.2529V34.8991H30.2352C30.2192 34.8991 30.2006 34.8991 30.1793 34.8959C30.158 34.8926 30.1367 34.891 30.1128 34.8846C30.0888 34.8782 30.0658 34.8717 30.0427 34.862C30.0197 34.8524 29.9975 34.8387 29.9771 34.8218C29.9629 34.8532 29.9425 34.8741 29.9168 34.8838C29.891 34.8935 29.852 34.8983 29.7997 34.8983H28.9384V34.7992H29.8768V34.6897C29.8768 34.647 29.8724 34.606 29.8627 34.5649C29.8529 34.5238 29.8343 34.4884 29.8059 34.4578C29.7775 34.4264 29.7376 34.4014 29.6853 34.3821C29.6329 34.3628 29.5637 34.3539 29.4786 34.3539H29.1992C29.177 34.3539 29.1602 34.3451 29.1495 34.3282C29.1362 34.312 29.1211 34.2911 29.1052 34.2637L29.7873 33.7814C29.805 33.7975 29.8236 33.816 29.844 33.8361C29.8564 33.849 29.8547 33.8619 29.8396 33.8724L29.2719 34.2637H29.5354C29.6178 34.2637 29.687 34.2742 29.7447 34.2935C29.8023 34.3129 29.8494 34.3426 29.8848 34.3813C29.9203 34.4191 29.946 34.4659 29.962 34.5206C29.978 34.5746 29.986 34.6358 29.986 34.7026V34.7227H29.9851Z" fill="white"/>
<path d="M30.285 34.9281H30.2344C30.2176 34.9281 30.1972 34.9281 30.175 34.9249C30.1528 34.9224 30.1289 34.9192 30.1032 34.9128C30.0775 34.9063 30.0535 34.8991 30.0278 34.8886C30.0136 34.883 30.0003 34.8757 29.9861 34.8669C29.9701 34.8878 29.9506 34.9023 29.9284 34.9104C29.8974 34.9216 29.8557 34.9273 29.7989 34.9273H28.9039V34.7678H29.8424V34.6881C29.8424 34.6478 29.838 34.6084 29.8282 34.5697C29.8193 34.5327 29.8034 34.5021 29.7785 34.4755C29.7537 34.4481 29.7191 34.4264 29.6712 34.4087C29.6233 34.391 29.5577 34.3821 29.4769 34.3821H29.1975C29.1647 34.3821 29.1363 34.3676 29.1195 34.3418C29.1071 34.3274 29.092 34.3056 29.0743 34.2766L29.0609 34.2541L29.7883 33.7395L29.8087 33.7588C29.8264 33.7749 29.8459 33.7943 29.8663 33.8152C29.8814 33.8321 29.8832 33.8466 29.8823 33.8571C29.8814 33.8667 29.8761 33.882 29.8584 33.8949L29.3678 34.2323H29.5319C29.6162 34.2323 29.6907 34.2428 29.7528 34.2645C29.8158 34.2863 29.8681 34.3185 29.9071 34.3612C29.9453 34.4022 29.9737 34.453 29.9905 34.5118C30.0074 34.5681 30.0162 34.6317 30.0162 34.7018V34.7099C30.0269 34.7187 30.0393 34.726 30.0535 34.7324C30.0757 34.7429 30.1005 34.7509 30.128 34.7582C30.1555 34.7654 30.1901 34.7686 30.2327 34.7686H30.2832V34.9281H30.285ZM28.9705 34.8677H29.7989C29.8575 34.8677 29.8876 34.8612 29.9036 34.8556C29.9205 34.8492 29.9346 34.8339 29.9462 34.8097L29.9648 34.7703L29.9994 34.7992C30.018 34.8145 30.0367 34.8266 30.0562 34.8339C30.0783 34.8427 30.0987 34.8492 30.1209 34.8548C30.1431 34.8604 30.1635 34.8629 30.183 34.8653C30.1963 34.8669 30.2078 34.8677 30.2194 34.8677V34.8298C30.1777 34.8298 30.1422 34.825 30.112 34.817C30.081 34.8089 30.0517 34.7992 30.026 34.7872C30.0003 34.7751 29.9781 34.7606 29.9604 34.7429L29.9515 34.734V34.7018C29.9515 34.6374 29.9435 34.5786 29.9284 34.5279C29.9134 34.4779 29.8894 34.4345 29.8575 34.4006C29.8255 34.366 29.783 34.3394 29.7315 34.3217C29.6765 34.3032 29.61 34.2935 29.5337 34.2935H29.1718L29.8131 33.8514C29.8025 33.841 29.7927 33.8305 29.783 33.8208L29.147 34.271C29.1567 34.2863 29.1665 34.2992 29.1745 34.3088C29.1816 34.3193 29.1878 34.3225 29.1984 34.3225H29.4778C29.5674 34.3225 29.641 34.333 29.6969 34.3531C29.7555 34.3741 29.7998 34.4022 29.8309 34.4377C29.8619 34.4715 29.8832 34.5118 29.8938 34.5577C29.9036 34.6003 29.9089 34.6446 29.9089 34.6889V34.829H28.9705V34.8677Z" fill="white"/>
<path d="M30.6437 34.5333C30.6437 34.5905 30.6384 34.6412 30.6269 34.6871C30.6154 34.7322 30.5958 34.7709 30.5675 34.8015C30.5391 34.8321 30.5009 34.857 30.4513 34.874C30.4016 34.8909 30.3413 34.8997 30.2668 34.8997H30.1887V34.8007H30.265C30.3555 34.8007 30.4211 34.783 30.4628 34.7475C30.5054 34.7121 30.5267 34.6614 30.5267 34.5937V33.8247C30.5267 33.8005 30.54 33.7885 30.5666 33.7885H30.6429V34.5341L30.6437 34.5333Z" fill="white"/>
<path d="M30.266 34.9281H30.1543V34.7687H30.2642C30.3459 34.7687 30.4044 34.7534 30.4399 34.7236C30.4762 34.6938 30.4931 34.6511 30.4931 34.5923V33.8233C30.4931 33.783 30.5224 33.7565 30.5667 33.7565H30.6767V34.5328C30.6767 34.5915 30.6705 34.6455 30.659 34.693C30.6465 34.7429 30.6244 34.7848 30.5924 34.8194C30.5596 34.8549 30.5162 34.8822 30.4629 34.9008C30.4097 34.9193 30.3432 34.9281 30.2669 34.9281H30.266ZM30.2208 34.8677H30.266C30.3343 34.8677 30.3929 34.8597 30.439 34.8444C30.4816 34.8299 30.5162 34.8082 30.541 34.7808C30.5658 34.7534 30.5836 34.7196 30.5933 34.6793C30.604 34.6366 30.6093 34.5867 30.6093 34.5328V33.8169H30.5658L30.5587 33.8233V34.5923C30.5587 34.668 30.5339 34.7276 30.4842 34.7679C30.4363 34.809 30.3645 34.8291 30.2642 34.8291H30.2208V34.8677Z" fill="white"/>
<path d="M31.2746 34.1701C31.2746 34.1411 31.2897 34.1266 31.3208 34.1266H31.3917V34.799H31.5931C31.6835 34.799 31.7483 34.7813 31.79 34.7459C31.8317 34.7105 31.8521 34.6597 31.8521 34.5921V33.8279C31.8521 33.7997 31.8663 33.786 31.8946 33.786H31.9692V34.5333C31.9692 34.5897 31.9638 34.6404 31.9523 34.6847C31.9408 34.7298 31.9213 34.7684 31.892 34.799C31.8627 34.8296 31.8246 34.8546 31.7758 34.8715C31.7279 34.8884 31.6667 34.8973 31.5922 34.8973H30.8551V34.8353C30.8551 34.8111 30.8666 34.799 30.8888 34.799H31.2729V34.1701H31.2746Z" fill="white"/>
<path d="M31.593 34.9273H30.8231V34.8347C30.8231 34.7945 30.8497 34.7679 30.8905 34.7679H31.2418V34.1196L31.2559 34.1261C31.2692 34.1068 31.2923 34.0963 31.3225 34.0963H31.4263V34.7687H31.5939C31.6746 34.7687 31.7332 34.7534 31.7686 34.7236C31.8032 34.6938 31.8201 34.6511 31.8201 34.5923V33.8281C31.8201 33.7838 31.8494 33.7565 31.8964 33.7565H32.0037V34.5336C32.0037 34.5915 31.9975 34.6447 31.9859 34.6914C31.9735 34.7413 31.9505 34.784 31.9185 34.8186C31.8848 34.8541 31.8414 34.8814 31.789 34.8992C31.7367 34.9177 31.6702 34.9265 31.5939 34.9265L31.593 34.9273ZM30.8896 34.8669H31.593C31.6622 34.8669 31.7198 34.8589 31.7651 34.8436C31.8068 34.8291 31.8414 34.8074 31.868 34.78C31.8937 34.7534 31.9114 34.7188 31.9212 34.6793C31.9318 34.6366 31.9372 34.5883 31.9372 34.5344V33.8177H31.8964C31.8884 33.8177 31.8866 33.8209 31.8866 33.8289V34.5931C31.8866 34.6696 31.8627 34.7268 31.8139 34.7687C31.7651 34.8098 31.6932 34.8299 31.5939 34.8299H31.3597V34.1575H31.3225C31.3154 34.1575 31.3127 34.1591 31.3118 34.1591C31.3118 34.1591 31.3092 34.1631 31.3092 34.1712V34.2211H31.3074V34.8291H30.8896C30.8896 34.8291 30.8896 34.8283 30.8896 34.8355V34.8677V34.8669Z" fill="white"/>
<path d="M32.3471 34.8623C32.3471 34.8864 32.3338 34.8985 32.3072 34.8985H32.2309V33.8235C32.2309 33.7993 32.2442 33.7872 32.2708 33.7872H32.3471V34.8623Z" fill="white"/>
<path d="M32.3064 34.9281H32.1964V33.8233C32.1964 33.783 32.2257 33.7565 32.2701 33.7565H32.3801V34.8613C32.3801 34.9016 32.3508 34.9281 32.3064 34.9281ZM32.263 34.8677H32.3064L32.3135 34.8613V33.8169H32.2701L32.263 33.8233V34.8677Z" fill="white"/>
<path d="M34.282 34.2682C34.282 34.244 34.2953 34.2319 34.3219 34.2319H34.3982V34.7256C34.4141 34.7401 34.4337 34.7529 34.455 34.7626C34.4762 34.7723 34.5037 34.7819 34.5357 34.7892C34.5676 34.7964 34.604 34.8005 34.6474 34.8005H34.6661V34.8995H34.6474C34.6315 34.8995 34.6111 34.8995 34.5871 34.8963C34.5632 34.8947 34.5383 34.8906 34.5117 34.8834C34.486 34.877 34.4603 34.8673 34.4345 34.856C34.4088 34.8447 34.3867 34.8278 34.368 34.8077C34.3494 34.8367 34.3219 34.8592 34.2873 34.8753C34.2527 34.8915 34.2057 34.8995 34.148 34.8995H33.4792C33.403 34.8995 33.3382 34.8898 33.285 34.8721C33.2318 34.8536 33.1883 34.8294 33.1555 34.7997C33.1218 34.7699 33.0969 34.7344 33.081 34.6942C33.065 34.6539 33.057 34.6112 33.057 34.5677C33.057 34.5114 33.0615 34.4655 33.0703 34.4284C33.0801 34.3914 33.089 34.3656 33.0969 34.3511C33.1209 34.3568 33.1475 34.364 33.1777 34.3712C33.1936 34.3761 33.199 34.3898 33.1919 34.4115C33.1839 34.4397 33.1786 34.463 33.175 34.4824C33.1715 34.5025 33.1706 34.5259 33.1706 34.5532C33.1706 34.6007 33.1812 34.6402 33.2025 34.6716C33.2238 34.703 33.2522 34.7288 33.2868 34.7473C33.3214 34.7658 33.3613 34.7795 33.4065 34.7876C33.4517 34.7956 33.4988 34.7997 33.5467 34.7997H34.1108C34.1791 34.7997 34.2252 34.7852 34.2474 34.7562C34.2696 34.7272 34.2811 34.6877 34.2811 34.6378V34.269L34.282 34.2682ZM33.6566 35.1137C33.6566 35.0936 33.6646 35.0759 33.6797 35.0622C33.6948 35.0485 33.7143 35.0412 33.7365 35.0412C33.7587 35.0412 33.7782 35.0485 33.7932 35.0622C33.8083 35.0759 33.8163 35.0936 33.8163 35.1137C33.8163 35.1338 33.8083 35.1516 33.7932 35.1652C33.7782 35.1789 33.7587 35.1862 33.7365 35.1862C33.7143 35.1862 33.6948 35.1789 33.6797 35.1652C33.6646 35.1516 33.6566 35.1338 33.6566 35.1137Z" fill="white"/>
<path d="M33.7373 35.2154C33.7063 35.2154 33.6779 35.2049 33.6566 35.1856C33.6353 35.1655 33.6238 35.1405 33.6238 35.1123C33.6238 35.0841 33.6353 35.0584 33.6566 35.039C33.7 34.9996 33.7746 34.9996 33.818 35.039C33.8393 35.0592 33.8508 35.0841 33.8508 35.1123C33.8508 35.1405 33.8393 35.1663 33.818 35.1856C33.7958 35.2049 33.7683 35.2154 33.7373 35.2154ZM33.7373 35.0688C33.724 35.0688 33.7125 35.0729 33.7036 35.0809C33.6947 35.089 33.6903 35.0994 33.6903 35.1115C33.6903 35.1236 33.6947 35.1341 33.7036 35.1421C33.7222 35.159 33.7524 35.159 33.771 35.1421C33.7799 35.1341 33.7843 35.1236 33.7843 35.1115C33.7843 35.0994 33.7799 35.089 33.771 35.0809C33.7621 35.0729 33.7506 35.0688 33.7373 35.0688ZM34.7006 34.9279H34.6491C34.6323 34.9279 34.611 34.9279 34.5853 34.9247C34.5596 34.9231 34.5329 34.9183 34.5037 34.9102C34.4797 34.9038 34.4531 34.8949 34.4221 34.882C34.4052 34.8748 34.3884 34.8651 34.3733 34.853C34.3547 34.8724 34.3307 34.8885 34.3032 34.9005C34.2651 34.9183 34.2127 34.9279 34.1498 34.9279H33.481C33.4029 34.9279 33.3337 34.9183 33.2752 34.8989C33.2166 34.8788 33.1696 34.8522 33.1333 34.8192C33.096 34.7862 33.0685 34.7467 33.0508 34.7024C33.033 34.659 33.025 34.6131 33.025 34.5655C33.025 34.5092 33.0295 34.4601 33.0392 34.4198C33.0499 34.3795 33.0596 34.3521 33.0685 34.3352L33.0809 34.3135L33.1874 34.3401C33.2024 34.3449 33.2415 34.3618 33.2255 34.4174C33.2175 34.4439 33.2122 34.4665 33.2095 34.485C33.2069 34.5035 33.2051 34.5253 33.2051 34.5511C33.2051 34.5929 33.214 34.6276 33.2326 34.6533C33.2521 34.6807 33.2769 34.7032 33.3062 34.7194C33.3364 34.7363 33.3736 34.7483 33.4153 34.7556C33.457 34.7628 33.5022 34.7669 33.5493 34.7669H34.1134C34.1524 34.7669 34.203 34.7612 34.2234 34.7355C34.242 34.7113 34.2509 34.6775 34.2509 34.6348V34.266C34.2509 34.2257 34.2801 34.2 34.3245 34.2H34.4345V34.7105C34.446 34.7194 34.4593 34.7274 34.4735 34.7338C34.4921 34.7427 34.517 34.7508 34.5471 34.758C34.5755 34.7644 34.611 34.7677 34.6509 34.7677H34.7024V34.9271L34.7006 34.9279ZM33.1182 34.386C33.1146 34.3972 33.1093 34.4125 33.104 34.4343C33.0951 34.4697 33.0916 34.5148 33.0916 34.5672C33.0916 34.6074 33.0987 34.6469 33.1137 34.6831C33.1279 34.7185 33.151 34.7508 33.1803 34.7773C33.2095 34.8039 33.2495 34.8265 33.2982 34.8434C33.3488 34.8603 33.41 34.8683 33.4801 34.8683H34.1489C34.2012 34.8683 34.2429 34.8611 34.2731 34.8474C34.3023 34.8345 34.3245 34.816 34.3396 34.7918L34.3626 34.7548L34.3928 34.787C34.4105 34.8063 34.4292 34.8192 34.4487 34.8273C34.4762 34.8393 34.4992 34.8474 34.5205 34.8522C34.5454 34.8595 34.5684 34.8627 34.5897 34.8643C34.6066 34.8659 34.6208 34.8667 34.6332 34.8667V34.8289C34.5933 34.8289 34.5587 34.824 34.5276 34.8168C34.493 34.8087 34.4638 34.7991 34.4398 34.7878C34.415 34.7757 34.3928 34.7612 34.3742 34.7451L34.3644 34.7363V34.2603H34.321L34.2553 34.266H34.3139V34.6348C34.3139 34.6904 34.3005 34.7363 34.2739 34.7709C34.2447 34.8087 34.1897 34.8281 34.1098 34.8281H33.5457C33.4943 34.8281 33.4446 34.824 33.3994 34.816C33.3497 34.8071 33.3053 34.7926 33.269 34.7717C33.2299 34.7508 33.198 34.7218 33.1732 34.6855C33.1483 34.6501 33.1359 34.6042 33.1359 34.5511C33.1359 34.5221 33.1377 34.4971 33.1412 34.4754C33.1448 34.4552 33.1501 34.4303 33.159 34.4013C33.159 34.3989 33.1599 34.3972 33.1599 34.3956L33.1155 34.3844L33.1182 34.386Z" fill="white"/>
<path d="M34.9982 34.2674C34.9982 34.2433 35.0115 34.2312 35.0381 34.2312H35.1144V34.6201C35.1144 34.8054 34.992 34.898 34.7481 34.898H34.607V34.7989H34.7401C34.819 34.7989 34.882 34.7812 34.9281 34.7474C34.9743 34.7119 34.9973 34.6612 34.9973 34.5928V34.2674H34.9982ZM34.7055 35.0969C34.7055 35.0767 34.7135 35.059 34.7286 35.0453C34.7436 35.0316 34.7631 35.0244 34.7853 35.0244C34.8075 35.0244 34.827 35.0316 34.8421 35.0453C34.8572 35.059 34.8652 35.0767 34.8652 35.0969C34.8652 35.117 34.8572 35.1347 34.8421 35.1484C34.827 35.1621 34.8075 35.1693 34.7853 35.1693C34.7631 35.1693 34.7436 35.1621 34.7286 35.1484C34.7135 35.1347 34.7055 35.117 34.7055 35.0969ZM34.9228 35.0969C34.9228 35.0767 34.9308 35.059 34.9459 35.0453C34.9609 35.0316 34.9805 35.0244 35.0026 35.0244C35.0248 35.0244 35.0443 35.0316 35.0594 35.0453C35.0745 35.059 35.0825 35.0767 35.0825 35.0969C35.0825 35.117 35.0745 35.1347 35.0594 35.1484C35.0443 35.1621 35.0248 35.1693 35.0026 35.1693C34.9805 35.1693 34.9609 35.1621 34.9459 35.1484C34.9308 35.1347 34.9228 35.117 34.9228 35.0969Z" fill="white"/>
<path d="M35.0044 35.2006C34.9733 35.2006 34.9449 35.1901 34.9236 35.1708C34.9103 35.1587 34.9015 35.1442 34.8952 35.1289C34.8899 35.145 34.8802 35.1587 34.8669 35.1708C34.8243 35.2094 34.7489 35.2103 34.7054 35.1708C34.6841 35.1515 34.6726 35.1257 34.6726 35.0975C34.6726 35.0693 34.6841 35.0436 34.7054 35.0242C34.7489 34.9848 34.8234 34.9848 34.8669 35.0242C34.8802 35.0363 34.8899 35.0508 34.8952 35.0661C34.9006 35.0508 34.9103 35.0363 34.9236 35.0242C34.9671 34.9848 35.0416 34.9848 35.0851 35.0242C35.1064 35.0436 35.1179 35.0693 35.1179 35.0975C35.1179 35.1257 35.1064 35.1515 35.0851 35.1708C35.0638 35.1901 35.0354 35.2006 35.0044 35.2006ZM35.0044 35.054C34.991 35.054 34.9795 35.0581 34.9706 35.0661C34.9618 35.0742 34.9573 35.0846 34.9573 35.0967C34.9573 35.1088 34.9618 35.1193 34.9706 35.1273C34.9893 35.1442 35.0194 35.1442 35.0381 35.1273C35.0469 35.1193 35.0514 35.1088 35.0514 35.0967C35.0514 35.0846 35.0469 35.0742 35.0381 35.0661C35.0292 35.0581 35.0177 35.054 35.0044 35.054ZM34.787 35.054C34.7737 35.054 34.7622 35.0581 34.7533 35.0661C34.7445 35.0742 34.74 35.0846 34.74 35.0967C34.74 35.1088 34.7445 35.1193 34.7533 35.1273C34.772 35.1442 34.8021 35.1442 34.8207 35.1273C34.8296 35.1193 34.834 35.1088 34.834 35.0967C34.834 35.0846 34.8296 35.0742 34.8207 35.0661C34.8119 35.0581 34.8003 35.054 34.787 35.054ZM34.7489 34.9276H34.575V34.7682H34.7409C34.811 34.7682 34.8678 34.7529 34.9086 34.7231C34.9467 34.6941 34.9653 34.6514 34.9653 34.5926V34.2673C34.9653 34.227 34.9946 34.2004 35.0389 34.2004H35.1489V34.62C35.1489 34.7609 35.0797 34.9284 34.7489 34.9284V34.9276ZM34.6416 34.8672H34.7489C34.9733 34.8672 35.0824 34.7859 35.0824 34.6192V34.26H35.0389L35.0318 34.2665V34.5918C35.0318 34.6683 35.0043 34.7279 34.9511 34.769C34.8979 34.8084 34.8269 34.8277 34.7409 34.8277H34.6416V34.8664V34.8672Z" fill="white"/>
<path d="M35.5527 34.2658C35.5527 34.2425 35.566 34.2312 35.5926 34.2312H35.6689V35.0687C35.6689 35.1524 35.6485 35.2144 35.6077 35.2539C35.5669 35.2926 35.5102 35.3127 35.4374 35.3127C35.3904 35.3127 35.3381 35.3038 35.2804 35.2869C35.2467 35.2773 35.2334 35.2571 35.2414 35.2265L35.2574 35.175C35.276 35.1822 35.2999 35.1903 35.3301 35.1975C35.3603 35.2056 35.3851 35.2096 35.4064 35.2096C35.4667 35.2096 35.5066 35.1999 35.5243 35.1806C35.5421 35.1605 35.5518 35.1218 35.5518 35.0639V34.2666L35.5527 34.2658Z" fill="white"/>
<path d="M35.4381 35.3415C35.3884 35.3415 35.3334 35.3327 35.2713 35.3149C35.2208 35.3004 35.1986 35.265 35.2101 35.2183L35.2367 35.1329L35.2713 35.1466C35.2917 35.1547 35.3148 35.1619 35.3387 35.1676C35.3654 35.1748 35.3875 35.178 35.407 35.178C35.4771 35.178 35.4949 35.1644 35.4984 35.1603C35.5046 35.1539 35.5179 35.1305 35.5179 35.0621V34.2649C35.5179 34.2254 35.5463 34.2004 35.5915 34.2004H35.7015V35.0677C35.7015 35.1603 35.6785 35.228 35.6315 35.2731C35.5836 35.3182 35.5188 35.3407 35.4372 35.3407L35.4381 35.3415ZM35.2802 35.2143L35.274 35.2336C35.2704 35.2473 35.274 35.2521 35.2909 35.257C35.4292 35.2972 35.525 35.2876 35.5836 35.232C35.6182 35.199 35.635 35.1434 35.635 35.0677V34.2608H35.5915C35.5853 34.2608 35.5836 34.2616 35.5836 34.2616V34.2649L35.5844 35.0621C35.5844 35.1273 35.5729 35.1724 35.5499 35.1982C35.525 35.2256 35.4798 35.2384 35.4062 35.2384C35.3804 35.2384 35.3521 35.2344 35.3201 35.2256C35.3059 35.2223 35.2926 35.2183 35.2793 35.2143H35.2802Z" fill="white"/>
<path d="M36.5849 34.7978V34.6295C36.5849 34.5739 36.5796 34.528 36.568 34.4926C36.5565 34.4571 36.537 34.4281 36.5113 34.4048C36.4846 34.3814 36.4509 34.3621 36.4084 34.346C36.3667 34.3299 36.3188 34.317 36.2664 34.3057C36.2141 34.2945 36.1742 34.2872 36.1485 34.284C36.1219 34.28 36.0908 34.2759 36.0527 34.2719C36.0163 34.2663 36.0012 34.2502 36.0065 34.2244C36.011 34.2059 36.0154 34.1874 36.0199 34.1672C36.0828 34.1761 36.1325 34.1833 36.1689 34.189C36.2052 34.1946 36.2496 34.2035 36.301 34.2139C36.3525 34.2244 36.4075 34.2429 36.466 34.2695C36.5237 34.2969 36.5707 34.3275 36.6035 34.3613C36.6363 34.3951 36.6603 34.4338 36.6727 34.474C36.686 34.5143 36.6922 34.5546 36.6922 34.5948V34.7205C36.7046 34.735 36.7206 34.7486 36.7401 34.7591C36.7578 34.7688 36.78 34.7776 36.8093 34.7857C36.8386 34.7937 36.874 34.7978 36.9175 34.7978H36.9352V34.8968H36.9175C36.9033 34.8968 36.8856 34.8968 36.8652 34.8936C36.8448 34.892 36.8244 34.8888 36.8022 34.8823C36.78 34.8775 36.7587 34.8694 36.7366 34.8582C36.7144 34.8477 36.6949 34.8364 36.6798 34.8227C36.6665 34.8501 36.647 34.8678 36.6221 34.8791C36.5964 34.8904 36.5627 34.8952 36.5201 34.8952H35.8841V34.8332C35.8841 34.809 35.8974 34.797 35.9241 34.797H36.584V34.7986L36.5849 34.7978Z" fill="white"/>
<path d="M36.9707 34.9272H36.9201C36.9041 34.9272 36.8855 34.9272 36.8633 34.924C36.842 34.9224 36.819 34.9184 36.795 34.9119C36.772 34.9063 36.748 34.8982 36.7232 34.8854C36.7117 34.8797 36.701 34.8741 36.6904 34.8684C36.6762 34.8845 36.6593 34.8974 36.6389 34.9063C36.6088 34.9192 36.5706 34.9256 36.5218 34.9256H35.8521V34.833C35.8521 34.7927 35.8814 34.7662 35.9258 34.7662H36.552V34.6301C36.552 34.5769 36.5467 34.5343 36.536 34.502C36.5263 34.4731 36.5103 34.4473 36.4881 34.4272C36.4651 34.407 36.4349 34.3901 36.3959 34.3756C36.3569 34.3603 36.3125 34.3482 36.2593 34.337C36.2078 34.3265 36.1697 34.3192 36.144 34.3152L36.1342 34.3136C36.1103 34.3104 36.0819 34.3064 36.0491 34.3023C36.018 34.2975 35.9967 34.287 35.9843 34.2701C35.9772 34.2605 35.9692 34.2436 35.9746 34.2194C35.9772 34.2065 35.9808 34.1936 35.9843 34.1799L35.995 34.134L36.026 34.1381C36.089 34.1469 36.1395 34.1542 36.1759 34.1598C36.2114 34.1654 36.2557 34.1743 36.3063 34.184C36.3613 34.1952 36.4181 34.2138 36.4819 34.2427C36.5458 34.2725 36.5955 34.3056 36.6301 34.3418C36.6664 34.3796 36.6921 34.4215 36.7063 34.4658C36.7196 34.5085 36.7267 34.552 36.7267 34.5946V34.7098C36.7356 34.7187 36.7462 34.7267 36.7587 34.7332C36.7746 34.742 36.7959 34.7493 36.8208 34.7565C36.8465 34.7638 36.8784 34.767 36.9192 34.767H36.9698V34.9264L36.9707 34.9272ZM36.6726 34.7702L36.7063 34.8024C36.717 34.8129 36.7329 34.8225 36.7533 34.8322C36.7746 34.8427 36.7941 34.8499 36.8128 34.8539C36.8332 34.8596 36.8518 34.8628 36.8695 34.8644C36.882 34.866 36.8935 34.8668 36.9032 34.8668V34.829C36.8624 34.8282 36.8296 34.8242 36.8012 34.8161C36.7711 34.808 36.7454 34.7984 36.725 34.7871C36.701 34.7742 36.6824 34.7589 36.6673 34.7404L36.6602 34.7324V34.5963C36.6602 34.5592 36.654 34.5214 36.6425 34.4843C36.6309 34.4481 36.6097 34.4143 36.5804 34.3829C36.5511 34.3523 36.5076 34.3241 36.4527 34.2975C36.3941 34.2709 36.3427 34.254 36.2957 34.2444C36.2433 34.2339 36.1999 34.225 36.1653 34.2194C36.1351 34.2146 36.0961 34.2089 36.0482 34.2017C36.0455 34.2113 36.0437 34.221 36.0411 34.2307C36.0411 34.2363 36.0446 34.2403 36.0606 34.2427C36.0925 34.2468 36.1209 34.25 36.1457 34.254L36.1555 34.2556C36.1821 34.2597 36.222 34.2669 36.2752 34.2782C36.332 34.2903 36.3808 34.3039 36.4225 34.3201C36.4695 34.3378 36.5068 34.3587 36.536 34.3845C36.5671 34.4127 36.5884 34.4465 36.6017 34.4851C36.6141 34.523 36.6203 34.5713 36.6203 34.6301V34.7662H36.6434L36.5901 34.8588C36.5981 34.8572 36.6061 34.8548 36.6123 34.8515C36.6301 34.8435 36.6442 34.8306 36.654 34.8097L36.6744 34.7686L36.6726 34.7702ZM35.9187 34.866H36.5218C36.5325 34.866 36.5431 34.866 36.5529 34.8652V34.8282H35.9258L35.9187 34.8346V34.8668V34.866Z" fill="white"/>
<path d="M37.1667 34.2675C37.1667 34.2433 37.1801 34.2312 37.2067 34.2312H37.2829V34.7265C37.2989 34.7394 37.3184 34.7523 37.3397 34.7619C37.361 34.7716 37.3885 34.7812 37.4213 34.7885C37.4533 34.7957 37.4878 34.7998 37.526 34.7998H37.5482V34.8988H37.526C37.51 34.8988 37.4914 34.8988 37.4701 34.8956C37.4488 34.894 37.4266 34.89 37.4018 34.8835C37.377 34.8771 37.353 34.869 37.3282 34.8569C37.3042 34.8449 37.2821 34.8288 37.2634 34.8086C37.2209 34.8682 37.1437 34.8988 37.0319 34.8988H36.8873V34.7998H36.9778C37.0461 34.7998 37.0949 34.7877 37.1224 34.7635C37.1508 34.7394 37.1641 34.6999 37.1641 34.6468V34.2691L37.1667 34.2675ZM37.0319 33.9929C37.0319 33.9728 37.0399 33.955 37.055 33.9413C37.0701 33.9277 37.0896 33.9204 37.1118 33.9204C37.1339 33.9204 37.1534 33.9277 37.1685 33.9413C37.1836 33.955 37.1916 33.9728 37.1916 33.9929C37.1916 34.013 37.1836 34.0307 37.1685 34.0444C37.1534 34.0581 37.1339 34.0654 37.1118 34.0654C37.0896 34.0654 37.0701 34.0581 37.055 34.0444C37.0399 34.0307 37.0319 34.013 37.0319 33.9929ZM37.2492 33.9929C37.2492 33.9728 37.2572 33.955 37.2723 33.9413C37.2874 33.9277 37.3069 33.9204 37.3291 33.9204C37.3512 33.9204 37.3708 33.9277 37.3858 33.9413C37.4009 33.955 37.4089 33.9728 37.4089 33.9929C37.4089 34.013 37.4009 34.0307 37.3858 34.0444C37.3708 34.0581 37.3512 34.0654 37.3291 34.0654C37.3069 34.0654 37.2874 34.0581 37.2723 34.0444C37.2572 34.0307 37.2492 34.013 37.2492 33.9929Z" fill="white"/>
<path d="M37.0336 34.9287H36.8554V34.7692H36.9786C37.0372 34.7692 37.0789 34.7596 37.1011 34.741C37.1223 34.7233 37.133 34.6911 37.133 34.646L37.1348 34.2538C37.141 34.2208 37.1676 34.2007 37.2075 34.2007H37.3175V34.712C37.3299 34.7209 37.3432 34.729 37.3565 34.7354C37.376 34.7443 37.4009 34.7523 37.4301 34.7588C37.4603 34.7652 37.4922 34.7692 37.5268 34.7692H37.5827V34.9287H37.5268C37.51 34.9287 37.4896 34.9287 37.4674 34.9254C37.4479 34.9238 37.4257 34.9206 37.3946 34.9134C37.3672 34.9069 37.3414 34.8973 37.3139 34.8844C37.2971 34.8763 37.282 34.8667 37.2678 34.8554C37.2164 34.9045 37.1383 34.9295 37.0345 34.9295L37.0336 34.9287ZM36.9219 34.8683H37.0336C37.133 34.8683 37.2013 34.8425 37.2368 34.7926L37.2616 34.7579L37.2909 34.7902C37.3068 34.8071 37.3246 34.8208 37.345 34.8312C37.3672 34.8417 37.3893 34.8497 37.4106 34.8546C37.4381 34.861 37.4567 34.8642 37.4736 34.865C37.4896 34.8667 37.5038 34.8675 37.5162 34.8675V34.8288C37.4798 34.8288 37.4461 34.824 37.4142 34.8167C37.3796 34.8087 37.3494 34.799 37.3255 34.7877C37.3024 34.7765 37.2802 34.7636 37.2616 34.7475L37.251 34.7386V34.2603H37.2075V34.2732L37.1995 34.2804V34.646C37.1995 34.7088 37.1818 34.7555 37.1472 34.7853C37.1126 34.8151 37.0558 34.8304 36.9795 34.8304H36.9228V34.8691L36.9219 34.8683ZM37.3299 34.0968C37.2989 34.0968 37.2714 34.0863 37.2492 34.067C37.2359 34.0549 37.2261 34.0404 37.2208 34.0251C37.2155 34.0413 37.2057 34.0549 37.1924 34.067C37.1489 34.1065 37.0744 34.1065 37.031 34.067C37.0097 34.0477 36.9982 34.0219 36.9982 33.9937C36.9982 33.9656 37.0097 33.9398 37.031 33.9205C37.0744 33.881 37.1489 33.881 37.1924 33.9205C37.2057 33.9325 37.2155 33.9462 37.2208 33.9623C37.2261 33.947 37.2359 33.9325 37.2492 33.9205C37.2926 33.881 37.3672 33.881 37.4106 33.9205C37.4319 33.9398 37.4434 33.9656 37.4434 33.9937C37.4434 34.0219 37.4319 34.0477 37.4106 34.067C37.3893 34.0863 37.3609 34.0968 37.3299 34.0968ZM37.3299 33.9503C37.3166 33.9503 37.3051 33.9543 37.2962 33.9623C37.2873 33.9704 37.2829 33.9809 37.2829 33.9929C37.2829 34.005 37.2873 34.0155 37.2962 34.0235C37.3148 34.0404 37.345 34.0404 37.3636 34.0235C37.3725 34.0155 37.3769 34.005 37.3769 33.9929C37.3769 33.9809 37.3725 33.9704 37.3636 33.9623C37.3547 33.9543 37.3432 33.9503 37.3299 33.9503ZM37.1126 33.9503C37.0993 33.9503 37.0877 33.9543 37.0789 33.9623C37.07 33.9704 37.0656 33.9809 37.0656 33.9929C37.0656 34.005 37.07 34.0155 37.0789 34.0235C37.0975 34.0404 37.1277 34.0404 37.1463 34.0235C37.1552 34.0155 37.1596 34.005 37.1596 33.9929C37.1596 33.9809 37.1552 33.9704 37.1463 33.9623C37.1374 33.9543 37.1259 33.9503 37.1126 33.9503Z" fill="white"/>
<path d="M37.7995 33.7874H37.874V34.7248C37.8882 34.7393 37.9069 34.7521 37.9299 34.7618C37.953 34.7715 37.9787 34.7811 38.0106 34.7884C38.0426 34.7956 38.0798 34.7997 38.1242 34.7997H38.1384V34.8987H38.1242C38.1082 34.8987 38.0878 34.8971 38.063 34.8947C38.0381 34.8923 38.0133 34.8874 37.9867 34.881C37.9601 34.8745 37.9352 34.8649 37.9104 34.8528C37.8856 34.8407 37.8634 34.8246 37.8448 34.8029C37.8244 34.8319 37.7969 34.8552 37.7614 34.8721C37.7268 34.889 37.6789 34.8979 37.6204 34.8979H37.4838V34.7988H37.5698C37.6443 34.7988 37.6931 34.7835 37.7188 34.7546C37.7445 34.7248 37.7578 34.6853 37.7578 34.6346V33.8229C37.7578 33.7987 37.7711 33.7866 37.7995 33.7866V33.7882V33.7874Z" fill="white"/>
<path d="M38.1729 34.9283H38.125C38.1081 34.9283 38.0869 34.9267 38.0602 34.9243C38.0301 34.9219 38.0008 34.9146 37.9786 34.9098C37.9503 34.9026 37.9228 34.8929 37.8944 34.8784C37.8775 34.8696 37.8616 34.8599 37.8483 34.8486C37.8287 34.8687 37.8048 34.8857 37.7782 34.8985C37.7391 34.9179 37.6859 34.9275 37.6221 34.9275H37.4518V34.7681H37.5715C37.6327 34.7681 37.6753 34.7568 37.6948 34.7351C37.7161 34.7109 37.7258 34.6779 37.7258 34.6344V33.8227C37.7258 33.7816 37.7542 33.7559 37.8012 33.7559L37.9095 33.7575V34.7125C37.9201 34.7214 37.9325 34.7286 37.9467 34.7351C37.9671 34.7447 37.9919 34.7528 38.0203 34.7592C38.0487 34.7657 38.0842 34.7689 38.1259 34.7689H38.1738V34.9283H38.1729ZM37.842 34.7504L37.8713 34.7842C37.8864 34.8019 37.9041 34.8156 37.9263 34.8261C37.9494 34.8381 37.9724 34.8462 37.9955 34.8518C38.0248 34.8591 38.0461 34.8631 38.0665 34.8647C38.0815 34.8663 38.0939 34.8671 38.1055 34.8679V34.8301C38.0665 34.8293 38.0319 34.8253 38.0026 34.818C37.9689 34.81 37.9405 34.8011 37.9157 34.789C37.8899 34.7769 37.8678 34.7625 37.85 34.7447L37.8412 34.7359V33.8171H37.7906V34.6336C37.7906 34.69 37.7755 34.7367 37.7454 34.7721C37.7125 34.8092 37.6531 34.8285 37.5697 34.8285H37.5165V34.8671H37.6203C37.6726 34.8671 37.7161 34.8599 37.7454 34.8454C37.7755 34.8309 37.7986 34.8116 37.8154 34.7866L37.8403 34.7504H37.842Z" fill="white"/>
<path d="M38.5426 34.5333C38.5426 34.5905 38.5373 34.6412 38.5257 34.6871C38.5142 34.7322 38.4947 34.7709 38.4663 34.8015C38.4379 34.8321 38.3998 34.857 38.3501 34.874C38.3004 34.8909 38.2401 34.8997 38.1656 34.8997H38.0875V34.8007H38.1638C38.2543 34.8007 38.3199 34.783 38.3616 34.7475C38.4042 34.7121 38.4255 34.6614 38.4255 34.5937V33.8247C38.4255 33.8005 38.4388 33.7885 38.4654 33.7885H38.5417V34.5341L38.5426 34.5333Z" fill="white"/>
<path d="M38.1648 34.9281H38.0531V34.7687H38.1631C38.2447 34.7687 38.3032 34.7534 38.3387 34.7236C38.3742 34.6938 38.3919 34.6511 38.3919 34.5923V33.8233C38.3919 33.783 38.4212 33.7565 38.4655 33.7565H38.5755V34.5328C38.5755 34.5915 38.5693 34.6455 38.5578 34.693C38.5454 34.7421 38.5232 34.7848 38.4913 34.8194C38.4584 34.8549 38.415 34.8822 38.3618 34.9008C38.3085 34.9193 38.242 34.9281 38.1657 34.9281H38.1648ZM38.1196 34.8677H38.1648C38.2331 34.8677 38.2917 34.8597 38.3378 34.8444C38.3804 34.8299 38.415 34.8082 38.4398 34.7808C38.4647 34.7534 38.4824 34.7196 38.4922 34.6793C38.5028 34.6366 38.5081 34.5867 38.5081 34.5328V33.8169H38.4647L38.4576 33.8233V34.5923C38.4576 34.668 38.4327 34.7276 38.3831 34.7679C38.3352 34.809 38.2624 34.8291 38.1622 34.8291H38.1187V34.8677H38.1196Z" fill="white"/>
<path d="M12.9504 27.6441V30.1058C12.9504 30.6228 12.7747 31.0118 12.4244 31.2751C12.074 31.5376 11.5986 31.6689 10.9998 31.6689H10.284C9.6037 31.6689 9.10609 31.5376 8.7912 31.2751C8.47631 31.0126 8.31843 30.6277 8.31843 30.1203V24.2829C8.31843 24.0985 8.21731 24.0067 8.01419 24.0067H7.43586V29.6638C7.43586 30.0881 7.47932 30.4706 7.56536 30.8113C7.6514 31.1527 7.80131 31.441 8.01507 31.6753C8.22884 31.9105 8.518 32.0925 8.88345 32.2213C9.1868 32.3284 9.56023 32.3888 9.99575 32.4073V32.4154H11.0619C12.9104 32.4154 13.8347 31.7148 13.8347 30.3128V27.3671H13.2555C13.0524 27.3671 12.9512 27.4589 12.9512 27.6433L12.9504 27.6441Z" fill="white"/>
<path d="M11.0604 32.5763H9.81679V32.5586C9.4274 32.5313 9.09211 32.4684 8.81802 32.3718C8.42597 32.2341 8.10931 32.0344 7.8778 31.7775C7.64807 31.5247 7.48486 31.2114 7.39261 30.8474C7.30391 30.4955 7.25867 30.0969 7.25867 29.6637V23.8456H8.01351C8.31509 23.8456 8.49516 24.0091 8.49516 24.2828V30.1195C8.49516 30.5777 8.6353 30.9263 8.91027 31.1558C9.19057 31.3894 9.65181 31.5078 10.2834 31.5078H10.9992C11.5535 31.5078 11.9944 31.3878 12.311 31.1502C12.6215 30.9167 12.7723 30.5752 12.7723 30.105V27.6424C12.7723 27.3686 12.9523 27.2052 13.2539 27.2052H14.0105V30.3119C14.0105 31.8138 13.018 32.5755 11.0604 32.5755V32.5763ZM10.1716 32.2542H11.0604C12.8069 32.2542 13.6557 31.6189 13.6557 30.3127V27.5281H13.2539C13.1493 27.5281 13.1271 27.5482 13.1271 27.6432V30.1058C13.1271 30.6695 12.9284 31.1043 12.5372 31.399C12.1558 31.6849 11.6378 31.8299 10.9992 31.8299H10.2834C9.56045 31.8299 9.0176 31.6833 8.6699 31.3934C8.31775 31.1003 8.13947 30.6719 8.13947 30.1195V24.2828C8.13947 24.1878 8.11729 24.1677 8.01263 24.1677H7.61259V29.6637C7.61259 30.0728 7.65428 30.4472 7.73765 30.7758C7.81748 31.0906 7.95586 31.3596 8.151 31.5738C8.34437 31.7872 8.61135 31.9547 8.94664 32.0722C9.22427 32.1705 9.57996 32.2293 10.0031 32.247L10.1725 32.255L10.1716 32.2542Z" fill="white"/>
<path d="M13.3025 25.1261C13.1304 25.1261 12.9849 25.1792 12.8688 25.2855C12.7526 25.3918 12.6931 25.5231 12.6931 25.6793C12.6931 25.8355 12.7517 25.9676 12.8688 26.0731C12.9858 26.1786 13.1304 26.2325 13.3025 26.2325C13.4746 26.2325 13.62 26.1794 13.7362 26.0731C13.8524 25.9668 13.9119 25.8355 13.9119 25.6793C13.9119 25.5231 13.8533 25.391 13.7362 25.2855C13.6192 25.1801 13.4746 25.1261 13.3025 25.1261Z" fill="white"/>
<path d="M13.3026 26.3942C13.0826 26.3942 12.8936 26.3249 12.7429 26.1881C12.5921 26.0512 12.5158 25.8804 12.5158 25.6799C12.5158 25.4794 12.5921 25.3087 12.7429 25.1718C12.8936 25.0349 13.0817 24.9648 13.3026 24.9648C13.5234 24.9648 13.7115 25.0341 13.8623 25.1718C14.013 25.3087 14.0893 25.4794 14.0893 25.6799C14.0893 25.8804 14.013 26.0512 13.8623 26.1881C13.7115 26.3249 13.5234 26.3942 13.3026 26.3942ZM13.3026 25.287C13.1784 25.287 13.0773 25.324 12.9939 25.3989C12.9105 25.4746 12.8706 25.5664 12.8706 25.6791C12.8706 25.7919 12.9114 25.8837 12.9939 25.9594C13.0764 26.0351 13.1784 26.0713 13.3026 26.0713C13.4267 26.0713 13.5279 26.0342 13.6112 25.9594C13.6946 25.8845 13.7345 25.7919 13.7345 25.6791C13.7345 25.5664 13.6937 25.4746 13.6112 25.3989C13.5279 25.3232 13.4267 25.287 13.3026 25.287Z" fill="white"/>
<path d="M21.2837 33.3685C21.1116 33.3685 20.9661 33.4209 20.8499 33.528C20.7328 33.6343 20.6743 33.7655 20.6743 33.9218C20.6743 34.078 20.732 34.21 20.8499 34.3155C20.967 34.4218 21.1116 34.4742 21.2837 34.4742C21.4557 34.4742 21.6012 34.421 21.7174 34.3155C21.8345 34.2092 21.893 34.078 21.893 33.9218C21.893 33.7655 21.8345 33.6335 21.7174 33.528C21.6003 33.4225 21.4557 33.3685 21.2837 33.3685Z" fill="white"/>
<path d="M21.2848 34.6354C21.0639 34.6354 20.8759 34.5662 20.7251 34.4293C20.5743 34.2932 20.4971 34.1225 20.4971 33.9211C20.4971 33.7198 20.5734 33.5499 20.7251 33.413C20.875 33.2761 21.063 33.2061 21.2848 33.2061C21.5065 33.2061 21.6937 33.2753 21.8445 33.413C21.9953 33.5499 22.0715 33.7206 22.0715 33.9211C22.0715 34.1217 21.9953 34.2924 21.8436 34.4293C21.6919 34.5662 21.5039 34.6354 21.2839 34.6354H21.2848ZM21.2848 33.529C21.1597 33.529 21.0586 33.5652 20.977 33.6409C20.8936 33.7166 20.8528 33.8084 20.8528 33.9211C20.8528 34.0339 20.8927 34.1265 20.9761 34.2006C21.0595 34.2763 21.1597 34.3125 21.2848 34.3125C21.4098 34.3125 21.5101 34.2763 21.5934 34.2006C21.6759 34.1257 21.7167 34.0339 21.7167 33.9211C21.7167 33.8084 21.6759 33.7166 21.5934 33.6409C21.511 33.5652 21.4089 33.529 21.2848 33.529Z" fill="white"/>
<path d="M22.9299 33.3685C22.757 33.3685 22.6124 33.4209 22.4962 33.528C22.3791 33.6343 22.3205 33.7655 22.3205 33.9218C22.3205 34.078 22.3782 34.21 22.4962 34.3155C22.6133 34.4218 22.7578 34.4742 22.9299 34.4742C23.102 34.4742 23.2475 34.421 23.3637 34.3155C23.4807 34.2092 23.5393 34.078 23.5393 33.9218C23.5393 33.7655 23.4807 33.6335 23.3637 33.528C23.2466 33.4225 23.102 33.3685 22.9299 33.3685Z" fill="white"/>
<path d="M22.9301 34.6354C22.7093 34.6354 22.5212 34.5662 22.3704 34.4293C22.2196 34.2932 22.1434 34.1225 22.1434 33.9211C22.1434 33.7198 22.2196 33.5499 22.3704 33.413C22.5203 33.2761 22.7084 33.2061 22.9301 33.2061C23.1519 33.2061 23.339 33.2753 23.4898 33.413C23.6406 33.5499 23.7169 33.7206 23.7169 33.9211C23.7169 34.1217 23.6406 34.2924 23.4889 34.4293C23.3373 34.5662 23.1492 34.6354 22.9292 34.6354H22.9301ZM22.9301 33.529C22.8033 33.529 22.7057 33.5644 22.6223 33.6409C22.539 33.7166 22.4982 33.8084 22.4982 33.9211C22.4982 34.0339 22.5381 34.1265 22.6215 34.2006C22.7048 34.2763 22.8051 34.3125 22.9301 34.3125C23.0552 34.3125 23.1554 34.2763 23.2388 34.2006C23.3213 34.1257 23.3621 34.0339 23.3621 33.9211C23.3621 33.8084 23.3213 33.7166 23.2388 33.6409C23.1554 33.5652 23.0543 33.529 22.9301 33.529Z" fill="white"/>
<path d="M37.7987 24.9469C37.9708 24.9469 38.1163 24.8946 38.2325 24.7875C38.3496 24.6812 38.4081 24.5499 38.4081 24.3937C38.4081 24.2375 38.3496 24.1054 38.2325 23.9999C38.1154 23.8936 37.9708 23.8405 37.7987 23.8405C37.6267 23.8405 37.4812 23.8936 37.365 23.9999C37.2488 24.1062 37.1894 24.2375 37.1894 24.3937C37.1894 24.5499 37.247 24.682 37.365 24.7875C37.4821 24.8938 37.6267 24.9469 37.7987 24.9469Z" fill="white"/>
<path d="M37.7998 25.1079C37.5799 25.1079 37.3909 25.0386 37.2401 24.9017C37.0894 24.7656 37.0122 24.5949 37.0122 24.3936C37.0122 24.1923 37.0885 24.0224 37.2401 23.8855C37.3918 23.7486 37.579 23.6793 37.7998 23.6793C38.0207 23.6793 38.2088 23.7486 38.3595 23.8855C38.5103 24.0224 38.5875 24.1931 38.5875 24.3936C38.5875 24.5941 38.5112 24.7648 38.3595 24.9017C38.2096 25.0386 38.0216 25.1079 37.7998 25.1079ZM37.7998 24.0006C37.6757 24.0006 37.5745 24.0377 37.4912 24.1126C37.4078 24.1883 37.3679 24.2801 37.3679 24.3928C37.3679 24.5055 37.4078 24.5981 37.4912 24.673C37.5745 24.7487 37.6757 24.7858 37.7998 24.7858C37.924 24.7858 38.026 24.7495 38.1076 24.6738C38.191 24.5981 38.2318 24.5063 38.2318 24.3936C38.2318 24.2809 38.191 24.1891 38.1085 24.1134C38.0251 24.0377 37.924 24.0014 37.7998 24.0014V24.0006Z" fill="white"/>
<path d="M36.9771 26.2458C37.1492 26.2458 37.2947 26.1935 37.4109 26.0864C37.5279 25.9801 37.5865 25.8497 37.5865 25.6926C37.5865 25.5356 37.5279 25.4043 37.4109 25.2988C37.2938 25.1926 37.1492 25.1394 36.9771 25.1394C36.805 25.1394 36.6596 25.1926 36.5434 25.2988C36.4272 25.4051 36.3677 25.5364 36.3677 25.6926C36.3677 25.8488 36.4254 25.9809 36.5434 26.0864C36.6604 26.1927 36.805 26.2458 36.9771 26.2458Z" fill="white"/>
<path d="M36.9782 26.4068C36.7582 26.4068 36.5693 26.3376 36.4185 26.2007C36.2677 26.0646 36.1905 25.8939 36.1905 25.6925C36.1905 25.4912 36.2668 25.3213 36.4185 25.1844C36.5702 25.0475 36.7573 24.9783 36.9782 24.9783C37.1991 24.9783 37.3871 25.0475 37.5379 25.1844C37.6887 25.3213 37.7659 25.492 37.7659 25.6925C37.7659 25.8931 37.6896 26.0638 37.5379 26.2007C37.388 26.3376 37.2 26.4068 36.9782 26.4068ZM36.9782 25.2996C36.854 25.2996 36.7529 25.3366 36.6695 25.4115C36.5862 25.4872 36.5462 25.579 36.5462 25.6917C36.5462 25.8045 36.5862 25.8971 36.6695 25.972C36.7529 26.0477 36.854 26.0847 36.9782 26.0847C37.1024 26.0847 37.2044 26.0485 37.286 25.9728C37.3712 25.8955 37.4102 25.8069 37.4102 25.6925C37.4102 25.5782 37.3712 25.4888 37.2869 25.4123C37.2026 25.3358 37.1024 25.3004 36.9782 25.3004V25.2996Z" fill="white"/>
<path d="M38.6204 25.1393C38.4474 25.1393 38.3028 25.1924 38.1866 25.2987C38.0704 25.405 38.011 25.5363 38.011 25.6925C38.011 25.8487 38.0696 25.9808 38.1866 26.0863C38.3037 26.1926 38.4483 26.2457 38.6204 26.2457C38.7925 26.2457 38.9379 26.1934 39.0541 26.0863C39.1712 25.98 39.2298 25.8495 39.2298 25.6925C39.2298 25.5355 39.1712 25.4042 39.0541 25.2987C38.937 25.1924 38.7925 25.1393 38.6204 25.1393Z" fill="white"/>
<path d="M38.6206 26.407C38.4006 26.407 38.2117 26.3377 38.0609 26.2C37.9101 26.0631 37.8338 25.8924 37.8338 25.6919C37.8338 25.4914 37.9101 25.3207 38.0609 25.1838C38.2117 25.0469 38.3997 24.9768 38.6206 24.9768C38.8415 24.9768 39.0295 25.0461 39.1803 25.1838C39.3311 25.3207 39.4083 25.4914 39.4083 25.6919C39.4083 25.8924 39.332 26.0631 39.1803 26.2C39.0304 26.3369 38.8424 26.4062 38.6206 26.4062V26.407ZM38.6206 25.2997C38.4946 25.2997 38.3962 25.3352 38.3119 25.4117C38.2285 25.4873 38.1886 25.5792 38.1886 25.6919C38.1886 25.8046 38.2294 25.8964 38.3119 25.9721C38.3953 26.0478 38.4964 26.0841 38.6206 26.0841C38.7448 26.0841 38.8468 26.0478 38.9284 25.9721C39.0135 25.8948 39.0526 25.8062 39.0526 25.6919C39.0526 25.5775 39.0135 25.4882 38.9293 25.4117C38.8459 25.336 38.7448 25.2997 38.6206 25.2997Z" fill="white"/>
<path d="M37.4937 27.6431V30.1049C37.4937 30.6219 37.318 31.0108 36.9677 31.2741C36.6173 31.5366 36.1419 31.6679 35.5431 31.6679H24.4228C24.1389 31.6679 23.8746 31.6397 23.6307 31.5842C23.3867 31.5286 23.181 31.4618 23.0142 31.3836C22.8474 31.3055 22.702 31.2153 22.5805 31.1139V27.3653H22.0012C21.7981 27.3653 21.697 27.4571 21.697 27.6415V30.5043C21.697 30.9101 21.5906 31.2049 21.3777 31.3893C21.1639 31.5737 20.7985 31.6655 20.2805 31.6655H19.8999C19.6161 31.6655 19.3642 31.6397 19.146 31.5898C18.9278 31.5391 18.7424 31.4835 18.5907 31.4239C18.439 31.3643 18.314 31.3015 18.2173 31.2371C18.1206 31.1727 18.0567 31.1268 18.0275 31.0986V27.3637H17.4483C17.2451 27.3637 17.144 27.4515 17.144 27.6262V33.6561C17.144 34.0982 17.0757 34.3937 16.9382 34.5411C16.8016 34.6885 16.5045 34.7626 16.0468 34.7626C15.8845 34.7626 15.6911 34.7328 15.4676 34.6724C15.2449 34.6128 15.0613 34.5548 14.9194 34.4992L14.7979 34.8866C14.7376 35.1169 14.8334 35.2691 15.0879 35.3432C15.5243 35.4728 15.9208 35.5372 16.2765 35.5372C16.8247 35.5372 17.254 35.3899 17.5645 35.0943C17.8749 34.7988 18.0292 34.3342 18.0292 33.6972V31.899C18.3743 32.139 18.7193 32.2839 19.0653 32.3347C19.2666 32.3637 19.4422 32.3846 19.5984 32.3967V32.4112H20.6956C21.5391 32.4112 22.1228 32.1849 22.4483 31.7331C22.5902 31.8902 22.7525 32.0126 22.9353 32.0995C23.118 32.1873 23.3034 32.2541 23.4905 32.3C23.6786 32.3459 23.8506 32.3757 24.0085 32.3902C24.1043 32.3991 24.1921 32.4031 24.2755 32.4071V32.4112H35.6097C37.4582 32.4112 38.3824 31.7106 38.3824 30.3086V27.3629H37.8032C37.6001 27.3629 37.499 27.4547 37.499 27.6391L37.4937 27.6431Z" fill="white"/>
<path d="M16.2738 35.7002C15.9003 35.7002 15.4817 35.6326 15.0302 35.4989C14.6896 35.3999 14.5406 35.1647 14.6231 34.8523L14.8022 34.2822L14.9876 34.3546C15.1224 34.4078 15.3007 34.4633 15.5163 34.5213C15.7221 34.5769 15.8995 34.6051 16.0449 34.6051C16.57 34.6051 16.7439 34.502 16.8007 34.4408C16.8619 34.3748 16.9647 34.1855 16.9647 33.6589V27.6282C16.9647 27.3633 17.1448 27.2046 17.4464 27.2046H18.203V31.0272C18.2287 31.0458 18.266 31.0723 18.3201 31.1086C18.4052 31.1649 18.5197 31.2221 18.6598 31.2769C18.8035 31.3341 18.9818 31.3864 19.1885 31.4347C19.3925 31.4814 19.6311 31.5056 19.8981 31.5056H20.2786C20.7469 31.5056 21.0751 31.4275 21.2534 31.2737C21.429 31.1215 21.5177 30.863 21.5177 30.5046V27.6419C21.5177 27.3681 21.6978 27.2046 21.9994 27.2046H22.756V31.0409C22.8536 31.1142 22.9662 31.181 23.0939 31.2406C23.2483 31.3123 23.4425 31.3751 23.6732 31.4283C23.902 31.4806 24.1539 31.5064 24.4227 31.5064H35.543C36.0974 31.5064 36.5383 31.3864 36.8549 31.1488C37.1654 30.9153 37.3162 30.5739 37.3162 30.1036V27.5775L37.3206 27.5726C37.3481 27.3399 37.5228 27.203 37.7987 27.203H38.5553V30.3097C38.5553 31.8116 37.5627 32.5734 35.6051 32.5734H24.0945V32.5597C24.0599 32.5573 24.0244 32.5548 23.9872 32.5516C23.8213 32.5371 23.6377 32.5049 23.4408 32.4566C23.2403 32.4075 23.0407 32.3358 22.8482 32.2432C22.7072 32.1764 22.5759 32.0894 22.4571 31.9855C22.0828 32.3761 21.4902 32.5734 20.691 32.5734H19.4164V32.5428C19.2993 32.5307 19.1725 32.5146 19.0324 32.4944C18.7556 32.4542 18.4771 32.3567 18.2021 32.2054V33.6975C18.2021 34.374 18.0292 34.8813 17.6885 35.2058C17.3453 35.5327 16.869 35.6986 16.2729 35.6986L16.2738 35.7002ZM15.0337 34.717L14.9654 34.9336C14.9282 35.0745 14.9734 35.1446 15.1384 35.1921C15.5553 35.3153 15.9367 35.3781 16.2729 35.3781C16.7749 35.3781 17.1546 35.2493 17.4322 34.9852C17.7081 34.7226 17.8482 34.2902 17.8482 33.6991V31.5748L18.1338 31.7729C18.454 31.9952 18.7751 32.1313 19.09 32.1772C19.2878 32.2062 19.4581 32.2255 19.6107 32.2376L19.773 32.2513H20.6928C21.4787 32.2513 22.0038 32.0532 22.2965 31.6465L22.4287 31.4629L22.5821 31.6328C22.7081 31.7721 22.8536 31.8816 23.0141 31.9581C23.1835 32.0395 23.3583 32.1023 23.5339 32.1458C23.7113 32.1893 23.8754 32.2182 24.0226 32.2311C24.1184 32.24 24.2062 32.244 24.2808 32.2472L24.3774 32.2513H35.606C37.3525 32.2513 38.2014 31.6159 38.2014 30.3097V27.5251H37.7996C37.6949 27.5251 37.6727 27.5452 37.6727 27.6403V30.1028C37.6727 30.6665 37.4732 31.1013 37.082 31.3961C36.6997 31.6819 36.1826 31.8269 35.5439 31.8269H24.4236C24.1264 31.8269 23.8452 31.7971 23.588 31.7391C23.3317 31.6803 23.1108 31.6087 22.9334 31.5257C22.7516 31.4412 22.5928 31.3421 22.4606 31.231L22.403 31.1835V27.5251H22.0012C21.8965 27.5251 21.8743 27.5452 21.8743 27.6403V30.503C21.8743 30.9524 21.7484 31.2898 21.5 31.5048C21.2499 31.7206 20.8507 31.8261 20.2804 31.8261H19.8998C19.6036 31.8261 19.3348 31.7987 19.1024 31.7455C18.8771 31.6932 18.6811 31.6344 18.5197 31.5708C18.3556 31.5064 18.2181 31.4371 18.1116 31.3663C18.0025 31.2938 17.9369 31.2455 17.8996 31.2108L17.8491 31.1641V27.5251H17.4473C17.3258 27.5251 17.3204 27.5565 17.3204 27.6266V33.6565C17.3204 34.1428 17.2388 34.4666 17.0721 34.6461C16.8982 34.8338 16.562 34.9248 16.0449 34.9248C15.8658 34.9248 15.6538 34.8926 15.4152 34.8281C15.2732 34.7903 15.1455 34.7524 15.0337 34.7154V34.717Z" fill="white"/>
<path d="M49.3964 38.4857C49.3894 38.4978 49.3814 38.4994 49.3734 38.4906L49.3397 38.4551L49.4399 38.2876L49.219 38.0549L49.0212 38.1193L48.9849 38.0815C48.9787 38.0742 48.9813 38.0686 48.9964 38.063L49.6971 37.8303C49.7273 37.8206 49.7468 37.8222 49.7592 37.8343C49.7717 37.8464 49.7699 37.8657 49.7548 37.8906L49.3973 38.4857H49.3964ZM49.4736 38.2329L49.6794 37.8955L49.282 38.0308L49.4727 38.2329H49.4736Z" fill="white"/>
<path d="M49.2097 38.7123L49.3321 38.5086L49.286 38.4595L49.3862 38.292L49.2053 38.1011L49.0075 38.1656L48.9516 38.1068C48.9347 38.0874 48.9365 38.0705 48.9392 38.0617C48.9445 38.0448 48.9578 38.0327 48.98 38.0246L49.6816 37.7919C49.7419 37.7726 49.7747 37.7895 49.7925 37.8072C49.8067 37.8217 49.8262 37.8555 49.7925 37.9095L49.4359 38.503C49.4288 38.5158 49.4199 38.5231 49.4111 38.5279L49.2097 38.7107V38.7123ZM49.3578 38.0488L49.4661 38.1631L49.5822 37.9715L49.3569 38.048L49.3578 38.0488Z" fill="white"/>
<path d="M50.4118 38.438L50.3826 38.4662C50.3719 38.4767 50.3613 38.4767 50.3506 38.4678L50.1954 38.3398L49.735 38.8004L49.6871 38.7602L50.1475 38.2995L49.9772 38.1594L50.0065 38.1312C50.0162 38.1208 50.0278 38.1208 50.0384 38.1296L50.4118 38.438Z" fill="white"/>
<path d="M49.7367 38.8572L49.6232 38.763L50.0835 38.3024L49.9123 38.1614L49.9718 38.1035C49.9966 38.0777 50.0347 38.0753 50.0649 38.0986L50.4268 38.3974H50.5111L50.4144 38.4932C50.3878 38.519 50.3505 38.5206 50.3212 38.498L50.1979 38.3966L49.7367 38.8572Z" fill="white"/>
<path d="M51.0632 38.825L50.6897 39.3927C50.6817 39.4048 50.672 39.4064 50.6587 39.4L50.6214 39.3799L50.8077 39.0972L50.4839 38.9217L50.3092 39.1874C50.3012 39.1995 50.2915 39.2011 50.2782 39.1946L50.2409 39.1745L50.6143 38.6068C50.6223 38.5947 50.6321 38.5931 50.6454 38.5995L50.6826 38.6197L50.5176 38.8709L50.8414 39.0465L50.9949 38.8121C51.0028 38.8001 51.0126 38.7985 51.0259 38.8049L51.0632 38.825Z" fill="white"/>
<path d="M50.6723 39.4444C50.6608 39.4444 50.6493 39.4412 50.6378 39.4356L50.5615 39.3953L50.7477 39.1119L50.5003 38.9774L50.3486 39.2085C50.3282 39.2391 50.2918 39.2472 50.2581 39.2302L50.1818 39.19L50.5783 38.5868C50.5996 38.5562 50.6351 38.5482 50.6688 38.5651L50.7451 38.6053L50.5801 38.8574L50.8276 38.9919L50.9589 38.7922C50.9801 38.7616 51.0156 38.7527 51.0493 38.7704L51.1256 38.8107L50.7291 39.4138C50.7149 39.434 50.6954 39.4444 50.6732 39.4444H50.6723Z" fill="white"/>
<path d="M51.3565 38.9904L51.2961 39.2207L51.5622 39.2779L51.5525 39.3157C51.5489 39.3286 51.5392 39.3342 51.525 39.331L51.2819 39.2787L51.2145 39.5388L51.5924 39.6201L51.5826 39.658C51.5791 39.6708 51.5693 39.6765 51.5551 39.6733L51.195 39.5959C51.156 39.5871 51.14 39.5653 51.1498 39.5299L51.2961 38.9702C51.305 38.9364 51.329 38.9235 51.3689 38.9324L51.7503 39.0153L51.7405 39.0532C51.737 39.0661 51.7272 39.0717 51.713 39.0685L51.3582 38.992H51.3565V38.9904Z" fill="white"/>
<path d="M51.5628 39.7149C51.5575 39.7149 51.5522 39.7149 51.546 39.7133L51.185 39.6359C51.153 39.6287 51.13 39.615 51.1158 39.5941C51.1025 39.5739 51.0989 39.549 51.1069 39.5216L51.2533 38.9619C51.2604 38.9346 51.2754 38.9144 51.2976 38.9023C51.3207 38.8895 51.3482 38.887 51.3801 38.8943L51.8041 38.9861L51.7846 39.0634C51.7757 39.098 51.7438 39.1165 51.7048 39.1093L51.3908 39.0417L51.3508 39.193L51.6161 39.2502L51.5965 39.3275C51.5877 39.3622 51.5549 39.3815 51.5167 39.3734L51.3162 39.3299L51.2692 39.5119L51.6471 39.5933L51.6276 39.6706C51.6223 39.6923 51.609 39.7036 51.5983 39.71C51.5912 39.7141 51.5797 39.7181 51.5646 39.7181L51.5628 39.7149Z" fill="white"/>
<path d="M52.0705 39.0752L52.1122 39.3088L52.3809 39.2685L52.388 39.3072C52.3907 39.32 52.3836 39.3281 52.3694 39.3305L52.1219 39.3667L52.1698 39.6309L52.5521 39.5737L52.5592 39.6124C52.5619 39.6252 52.5548 39.6333 52.5406 39.6357L52.176 39.6905C52.1361 39.6961 52.1122 39.6816 52.1059 39.6462L52.0031 39.0785C51.9968 39.0438 52.0137 39.0237 52.0536 39.0181L52.4412 38.9601L52.4483 38.9987C52.451 39.0116 52.4439 39.0197 52.4297 39.0221L52.0687 39.076L52.0705 39.0752Z" fill="white"/>
<path d="M52.1603 39.7319C52.108 39.7319 52.0708 39.7029 52.0619 39.6522L51.967 39.1311L51.9501 39.1336L51.9643 39.1191L51.9581 39.0836C51.9519 39.0498 51.9625 39.0265 51.9732 39.0136C51.9883 38.9942 52.0131 38.9814 52.0459 38.9765L52.477 38.9121L52.4921 38.9902C52.4956 39.012 52.4885 39.0273 52.4814 39.0361C52.4743 39.045 52.461 39.0563 52.4371 39.0603L52.1204 39.1078L52.1479 39.2608L52.4167 39.2205L52.4318 39.2986C52.438 39.3341 52.4158 39.3623 52.3768 39.3687L52.1728 39.3985L52.2056 39.5829L52.5879 39.5257L52.603 39.6038C52.6074 39.6256 52.5994 39.6409 52.5923 39.6497C52.5852 39.6586 52.5719 39.6699 52.548 39.6731L52.1834 39.7279C52.1754 39.7287 52.1674 39.7295 52.1603 39.7295V39.7319Z" fill="white"/>
<path d="M53.5376 39.1943C53.5429 39.1967 53.5464 39.1999 53.5473 39.204C53.5473 39.208 53.5447 39.212 53.5385 39.2152L53.4906 39.241L53.1393 39.096L52.9628 39.1895L53.1216 39.4367L53.0648 39.4665L52.7073 38.91C52.7207 38.8931 52.7348 38.8762 52.7526 38.8585C52.7703 38.8408 52.7898 38.8239 52.8111 38.807C52.8333 38.7892 52.8564 38.7739 52.8821 38.7611C52.9593 38.72 53.0267 38.7047 53.0861 38.7143C53.1446 38.724 53.1934 38.7594 53.2325 38.8206C53.2564 38.8585 53.2679 38.8963 53.2653 38.9358C53.2626 38.9753 53.2413 39.0155 53.1987 39.0574L53.5376 39.1959V39.1943ZM53.1109 39.0413C53.1278 39.0324 53.1429 39.0212 53.1579 39.0075C53.1713 38.9946 53.1828 38.9793 53.1899 38.9616C53.197 38.9439 53.1996 38.9261 53.197 38.9052C53.1943 38.8843 53.1846 38.8625 53.1686 38.8376C53.1517 38.811 53.1331 38.7933 53.1136 38.7836C53.0941 38.7739 53.0737 38.7699 53.0506 38.7699C53.0276 38.7699 53.0036 38.7747 52.977 38.7828C52.9513 38.7908 52.9264 38.8029 52.9025 38.8174C52.8785 38.8319 52.8599 38.8456 52.8457 38.8561C52.8324 38.8674 52.8129 38.8867 52.7881 38.9157L52.93 39.1363L53.1109 39.0405V39.0413Z" fill="white"/>
<path d="M53.0496 39.5212L52.6558 38.9076L52.6718 38.8867C52.6859 38.8681 52.701 38.8504 52.7205 38.8311C52.7392 38.8126 52.7596 38.7949 52.7826 38.7763C52.8075 38.7562 52.8332 38.7393 52.8616 38.7256C52.9467 38.6805 53.0257 38.6628 53.0949 38.6741C53.1658 38.6854 53.2252 38.728 53.2723 38.7989C53.3015 38.844 53.3139 38.8907 53.3113 38.9374C53.3095 38.972 53.2953 39.0067 53.2705 39.0413L53.5561 39.1572C53.5676 39.1621 53.5774 39.1693 53.5836 39.1782L53.7406 39.3207L53.5623 39.2482C53.5623 39.2482 53.5596 39.2498 53.5588 39.2498L53.494 39.2845L53.1427 39.1395L53.0248 39.2023L53.1836 39.4496L53.0505 39.5204L53.0496 39.5212ZM52.8412 38.9197L52.9449 39.0815L53.1011 38.9986C53.109 38.993 53.117 38.9873 53.1241 38.9801C53.1348 38.9704 53.1419 38.9591 53.1463 38.9479C53.1516 38.9358 53.1525 38.9237 53.1507 38.91C53.149 38.8963 53.1419 38.8794 53.1286 38.8577C53.1117 38.8319 53.0984 38.8222 53.0913 38.819C53.0665 38.8069 53.0407 38.8061 52.9902 38.8214C52.9698 38.8279 52.9476 38.8375 52.9263 38.8512C52.9041 38.8649 52.8864 38.877 52.8731 38.8875C52.8678 38.8923 52.8571 38.9012 52.8403 38.9205L52.8412 38.9197Z" fill="white"/>
<path d="M53.5013 38.4835L53.9403 38.8925C53.951 38.9022 53.951 38.9127 53.9403 38.9215L53.9093 38.9489L53.4268 38.4996C53.4135 38.4875 53.4055 38.4746 53.4046 38.4625C53.4037 38.4504 53.409 38.4392 53.4214 38.4279C53.4339 38.4166 53.4534 38.4134 53.4791 38.4174L54.1985 38.5664L53.7594 38.1573C53.7487 38.1477 53.7487 38.1372 53.7594 38.1283L53.7904 38.101L54.273 38.5503C54.2863 38.5624 54.2943 38.5753 54.2951 38.5873C54.296 38.5994 54.2907 38.6107 54.2783 38.622C54.2659 38.6332 54.2464 38.6365 54.2206 38.6324L53.5013 38.4835Z" fill="white"/>
<path d="M53.9085 39.0058L53.3949 38.5275C53.3736 38.5081 53.3621 38.4872 53.3603 38.4647C53.3594 38.4494 53.363 38.4349 53.3719 38.4212L53.3639 38.4139L53.3745 38.4163C53.379 38.4107 53.3834 38.4051 53.3896 38.3994C53.4118 38.3793 53.4464 38.3713 53.4872 38.3785L54.062 38.4977L53.7276 38.186C53.7001 38.1611 53.7001 38.1256 53.7276 38.0999L53.7905 38.0443L54.3041 38.5226C54.3254 38.542 54.3369 38.5629 54.3387 38.5855C54.3396 38.6008 54.336 38.6152 54.3272 38.6289L54.3351 38.6362L54.3245 38.6338C54.3201 38.6394 54.3156 38.645 54.3094 38.6507C54.2864 38.6716 54.2518 38.6789 54.2119 38.6724L53.6371 38.5532L53.9715 38.8649C53.9883 38.8802 53.9919 38.8963 53.9919 38.9076C53.9919 38.9188 53.9883 38.9349 53.9706 38.951L53.9076 39.0066L53.9085 39.0058Z" fill="white"/>
<path d="M54.9152 37.8749C54.9294 37.8789 54.9329 37.8861 54.9258 37.895L54.8948 37.932L54.6934 37.8781L54.4877 38.1221L54.5976 38.2847L54.5639 38.3242C54.5577 38.3315 54.5506 38.3298 54.5418 38.3186L54.1462 37.7444C54.1302 37.7203 54.1266 37.7009 54.1382 37.688C54.1497 37.6752 54.1692 37.6727 54.2003 37.6808L54.9152 37.8757V37.8749ZM54.6269 37.858L54.2207 37.7452L54.4486 38.0697L54.6269 37.8588V37.858Z" fill="white"/>
<path d="M54.5571 38.3687C54.5571 38.3687 54.5553 38.3687 54.5545 38.3687C54.5411 38.3687 54.5216 38.3622 54.5066 38.3397L54.111 37.7655C54.0772 37.7148 54.0897 37.6818 54.1056 37.6633C54.1216 37.6447 54.1535 37.6254 54.2147 37.6415L55.2197 37.9153H54.9651C54.9651 37.9153 54.9634 37.9177 54.9625 37.9185L54.9119 37.9781L54.7106 37.9242L54.542 38.1247L54.6529 38.2873L54.5997 38.3485C54.5882 38.3614 54.5731 38.3687 54.5562 38.3687H54.5571ZM54.3247 37.8163L54.4542 38.0007L54.5553 37.8807L54.3247 37.8171V37.8163Z" fill="white"/>
<path d="M51.6521 28.6058C51.3683 28.6155 50.9718 28.6735 50.68 28.7451C48.7108 29.2299 47.3644 30.7994 47.3377 32.6636C47.3173 34.0946 47.3023 35.5263 47.3324 36.9573C47.3661 38.6009 48.2177 39.8361 49.824 40.5722C51.4233 41.3042 53.0181 41.1705 54.4772 40.234C55.704 39.4464 56.3506 38.3327 56.3754 36.9597C56.402 35.5239 56.4074 34.0865 56.3843 32.6507C56.3506 30.6061 54.7726 28.9086 52.5125 28.6437C52.2021 28.6074 52.0531 28.5921 51.6512 28.6066L51.6521 28.6058ZM51.5688 30.4378C51.724 30.4338 51.8969 30.4281 52.0531 30.4241C52.0548 30.9596 52.0557 31.4839 52.0575 32.0169C51.8978 32.0145 51.7249 32.0121 51.5634 32.0097C51.5661 31.4758 51.5679 30.9532 51.5696 30.4378H51.5688ZM49.0843 30.4942C49.7362 29.8435 50.5398 29.465 51.5093 29.3724C51.5076 29.5641 51.512 29.7098 51.5093 29.9289C51.3594 29.9289 51.3674 29.9273 51.2929 29.9289C51.0853 29.9329 50.994 30.0142 50.9913 30.2059C50.9833 30.8767 50.978 31.5459 50.9762 32.2167C50.9762 32.4188 51.08 32.5106 51.2991 32.5114C51.3683 32.5114 51.4366 32.4905 51.4641 32.4856C51.4641 32.8536 51.4623 33.179 51.4614 33.5051C50.3846 33.5099 49.2794 33.5164 48.1786 33.522C47.9782 32.4373 48.3418 31.2334 49.0834 30.4942H49.0843ZM55.5328 36.9968C55.4733 38.3987 54.7194 39.4214 53.3064 39.9859C50.8804 40.9539 48.1689 39.3151 48.1502 36.888C48.1431 35.9789 48.1529 35.0689 48.1547 34.1598C48.1547 34.1131 48.16 34.0664 48.1627 34.0237C50.6241 34.035 53.0758 34.0446 55.539 34.0559C55.539 34.0688 55.5461 34.1058 55.5461 34.1413C55.5443 35.0931 55.5727 36.0465 55.5328 36.9968ZM55.5408 33.4737C54.3761 33.4737 53.231 33.4737 52.1143 33.4737C52.1143 33.1685 52.1169 32.8464 52.1178 32.4896C52.179 32.4961 52.2615 32.5154 52.3413 32.513C52.5223 32.509 52.6181 32.4309 52.6199 32.2674C52.6261 31.5708 52.6269 30.8743 52.6234 30.1769C52.6234 30.0287 52.5214 29.9442 52.3564 29.9313C52.2695 29.9249 52.1817 29.9257 52.0868 29.9224C52.0894 29.7421 52.0912 29.5681 52.0939 29.3813C52.1205 29.3773 52.1364 29.3708 52.1533 29.3716C52.1941 29.3732 52.2358 29.3748 52.2757 29.3797C53.6452 29.5568 54.6254 30.2164 55.2259 31.3445C55.594 32.0363 55.5691 32.7731 55.5399 33.4729L55.5408 33.4737Z" fill="white"/>
<path d="M49.3964 38.4857C49.3894 38.4978 49.3814 38.4994 49.3734 38.4906L49.3397 38.4551L49.4399 38.2876L49.219 38.0549L49.0212 38.1193L48.9849 38.0815C48.9787 38.0742 48.9813 38.0686 48.9964 38.063L49.6971 37.8303C49.7273 37.8206 49.7468 37.8222 49.7592 37.8343C49.7717 37.8464 49.7699 37.8657 49.7548 37.8906L49.3973 38.4857H49.3964ZM49.4736 38.2329L49.6794 37.8955L49.282 38.0308L49.4727 38.2329H49.4736Z" fill="white"/>
<path d="M49.2097 38.7123L49.3321 38.5086L49.286 38.4595L49.3862 38.292L49.2053 38.1011L49.0075 38.1656L48.9516 38.1068C48.9347 38.0874 48.9365 38.0705 48.9392 38.0617C48.9445 38.0448 48.9578 38.0327 48.98 38.0246L49.6816 37.7919C49.7419 37.7726 49.7747 37.7895 49.7925 37.8072C49.8067 37.8217 49.8262 37.8555 49.7925 37.9095L49.4359 38.503C49.4288 38.5158 49.4199 38.5231 49.4111 38.5279L49.2097 38.7107V38.7123ZM49.3578 38.0488L49.4661 38.1631L49.5822 37.9715L49.3569 38.048L49.3578 38.0488Z" fill="white"/>
<path d="M50.4118 38.438L50.3826 38.4662C50.3719 38.4767 50.3613 38.4767 50.3506 38.4678L50.1954 38.3398L49.735 38.8004L49.6871 38.7602L50.1475 38.2995L49.9772 38.1594L50.0065 38.1312C50.0162 38.1208 50.0278 38.1208 50.0384 38.1296L50.4118 38.438Z" fill="white"/>
<path d="M49.7367 38.8572L49.6232 38.763L50.0835 38.3024L49.9123 38.1614L49.9718 38.1035C49.9966 38.0777 50.0347 38.0753 50.0649 38.0986L50.4268 38.3974H50.5111L50.4144 38.4932C50.3878 38.519 50.3505 38.5206 50.3212 38.498L50.1979 38.3966L49.7367 38.8572Z" fill="white"/>
<path d="M51.0632 38.825L50.6897 39.3927C50.6817 39.4048 50.672 39.4064 50.6587 39.4L50.6214 39.3799L50.8077 39.0972L50.4839 38.9217L50.3092 39.1874C50.3012 39.1995 50.2915 39.2011 50.2782 39.1946L50.2409 39.1745L50.6143 38.6068C50.6223 38.5947 50.6321 38.5931 50.6454 38.5995L50.6826 38.6197L50.5176 38.8709L50.8414 39.0465L50.9949 38.8121C51.0028 38.8001 51.0126 38.7985 51.0259 38.8049L51.0632 38.825Z" fill="white"/>
<path d="M50.6723 39.4444C50.6608 39.4444 50.6493 39.4412 50.6378 39.4356L50.5615 39.3953L50.7477 39.1119L50.5003 38.9774L50.3486 39.2085C50.3282 39.2391 50.2918 39.2472 50.2581 39.2302L50.1818 39.19L50.5783 38.5868C50.5996 38.5562 50.6351 38.5482 50.6688 38.5651L50.7451 38.6053L50.5801 38.8574L50.8276 38.9919L50.9589 38.7922C50.9801 38.7616 51.0156 38.7527 51.0493 38.7704L51.1256 38.8107L50.7291 39.4138C50.7149 39.434 50.6954 39.4444 50.6732 39.4444H50.6723Z" fill="white"/>
<path d="M51.3565 38.9904L51.2961 39.2207L51.5622 39.2779L51.5525 39.3157C51.5489 39.3286 51.5392 39.3342 51.525 39.331L51.2819 39.2787L51.2145 39.5388L51.5924 39.6201L51.5826 39.658C51.5791 39.6708 51.5693 39.6765 51.5551 39.6733L51.195 39.5959C51.156 39.5871 51.14 39.5653 51.1498 39.5299L51.2961 38.9702C51.305 38.9364 51.329 38.9235 51.3689 38.9324L51.7503 39.0153L51.7405 39.0532C51.737 39.0661 51.7272 39.0717 51.713 39.0685L51.3582 38.992H51.3565V38.9904Z" fill="white"/>
<path d="M51.5628 39.7149C51.5575 39.7149 51.5522 39.7149 51.546 39.7133L51.185 39.6359C51.153 39.6287 51.13 39.615 51.1158 39.5941C51.1025 39.5739 51.0989 39.549 51.1069 39.5216L51.2533 38.9619C51.2604 38.9346 51.2754 38.9144 51.2976 38.9023C51.3207 38.8895 51.3482 38.887 51.3801 38.8943L51.8041 38.9861L51.7846 39.0634C51.7757 39.098 51.7438 39.1165 51.7048 39.1093L51.3908 39.0417L51.3508 39.193L51.6161 39.2502L51.5965 39.3275C51.5877 39.3622 51.5549 39.3815 51.5167 39.3734L51.3162 39.3299L51.2692 39.5119L51.6471 39.5933L51.6276 39.6706C51.6223 39.6923 51.609 39.7036 51.5983 39.71C51.5912 39.7141 51.5797 39.7181 51.5646 39.7181L51.5628 39.7149Z" fill="white"/>
<path d="M52.0705 39.0752L52.1122 39.3088L52.3809 39.2685L52.388 39.3072C52.3907 39.32 52.3836 39.3281 52.3694 39.3305L52.1219 39.3667L52.1698 39.6309L52.5521 39.5737L52.5592 39.6124C52.5619 39.6252 52.5548 39.6333 52.5406 39.6357L52.176 39.6905C52.1361 39.6961 52.1122 39.6816 52.1059 39.6462L52.0031 39.0785C51.9968 39.0438 52.0137 39.0237 52.0536 39.0181L52.4412 38.9601L52.4483 38.9987C52.451 39.0116 52.4439 39.0197 52.4297 39.0221L52.0687 39.076L52.0705 39.0752Z" fill="white"/>
<path d="M52.1603 39.7319C52.108 39.7319 52.0708 39.7029 52.0619 39.6522L51.967 39.1311L51.9501 39.1336L51.9643 39.1191L51.9581 39.0836C51.9519 39.0498 51.9625 39.0265 51.9732 39.0136C51.9883 38.9942 52.0131 38.9814 52.0459 38.9765L52.477 38.9121L52.4921 38.9902C52.4956 39.012 52.4885 39.0273 52.4814 39.0361C52.4743 39.045 52.461 39.0563 52.4371 39.0603L52.1204 39.1078L52.1479 39.2608L52.4167 39.2205L52.4318 39.2986C52.438 39.3341 52.4158 39.3623 52.3768 39.3687L52.1728 39.3985L52.2056 39.5829L52.5879 39.5257L52.603 39.6038C52.6074 39.6256 52.5994 39.6409 52.5923 39.6497C52.5852 39.6586 52.5719 39.6699 52.548 39.6731L52.1834 39.7279C52.1754 39.7287 52.1674 39.7295 52.1603 39.7295V39.7319Z" fill="white"/>
<path d="M53.5376 39.1943C53.5429 39.1967 53.5464 39.1999 53.5473 39.204C53.5473 39.208 53.5447 39.212 53.5385 39.2152L53.4906 39.241L53.1393 39.096L52.9628 39.1895L53.1216 39.4367L53.0648 39.4665L52.7073 38.91C52.7207 38.8931 52.7348 38.8762 52.7526 38.8585C52.7703 38.8408 52.7898 38.8239 52.8111 38.807C52.8333 38.7892 52.8564 38.7739 52.8821 38.7611C52.9593 38.72 53.0267 38.7047 53.0861 38.7143C53.1446 38.724 53.1934 38.7594 53.2325 38.8206C53.2564 38.8585 53.2679 38.8963 53.2653 38.9358C53.2626 38.9753 53.2413 39.0155 53.1987 39.0574L53.5376 39.1959V39.1943ZM53.1109 39.0413C53.1278 39.0324 53.1429 39.0212 53.1579 39.0075C53.1713 38.9946 53.1828 38.9793 53.1899 38.9616C53.197 38.9439 53.1996 38.9261 53.197 38.9052C53.1943 38.8843 53.1846 38.8625 53.1686 38.8376C53.1517 38.811 53.1331 38.7933 53.1136 38.7836C53.0941 38.7739 53.0737 38.7699 53.0506 38.7699C53.0276 38.7699 53.0036 38.7747 52.977 38.7828C52.9513 38.7908 52.9264 38.8029 52.9025 38.8174C52.8785 38.8319 52.8599 38.8456 52.8457 38.8561C52.8324 38.8674 52.8129 38.8867 52.7881 38.9157L52.93 39.1363L53.1109 39.0405V39.0413Z" fill="white"/>
<path d="M53.0496 39.5212L52.6558 38.9076L52.6718 38.8867C52.6859 38.8681 52.701 38.8504 52.7205 38.8311C52.7392 38.8126 52.7596 38.7949 52.7826 38.7763C52.8075 38.7562 52.8332 38.7393 52.8616 38.7256C52.9467 38.6805 53.0257 38.6628 53.0949 38.6741C53.1658 38.6854 53.2252 38.728 53.2723 38.7989C53.3015 38.844 53.3139 38.8907 53.3113 38.9374C53.3095 38.972 53.2953 39.0067 53.2705 39.0413L53.5561 39.1572C53.5676 39.1621 53.5774 39.1693 53.5836 39.1782L53.7406 39.3207L53.5623 39.2482C53.5623 39.2482 53.5596 39.2498 53.5588 39.2498L53.494 39.2845L53.1427 39.1395L53.0248 39.2023L53.1836 39.4496L53.0505 39.5204L53.0496 39.5212ZM52.8412 38.9197L52.9449 39.0815L53.1011 38.9986C53.109 38.993 53.117 38.9873 53.1241 38.9801C53.1348 38.9704 53.1419 38.9591 53.1463 38.9479C53.1516 38.9358 53.1525 38.9237 53.1507 38.91C53.149 38.8963 53.1419 38.8794 53.1286 38.8577C53.1117 38.8319 53.0984 38.8222 53.0913 38.819C53.0665 38.8069 53.0407 38.8061 52.9902 38.8214C52.9698 38.8279 52.9476 38.8375 52.9263 38.8512C52.9041 38.8649 52.8864 38.877 52.8731 38.8875C52.8678 38.8923 52.8571 38.9012 52.8403 38.9205L52.8412 38.9197Z" fill="white"/>
<path d="M53.5013 38.4835L53.9403 38.8925C53.951 38.9022 53.951 38.9127 53.9403 38.9215L53.9093 38.9489L53.4268 38.4996C53.4135 38.4875 53.4055 38.4746 53.4046 38.4625C53.4037 38.4504 53.409 38.4392 53.4214 38.4279C53.4339 38.4166 53.4534 38.4134 53.4791 38.4174L54.1985 38.5664L53.7594 38.1573C53.7487 38.1477 53.7487 38.1372 53.7594 38.1283L53.7904 38.101L54.273 38.5503C54.2863 38.5624 54.2943 38.5753 54.2951 38.5873C54.296 38.5994 54.2907 38.6107 54.2783 38.622C54.2659 38.6332 54.2464 38.6365 54.2206 38.6324L53.5013 38.4835Z" fill="white"/>
<path d="M53.9085 39.0058L53.3949 38.5275C53.3736 38.5081 53.3621 38.4872 53.3603 38.4647C53.3594 38.4494 53.363 38.4349 53.3719 38.4212L53.3639 38.4139L53.3745 38.4163C53.379 38.4107 53.3834 38.4051 53.3896 38.3994C53.4118 38.3793 53.4464 38.3713 53.4872 38.3785L54.062 38.4977L53.7276 38.186C53.7001 38.1611 53.7001 38.1256 53.7276 38.0999L53.7905 38.0443L54.3041 38.5226C54.3254 38.542 54.3369 38.5629 54.3387 38.5855C54.3396 38.6008 54.336 38.6152 54.3272 38.6289L54.3351 38.6362L54.3245 38.6338C54.3201 38.6394 54.3156 38.645 54.3094 38.6507C54.2864 38.6716 54.2518 38.6789 54.2119 38.6724L53.6371 38.5532L53.9715 38.8649C53.9883 38.8802 53.9919 38.8963 53.9919 38.9076C53.9919 38.9188 53.9883 38.9349 53.9706 38.951L53.9076 39.0066L53.9085 39.0058Z" fill="white"/>
<path d="M54.9152 37.8749C54.9294 37.8789 54.9329 37.8861 54.9258 37.895L54.8948 37.932L54.6934 37.8781L54.4877 38.1221L54.5976 38.2847L54.5639 38.3242C54.5577 38.3315 54.5506 38.3298 54.5418 38.3186L54.1462 37.7444C54.1302 37.7203 54.1266 37.7009 54.1382 37.688C54.1497 37.6752 54.1692 37.6727 54.2003 37.6808L54.9152 37.8757V37.8749ZM54.6269 37.858L54.2207 37.7452L54.4486 38.0697L54.6269 37.8588V37.858Z" fill="white"/>
<path d="M54.5571 38.3687C54.5571 38.3687 54.5553 38.3687 54.5545 38.3687C54.5411 38.3687 54.5216 38.3622 54.5066 38.3397L54.111 37.7655C54.0772 37.7148 54.0897 37.6818 54.1056 37.6633C54.1216 37.6447 54.1535 37.6254 54.2147 37.6415L55.2197 37.9153H54.9651C54.9651 37.9153 54.9634 37.9177 54.9625 37.9185L54.9119 37.9781L54.7106 37.9242L54.542 38.1247L54.6529 38.2873L54.5997 38.3485C54.5882 38.3614 54.5731 38.3687 54.5562 38.3687H54.5571ZM54.3247 37.8163L54.4542 38.0007L54.5553 37.8807L54.3247 37.8171V37.8163Z" fill="white"/>
<path d="M51.6521 28.6058C51.3683 28.6155 50.9718 28.6735 50.68 28.7451C48.7108 29.2299 47.3644 30.7994 47.3377 32.6636C47.3173 34.0946 47.3023 35.5263 47.3324 36.9573C47.3661 38.6009 48.2177 39.8361 49.824 40.5722C51.4233 41.3042 53.0181 41.1705 54.4772 40.234C55.704 39.4464 56.3506 38.3327 56.3754 36.9597C56.402 35.5239 56.4074 34.0865 56.3843 32.6507C56.3506 30.6061 54.7726 28.9086 52.5125 28.6437C52.2021 28.6074 52.0531 28.5921 51.6512 28.6066L51.6521 28.6058ZM51.5688 30.4378C51.724 30.4338 51.8969 30.4281 52.0531 30.4241C52.0548 30.9596 52.0557 31.4839 52.0575 32.0169C51.8978 32.0145 51.7249 32.0121 51.5634 32.0097C51.5661 31.4758 51.5679 30.9532 51.5696 30.4378H51.5688ZM49.0843 30.4942C49.7362 29.8435 50.5398 29.465 51.5093 29.3724C51.5076 29.5641 51.512 29.7098 51.5093 29.9289C51.3594 29.9289 51.3674 29.9273 51.2929 29.9289C51.0853 29.9329 50.994 30.0142 50.9913 30.2059C50.9833 30.8767 50.978 31.5459 50.9762 32.2167C50.9762 32.4188 51.08 32.5106 51.2991 32.5114C51.3683 32.5114 51.4366 32.4905 51.4641 32.4856C51.4641 32.8536 51.4623 33.179 51.4614 33.5051C50.3846 33.5099 49.2794 33.5164 48.1786 33.522C47.9782 32.4373 48.3418 31.2334 49.0834 30.4942H49.0843ZM55.5328 36.9968C55.4733 38.3987 54.7194 39.4214 53.3064 39.9859C50.8804 40.9539 48.1689 39.3151 48.1502 36.888C48.1431 35.9789 48.1529 35.0689 48.1547 34.1598C48.1547 34.1131 48.16 34.0664 48.1627 34.0237C50.6241 34.035 53.0758 34.0446 55.539 34.0559C55.539 34.0688 55.5461 34.1058 55.5461 34.1413C55.5443 35.0931 55.5727 36.0465 55.5328 36.9968ZM55.5408 33.4737C54.3761 33.4737 53.231 33.4737 52.1143 33.4737C52.1143 33.1685 52.1169 32.8464 52.1178 32.4896C52.179 32.4961 52.2615 32.5154 52.3413 32.513C52.5223 32.509 52.6181 32.4309 52.6199 32.2674C52.6261 31.5708 52.6269 30.8743 52.6234 30.1769C52.6234 30.0287 52.5214 29.9442 52.3564 29.9313C52.2695 29.9249 52.1817 29.9257 52.0868 29.9224C52.0894 29.7421 52.0912 29.5681 52.0939 29.3813C52.1205 29.3773 52.1364 29.3708 52.1533 29.3716C52.1941 29.3732 52.2358 29.3748 52.2757 29.3797C53.6452 29.5568 54.6254 30.2164 55.2259 31.3445C55.594 32.0363 55.5691 32.7731 55.5399 33.4729L55.5408 33.4737Z" fill="white"/>
</g>
<defs>
<clipPath id="clip0_6_138">
<rect width="49.14" height="20.16" fill="white" transform="translate(7.25977 20.9404)"/>
</clipPath>
</defs>
</svg>
