<svg width="38" height="36" viewBox="0 0 38 36" fill="none" xmlns="http://www.w3.org/2000/svg">
<g clip-path="url(#clip0_228_3913)">
<path d="M37.9999 28.6052C37.88 28.8663 37.7954 29.1509 37.6328 29.384C36.7349 30.6716 34.8935 30.6237 34.0541 29.2837C33.4443 28.3097 32.8745 27.3121 32.288 26.3245C31.8558 25.5972 31.4189 24.8716 30.996 24.1379C30.8956 23.9635 30.798 23.9229 30.587 23.9581C26.9544 24.5644 23.7131 22.7789 22.3811 19.4484C21.01 16.0221 22.8756 11.8692 26.3985 10.5058C30.3165 8.98867 34.5477 10.7515 36.02 14.5953C36.957 17.0422 36.5099 19.3427 34.8907 21.4245C34.7791 21.5673 34.6583 21.7037 34.53 21.8555C34.6285 22.0281 34.7206 22.1952 34.8182 22.3597C35.6389 23.7431 36.4699 25.121 37.2777 26.5107C37.5482 26.976 37.7601 27.473 37.999 27.9555V28.6052H37.9999ZM29.1992 11.0398C25.7702 11.0407 23.0504 13.727 23.0569 17.1072C23.0624 20.3827 25.8389 23.0112 29.2912 23.0103C32.6496 23.0094 35.3564 20.3086 35.3694 16.9464C35.3815 13.7451 32.5548 11.0389 29.2001 11.0407L29.1992 11.0398ZM31.9645 23.6084C32.2146 24.0304 32.46 24.4451 32.7063 24.8599C33.4527 26.1176 34.1972 27.3763 34.9464 28.6323C35.2299 29.1075 35.625 29.3099 36.0656 29.2187C36.7981 29.0678 37.089 28.3576 36.6828 27.6673C35.7635 26.105 34.834 24.5481 33.9082 22.9895C33.8347 22.8666 33.7576 22.7455 33.6907 22.6371C33.1162 22.9606 32.5622 23.2714 31.9645 23.6075V23.6084Z" fill="#4396D1"/>
<path d="M20.9161 30.2325C21.0017 30.4023 21.0584 30.518 21.1188 30.6318C21.8782 32.0748 22.6386 33.5178 23.3971 34.9608C23.4584 35.0783 23.5681 35.212 23.5486 35.3196C23.5105 35.5229 23.4463 35.7695 23.2995 35.8951C23.1024 36.0632 22.8263 36.0207 22.6358 35.8129C22.5391 35.7072 22.474 35.5726 22.4071 35.4452C21.5492 33.8223 20.6866 32.2004 19.8425 30.5704C19.7143 30.3228 19.5786 30.2216 19.283 30.2243C17.4769 30.2388 15.6708 30.237 13.8657 30.2261C13.5943 30.2243 13.453 30.3057 13.3284 30.546C12.4798 32.1869 11.6116 33.8196 10.749 35.4533C10.6867 35.5708 10.6263 35.6918 10.5417 35.793C10.3595 36.0108 10.1141 36.037 9.87243 35.9186C9.62611 35.7975 9.52293 35.5798 9.59822 35.3132C9.63354 35.1876 9.70233 35.0702 9.76461 34.9527C10.5231 33.5088 11.2835 32.0667 12.042 30.6237C12.0968 30.5189 12.147 30.4105 12.2344 30.2334C12.054 30.2334 11.9267 30.2334 11.8003 30.2334C10.1922 30.2334 8.58411 30.2343 6.97603 30.2334C5.87547 30.2325 5.41628 29.787 5.41535 28.7262C5.41535 28.4389 5.41535 28.1515 5.41535 27.8109C5.2657 27.8109 5.13556 27.8109 5.00543 27.8109C3.91695 27.8109 2.82848 27.8136 1.74 27.8109C0.651524 27.8073 0.00178423 27.1838 0.000854704 26.133C-7.48227e-05 18.7851 -7.48227e-05 11.4382 0.00178423 4.09221C0.00178423 3.06033 0.651524 2.43055 1.71397 2.42332C2.50593 2.41699 3.29696 2.41609 4.08892 2.42513C4.53695 2.43055 4.82138 2.71788 4.73494 3.06847C4.65686 3.38562 4.42354 3.5067 4.09914 3.50489C3.33228 3.50128 2.56542 3.50218 1.79856 3.50489C1.26036 3.5067 1.11443 3.64675 1.11443 4.1654C1.11443 11.4635 1.11443 18.7626 1.11443 26.0607C1.11443 26.6064 1.25293 26.7284 1.86456 26.7284C11.4759 26.7284 21.0863 26.7284 30.6976 26.7284C30.8333 26.7284 30.9708 26.7185 31.1056 26.7357C31.4114 26.7736 31.6066 26.9326 31.6234 27.248C31.6392 27.5434 31.4356 27.7702 31.1093 27.8001C30.876 27.8217 30.6399 27.8091 30.4048 27.81C29.5403 27.81 28.6749 27.81 27.75 27.81C27.75 28.1552 27.7519 28.4859 27.75 28.8166C27.7445 29.7337 27.2546 30.2252 26.3111 30.2298C24.6659 30.2379 23.0206 30.2325 21.3763 30.2325C21.2433 30.2325 21.1113 30.2325 20.918 30.2325H20.9161ZM26.6346 27.8335H6.56053C6.54659 27.8787 6.5345 27.9013 6.5345 27.9229C6.53171 28.1633 6.52985 28.4036 6.52985 28.644C6.52985 28.9801 6.70894 29.1485 7.06712 29.1491C13.4121 29.1491 19.757 29.1491 26.101 29.1491C26.1875 29.1491 26.2925 29.178 26.3567 29.14C26.4636 29.0777 26.6132 28.9792 26.6225 28.8852C26.6541 28.5419 26.6355 28.1949 26.6355 27.8326L26.6346 27.8335Z" fill="#4396D1"/>
<path d="M17.2874 14.2078C17.3831 13.9494 17.2177 13.813 16.9714 13.6865C16.4796 13.4353 16.0084 13.1461 15.5139 12.8995C15.4042 12.8453 15.2034 12.8543 15.0974 12.9175C14.3687 13.3567 13.6604 13.3549 12.9372 12.9076C12.8405 12.848 12.6528 12.838 12.5524 12.8895C12.0272 13.157 11.5234 13.4624 10.9982 13.7299C10.7854 13.8383 10.7473 13.9711 10.7556 14.1871C10.7919 15.1521 10.0622 15.9707 9.11872 16.0493C8.09066 16.1352 7.23085 15.4954 7.0877 14.5087C6.98081 13.7741 7.26989 13.1751 7.89732 12.7703C8.5545 12.3456 9.25815 12.3474 9.91904 12.7657C10.131 12.8995 10.2648 12.9121 10.4712 12.7901C10.9564 12.5037 11.4528 12.2326 11.9519 11.9697C12.123 11.8793 12.1936 11.7845 12.1852 11.5803C12.1406 10.4915 12.9521 9.64482 14.0201 9.64211C15.0993 9.63849 15.8922 10.4878 15.8764 11.6092C15.8745 11.7203 15.9656 11.8802 16.0632 11.9381C16.5903 12.2507 17.1285 12.5471 17.675 12.8254C17.7717 12.8751 17.9548 12.857 18.0524 12.7983C18.4902 12.5326 18.9457 12.4134 19.4644 12.4893C19.5871 12.5073 19.7832 12.4359 19.8548 12.3402C20.7806 11.1077 21.6943 9.86709 22.5959 8.61746C22.6657 8.52078 22.6759 8.32199 22.622 8.21356C22.213 7.39764 22.3719 6.51485 23.0523 5.95464C23.7002 5.42063 24.6418 5.38449 25.3204 5.86609C26.0175 6.36125 26.2806 7.25759 25.9525 8.0193C25.6123 8.80992 24.7943 9.22195 23.861 9.09364C23.7597 9.08009 23.598 9.14514 23.5375 9.22646C22.6006 10.4806 21.6804 11.7465 20.7406 12.9989C20.5975 13.1895 20.7034 13.2979 20.7796 13.4434C21.1338 14.1184 21.0176 14.9217 20.4896 15.4882C19.9905 16.0231 19.1502 16.2065 18.4475 15.9346C17.741 15.6608 17.2818 14.9912 17.2883 14.2069L17.2874 14.2078ZM14.0313 10.7291C13.6437 10.7246 13.2942 11.0589 13.2895 11.4384C13.2849 11.8206 13.6223 12.1531 14.0173 12.1567C14.4124 12.1604 14.7572 11.8342 14.761 11.452C14.7656 11.0734 14.4226 10.7336 14.0313 10.7291ZM24.2328 6.60882C23.8387 6.61425 23.5115 6.94586 23.5162 7.33529C23.5199 7.72564 23.8545 8.04731 24.2514 8.04098C24.6474 8.03556 24.9792 7.70305 24.9737 7.31813C24.9681 6.93411 24.6232 6.6034 24.2338 6.60882H24.2328ZM19.8706 14.2756C19.878 13.9024 19.5322 13.5564 19.1437 13.5482C18.7542 13.5401 18.4084 13.8699 18.4028 14.2539C18.3973 14.6479 18.7161 14.9686 19.1214 14.9741C19.5183 14.9795 19.8631 14.6578 19.8706 14.2756ZM9.64855 14.2711C9.65227 13.8916 9.3102 13.5518 8.92166 13.5473C8.53684 13.5437 8.18269 13.8817 8.17804 14.2584C8.17339 14.6397 8.51081 14.9695 8.90865 14.9732C9.31113 14.9768 9.64483 14.6596 9.64855 14.2711Z" fill="#4396D1"/>
<path d="M13.4966 2.42162C13.4966 2.04845 13.4892 1.71503 13.4985 1.38161C13.5199 0.586471 14.0478 0.0371011 14.8686 0.0190297C16.0063 -0.00536667 17.145 -0.00536667 18.2818 0.0190297C19.11 0.0361975 19.6501 0.603639 19.6668 1.41143C19.6733 1.734 19.6677 2.05658 19.6677 2.42252H20.1269C23.8497 2.42252 27.5734 2.42252 31.2961 2.42252C32.5473 2.42252 33.1617 3.02159 33.1626 4.2396C33.1636 5.76663 33.1645 7.29366 33.1608 8.8207C33.1608 8.97521 33.1831 9.17489 33.0976 9.27338C32.9618 9.4288 32.7546 9.58963 32.5584 9.61403C32.2917 9.64837 32.1076 9.44958 32.063 9.17761C32.0444 9.06014 32.05 8.93816 32.05 8.81798C32.05 7.29095 32.05 5.76392 32.05 4.23689C32.05 3.62879 31.9189 3.505 31.2831 3.505C23.1191 3.505 14.956 3.505 6.79194 3.505C6.64321 3.505 6.49263 3.51403 6.34762 3.49145C6.06876 3.44807 5.90145 3.27097 5.881 3.00442C5.85962 2.73606 6.00277 2.53818 6.27512 2.46499C6.41548 2.42704 6.56792 2.42433 6.71479 2.42433C8.82946 2.42162 10.9451 2.42252 13.0597 2.42252H13.4975L13.4966 2.42162ZM18.5542 2.40174C18.5542 2.05296 18.5542 1.74123 18.5542 1.4295C18.5542 1.20903 18.4389 1.09337 18.214 1.09337C17.1273 1.09157 16.0407 1.08343 14.955 1.10512C14.8389 1.10783 14.6427 1.27589 14.6278 1.38613C14.5842 1.71322 14.612 2.05025 14.612 2.40174H18.5542Z" fill="#4396D1"/>
<path d="M12.3329 20.3808C12.3329 19.2026 12.331 18.0243 12.3329 16.847C12.3338 16.2488 12.5188 16.0672 13.1267 16.0645C13.7448 16.0618 14.3629 16.0591 14.982 16.0654C15.5007 16.0708 15.7117 16.2642 15.7126 16.763C15.7182 19.1791 15.7182 21.5952 15.7126 24.0114C15.7117 24.4966 15.5025 24.6954 15.0127 24.7008C14.3574 24.708 13.7021 24.708 13.0467 24.7008C12.5374 24.6954 12.3366 24.4957 12.3347 23.987C12.3301 22.7852 12.3329 21.5826 12.3329 20.3808ZM14.5786 23.6075V17.175H13.4753V23.6075H14.5786Z" fill="#4396D1"/>
<path d="M17.4435 21.7606C17.4435 21.0278 17.4408 20.295 17.4435 19.5622C17.4463 19.0291 17.6304 18.8439 18.1732 18.8385C18.8155 18.8322 19.4588 18.8322 20.1011 18.8385C20.63 18.8439 20.8131 19.0192 20.8149 19.5378C20.8205 21.0269 20.8214 22.5169 20.8149 24.006C20.8131 24.5102 20.6104 24.6963 20.089 24.6999C19.4467 24.7054 18.8044 24.7054 18.1611 24.6999C17.6471 24.6954 17.4473 24.4975 17.4445 23.9933C17.4398 23.2488 17.4435 22.5043 17.4435 21.7597V21.7606ZM19.68 23.6066V19.9508H18.5831V23.6066H19.68Z" fill="#4396D1"/>
<path d="M10.6069 21.7508C10.6069 22.4953 10.6106 23.2399 10.606 23.9853C10.6023 24.4922 10.4024 24.6955 9.89584 24.701C9.24052 24.7082 8.58614 24.7082 7.93082 24.701C7.43724 24.6955 7.22996 24.5031 7.2281 24.017C7.22066 22.5152 7.21973 21.0135 7.2281 19.5127C7.23089 19.0256 7.42888 18.8449 7.93547 18.8395C8.58986 18.8323 9.24517 18.8314 9.90049 18.8395C10.4154 18.8458 10.6023 19.0383 10.606 19.5524C10.6106 20.2852 10.6069 21.018 10.6069 21.7508ZM8.36491 19.9355V23.5896H9.46268V19.9355H8.36491Z" fill="#4396D1"/>
<path d="M23.6713 23.6203C24.2142 23.6203 24.7161 23.6175 25.219 23.6203C25.667 23.6239 25.9059 23.8073 25.9124 24.1443C25.9198 24.485 25.6782 24.6946 25.2431 24.6991C24.5776 24.7063 23.9111 24.7073 23.2447 24.6991C22.7687 24.6937 22.5661 24.4958 22.5605 24.0413C22.554 23.5742 22.5531 23.1061 22.5615 22.639C22.5689 22.2685 22.7818 22.0417 23.1043 22.0372C23.4269 22.0318 23.6527 22.255 23.6685 22.6218C23.6825 22.9417 23.6713 23.2624 23.6713 23.6194V23.6203Z" fill="#4396D1"/>
<path d="M33.383 16.8787C33.3347 16.6447 33.2464 16.1884 33.1432 15.7348C33.1088 15.5839 33.0307 15.442 32.9852 15.2929C32.8829 14.9568 33.001 14.6876 33.29 14.5746C33.5735 14.4644 33.8608 14.5845 34.0132 14.9035C34.3729 15.658 34.5495 16.4567 34.4817 17.2844C34.2763 19.7882 32.6394 21.5736 30.1148 22.0806C27.2593 22.6543 24.2383 20.4776 23.9669 17.6513C23.7103 14.9803 25.2217 12.791 27.8821 12.0699C29.492 11.6335 30.9904 11.966 32.3475 12.9003C32.6282 13.0937 32.684 13.4135 32.5111 13.6602C32.3373 13.9087 32.0296 13.9746 31.7256 13.7804C31.1075 13.3864 30.4596 13.0937 29.7142 13.0078C27.5056 12.753 25.456 14.1996 25.1056 16.332C24.8397 17.9521 25.3853 19.3192 26.7555 20.287C28.134 21.261 29.65 21.3731 31.1596 20.5897C32.565 19.8596 33.2845 18.6642 33.3839 16.8778L33.383 16.8787Z" fill="#4396D1"/>
</g>
<defs>
<clipPath id="clip0_228_3913">
<rect width="38" height="36" fill="white"/>
</clipPath>
</defs>
</svg>
