<svg width="31" height="31" viewBox="0 0 31 31" fill="none" xmlns="http://www.w3.org/2000/svg">
<path d="M1.986 18.9998V18.0371C1.19327 17.8034 0.998843 17.5445 0.998843 16.7238C0.998843 16.4842 0.993836 16.2446 1.00051 16.0049C1.01553 15.4372 1.42441 15.0064 1.986 15.003C3.66159 14.9938 5.33801 14.9938 7.01359 15.003C7.561 15.0064 7.97238 15.4313 7.99241 15.9791C8.00242 16.2596 7.99575 16.5418 7.99491 16.8223C7.99408 17.5354 7.72538 17.8652 7.01026 18.0163V18.9831H9.9709V18.0321C9.19236 17.8084 8.99459 17.5437 8.99459 16.7213C8.99459 16.5543 8.99459 16.3882 8.99459 16.2212C8.99459 15.3687 9.36008 14.9989 10.202 14.9989C10.7837 14.9989 11.3661 14.9989 11.9703 14.9989V12.0349C11.4754 11.9939 10.9739 11.9956 10.4891 11.9054C8.60991 11.5573 7.32151 10.1429 7.04781 8.19002C7.02945 8.06228 6.93182 7.89947 6.82334 7.83685C6.09402 7.41604 5.8003 6.6237 6.1274 5.89063C6.44116 5.18512 7.24724 4.83195 7.97739 5.07825C8.72923 5.33207 9.13478 6.10938 8.93367 6.90841C8.91865 6.96769 8.9028 7.02697 8.88277 7.10712C10.071 7.32253 11.1316 7.77924 11.9753 8.75026V5.00311C10.2922 5.06573 8.78765 4.66246 7.78797 3.1504C7.19884 2.26288 6.89594 1.00631 7.02695 0.00439899C8.63494 -0.0331727 10.1829 0.158026 11.4738 1.24761C12.4501 2.07168 12.9324 3.14957 12.9875 4.41782C13.0058 4.83946 12.99 5.26193 12.99 5.75371C14.3727 4.25 16.1033 3.95778 17.9808 4.0037C18.0501 5.54247 17.627 6.87167 16.4963 7.98129C17.1205 8.04975 17.577 8.33029 17.8365 8.83626C19.1624 7.50956 20.4825 6.1887 21.8118 4.85866C21.1501 4.4412 20.7921 3.82335 21.09 2.97757C21.2995 2.38394 21.7592 2.0458 22.3859 2.00906C23.1611 1.96314 23.6526 2.38311 23.9405 3.09363C24.4696 2.96839 24.9761 3.00012 25.4258 3.29234C25.6962 3.01932 25.9582 2.75548 26.2227 2.48914C25.5301 1.50309 26.4239 0.132978 27.5604 0.00940855C27.9225 -0.029833 28.2413 0.05032 28.5041 0.313322C29.2251 1.03553 29.9469 1.75691 30.6679 2.47829C30.9024 2.71374 31 2.99761 30.9783 3.32908C30.9216 4.20325 30.1948 4.95385 29.3194 4.9839C29.0449 4.99309 28.7662 4.8787 28.4658 4.81608C28.263 5.02732 28.0068 5.2945 27.7515 5.56084C27.8182 5.81048 27.9417 6.11189 27.9718 6.42332C28.0227 6.95099 27.799 7.3935 27.426 7.76504C26.7476 8.44134 26.0725 9.12097 25.3966 9.79976C25.3891 9.80728 25.3858 9.81729 25.4267 9.74967C25.6161 10.2732 25.7805 10.7457 25.9607 11.2108C25.9999 11.311 26.0926 11.3945 26.171 11.4746C27.0689 12.3864 28.0293 13.2438 28.7403 14.3217C31.4539 18.4346 31.7101 22.7136 29.5723 27.142C29.3328 27.638 29.0524 28.1147 28.7753 28.5906C28.671 28.7693 28.6644 28.9029 28.7511 29.1033C28.8721 29.383 28.9548 29.6969 28.9689 30C28.994 30.5402 28.5584 30.966 28.016 30.9952C27.9325 30.9994 27.8491 30.9969 27.7665 30.9969C23.2487 30.9969 18.7318 30.9969 14.2141 30.9969C13.3454 30.9969 12.9908 30.6379 12.9908 29.7587C12.9908 29.4999 12.9908 29.241 12.9908 29.0181C12.5861 28.9789 12.1972 28.9889 11.8342 28.897C10.7344 28.6173 9.99844 27.6355 9.99427 26.4749C9.98759 24.4444 9.9926 22.413 9.99176 20.3825C9.99176 20.2689 9.99176 20.1554 9.99176 20.0193H6.99357C6.99357 20.1311 6.99357 20.2414 6.99357 20.3524C6.99357 22.4038 7.00191 24.4561 6.98939 26.5075C6.98105 27.8935 5.86956 28.9914 4.50439 28.9956C3.12503 28.9997 2.00686 27.8968 1.99935 26.4966C1.98851 24.4552 1.99602 22.4138 1.99602 20.3724C1.99602 20.2597 1.99602 20.147 1.99602 20.0009C1.80159 20.0009 1.62635 19.985 1.45529 20.0042C1.18326 20.0351 1.02888 20.2021 1.00051 20.4768C0.991332 20.5695 0.996339 20.6638 0.996339 20.7582C0.996339 24.0386 0.996339 27.3199 0.996339 30.6003C0.996339 30.7222 0.996339 30.8449 0.996339 30.9819H0C0 30.8625 0 30.7422 0 30.622C0 27.3307 0 24.0403 0 20.749C0 19.5726 0.561588 19.0065 1.73567 18.9982C1.80826 18.9982 1.88003 18.9982 1.986 18.9982V18.9998ZM26.1059 23.1811C26.141 23.1386 26.1635 23.1194 26.1769 23.0943C27.8132 19.9692 26.8786 16.136 24.0582 14.0571C23.9964 14.0111 23.9055 13.966 23.8354 13.9752C23.076 14.0813 22.4218 13.8416 21.8243 13.3641C21.1176 14.0729 20.4266 14.7793 19.7207 15.4714C18.9955 16.1819 17.9892 16.1828 17.2632 15.4773C16.6741 14.9037 16.0933 14.3217 15.5192 13.7331C14.8099 13.0059 14.8099 12.0023 15.5108 11.2742C15.6302 11.1498 15.7704 11.0455 15.908 10.9261C14.9843 10.2398 14.8374 9.79642 15.1404 8.81538C14.4419 8.8947 13.7276 8.97652 13.015 9.05751V14.9997C13.6826 14.9997 14.3268 14.9938 14.971 15.0014C15.5559 15.0089 15.9715 15.423 15.9882 16.0041C15.9948 16.2437 15.9898 16.4834 15.9898 16.7221C15.9898 17.542 15.7937 17.8042 15.0135 18.0321V19.0065H16.9695V20.0109H15.0068V20.9986H15.3581C17.7096 20.9986 20.0611 21.0003 22.4135 20.9978C22.9784 20.9978 23.4407 21.209 23.7252 21.6941C23.8704 21.9429 24.0373 22.0573 24.3102 22.1124C25.0228 22.2585 25.6044 22.6501 26.1068 23.1803L26.1059 23.1811ZM20.0211 13.764C20.3657 13.4175 20.7103 13.0585 21.0708 12.7145C21.1977 12.5934 21.2002 12.4949 21.1459 12.3354C20.8113 11.3594 20.9974 10.4744 21.72 9.74716C22.4518 9.01076 23.3439 8.81622 24.331 9.16271C24.4988 9.22116 24.5906 9.1936 24.7074 9.07504C25.3641 8.40794 26.0308 7.74918 26.69 7.08458C27.0856 6.68632 27.0872 6.31645 26.695 5.91986C26.1827 5.4022 25.6662 4.88872 25.1513 4.37357C24.6615 3.8843 24.3127 3.8818 23.8279 4.36689C21.695 6.50096 19.5613 8.63504 17.4293 10.7699C17.3583 10.8409 17.2924 10.9186 17.2415 10.9753C18.1678 11.9038 19.0773 12.8155 20.0227 13.7623L20.0211 13.764ZM27.8958 28.108C31.6759 22.2936 29.9661 16.0676 25.7963 12.5634C25.5402 12.8823 25.2831 13.2013 25.022 13.5252C25.0328 13.5386 25.0495 13.5661 25.072 13.5845C28.0469 16.0826 28.9414 20.4893 26.8152 24.0194C26.7626 24.1071 26.7635 24.2582 26.796 24.3617C27.1915 25.6383 26.9587 26.7838 26.1059 27.8075C26.065 27.8567 26.0342 27.9152 26.0075 27.9561C26.6291 28.0053 27.2341 28.0538 27.8958 28.1064V28.108ZM11.0215 20.0076C11.009 20.0585 10.9956 20.0877 10.9956 20.1161C10.9948 22.2619 10.9806 24.4076 11.0106 26.5526C11.0148 26.8582 11.1767 27.2021 11.3628 27.4576C11.7324 27.9661 12.4058 28.1214 12.9925 27.9118C13.5841 27.7006 13.9871 27.1479 13.9888 26.4991C13.9946 24.3951 13.9913 22.2911 13.9905 20.1871C13.9905 20.1286 13.9738 20.0702 13.9638 20.0076H11.0215ZM3.02657 20.0076C3.01405 20.0585 3.0007 20.0877 3.0007 20.1161C2.99987 22.2619 2.98568 24.4076 3.01572 26.5526C3.01989 26.8582 3.18178 27.2021 3.36786 27.4576C3.73752 27.9661 4.41093 28.1214 4.99755 27.9118C5.58918 27.7006 5.99222 27.1479 5.99389 26.4991C5.99973 24.3951 5.99639 22.2911 5.99556 20.1871C5.99556 20.1286 5.97887 20.0702 5.96886 20.0076H3.02573H3.02657ZM14.4978 27.9736H21.0007C19.9451 26.778 19.7215 25.4647 20.2998 24.0227H14.9918C14.9918 24.7525 14.9785 25.4597 14.996 26.166C15.0118 26.8081 14.905 27.4084 14.4978 27.9736ZM27.9726 29.99C27.9167 29.3404 27.5245 29.0006 26.8561 29.0006C22.6746 29.0006 18.4924 29.0006 14.3109 29.0006C14.2108 29.0006 14.1106 29.0098 14.0155 29.0139V29.99H27.9718H27.9726ZM20.989 25.488C20.984 26.8682 22.1055 27.997 23.4824 27.9987C24.8459 28.0003 25.9724 26.8874 25.9841 25.5264C25.9958 24.1446 24.8809 23.0083 23.5058 23.0008C22.1256 22.9924 20.9932 24.1112 20.989 25.488ZM15.0052 23H15.3715C16.9937 23 18.6159 22.9874 20.2372 23.0075C20.7295 23.0133 21.1484 22.954 21.549 22.6134C21.8494 22.3579 22.2624 22.2352 22.6746 22.0289H15.0043V23H15.0052ZM11.9202 3.97448C11.7308 2.08838 9.75061 1.03553 8.07669 1.06309C8.30867 2.87321 9.6705 4.20325 11.9202 3.97448ZM11.9244 10.9803C11.7099 9.02662 9.64213 8.01135 8.07168 8.07063C8.30116 9.72545 9.48275 11.1841 11.9244 10.9803ZM16.9002 5.05571C15.102 5.05571 13.2136 6.18703 13.0751 7.97795C15.3506 8.1967 16.7066 6.82074 16.9002 5.05571ZM24.9836 11.5038C24.9853 10.6865 24.3194 10.0102 23.5049 10.001C22.6746 9.99179 21.9896 10.6664 21.9879 11.4955C21.9862 12.3246 22.668 13.0042 23.4974 12.9992C24.3127 12.9942 24.9827 12.3204 24.9844 11.5038H24.9836ZM6.98188 16.0216H2.02439V16.9835H6.98188V16.0216ZM14.976 16.0216H10.0185V16.9843H14.976V16.0216ZM19.2626 14.5814C18.2913 13.6054 17.3775 12.6878 16.4613 11.7677C15.8471 12.2511 15.8204 12.6226 16.3787 13.1821C16.8935 13.6972 17.4092 14.2115 17.9224 14.7283C18.1177 14.9254 18.3555 15.0623 18.6209 14.9663C18.8537 14.882 19.0548 14.71 19.2617 14.5814H19.2626ZM29.9778 3.27898C29.9478 3.23306 29.9019 3.13287 29.8293 3.0594C29.2234 2.44656 28.6135 1.83873 28.0043 1.23007C27.7289 0.954546 27.4978 0.956216 27.2191 1.23425C26.9404 1.51228 26.9379 1.74606 27.2116 2.01991C27.8199 2.62941 28.4265 3.24058 29.0407 3.84423C29.1133 3.9152 29.2318 3.98533 29.3244 3.98032C29.6215 3.96529 29.9294 3.64385 29.977 3.27982L29.9778 3.27898ZM3.01322 18.9823H5.97553V18.023H3.01322V18.9823ZM11.0073 18.9781H13.9663V18.0154H11.0073V18.9781ZM26.9813 3.25894C26.7284 3.50441 26.4781 3.74821 26.2361 3.98366C26.4956 4.24249 26.7485 4.4938 26.9913 4.73593C27.2374 4.49631 27.4878 4.25251 27.7273 4.01956C27.4769 3.76407 27.2316 3.51443 26.9813 3.25894ZM22.4844 3.00262C22.214 3.00346 21.9879 3.23056 21.9887 3.50191C21.9887 3.77242 22.2165 3.99869 22.4869 3.99785C22.7573 3.99702 22.9834 3.76908 22.9826 3.49857C22.9817 3.22805 22.7539 3.00179 22.4836 3.00262H22.4844ZM16.4847 9.99764C16.7542 10.001 16.9837 9.77555 16.987 9.50503C16.9903 9.23452 16.7659 9.00575 16.4947 9.00241C16.2243 8.9999 15.9957 9.22366 15.9923 9.49501C15.989 9.76553 16.2135 9.9943 16.4838 9.99764H16.4847ZM7.50008 6.00251C7.22972 6.00001 7.00108 6.2246 6.99857 6.49512C6.99607 6.76564 7.22054 6.99441 7.4909 6.99775C7.76043 7.00025 7.98991 6.77566 7.99324 6.50514C7.99575 6.23462 7.77128 6.00585 7.50092 6.00251H7.50008Z" fill="#9C9C9C"/>
<path d="M2.00784 4.9991C0.905526 5.00328 0.0018116 4.10406 0.000977141 3.00196C0.000142686 1.89819 0.902189 0.998134 2.00534 1.00147C3.09514 1.00398 3.98967 1.89401 3.99718 2.98359C4.00469 4.0882 3.10932 4.99576 2.00868 4.99994L2.00784 4.9991ZM2.99667 2.98609C2.98999 2.44423 2.53522 1.99838 1.99282 2.00088C1.44959 2.00339 1.00149 2.45425 1.00065 2.99778C0.99982 3.55301 1.46545 4.01055 2.02036 3.99886C2.56108 3.98801 3.00418 3.52796 2.9975 2.98609H2.99667Z" fill="#9C9C9C"/>
<path d="M4.99588 9.99598C4.99755 11.0989 4.09634 12.0006 2.99402 11.999C1.89338 11.9973 0.995502 11.0914 1.00051 9.98764C1.00552 8.89889 1.89838 8.00552 2.98651 8.00051C4.09133 7.9955 4.99421 8.89221 4.99588 9.99515V9.99598ZM3.9962 9.99932C3.9962 9.45662 3.54643 9.00493 3.00487 9.00159C2.46081 8.99825 2.0077 9.44159 2.00019 9.98597C1.99268 10.5412 2.45246 11.0046 3.00737 10.9996C3.54893 10.9946 3.99787 10.5412 3.99704 9.99932H3.9962Z" fill="#9C9C9C"/>
<path d="M12.9932 1.51136C12.9874 0.681443 13.6658 0.000142402 14.4952 0.000977329C15.3113 0.00264718 15.9839 0.671424 15.9897 1.48798C15.9956 2.31706 15.3163 3.00087 14.4877 2.9992C13.6724 2.99753 12.999 2.32708 12.994 1.51136H12.9932ZM14.476 1.00205C14.2057 1.0104 13.9854 1.24502 13.9937 1.5147C14.0021 1.78522 14.2365 2.00564 14.5061 1.99729C14.7756 1.98894 14.9967 1.75349 14.9884 1.48464C14.98 1.21413 14.7456 0.993705 14.476 1.00205Z" fill="#9C9C9C"/>
<path d="M6.48791 11.0012C7.31736 10.9979 7.99744 11.6775 7.9941 12.5074C7.99076 13.3232 7.31902 13.9953 6.50376 13.9995C5.67515 14.0036 4.99423 13.3223 4.99757 12.4924C5.00091 11.6767 5.67181 11.0054 6.48791 11.0012ZM6.49041 12.0023C6.22005 12.0057 5.99558 12.2344 5.99892 12.5049C6.00225 12.7755 6.2309 13 6.50126 12.9975C6.77162 12.9942 6.99609 12.7646 6.99359 12.4949C6.99025 12.2244 6.76161 11.9998 6.49125 12.0023H6.49041Z" fill="#9C9C9C"/>
<path d="M24.9836 25.4898C24.9878 26.3188 24.3077 27.0018 23.4791 26.9985C22.6638 26.9951 21.9921 26.3239 21.9871 25.5081C21.9829 24.6782 22.6622 23.9969 23.4916 24.0003C24.3077 24.0028 24.9786 24.6732 24.9836 25.4898ZM23.4841 25.9966C23.7536 25.9974 23.9814 25.7703 23.9823 25.5006C23.9831 25.2301 23.757 25.0022 23.4866 25.0022C23.2162 25.0022 22.9893 25.2276 22.9884 25.4981C22.9876 25.7686 23.2137 25.9966 23.4841 25.9974V25.9966Z" fill="#9C9C9C"/>
<path d="M23.494 11.9973C23.2237 12.0023 22.9934 11.7794 22.9884 11.508C22.9834 11.2367 23.2045 11.007 23.4765 11.002C23.7469 10.997 23.9772 11.2191 23.9822 11.4905C23.9872 11.7601 23.7644 11.9923 23.4932 11.9964L23.494 11.9973Z" fill="#9C9C9C"/>
</svg>
