<svg width="34" height="34" viewBox="0 0 34 34" fill="none" xmlns="http://www.w3.org/2000/svg">
<g clip-path="url(#clip0_228_3893)">
<path d="M32.8665 21.5068V21.1312C32.8665 15.878 32.8665 10.6247 32.8665 5.37241C32.8665 4.67519 32.7217 4.53423 32.0102 4.53328C31.7273 4.53328 31.4435 4.54085 31.1606 4.5295C30.8096 4.51531 30.6024 4.30529 30.5967 3.97892C30.5901 3.63551 30.8011 3.41225 31.1701 3.40279C31.5826 3.39238 31.997 3.38481 32.4095 3.40657C33.2506 3.45009 33.9394 4.14447 33.9962 4.98454C34.0038 5.10184 34.0009 5.2201 34.0009 5.33835C34.0009 11.9728 34.0009 18.6063 34.0009 25.2407C34.0009 26.5368 33.3377 27.1981 32.0367 27.1981C22.0141 27.1981 11.9925 27.1981 1.96989 27.1981C0.66893 27.1981 0.000946153 26.5358 0.000946153 25.2445C0 18.611 0 11.9775 0 5.34308C0 4.06784 0.667038 3.4009 1.94151 3.39995C2.22441 3.39995 2.50825 3.39522 2.79115 3.40184C3.19043 3.4113 3.40899 3.62132 3.40331 3.97702C3.39763 4.3157 3.18286 4.52099 2.80534 4.53045C2.48649 4.53896 2.16764 4.53045 1.84878 4.53328C1.31799 4.53707 1.13349 4.72343 1.13349 5.26456C1.13254 7.64948 1.13349 10.0335 1.13349 12.4184C1.13349 15.3104 1.13349 18.2023 1.13349 21.0943V21.5058H32.8665V21.5068ZM1.13349 22.6789C1.13349 23.536 1.13349 24.36 1.13349 25.184C1.13349 25.9323 1.26501 26.0638 2.02004 26.0638C12.0038 26.0638 21.9876 26.0638 31.9714 26.0638C32.0538 26.0638 32.137 26.0657 32.2193 26.0638C32.6621 26.0515 32.8608 25.8547 32.8637 25.4044C32.8684 24.5549 32.8656 23.7054 32.8637 22.8558C32.8637 22.801 32.8495 22.7451 32.841 22.6799H1.13349V22.6789Z" fill="#30449C"/>
<path d="M28.3316 5.6837H5.66651V6.11413C5.66651 10.5869 5.66651 15.0607 5.66651 19.5334C5.66651 19.6517 5.67314 19.7709 5.66084 19.8873C5.62583 20.2032 5.39591 20.4095 5.08747 20.3943C4.77524 20.3782 4.58411 20.2117 4.53965 19.8977C4.52545 19.7936 4.53302 19.6858 4.53302 19.5798C4.53302 13.6908 4.53302 7.80089 4.53302 1.91191C4.53397 0.682081 5.21236 0 6.43479 0C13.4808 0 20.5277 0 27.5737 0C28.7753 0 29.4651 0.686811 29.4651 1.88447C29.4651 7.8094 29.4651 13.7343 29.4651 19.6593C29.4651 20.1502 29.3061 20.3745 28.9475 20.4009C28.6183 20.4255 28.3723 20.2269 28.3373 19.9005C28.325 19.7832 28.3325 19.6649 28.3316 19.5467C28.3316 15.0739 28.3316 10.6002 28.3316 6.12738V5.68275V5.6837ZM28.3316 4.52104C28.3316 3.65826 28.3316 2.83333 28.3316 2.0084C28.3316 1.27145 28.1973 1.13428 27.4753 1.13428C20.4889 1.13428 13.5035 1.13428 6.5171 1.13428C6.44614 1.13428 6.37518 1.13239 6.30517 1.13428C5.87656 1.14752 5.67597 1.33957 5.66841 1.76528C5.66084 2.17774 5.66651 2.59115 5.66651 3.00456C5.66651 3.5069 5.66651 4.01018 5.66651 4.52104H28.3316Z" fill="#30449C"/>
<path d="M13.3833 30.5886H20.6516C20.5826 30.4893 20.5315 30.4183 20.4842 30.3455C20.2325 29.9614 19.9628 29.5877 19.7348 29.1904C19.5342 28.8403 19.6412 28.4913 19.9468 28.3465C20.2457 28.2046 20.5201 28.3446 20.7406 28.6672C21.0982 29.1894 21.489 29.6899 21.8722 30.1941C22.1182 30.5186 22.4399 30.6472 22.8571 30.6075C23.1334 30.581 23.4277 30.6056 23.6964 30.6737C24.4003 30.8535 24.9027 31.5034 24.9283 32.228C24.9415 32.6169 24.9396 33.0076 24.9283 33.3964C24.9188 33.772 24.705 33.9763 24.3284 33.9962C24.2461 34.0009 24.1628 33.9981 24.0805 33.9981C19.3592 33.9981 14.6379 33.9981 9.91754 33.9981C9.22023 33.9981 9.06695 33.8439 9.06695 33.1476C9.06695 32.8524 9.06033 32.5573 9.06979 32.2621C9.09912 31.3378 9.83901 30.5356 10.753 30.6226C11.5998 30.7031 12.1136 30.3247 12.5592 29.7258C12.8118 29.3871 13.0408 29.0286 13.2603 28.6672C13.4647 28.3323 13.7523 28.2018 14.0513 28.3446C14.3569 28.4903 14.4638 28.8394 14.2632 29.1894C13.9955 29.6568 13.6899 30.1023 13.3814 30.5867L13.3833 30.5886ZM23.7806 32.8524C23.8534 31.8582 23.7389 31.7323 22.8023 31.7323C18.8852 31.7323 14.9681 31.7323 11.052 31.7323C10.946 31.7323 10.8391 31.7267 10.7341 31.7361C10.437 31.7635 10.2515 31.931 10.2137 32.2224C10.1872 32.4267 10.209 32.6367 10.209 32.8524H23.7806Z" fill="#30449C"/>
<path d="M18.6146 7.93146C19.1075 7.92579 19.3573 8.28906 19.2173 8.72328C18.8805 9.76485 18.5323 10.8026 18.186 11.8414C17.4347 14.0967 16.6816 16.352 15.9294 18.6083C15.744 19.1636 15.4998 19.3575 15.1327 19.2393C14.7429 19.1134 14.6625 18.823 14.8565 18.2403C15.9445 14.9793 17.0336 11.7193 18.1169 8.4565C18.2144 8.16135 18.3591 7.94944 18.6146 7.93146Z" fill="#30449C"/>
<path d="M9.95249 13.5991C10.8911 14.3806 11.7956 15.1326 12.6982 15.8876C12.8051 15.9774 12.9253 16.0702 12.9896 16.1894C13.1306 16.4505 13.0682 16.6983 12.843 16.8866C12.5979 17.0919 12.3434 17.0635 12.105 16.8658C11.3613 16.2489 10.6195 15.6293 9.87679 15.0106C9.51442 14.7088 9.15015 14.4099 8.79061 14.1043C8.4008 13.7723 8.39796 13.426 8.78777 13.0996C9.8626 12.1981 10.9393 11.3003 12.0179 10.4035C12.3415 10.1339 12.6727 10.1339 12.8941 10.3893C13.1268 10.6599 13.0729 10.9957 12.737 11.2767C11.8249 12.041 10.91 12.8016 9.95343 13.6001L9.95249 13.5991Z" fill="#30449C"/>
<path d="M24.0362 13.5924C23.2405 12.9274 22.4656 12.2784 21.6897 11.6304C21.5175 11.4866 21.3387 11.3504 21.1741 11.1999C20.9224 10.9701 20.894 10.6531 21.0899 10.411C21.2857 10.1678 21.6207 10.1101 21.879 10.323C23.0257 11.2671 24.1686 12.2169 25.2983 13.1819C25.6153 13.4524 25.5604 13.811 25.1962 14.1156C24.2018 14.949 23.2045 15.7777 22.2082 16.6083C22.1089 16.6916 22.0114 16.7777 21.9083 16.8562C21.6112 17.0804 21.3075 17.0615 21.0918 16.8098C20.8704 16.5516 20.9063 16.2224 21.2006 15.9745C22.0578 15.2536 22.9207 14.5394 23.7807 13.8214C23.8592 13.7551 23.934 13.6842 24.0362 13.5934V13.5924Z" fill="#30449C"/>
<path d="M17.0306 24.9296C16.6645 24.9296 16.2983 24.9353 15.9331 24.9277C15.5584 24.9201 15.3266 24.7082 15.3172 24.3828C15.3077 24.0507 15.5556 23.8057 15.9378 23.8019C16.6692 23.7944 17.4015 23.7934 18.1339 23.8019C18.517 23.8067 18.7583 24.0517 18.7451 24.3894C18.7328 24.7215 18.5076 24.922 18.1291 24.9277C17.763 24.9334 17.3968 24.9286 17.0316 24.9286L17.0306 24.9296Z" fill="#30449C"/>
<path d="M23.1977 3.39993C22.1124 3.39993 21.0272 3.40182 19.941 3.39993C19.4812 3.39898 19.2522 3.20032 19.2607 2.82285C19.2683 2.4681 19.5029 2.26943 19.9353 2.26849C22.1295 2.26565 24.3245 2.26565 26.5187 2.26849C26.9425 2.26849 27.1857 2.48039 27.1876 2.83042C27.1895 3.1814 26.9454 3.39709 26.5243 3.39898C25.4154 3.40277 24.3066 3.39993 23.1977 3.39993Z" fill="#30449C"/>
<path d="M7.9306 2.83619C7.92871 3.1427 7.66852 3.39907 7.36291 3.39624C7.05636 3.39434 6.8009 3.13513 6.80373 2.82768C6.80657 2.51833 7.06203 2.26574 7.37143 2.26858C7.67987 2.27047 7.93344 2.52779 7.93155 2.83525L7.9306 2.83619Z" fill="#30449C"/>
<path d="M9.6309 3.39621C9.32435 3.39527 9.06794 3.13606 9.06983 2.82955C9.07173 2.52114 9.32719 2.26761 9.63563 2.26856C9.94408 2.2695 10.1986 2.52682 10.1976 2.83428C10.1967 3.14079 9.93746 3.39716 9.63185 3.39621H9.6309Z" fill="#30449C"/>
<path d="M11.913 2.26848C12.2205 2.27605 12.4713 2.53809 12.4637 2.84555C12.4561 3.15206 12.1912 3.4037 11.8866 3.39614C11.58 3.38857 11.3293 3.12463 11.3368 2.81812C11.3444 2.50971 11.6055 2.26091 11.914 2.26848H11.913Z" fill="#30449C"/>
</g>
<defs>
<clipPath id="clip0_228_3893">
<rect width="34" height="34" fill="white"/>
</clipPath>
</defs>
</svg>
