<svg width="34" height="34" viewBox="0 0 34 34" fill="none" xmlns="http://www.w3.org/2000/svg">
<g clip-path="url(#clip0_228_3394)">
<path d="M0 14.475C0 14.4306 0 14.3863 0 14.3419C0.119947 13.7503 0.510884 13.4416 1.05731 13.226C2.50644 12.6539 3.93958 12.04 5.3825 11.4501C6.06042 11.1734 6.67881 11.4306 6.96579 12.1012C7.17903 12.5989 7.37983 13.1009 7.58685 13.6012C8.36073 15.4676 9.13372 17.3349 9.9147 19.1986C9.95646 19.2979 10.0826 19.4407 10.1564 19.4336C10.5375 19.3964 10.9143 19.3174 11.3096 19.2491C11.2999 19.1737 11.2972 19.109 11.2821 19.0469C10.502 15.7249 9.71479 12.4055 8.94536 9.08169C8.74012 8.19374 8.46113 7.32531 8.52421 6.37971C8.62905 4.80253 8.65926 3.2209 8.70991 1.64017C8.741 0.661744 8.95335 0.338856 9.84274 0H10.2417C10.7828 0.147251 11.1053 0.516267 11.3621 1.0006C12.1839 2.55295 13.0333 4.09111 13.8658 5.63813C13.9591 5.81111 14.0453 5.9965 14.0897 6.18722C14.8299 9.32563 15.562 12.4658 16.2968 15.6051C16.462 16.3094 16.6299 17.0138 16.8005 17.734C17.1879 17.4661 17.5273 17.2 17.8978 16.9871C18.1386 16.8488 18.2328 16.7059 18.2203 16.4194C18.1333 14.4466 18.2932 12.488 18.5908 10.5382C18.6148 10.3803 18.5464 10.1666 18.4451 10.037C17.1684 8.40398 17.458 6.52874 18.5953 5.32323C19.2936 4.58254 19.8658 3.71145 20.4256 2.85455C20.8076 2.26998 20.9356 1.57985 20.7552 0.879073C20.6557 0.494091 20.7508 0.21112 21.0813 0.000887057H21.4802C22.3812 0.728274 23.1506 1.57453 23.7974 2.53521C25.4953 5.05711 25.6411 7.91787 23.7814 10.3466C23.7157 10.4318 23.697 10.5684 23.6926 10.6819C23.6393 12.0516 23.6002 13.4221 23.5398 14.7917C23.522 15.1962 23.4527 15.5989 23.41 15.9723C24.104 16.2225 24.765 16.4611 25.458 16.7113C26.0471 15.2432 26.6753 13.7813 27.2146 12.2866C27.4554 11.6187 27.546 10.8913 27.6535 10.1834C27.7139 9.78867 27.8623 9.50747 28.2044 9.29813C29.4403 8.5397 30.6673 7.76618 31.8987 7.00065C32.4771 6.64139 32.8316 6.79042 32.9845 7.45128C33.3052 8.84041 33.6179 10.2313 33.9538 11.616C34.0569 12.04 33.9911 12.3842 33.705 12.7213C33.0413 13.5028 32.5304 14.3827 32.1377 15.3275C31.243 17.4803 30.3554 19.6368 29.4731 21.795C29.4136 21.9405 29.4029 22.1143 29.4056 22.2749C29.4163 22.9801 29.4456 23.6853 29.4571 24.3905C29.4598 24.5617 29.4198 24.7338 29.3976 24.9174C29.5486 24.9316 29.6695 24.944 29.7903 24.9529C32.2417 25.1445 34.0586 27.183 33.9831 29.6579C33.9112 32.0254 31.9103 33.9902 29.5069 33.9938C21.1604 34.0053 12.8139 34.0035 4.46735 33.9938C2.43714 33.9911 0.639716 32.5514 0.146602 30.5919C0.0924034 30.3764 0.0488672 30.1608 0 29.9461C0 29.6144 0 29.2817 0 28.95C0.0213239 28.8897 0.0506442 28.8302 0.0621946 28.7673C0.352732 27.1448 1.24656 25.9792 2.75344 25.3148C3.2199 25.109 3.73967 25.023 4.26477 24.8731C4.23545 24.7959 4.19813 24.6841 4.15282 24.5759C3.70946 23.5052 3.26166 22.4363 2.82097 21.3648C1.87828 19.0691 0.940027 16.7716 0 14.475ZM17.0333 32.8646C21.1897 32.8646 25.3452 32.8743 29.5016 32.8601C31.5264 32.853 33.1 31.1259 32.9063 29.1726C32.7055 27.1413 30.8725 25.7628 28.8556 26.1256C28.2754 26.2303 27.9671 25.8941 28.1235 25.3157C28.3909 24.3293 28.4407 23.3367 28.2692 22.3263C27.681 18.8571 24.1395 16.4035 20.6868 17.098C18.3536 17.5673 16.7197 18.9121 15.7877 21.0986C15.6864 21.3373 15.5602 21.5706 15.2883 21.5617C15.0849 21.5555 14.8618 21.4579 14.6895 21.3399C12.5686 19.9002 9.74056 20.1247 7.90049 21.9014C6.86717 22.8994 6.32163 24.1235 6.25056 25.5579C6.23012 25.965 6.03021 26.2161 5.69969 26.2187C5.54776 26.2196 5.39494 26.1726 5.24389 26.1398C2.8263 25.6093 0.641493 27.8403 1.22701 30.2424C1.61173 31.8196 2.95424 32.861 4.63172 32.8637C8.76588 32.8681 12.8992 32.8655 17.0333 32.8646ZM6.32164 13.5117C6.16793 13.1453 6.02932 12.8144 5.88361 12.4667C4.2932 13.1249 2.73656 13.7689 1.16482 14.4191C2.53576 17.7181 3.88805 20.9718 5.27232 24.3036C5.85518 22.2066 7.08041 20.7589 8.94713 19.8417C8.78898 19.462 8.64505 19.1187 8.49311 18.7542C8.35273 18.81 8.24167 18.8526 8.13061 18.8979C7.55753 19.132 6.98801 19.376 6.41048 19.5995C6.01422 19.753 5.6295 19.5188 5.61173 19.1241C5.5984 18.818 5.7761 18.6388 6.04798 18.528C6.71257 18.2574 7.3745 17.9798 8.05686 17.6977C7.90937 17.342 7.76988 17.0084 7.63661 16.6855C7.60018 16.682 7.58774 16.6767 7.57974 16.6802C7.27232 16.8035 6.96668 16.9313 6.65749 17.0519C6.27632 17.2009 5.95913 17.0856 5.8303 16.7565C5.70946 16.4469 5.85695 16.1631 6.22923 16.0016C6.54109 15.8668 6.85651 15.7382 7.18881 15.5998C7.03776 15.2396 6.89916 14.9097 6.75167 14.5602C6.0773 14.8387 5.43581 15.1084 4.78898 15.3656C4.64949 15.4206 4.48601 15.4685 4.34296 15.4499C4.07286 15.4153 3.9076 15.2263 3.87916 14.9576C3.84807 14.6693 4.00089 14.4706 4.26122 14.3614C4.93381 14.0794 5.60906 13.8044 6.32075 13.5108L6.32164 13.5117ZM15.0084 20.0191C15.2572 19.6368 15.4438 19.3086 15.673 19.0132C15.8259 18.8162 15.8498 18.6415 15.7939 18.4055C15.2208 15.9865 14.6593 13.5649 14.0924 11.1441C13.8472 10.0956 13.5975 9.04709 13.3496 7.99504C13.0706 8.19995 12.8254 8.40486 12.5544 8.56808C12.3883 8.66743 12.3545 8.75969 12.4016 8.93887C12.5215 9.39837 12.6228 9.86318 12.7286 10.3262C12.8147 10.705 12.6548 11.0066 12.3332 11.082C12.0009 11.1601 11.7343 10.9756 11.6322 10.5941C11.6091 10.509 11.5904 10.422 11.57 10.336C11.4598 9.87826 11.3496 9.41966 11.2492 9.00185C10.8227 8.92024 10.4478 8.84839 10.0498 8.77211C10.0578 8.83065 10.0613 8.88299 10.0729 8.93355C10.4185 10.4078 10.7641 11.8812 11.1097 13.3546C11.5558 15.2592 12 17.1637 12.4531 19.0664C12.4771 19.1666 12.5562 19.305 12.6388 19.3299C12.9818 19.4345 13.3354 19.5019 13.7157 19.5907C13.6979 19.4727 13.6917 19.3866 13.6721 19.3041C13.4287 18.2601 13.1826 17.2169 12.9374 16.1737C12.7321 15.3026 12.5224 14.4324 12.3216 13.5604C12.2088 13.0699 12.4345 12.7284 12.8583 12.7408C13.2101 12.7506 13.3567 12.9803 13.4278 13.2863C13.7175 14.5238 14.008 15.7603 14.2985 16.9978C14.5304 17.9833 14.7623 18.9688 15.0093 20.0191H15.0084ZM21.9227 1.96572C21.7681 2.79245 21.4758 3.4746 21.0369 4.07603C20.5038 4.80696 19.936 5.51572 19.3478 6.20408C18.5784 7.10444 18.5366 8.40575 19.3034 9.30168C19.3932 9.40724 19.5504 9.50481 19.6837 9.51546C20.6664 9.59086 21.6499 9.64674 22.6344 9.69464C22.7339 9.69908 22.8761 9.63698 22.9356 9.55804C23.7752 8.43591 24.1582 7.17806 23.9183 5.78805C23.7121 4.59318 23.1959 3.51984 22.4407 2.56714C22.2923 2.37997 22.1288 2.20345 21.9227 1.96572ZM31.1328 8.8892C31.1168 8.87412 31.1 8.85904 31.084 8.84396C30.3714 9.28748 29.6553 9.72658 28.9489 10.1808C28.8654 10.2349 28.8121 10.3661 28.7854 10.4717C28.5562 11.3676 28.3314 12.2653 28.1191 13.1648C28.0889 13.2908 28.0924 13.4522 28.1457 13.5675C28.6335 14.616 29.9236 15.1421 31.0031 14.7314C31.1204 14.6861 31.2306 14.5681 31.299 14.4564C31.7805 13.6793 32.2523 12.896 32.7223 12.1119C32.7748 12.0241 32.845 11.9079 32.8263 11.8227C32.6442 10.9871 32.4442 10.1541 32.2319 9.24579C32.1519 9.42409 32.1004 9.53054 32.0551 9.63965C31.8339 10.1692 31.6215 10.7023 31.3905 11.2275C31.2483 11.5504 30.9525 11.6692 30.6557 11.553C30.3661 11.4395 30.2381 11.1397 30.3421 10.8106C30.3687 10.7272 30.4096 10.6473 30.4434 10.5657C30.6735 10.0069 30.9036 9.44804 31.1328 8.89008V8.8892ZM28.8343 20.3695C29.4447 18.897 30.0329 17.4786 30.6371 16.0229C29.3567 16.0735 28.3323 15.6406 27.4882 14.7305C27.1168 15.6291 26.7561 16.501 26.3963 17.3712C27.4642 18.1696 28.2497 19.1533 28.8343 20.3695ZM9.73256 5.02074C9.70502 5.67894 9.67659 6.29367 9.65793 6.90929C9.65615 6.97759 9.6988 7.05654 9.74145 7.1142C10.1182 7.6278 10.9507 7.91432 11.5886 7.75554C12.183 7.60829 12.7961 6.95275 12.8858 6.36729C12.8938 6.31407 12.9036 6.24932 12.8805 6.20585C12.5775 5.63636 12.2692 5.06953 11.9485 4.47786C11.2768 5.01276 10.5429 5.14049 9.73168 5.02074H9.73256ZM19.3807 13.4886V16.1852C20.3323 16.0522 21.2901 15.9173 22.2888 15.7772C22.3598 15.1092 22.4371 14.3792 22.5118 13.6758C21.4589 13.6128 20.4576 13.5525 19.3807 13.4877V13.4886ZM22.5624 10.8389C21.5895 10.7822 20.6602 10.7272 19.7121 10.6722C19.6428 11.247 19.5797 11.7659 19.5069 12.37C20.5518 12.4241 21.5442 12.4756 22.5624 12.5279V10.8389ZM11.3869 3.47815C11.3487 3.39565 11.3167 3.31493 11.2759 3.23953C10.924 2.58754 10.5731 1.93556 10.2124 1.28889C10.1768 1.22503 10.0444 1.14342 10.0133 1.16293C9.94136 1.2064 9.86317 1.30486 9.85962 1.3847C9.82319 2.15821 9.79654 2.93172 9.7841 3.70612C9.78321 3.77354 9.8996 3.89241 9.97512 3.90482C10.5056 3.99264 10.9836 3.87821 11.3869 3.47904V3.47815Z" fill="#E8A73F"/>
<path d="M13.7797 28.3566C13.8392 26.9364 14.7188 25.675 16.0489 25.1711C17.3648 24.6726 18.8539 25.0407 19.7975 26.1176C19.9458 26.2871 20.048 26.3208 20.2648 26.2409C21.5816 25.7593 23.0494 26.3287 23.7033 27.5547C23.9103 27.9432 23.8454 28.282 23.5318 28.447C23.2315 28.6049 22.9294 28.4816 22.7135 28.1153C22.1715 27.1945 21.1346 26.9293 20.263 27.4899C19.7664 27.8092 19.5123 27.7463 19.2164 27.23C18.6771 26.2888 17.634 25.8613 16.6024 26.1575C15.5887 26.4485 14.9054 27.4021 14.9747 28.463C14.9907 28.7123 15.0716 28.9598 15.1418 29.2019C15.2502 29.5798 15.1284 29.8912 14.8139 29.9967C14.4958 30.1032 14.192 29.9515 14.0729 29.5709C13.9485 29.1744 13.8748 28.7619 13.7788 28.3566H13.7797Z" fill="#E8A73F"/>
<path d="M21.5584 18.6911C21.562 19.0237 21.3496 19.2304 20.9614 19.2624C20.056 19.3369 19.3656 19.7511 18.9267 20.5521C18.8325 20.7242 18.7775 20.9194 18.7064 21.1039C18.5811 21.433 18.3154 21.5864 18.0071 21.5057C17.7113 21.4277 17.5576 21.1447 17.6215 20.7978C17.8881 19.3652 19.5265 18.0648 20.9809 18.1314C21.3212 18.1473 21.5549 18.3735 21.5576 18.6911H21.5584Z" fill="#E8A73F"/>
<path d="M10.159 22.102C10.4851 22.1037 10.6761 22.2403 10.7543 22.4985C10.8334 22.7575 10.7507 22.9828 10.5197 23.1327C10.4095 23.2037 10.278 23.2409 10.1608 23.3021C9.56103 23.6144 9.20297 24.1014 9.10079 24.772C9.08924 24.8483 9.08213 24.9255 9.06614 25.0009C8.99862 25.3246 8.75783 25.5198 8.46196 25.4923C8.16343 25.4648 7.95108 25.2342 7.9493 24.9024C7.94486 24.3107 8.11456 23.7687 8.46552 23.2906C8.84757 22.7699 9.34957 22.4 9.95019 22.1623C10.031 22.1303 10.1181 22.1126 10.1581 22.1011L10.159 22.102Z" fill="#E8A73F"/>
<path d="M23.2358 6.05064C23.2376 7.0193 22.9915 7.81854 22.4983 8.5406C22.2558 8.89631 21.9519 8.98946 21.6578 8.80495C21.3593 8.61778 21.314 8.27271 21.5583 7.90813C22.0381 7.19405 22.1723 6.41255 22.063 5.57074C22.0177 5.21858 22.2096 4.96488 22.5206 4.9152C22.8377 4.86464 23.083 5.04294 23.1683 5.38712C23.1869 5.46163 23.2011 5.5388 23.2074 5.61509C23.2225 5.79073 23.2305 5.96725 23.2358 6.04975V6.05064Z" fill="#E8A73F"/>
</g>
<defs>
<clipPath id="clip0_228_3394">
<rect width="34" height="34" fill="white"/>
</clipPath>
</defs>
</svg>
