<svg width="129" height="58" viewBox="0 0 129 58" fill="none" xmlns="http://www.w3.org/2000/svg">
<g clip-path="url(#clip0_228_3780)">
<path d="M116.289 22.1899C116.289 22.1899 117.495 22.1112 118.508 22.2919L116.289 22.1899Z" fill="white"/>
<path d="M118.505 22.3287C118.512 21.6522 118.517 20.9294 118.522 20.246C118.533 18.6126 118.11 17.1021 117.227 15.7213C116.983 15.3367 116.708 14.973 116.445 14.5977C116.249 14.4031 116.054 14.2062 115.86 14.0116C115.474 13.7382 115.103 13.437 114.701 13.1914C111.967 11.5326 109.128 11.382 106.325 12.8926C103.489 14.4193 102.024 16.8913 101.987 20.1162C101.959 22.4561 102.024 24.8007 102.05 27.1406C102.066 28.7624 102.103 30.3864 102.099 32.0081C102.092 34.494 101.004 36.3961 98.7805 37.522C96.5591 38.648 94.354 38.4232 92.3515 36.9428C90.9404 35.9003 90.0882 34.5867 90.0882 31.8297V8.71777H88.584C88.0577 8.71777 87.7946 8.97957 87.7946 9.50547V32.1518C87.7271 33.8291 88.414 35.9165 89.7063 37.427C92.5029 40.6936 97.1366 41.347 100.695 38.9283C103.107 37.288 104.318 34.9435 104.311 32.022C104.301 28.0882 104.267 24.1543 104.236 20.2205C104.227 19.0111 104.525 17.8921 105.165 16.8635C106.516 14.6973 109.17 13.6108 111.683 14.1969C114.207 14.783 116.144 16.9515 116.338 19.5C116.405 20.3942 116.307 21.3742 116.284 22.2662" fill="white"/>
<path d="M96.0165 40.6196C93.6112 40.6196 91.2431 39.5771 89.527 37.5731C88.2579 36.0904 87.4872 33.9566 87.5594 32.138V9.50326C87.5594 8.84762 87.9226 8.48389 88.5816 8.48389H90.3186V31.8275C90.3186 34.5868 91.1872 35.7938 92.4888 36.7553C94.4262 38.1893 96.5661 38.3816 98.6734 37.3136C100.785 36.2456 101.859 34.4594 101.866 32.0059C101.868 30.9101 101.852 29.7934 101.838 28.7138C101.831 28.1902 101.824 27.6643 101.817 27.1407C101.81 26.4318 101.798 25.7252 101.787 25.0163C101.761 23.4084 101.735 21.7473 101.754 20.1094C101.794 16.8034 103.335 14.2364 106.215 12.6842C109.066 11.1482 111.962 11.2524 114.824 12.9877C115.103 13.1568 115.367 13.3514 115.62 13.5414C115.746 13.634 115.872 13.7267 116 13.8171L116.03 13.8425L116.64 14.4611C116.722 14.577 116.803 14.6905 116.885 14.8063C117.066 15.0612 117.255 15.323 117.427 15.594C118.324 16.9957 118.771 18.5595 118.757 20.2437C118.752 20.9272 118.748 21.65 118.741 22.3265L118.275 22.3219C118.282 21.6454 118.287 20.9226 118.291 20.2391C118.303 18.6452 117.881 17.1671 117.034 15.8396C116.868 15.5801 116.684 15.323 116.505 15.0727C116.426 14.9615 116.347 14.8527 116.268 14.7414L115.711 14.1831C115.585 14.0951 115.464 14.0024 115.341 13.912C115.094 13.729 114.84 13.5414 114.582 13.3838C111.871 11.7389 109.133 11.6393 106.439 13.0919C103.68 14.5793 102.259 16.94 102.222 20.114C102.203 21.7427 102.229 23.4015 102.255 25.007C102.266 25.7159 102.278 26.4248 102.285 27.1338C102.29 27.6574 102.299 28.181 102.306 28.7045C102.322 29.7865 102.336 30.9031 102.334 32.0036C102.327 34.6076 101.135 36.5861 98.8876 37.7237C96.6103 38.8774 94.3027 38.6689 92.2141 37.1236C90.5399 35.8865 89.8553 34.3505 89.8553 31.8252V8.94956H88.5839C88.1881 8.94956 88.0274 9.10941 88.0274 9.50558V32.1519C87.9575 33.8709 88.6864 35.8772 89.8832 37.2765C92.6192 40.4713 97.1109 41.0853 100.564 38.7384C102.904 37.1468 104.085 34.888 104.08 32.0245C104.073 28.832 104.048 25.5862 104.024 22.447L104.008 20.2229C103.999 18.9556 104.325 17.7857 104.972 16.7431C106.364 14.5098 109.147 13.3699 111.741 13.9723C114.386 14.5862 116.375 16.8543 116.575 19.4838C116.624 20.121 116.589 20.7974 116.556 21.4485C116.542 21.7288 116.528 22.0045 116.521 22.2732L116.056 22.2616C116.063 21.9906 116.077 21.7102 116.091 21.4276C116.123 20.7882 116.156 20.1279 116.109 19.5209C115.923 17.0906 114.084 14.9963 111.634 14.4264C109.236 13.868 106.656 14.9222 105.368 16.991C104.758 17.971 104.464 19.0298 104.474 20.2252L104.49 22.447C104.516 25.5862 104.539 28.8343 104.546 32.0268C104.553 35.0525 103.302 37.441 100.827 39.123C99.3393 40.1354 97.6698 40.6266 96.0189 40.6266L96.0165 40.6196Z" fill="white"/>
<path d="M89.8087 1.83953C90.3629 1.83953 90.7704 1.86038 91.0335 1.89745C91.2967 1.93684 91.5086 1.97159 91.6646 1.99707C91.9533 2.05036 92.1373 1.9322 92.2188 1.64261C92.27 1.35533 92.3119 1.06574 92.3375 0.778458C92.1256 0.725172 91.7833 0.660303 91.313 0.581533C90.8379 0.502764 90.3257 0.463379 89.7715 0.463379C89.2965 0.463379 88.8424 0.516664 88.407 0.620918C87.9715 0.725172 87.585 0.896612 87.2427 1.13292C86.9004 1.37155 86.6233 1.67041 86.4114 2.03646C86.1995 2.4025 86.0947 2.86122 86.0947 3.41261C86.0947 4.14702 86.3439 4.76328 86.8445 5.25906H86.2903C85.7641 5.25906 85.501 5.52086 85.501 6.04676V6.55876H92.1768V6.04676C92.1768 5.52317 91.9137 5.25906 91.3875 5.25906H89.8064C89.5433 5.25906 89.2732 5.22431 88.9961 5.15944C88.7213 5.09457 88.4629 4.99495 88.2277 4.86522C87.9902 4.73316 87.7992 4.55014 87.6549 4.31383C87.5105 4.0752 87.4383 3.79024 87.4383 3.44968C87.4383 3.00486 87.5827 2.62491 87.8691 2.30983C88.1578 1.99475 88.8051 1.83953 89.8064 1.83953H89.8087Z" fill="white"/>
<path d="M92.6449 7.01965H85.0376V6.04429C85.0376 5.3817 85.3752 4.94383 85.955 4.82568C85.7385 4.40403 85.629 3.93141 85.629 3.41014C85.629 2.7823 85.7571 2.2425 86.0086 1.80463C86.2508 1.38298 86.5767 1.02852 86.9773 0.750504C87.3684 0.481761 87.8109 0.287153 88.2998 0.168999C88.7679 0.0554775 89.2639 -0.00244141 89.7738 -0.00244141C90.3443 -0.00244141 90.8892 0.0392602 91.3898 0.120347C91.8974 0.206067 92.2351 0.270936 92.4516 0.326538L92.8381 0.421525L92.8032 0.815374C92.7799 1.08643 92.738 1.38298 92.6798 1.71891L92.6705 1.76293C92.5261 2.28188 92.1093 2.54367 91.5831 2.44869C91.4364 2.42552 91.2268 2.39077 90.9637 2.35138C90.796 2.32822 90.4561 2.2981 89.8087 2.2981C88.6375 2.2981 88.3045 2.52282 88.216 2.61781C88.0088 2.84485 87.9063 3.11591 87.9063 3.44489C87.9063 3.69974 87.9552 3.90361 88.0554 4.07042C88.1555 4.23491 88.2882 4.36233 88.4582 4.45731C88.6538 4.5662 88.875 4.64961 89.1078 4.70521C89.35 4.76313 89.5875 4.79093 89.8087 4.79093H91.3898C92.1745 4.79093 92.6449 5.25891 92.6449 6.04198V7.01733V7.01965ZM85.969 6.09294H91.7135V6.04429C91.7135 5.77555 91.6599 5.71995 91.3898 5.71995H89.8087C89.5153 5.71995 89.2056 5.68288 88.8913 5.60874C88.5746 5.53461 88.2766 5.41877 88.0041 5.26818C87.6921 5.09442 87.443 4.85348 87.259 4.5523C87.0704 4.24186 86.9749 3.86886 86.9749 3.44721C86.9749 2.88655 87.1612 2.39772 87.5268 1.99692C87.918 1.57064 88.6421 1.37371 89.8087 1.37371C90.3722 1.37371 90.8077 1.39456 91.0987 1.43858C91.3688 1.48028 91.5807 1.51272 91.7391 1.5382C91.7484 1.5382 91.7554 1.54052 91.7624 1.54284V1.5382C91.7856 1.3992 91.8066 1.26946 91.8252 1.14435C91.6622 1.11424 91.4666 1.07717 91.2315 1.03778C90.7821 0.963646 90.2884 0.926578 89.7691 0.926578C89.3291 0.926578 88.9192 0.972913 88.5164 1.07022C88.1345 1.16289 87.8039 1.30653 87.5058 1.51272C87.2171 1.71428 86.9912 1.95985 86.8143 2.26566C86.6443 2.56221 86.5581 2.94679 86.5581 3.41246C86.5581 4.0264 86.7584 4.52218 87.1705 4.92993L87.9692 5.72226H86.288C86.0202 5.72226 85.9643 5.77555 85.9643 6.04661V6.09526L85.969 6.09294Z" fill="white"/>
<path d="M48.2749 41.0159C48.3448 41.0159 48.4216 41.0089 48.4985 40.995C48.58 40.9811 48.6498 40.9557 48.7174 40.9186C48.7826 40.8815 48.8361 40.8329 48.878 40.7703C48.9199 40.7078 48.9409 40.6313 48.9409 40.5363C48.9409 40.4529 48.9199 40.3742 48.878 40.3047C48.8361 40.2352 48.7802 40.1726 48.7104 40.1147C48.6405 40.0568 48.5613 40.0081 48.4682 39.9641C48.3751 39.9201 48.2773 39.8784 48.1818 39.8413C48.2074 39.7625 48.2284 39.6907 48.2516 39.6166C48.2679 39.554 48.3122 39.5355 48.382 39.5633L48.5311 39.6258C48.5893 39.6536 48.6522 39.6838 48.7127 39.7116C48.7732 39.7394 48.8408 39.7695 48.9153 39.7926C48.9898 39.8158 49.0713 39.8367 49.1621 39.8506C49.2529 39.8645 49.36 39.8714 49.4834 39.8714H49.7209V40.1564H49.1039C49.1295 40.1842 49.1505 40.2166 49.1668 40.2537C49.1831 40.2908 49.2017 40.3348 49.2157 40.3904C49.2296 40.446 49.2366 40.5132 49.2366 40.5919C49.2366 40.6499 49.2226 40.7194 49.1947 40.8004C49.1668 40.8792 49.1132 40.9557 49.0387 41.0298C48.9642 41.1039 48.8571 41.1642 48.722 41.2175C48.587 41.2684 48.4123 41.2939 48.1958 41.2939H47.7044C47.5321 41.2939 47.3598 41.2823 47.1922 41.2568C47.0222 41.2314 46.8708 41.1804 46.7381 41.1062C46.6054 41.0275 46.4959 40.9186 46.4121 40.7773C46.3306 40.6336 46.2864 40.446 46.2864 40.212C46.2864 40.0429 46.305 39.8784 46.3423 39.7116C46.3772 39.5471 46.4168 39.4034 46.4564 39.2876C46.5379 39.3015 46.6054 39.3154 46.6566 39.3293C46.7032 39.3409 46.7148 39.3756 46.6985 39.4336C46.6729 39.5285 46.645 39.6397 46.617 39.7672C46.5891 39.8946 46.5728 40.0429 46.5728 40.212C46.5728 40.4182 46.6147 40.5757 46.6985 40.6846C46.7824 40.7935 46.8895 40.8723 47.0129 40.9209C47.1386 40.9696 47.276 40.9997 47.4227 41.0043C47.5694 41.0089 47.7091 41.0159 47.8348 41.0159H48.2749ZM47.418 41.982C47.418 41.9241 47.439 41.8731 47.4786 41.8337C47.5182 41.7943 47.5694 41.7735 47.6276 41.7735C47.6858 41.7735 47.737 41.792 47.7766 41.8337C47.8162 41.8731 47.8372 41.9241 47.8372 41.982C47.8372 42.0399 47.8162 42.0909 47.7766 42.1303C47.737 42.1696 47.6858 42.1905 47.6276 42.1905C47.5694 42.1905 47.5182 42.1696 47.4786 42.1303C47.439 42.0909 47.418 42.0399 47.418 41.982ZM47.9885 41.982C47.9885 41.9241 48.0095 41.8731 48.0491 41.8337C48.0887 41.7943 48.1399 41.7735 48.1981 41.7735C48.2563 41.7735 48.3075 41.792 48.3471 41.8337C48.3867 41.8754 48.4077 41.9241 48.4077 41.982C48.4077 42.0399 48.3867 42.0909 48.3471 42.1303C48.3075 42.1696 48.2563 42.1905 48.1981 42.1905C48.1399 42.1905 48.0887 42.1696 48.0491 42.1303C48.0095 42.0909 47.9885 42.0399 47.9885 41.982Z" fill="white"/>
<path d="M48.2027 42.2784C48.1212 42.2784 48.0467 42.2483 47.9908 42.1927C47.9559 42.1579 47.9303 42.1162 47.9163 42.0722C47.9023 42.1186 47.8767 42.1579 47.8418 42.1927C47.7277 42.3062 47.5321 42.3062 47.418 42.1927C47.3621 42.1348 47.3319 42.063 47.3319 41.9819C47.3319 41.9008 47.3621 41.8267 47.418 41.771C47.5344 41.6552 47.7347 41.6575 47.8441 41.771C47.8791 41.8035 47.9023 41.8452 47.9163 41.8892C47.9303 41.8452 47.9559 41.8035 47.9885 41.7687C48.1049 41.6529 48.3052 41.6575 48.4146 41.7687C48.4705 41.829 48.5008 41.8985 48.5008 41.9772C48.5008 42.056 48.4705 42.1325 48.4146 42.1881C48.3564 42.2437 48.2842 42.2738 48.2027 42.2738V42.2784ZM48.2027 41.8568C48.1678 41.8568 48.1375 41.8684 48.1142 41.8915C48.091 41.9147 48.0793 41.9448 48.0793 41.9796C48.0793 42.0143 48.091 42.0444 48.1142 42.0676C48.1631 42.1162 48.2423 42.1162 48.2912 42.0676C48.3145 42.0444 48.3261 42.0143 48.3261 41.9796C48.3261 41.9448 48.3145 41.917 48.2889 41.8892C48.2679 41.866 48.24 41.8545 48.2027 41.8545V41.8568ZM47.6322 41.8568C47.5973 41.8568 47.567 41.8684 47.5437 41.8915C47.5205 41.9147 47.5088 41.9448 47.5088 41.9796C47.5088 42.0143 47.5205 42.0444 47.5437 42.0676C47.5926 42.1162 47.6718 42.1162 47.7207 42.0676C47.744 42.0444 47.7556 42.0143 47.7556 41.9796C47.7556 41.9448 47.744 41.9147 47.7207 41.8915C47.6974 41.866 47.6695 41.8568 47.6322 41.8568ZM48.1957 41.3818H47.7044C47.5274 41.3818 47.3505 41.3679 47.1805 41.3424C47.0012 41.3146 46.8382 41.2614 46.6962 41.1803C46.5471 41.0922 46.4284 40.9718 46.3376 40.8212C46.2444 40.6613 46.2002 40.4621 46.2002 40.2119C46.2002 40.0404 46.2188 39.869 46.2561 39.6929C46.2933 39.5238 46.3329 39.3755 46.3725 39.2574L46.3958 39.1855L46.4703 39.1994C46.5541 39.2157 46.624 39.2272 46.6799 39.2435C46.7311 39.255 46.759 39.2852 46.773 39.3107C46.7963 39.35 46.7986 39.3987 46.7823 39.4566C46.7567 39.5493 46.7311 39.6605 46.7008 39.7856C46.6729 39.9061 46.6589 40.0497 46.6589 40.2096C46.6589 40.3949 46.6962 40.5362 46.7684 40.6289C46.8405 40.7239 46.936 40.7934 47.0454 40.8374C47.1642 40.8837 47.2923 40.9092 47.4273 40.9162C47.574 40.9231 47.7091 40.9254 47.8348 40.9254H48.2749C48.3448 40.9254 48.4146 40.9162 48.4821 40.9046C48.552 40.8907 48.6149 40.8698 48.6754 40.8374C48.729 40.8073 48.7709 40.7679 48.8058 40.7169C48.8384 40.6706 48.8547 40.6104 48.8547 40.5339C48.8547 40.4667 48.8384 40.4018 48.8035 40.3486C48.7662 40.286 48.7173 40.2304 48.6568 40.1818C48.5916 40.1285 48.5171 40.0821 48.4309 40.0427C48.3401 39.9987 48.2446 39.9593 48.1515 39.9246L48.0723 39.8968L48.0979 39.818C48.1119 39.7717 48.1259 39.73 48.1399 39.686L48.1678 39.5933C48.1841 39.5307 48.2237 39.4983 48.2516 39.4844C48.2982 39.4612 48.3517 39.4612 48.4123 39.4844L48.5636 39.5493C48.6265 39.5771 48.6871 39.6072 48.7499 39.6373C48.8081 39.6651 48.8733 39.6906 48.9432 39.7161C49.0107 39.7393 49.0852 39.7555 49.176 39.7717C49.2599 39.7856 49.36 39.7925 49.4834 39.7925H49.8071V40.2513H49.2575C49.2715 40.2883 49.2878 40.3277 49.2995 40.3764C49.3158 40.4366 49.3227 40.5107 49.3227 40.6011C49.3227 40.6683 49.3064 40.7447 49.2762 40.8374C49.2436 40.9301 49.183 41.0181 49.0969 41.1015C49.013 41.1826 48.9013 41.2498 48.7499 41.3077C48.6032 41.361 48.4169 41.3888 48.1911 41.3888L48.1957 41.3818ZM46.5169 39.3848C46.4866 39.4821 46.4563 39.5979 46.4284 39.7277C46.3935 39.8922 46.3748 40.0497 46.3748 40.2096C46.3748 40.425 46.4121 40.6011 46.4889 40.7331C46.5611 40.8582 46.6612 40.9579 46.7823 41.0297C46.9034 41.0992 47.0478 41.1455 47.2061 41.171C47.3691 41.1965 47.5368 41.2081 47.7044 41.2081H48.1957C48.4006 41.2081 48.566 41.1849 48.6917 41.1386C48.8175 41.0899 48.9129 41.0343 48.9781 40.9718C49.0433 40.9069 49.0899 40.842 49.1132 40.7748C49.1388 40.703 49.1504 40.6428 49.1504 40.5965C49.1504 40.52 49.1434 40.4621 49.1318 40.4181C49.1178 40.3694 49.1039 40.3277 49.0876 40.293C49.0736 40.2652 49.0573 40.2397 49.0387 40.2188L48.9036 40.0729H49.6324V39.9617H49.4834C49.3507 39.9617 49.2412 39.9547 49.1481 39.9385C49.048 39.9223 48.9618 39.9014 48.8873 39.8759C48.8105 39.8505 48.7383 39.8203 48.6754 39.7902C48.6149 39.7624 48.5543 39.7323 48.4961 39.7045L48.3494 39.6419C48.3354 39.6373 48.3261 39.635 48.3261 39.6373L48.3075 39.7323C48.3028 39.7508 48.2959 39.7694 48.2912 39.7879C48.3657 39.818 48.4379 39.8505 48.5078 39.8829C48.6056 39.9292 48.6917 39.9825 48.7686 40.0451C48.8454 40.1076 48.9083 40.1771 48.9548 40.2559C49.0061 40.3393 49.0317 40.432 49.0317 40.5316C49.0317 40.6451 49.0061 40.7401 48.9525 40.8142C48.9036 40.886 48.8407 40.9416 48.7639 40.988C48.6871 41.0297 48.6079 41.0575 48.5171 41.0737C48.4495 41.0853 48.382 41.0946 48.3145 41.0946H48.3122L47.8395 41.0969C47.7114 41.0969 47.5717 41.0922 47.4227 41.0876C47.269 41.0807 47.1223 41.0505 46.9849 40.9973C46.8429 40.9417 46.7264 40.8536 46.6333 40.7331C46.5378 40.608 46.4889 40.432 46.4889 40.2072C46.4889 40.0312 46.5052 39.8806 46.5355 39.7439C46.5658 39.6141 46.5937 39.5029 46.6193 39.4056V39.401C46.5891 39.3941 46.5565 39.3871 46.5192 39.3802L46.5169 39.3848Z" fill="white"/>
<path d="M50.5474 38.3446C50.5474 38.2751 50.5823 38.2404 50.6522 38.2404H50.8524V39.3594C50.8524 39.8922 50.5311 40.1587 49.8907 40.1587H49.5205V39.8737H49.8698C50.077 39.8737 50.2423 39.8227 50.3634 39.7254C50.4845 39.6235 50.5451 39.4775 50.5451 39.2806V38.3446H50.5474ZM50.4589 37.5986C50.4589 37.5407 50.4775 37.4898 50.5194 37.4504C50.5614 37.411 50.6103 37.3901 50.6685 37.3901C50.7267 37.3901 50.7779 37.411 50.8175 37.4504C50.8571 37.4898 50.878 37.5407 50.878 37.5986C50.878 37.6566 50.8571 37.7075 50.8175 37.7469C50.7779 37.7863 50.7267 37.8072 50.6685 37.8072C50.6103 37.8072 50.559 37.7863 50.5194 37.7469C50.4799 37.7075 50.4589 37.6566 50.4589 37.5986Z" fill="white"/>
<path d="M49.8932 40.2444H49.4368V39.7857H49.8722C50.0562 39.7857 50.2052 39.7417 50.3123 39.656C50.4124 39.5726 50.4613 39.4475 50.4613 39.2807V38.3447C50.4613 38.2288 50.5382 38.1524 50.6546 38.1524H50.9433V39.3594C50.9433 39.7649 50.7617 40.2467 49.8932 40.2467V40.2444ZM49.6114 40.0707H49.8932C50.4823 40.0707 50.7687 39.8367 50.7687 39.3571V38.3238H50.6546L50.636 38.3424V39.2783C50.636 39.4984 50.5638 39.6699 50.4241 39.788C50.2844 39.9015 50.0981 39.9571 49.8722 39.9571H49.6114V40.0683V40.0707ZM50.6709 37.8952C50.5894 37.8952 50.5149 37.8651 50.459 37.8095C50.4031 37.7516 50.3728 37.6798 50.3728 37.5987C50.3728 37.513 50.4031 37.4411 50.4613 37.3855C50.5824 37.272 50.771 37.2743 50.8828 37.3855C50.9387 37.4411 50.9689 37.5153 50.9689 37.5964C50.9689 37.6775 50.9387 37.7516 50.8828 37.8072C50.8246 37.8628 50.7524 37.8929 50.6709 37.8929V37.8952ZM50.6709 37.4736C50.636 37.4736 50.608 37.4852 50.5801 37.5107C50.5568 37.5338 50.5451 37.5593 50.5451 37.5964C50.5451 37.6311 50.5568 37.6612 50.5801 37.6844C50.629 37.7331 50.7081 37.7331 50.757 37.6844C50.7803 37.6612 50.792 37.6311 50.792 37.5964C50.792 37.5616 50.7803 37.5315 50.757 37.5083C50.7338 37.4852 50.7035 37.4736 50.6686 37.4736H50.6709Z" fill="white"/>
<path d="M52.571 38.1288C52.6967 38.1288 52.8318 38.1404 52.9715 38.1658C53.1112 38.1913 53.2346 38.2214 53.3511 38.2539V40.1722C53.3511 40.3992 53.3324 40.5892 53.2928 40.7398C53.2556 40.8904 53.195 41.0108 53.1159 41.0989C53.0367 41.1869 52.9389 41.2518 52.8178 41.2888C52.6967 41.3259 52.5547 41.3444 52.3894 41.3444C52.3102 41.3444 52.2264 41.3398 52.1332 41.3329C52.0401 41.3259 51.9376 41.3027 51.8282 41.2726C51.7747 41.261 51.7584 41.2193 51.7747 41.1475C51.7863 41.1012 51.8003 41.0456 51.8166 40.9853C51.9027 41.0131 51.9935 41.034 52.0843 41.0479C52.1752 41.0618 52.2753 41.0687 52.3801 41.0687C52.5314 41.0687 52.6502 41.0433 52.7363 40.9946C52.8225 40.946 52.8877 40.8834 52.9343 40.8046C52.9808 40.7259 53.0088 40.6401 53.0204 40.5428C53.0321 40.4455 53.039 40.3482 53.039 40.2509V40.0818C52.9599 40.1166 52.883 40.1397 52.8039 40.1536C52.7224 40.1652 52.6409 40.1722 52.5524 40.1722C52.4523 40.1722 52.3428 40.1606 52.2194 40.1374C52.096 40.1142 51.9819 40.0679 51.8771 39.9961C51.7723 39.9243 51.6815 39.8246 51.6093 39.6926C51.5371 39.5605 51.4976 39.3914 51.4976 39.1783C51.4976 38.9837 51.5302 38.8238 51.593 38.6894C51.6559 38.5551 51.7374 38.4485 51.8352 38.3628C51.933 38.2771 52.0494 38.2168 52.1775 38.1821C52.3079 38.1473 52.4383 38.1265 52.5687 38.1265L52.571 38.1288ZM53.0414 38.4902C52.9878 38.474 52.9156 38.4578 52.8225 38.4462C52.7293 38.4346 52.6385 38.4276 52.55 38.4276C52.3312 38.4276 52.1519 38.4856 52.0098 38.6037C51.8678 38.7219 51.7979 38.9095 51.7979 39.169C51.7979 39.3011 51.8189 39.4146 51.8608 39.5049C51.9027 39.5953 51.9586 39.6694 52.0285 39.7227C52.096 39.776 52.1775 39.8131 52.2706 39.8362C52.3638 39.8594 52.4616 39.871 52.557 39.871C52.6525 39.871 52.7363 39.8663 52.8085 39.8571C52.8807 39.8478 52.9575 39.8223 53.039 39.7783V38.4902H53.0414Z" fill="white"/>
<path d="M52.3848 41.4303C52.3033 41.4303 52.2172 41.4257 52.1217 41.4164C52.0262 41.4071 51.9215 41.3863 51.8004 41.3515C51.7515 41.3423 51.7212 41.3098 51.7049 41.2867C51.677 41.245 51.6723 41.1917 51.6863 41.1222C51.6979 41.0758 51.7119 41.0179 51.7305 40.9577L51.7538 40.8697L51.84 40.8975C51.9215 40.9229 52.0076 40.9438 52.0961 40.9577C52.1799 40.9716 52.2707 40.9785 52.3778 40.9785C52.5129 40.9785 52.6177 40.9577 52.6922 40.916C52.7644 40.8766 52.8203 40.8233 52.8575 40.7584C52.8971 40.6936 52.9204 40.6194 52.932 40.5314C52.9437 40.4364 52.9507 40.3461 52.9507 40.2511V40.2094C52.9064 40.2233 52.8622 40.2325 52.8179 40.2395C52.6317 40.2696 52.4384 40.2673 52.2032 40.2233C52.0682 40.1978 51.9401 40.1468 51.8283 40.0681C51.7142 39.9893 51.6141 39.8781 51.5326 39.7368C51.4488 39.5908 51.4092 39.4078 51.4092 39.1784C51.4092 38.9745 51.4441 38.7962 51.5116 38.6525C51.5815 38.5066 51.67 38.3884 51.7771 38.298C51.8865 38.2054 52.0123 38.1382 52.152 38.0988C52.28 38.0641 52.4035 38.0455 52.5269 38.0409L52.5688 38.0386C52.6992 38.0386 52.8389 38.0525 52.9833 38.078C53.1206 38.1034 53.2487 38.1336 53.3698 38.1683L53.4327 38.1868V40.17C53.4327 40.4086 53.4117 40.6032 53.3698 40.7608C53.3279 40.9253 53.2627 41.0573 53.1719 41.1569C53.0811 41.2589 52.967 41.3307 52.8342 41.3701C52.7108 41.4095 52.5618 41.428 52.3802 41.428L52.3848 41.4303ZM51.8749 41.0897C51.8679 41.1152 51.8609 41.1407 51.8563 41.1639C51.8493 41.1894 51.8516 41.1986 51.8516 41.1986C51.9564 41.2172 52.0495 41.238 52.1357 41.245C52.4198 41.2704 52.627 41.2565 52.7877 41.2056C52.8901 41.1755 52.9763 41.1199 53.0461 41.0411C53.1183 40.9623 53.1695 40.8557 53.2045 40.7167C53.2417 40.5754 53.2604 40.3901 53.2604 40.17V38.3166C53.1626 38.2911 53.0624 38.2679 52.953 38.2494C52.8342 38.2285 52.7178 38.2146 52.6084 38.2123H52.5688C52.4477 38.2123 52.3266 38.2285 52.2009 38.2633C52.0868 38.2957 51.982 38.3513 51.8912 38.4278C51.8027 38.5019 51.7282 38.6015 51.67 38.7243C51.6118 38.8448 51.5838 38.9954 51.5838 39.1761C51.5838 39.3707 51.6187 39.5306 51.6839 39.6487C51.7515 39.7692 51.8306 39.8595 51.9261 39.9221C52.0216 39.987 52.1217 40.0287 52.2358 40.0495C52.45 40.0889 52.6247 40.0889 52.7923 40.0634C52.8645 40.0518 52.9344 40.031 53.0042 39.9985L53.1276 39.9429V40.2464C53.1276 40.3484 53.1206 40.448 53.109 40.5499C53.095 40.6611 53.0624 40.7584 53.0112 40.8442C52.9576 40.9345 52.8785 41.0087 52.7807 41.0643C52.6806 41.1199 52.5455 41.15 52.3802 41.15C52.2637 41.15 52.1613 41.143 52.0705 41.1268C52.0053 41.1152 51.9401 41.1013 51.8772 41.0851L51.8749 41.0897ZM52.5571 39.9592C52.45 39.9592 52.3452 39.9476 52.2474 39.9221C52.1403 39.8966 52.0495 39.8526 51.9727 39.7924C51.8958 39.7344 51.8306 39.6487 51.7794 39.5445C51.7328 39.4425 51.7072 39.3174 51.7072 39.1715C51.7072 38.8865 51.7887 38.6734 51.9494 38.539C52.1054 38.4093 52.3057 38.3421 52.5455 38.3421C52.6386 38.3421 52.7341 38.349 52.8296 38.3629C52.9297 38.3768 53.0065 38.3907 53.0648 38.4116L53.1253 38.4301V39.8341L53.0787 39.8572C52.9879 39.9036 52.9041 39.9314 52.8203 39.9429C52.7457 39.9545 52.6619 39.9592 52.5548 39.9592H52.5571ZM52.5455 38.5158C52.3476 38.5158 52.1892 38.5668 52.0635 38.6734C51.9424 38.773 51.8842 38.9375 51.8842 39.1715C51.8842 39.2919 51.9028 39.3939 51.9401 39.4703C51.9773 39.5514 52.0239 39.6117 52.0798 39.6534C52.138 39.6997 52.2079 39.7321 52.2917 39.7507C52.4617 39.7924 52.6689 39.7877 52.797 39.7692C52.8459 39.7622 52.8971 39.746 52.953 39.7229V38.5575C52.9134 38.5483 52.8645 38.5413 52.8086 38.532C52.7201 38.5205 52.6317 38.5135 52.5478 38.5135L52.5455 38.5158Z" fill="white"/>
<path d="M54.4896 38.3399C54.4896 38.2727 54.5245 38.2402 54.5944 38.2402H54.7946V39.6604C54.7946 39.6604 54.8272 39.6882 54.8598 39.7137C54.8924 39.7392 54.9367 39.7623 54.9879 39.7855C55.0391 39.8087 55.1043 39.8295 55.1812 39.8481C55.258 39.8666 55.3442 39.8782 55.4443 39.8782H55.4932V40.1631H55.4443C55.3698 40.1631 55.272 40.1516 55.1555 40.133C55.0345 40.1145 54.9157 40.0589 54.797 39.9662V40.6497C54.797 40.8906 54.7434 41.069 54.6363 41.1825C54.5292 41.2937 54.3802 41.3516 54.1892 41.3516C54.0658 41.3516 53.9284 41.3262 53.7771 41.2775C53.6886 41.2497 53.6537 41.1918 53.6746 41.1037L53.7165 40.9555C53.7654 40.9763 53.8283 40.9995 53.9075 41.0203C53.9866 41.0435 54.0518 41.0551 54.1077 41.0551C54.2661 41.0551 54.3708 41.0273 54.4174 40.9717C54.464 40.9138 54.4896 40.8026 54.4896 40.6358V38.3422V38.3399Z" fill="white"/>
<path d="M54.1893 41.4352C54.0589 41.4352 53.9145 41.4097 53.7515 41.3587C53.6188 41.317 53.5606 41.2151 53.5908 41.0807L53.6607 40.8351L53.7515 40.8745C53.8051 40.8977 53.8656 40.9186 53.9285 40.9348C53.9983 40.9556 54.0566 40.9649 54.1078 40.9649C54.2917 40.9649 54.3383 40.9255 54.3499 40.9116C54.3662 40.8931 54.4012 40.8259 54.4012 40.6313V38.3377C54.4012 38.2242 54.4757 38.1523 54.5944 38.1523H54.8832V39.6189C54.8832 39.6189 54.9018 39.6328 54.9134 39.642C54.9414 39.6629 54.9763 39.6837 55.0252 39.7046C55.0741 39.7254 55.1347 39.7463 55.2045 39.7625C55.2767 39.781 55.3559 39.7903 55.4443 39.7903H55.5794V40.249H55.4443C55.3675 40.249 55.2697 40.2397 55.1416 40.2189C55.0532 40.205 54.9693 40.1749 54.8832 40.1285V40.6498C54.8832 40.9162 54.8226 41.1108 54.6992 41.2406C54.5735 41.3703 54.4035 41.4352 54.1893 41.4352ZM53.7748 41.0691L53.7585 41.1247C53.7492 41.1618 53.7538 41.178 53.8027 41.1919C54.166 41.3078 54.4175 41.28 54.5712 41.1201C54.662 41.0251 54.7085 40.8653 54.7085 40.6475V39.788L54.8482 39.8969C54.9577 39.9803 55.0625 40.0289 55.1673 40.0451C55.2627 40.0614 55.3419 40.0706 55.4048 40.0729V39.964C55.3163 39.9617 55.2348 39.9501 55.1603 39.9316C55.0811 39.9108 55.0136 39.8899 54.953 39.8644C54.8925 39.8366 54.8459 39.8111 54.8063 39.7833C54.7667 39.7555 54.7435 39.7347 54.7318 39.7231L54.7062 39.6976V38.3284H54.5921C54.5758 38.3284 54.5712 38.3307 54.5712 38.3307L54.5758 38.34V40.6336C54.5758 40.8212 54.5455 40.9487 54.485 41.0251C54.4198 41.1039 54.301 41.141 54.1078 41.141C54.0403 41.141 53.9657 41.1294 53.8819 41.1039C53.8447 41.0946 53.8097 41.083 53.7748 41.0715V41.0691Z" fill="white"/>
<path d="M56.0706 38.3442C56.0706 38.2747 56.1056 38.24 56.1754 38.24H56.3757V39.6648C56.4176 39.7018 56.4688 39.7389 56.5247 39.7667C56.5806 39.7945 56.6528 39.8223 56.7389 39.8432C56.8228 39.864 56.9136 39.8756 57.0137 39.8756H57.0719V40.1606H57.0137C56.9718 40.1606 56.9229 40.1606 56.867 40.1513C56.8111 40.1467 56.7529 40.1351 56.6877 40.1165C56.6225 40.098 56.5596 40.0748 56.4944 40.0401C56.4316 40.0053 56.3734 39.959 56.3245 39.9011C56.2127 40.0725 56.0101 40.1606 55.7167 40.1606H55.3372V39.8756H55.5747C55.754 39.8756 55.882 39.8409 55.9542 39.7713C56.0287 39.7018 56.0637 39.5883 56.0637 39.4354V38.3489L56.0706 38.3442ZM55.7167 37.5542C55.7167 37.4963 55.7377 37.4453 55.7772 37.4059C55.8168 37.3666 55.8681 37.3457 55.9263 37.3457C55.9845 37.3457 56.0357 37.3666 56.0753 37.4059C56.1149 37.4453 56.1358 37.4963 56.1358 37.5542C56.1358 37.6121 56.1149 37.6631 56.0753 37.7025C56.0357 37.7419 55.9845 37.7627 55.9263 37.7627C55.8681 37.7627 55.8168 37.7419 55.7772 37.7025C55.7377 37.6631 55.7167 37.6121 55.7167 37.5542ZM56.2872 37.5542C56.2872 37.4963 56.3082 37.4453 56.3477 37.4059C56.3873 37.3666 56.4386 37.3457 56.4968 37.3457C56.555 37.3457 56.6062 37.3666 56.6458 37.4059C56.6854 37.4453 56.7063 37.4963 56.7063 37.5542C56.7063 37.6121 56.6854 37.6631 56.6458 37.7025C56.6062 37.7419 56.555 37.7627 56.4968 37.7627C56.4386 37.7627 56.3873 37.7419 56.3477 37.7025C56.3082 37.6631 56.2872 37.6121 56.2872 37.5542Z" fill="white"/>
<path d="M55.7215 40.2465H55.2534V39.7877H55.5771C55.7308 39.7877 55.8402 39.7599 55.8984 39.7067C55.9543 39.6557 55.9799 39.563 55.9799 39.4333L55.9846 38.305C55.9985 38.21 56.0707 38.1521 56.1755 38.1521H56.4643V39.6233C56.4969 39.6487 56.5318 39.6719 56.5667 39.6904C56.6179 39.7159 56.6831 39.7391 56.76 39.7576C56.8391 39.7762 56.9206 39.7877 57.0138 39.7877H57.1605V40.2465H57.0138C56.9695 40.2465 56.916 40.2465 56.8578 40.2372C56.7949 40.2326 56.725 40.2163 56.6668 40.2024C56.5946 40.1839 56.5271 40.1561 56.4549 40.119C56.4107 40.0959 56.3711 40.0681 56.3339 40.0356C56.1988 40.177 55.9939 40.2488 55.7215 40.2488V40.2465ZM55.4281 40.0727H55.7215C55.9846 40.0727 56.1592 40.0009 56.2547 39.8526L56.3199 39.753L56.3967 39.8457C56.4363 39.8943 56.4852 39.9337 56.5388 39.9638C56.597 39.9939 56.6552 40.0171 56.7111 40.031C56.7833 40.0495 56.8322 40.0588 56.8764 40.0611C56.9183 40.0658 56.9556 40.0681 56.9882 40.0681V39.9569C56.8927 39.9569 56.8042 39.943 56.7204 39.9221C56.6296 39.899 56.5504 39.8711 56.4875 39.8387C56.427 39.8063 56.3688 39.7692 56.3199 39.7229L56.2919 39.6974V38.3212H56.1778V38.3583L56.1569 38.3792V39.431C56.1569 39.6117 56.1103 39.746 56.0195 39.8318C55.9287 39.9175 55.7797 39.9615 55.5794 39.9615H55.4304V40.0727H55.4281ZM56.4992 37.8533C56.4177 37.8533 56.3432 37.8231 56.2873 37.7675C56.2524 37.7328 56.2267 37.6911 56.2128 37.6471C56.1988 37.6911 56.1732 37.7328 56.1383 37.7675C56.0242 37.8811 55.8286 37.8811 55.7145 37.7675C55.6586 37.7096 55.6283 37.6378 55.6283 37.5567C55.6283 37.4756 55.6586 37.4015 55.7145 37.3459C55.8286 37.2324 56.0242 37.2324 56.1383 37.3459C56.1732 37.3806 56.1988 37.4223 56.2128 37.4664C56.2267 37.4223 56.2524 37.3806 56.2873 37.3459C56.4014 37.2324 56.597 37.2324 56.7111 37.3459C56.767 37.4015 56.7972 37.4756 56.7972 37.5567C56.7972 37.6378 56.767 37.7119 56.7111 37.7675C56.6529 37.8231 56.5807 37.8533 56.4992 37.8533ZM56.4992 37.4316C56.4642 37.4316 56.434 37.4432 56.4107 37.4664C56.3874 37.4895 56.3758 37.5196 56.3758 37.5544C56.3758 37.5891 56.3874 37.6193 56.4107 37.6424C56.4596 37.6911 56.5388 37.6911 56.5877 37.6424C56.6109 37.6193 56.6226 37.5891 56.6226 37.5544C56.6226 37.5196 56.6109 37.4895 56.5877 37.4664C56.5644 37.4432 56.5341 37.4316 56.4992 37.4316ZM55.9287 37.4316C55.8938 37.4316 55.8635 37.4432 55.8402 37.4664C55.8169 37.4895 55.8053 37.5196 55.8053 37.5544C55.8053 37.5891 55.8169 37.6193 55.8402 37.6424C55.8891 37.6911 55.9683 37.6911 56.0172 37.6424C56.0405 37.6193 56.0521 37.5891 56.0521 37.5544C56.0521 37.5196 56.0405 37.4895 56.0172 37.4664C55.9939 37.4432 55.9636 37.4316 55.9287 37.4316Z" fill="white"/>
<path d="M59.6566 39.6536C59.6938 39.6953 59.7427 39.7324 59.8033 39.7602C59.8638 39.788 59.9314 39.8181 60.0152 39.8413C60.099 39.8644 60.1968 39.876 60.3132 39.876H60.3598V40.161H60.3132C60.2713 40.161 60.2224 40.161 60.1665 40.1517C60.1107 40.1424 60.0548 40.1378 59.9919 40.1193C59.929 40.1007 59.8685 40.0822 59.8079 40.0544C59.7474 40.0266 59.6892 39.9872 59.6356 39.9386C59.5984 40.0289 59.5448 40.0892 59.4773 40.117C59.4098 40.1448 59.3073 40.1587 59.1699 40.1587H56.9089V39.8737H59.3725V39.5586C59.3725 39.4358 59.3609 39.3177 59.3353 39.1995C59.3096 39.0814 59.2607 38.9794 59.1862 38.8914C59.1117 38.801 59.0069 38.7292 58.8696 38.6736C58.7322 38.618 58.5505 38.5925 58.327 38.5925H57.5935C57.5353 38.5925 57.4911 38.567 57.4631 38.5184C57.4282 38.4721 57.3886 38.4118 57.3467 38.3331L59.1373 36.9453C59.1839 36.9916 59.2328 37.0449 59.2864 37.1029C59.319 37.1399 59.3143 37.177 59.2747 37.2071L57.7845 38.3331H58.476C58.6926 38.3331 58.8742 38.3632 59.0256 38.4188C59.1769 38.4744 59.3003 38.5601 59.3935 38.6713C59.4866 38.7802 59.5541 38.9146 59.596 39.0721C59.638 39.2273 59.6589 39.4034 59.6589 39.5957V39.6536H59.6566Z" fill="white"/>
<path d="M60.4461 40.2442H60.3133C60.2691 40.2442 60.2155 40.2442 60.1573 40.235C60.0991 40.228 60.0362 40.2188 59.9687 40.2002C59.9012 40.1817 59.8383 40.1608 59.7708 40.1307C59.7335 40.1145 59.6986 40.0937 59.6614 40.0682C59.6194 40.1284 59.5682 40.1701 59.51 40.1933C59.4285 40.2257 59.3191 40.2419 59.17 40.2419H56.8206V39.7832H59.2841V39.5538C59.2841 39.438 59.2725 39.3245 59.2469 39.2133C59.2236 39.1067 59.1817 39.0187 59.1165 38.9422C59.0513 38.8635 58.9605 38.8009 58.8347 38.7499C58.709 38.699 58.5367 38.6735 58.3248 38.6735H57.5913C57.5051 38.6735 57.4306 38.6318 57.3864 38.5576C57.3538 38.5159 57.3142 38.4534 57.2676 38.37L57.2327 38.3051L59.1421 36.8247L59.1956 36.8803C59.2422 36.9266 59.2934 36.9822 59.347 37.0425C59.3866 37.0911 59.3912 37.1328 59.3889 37.163C59.3866 37.1908 59.3726 37.2348 59.326 37.2718L58.0384 38.2426H58.4691C58.6904 38.2426 58.886 38.2727 59.0489 38.3352C59.2143 38.3978 59.3517 38.4905 59.4541 38.6132C59.5542 38.7314 59.6287 38.8774 59.673 39.0465C59.7172 39.2086 59.7405 39.3917 59.7405 39.5932V39.6164C59.7685 39.6419 59.8011 39.6627 59.8383 39.6813C59.8965 39.7114 59.9617 39.7346 60.0339 39.7554C60.1061 39.7763 60.1969 39.7855 60.3087 39.7855H60.4414V40.2442H60.4461ZM56.9952 40.0705H59.17C59.3237 40.0705 59.4029 40.0519 59.4448 40.0357C59.489 40.0172 59.5263 39.9732 59.5566 39.9037L59.6055 39.7902L59.6963 39.8736C59.7452 39.9176 59.7941 39.9523 59.8453 39.9732C59.9035 39.9987 59.9571 40.0172 60.0153 40.0334C60.0735 40.0496 60.1271 40.0566 60.1783 40.0635C60.2132 40.0682 60.2435 40.0705 60.2738 40.0705V39.9616C60.1643 39.9616 60.0712 39.9477 59.992 39.9245C59.9105 39.9014 59.8337 39.8736 59.7661 39.8388C59.6986 39.8041 59.6404 39.7624 59.5938 39.7114L59.5705 39.6859V39.5932C59.5705 39.4079 59.5496 39.2388 59.51 39.0928C59.4704 38.9492 59.4075 38.8241 59.3237 38.7268C59.2399 38.6271 59.1281 38.5507 58.9931 38.4997C58.8487 38.4464 58.6741 38.4186 58.4738 38.4186H57.5238L59.2073 37.1467C59.1793 37.1166 59.1537 37.0865 59.1281 37.0587L57.4586 38.3538C57.4842 38.3978 57.5098 38.4349 57.5308 38.4627C57.5494 38.4928 57.5657 38.502 57.5936 38.502H58.3271C58.5623 38.502 58.7556 38.5322 58.9023 38.5901C59.0559 38.6503 59.1724 38.7314 59.2539 38.8333C59.3354 38.9306 59.3912 39.0465 59.4192 39.1785C59.4448 39.3013 59.4588 39.4287 59.4588 39.5562V39.9593H56.9952V40.0705Z" fill="white"/>
<path d="M61.3845 39.1069C61.3845 39.2714 61.3705 39.4173 61.3402 39.5494C61.31 39.6791 61.2587 39.7903 61.1842 39.8783C61.1097 39.9664 61.0096 40.0382 60.8792 40.0869C60.7488 40.1355 60.5904 40.161 60.3949 40.161H60.1899V39.876H60.3902C60.6277 39.876 60.8 39.8251 60.9095 39.7231C61.0212 39.6212 61.0771 39.4752 61.0771 39.2806V37.0681C61.0771 36.9986 61.112 36.9639 61.1819 36.9639H61.3821V39.1092L61.3845 39.1069Z" fill="white"/>
<path d="M60.395 40.2444H60.1016V39.7857H60.3903C60.6045 39.7857 60.7582 39.7417 60.8513 39.656C60.9468 39.5702 60.9911 39.4474 60.9911 39.2783V37.0658C60.9911 36.95 61.0679 36.8735 61.1843 36.8735H61.4731V39.1069C61.4731 39.276 61.4568 39.4312 61.4265 39.5679C61.3939 39.7116 61.3357 39.832 61.2519 39.9317C61.1657 40.0336 61.0516 40.1124 60.9119 40.1656C60.7722 40.2189 60.5975 40.2444 60.3973 40.2444H60.395ZM60.2762 40.0707H60.395C60.5743 40.0707 60.7279 40.0475 60.849 40.0035C60.9608 39.9618 61.0516 39.8992 61.1168 39.8204C61.182 39.7417 61.2286 39.6444 61.2542 39.5285C61.2821 39.4057 61.2961 39.2621 61.2961 39.1069V37.0473H61.182L61.1634 37.0658V39.2783C61.1634 39.4961 61.0982 39.6675 60.9678 39.7834C60.842 39.9015 60.6534 39.9595 60.3903 39.9595H60.2762V40.0707Z" fill="white"/>
<path d="M63.0448 38.0665C63.0448 37.9831 63.0843 37.9414 63.1658 37.9414H63.3521V39.8759H63.8807C64.1182 39.8759 64.2882 39.8249 64.3976 39.723C64.5071 39.6211 64.5606 39.4751 64.5606 39.2805V37.0819C64.5606 37.0008 64.5979 36.9614 64.6724 36.9614H64.868V39.1114C64.868 39.2736 64.854 39.4195 64.8237 39.5469C64.7935 39.6767 64.7422 39.7879 64.6654 39.8759C64.5886 39.9639 64.4884 40.0358 64.3604 40.0844C64.2346 40.1331 64.074 40.1586 63.8784 40.1586H61.9434V39.9802C61.9434 39.9107 61.9736 39.8759 62.0318 39.8759H63.0401V38.0665H63.0448Z" fill="white"/>
<path d="M63.8783 40.2441H61.8572V39.9776C61.8572 39.8618 61.927 39.7853 62.0341 39.7853H62.9562V37.9203L62.9935 37.9389C63.0284 37.8833 63.089 37.8532 63.1681 37.8532H63.4406V39.7877H63.8807C64.0926 39.7877 64.2462 39.7436 64.3394 39.6579C64.4302 39.5722 64.4744 39.4494 64.4744 39.2803V37.0817C64.4744 36.9543 64.5513 36.8755 64.6747 36.8755H64.9564V39.1112C64.9564 39.278 64.9401 39.4309 64.9099 39.5652C64.8773 39.7089 64.8167 39.8317 64.7329 39.9313C64.6444 40.0332 64.5303 40.112 64.3929 40.163C64.2556 40.2163 64.0809 40.2417 63.8807 40.2417L63.8783 40.2441ZM62.0318 40.0703H63.8783C64.06 40.0703 64.2113 40.0471 64.3301 40.0031C64.4395 39.9614 64.5303 39.8989 64.6002 39.8201C64.6677 39.7436 64.7143 39.644 64.7399 39.5305C64.7678 39.4077 64.7818 39.2687 64.7818 39.1135V37.0516H64.6747C64.6537 37.0516 64.6491 37.0608 64.6491 37.084V39.2826C64.6491 39.5027 64.5862 39.6672 64.4581 39.7877C64.3301 39.9058 64.1415 39.9637 63.8807 39.9637H63.2659V38.0292H63.1681C63.1495 38.0292 63.1425 38.0339 63.1402 38.0339C63.1402 38.0339 63.1332 38.0455 63.1332 38.0686V38.2123H63.1285V39.9614H62.0318C62.0318 39.9614 62.0318 39.9591 62.0318 39.9799V40.0726V40.0703Z" fill="white"/>
<path d="M65.8551 40.0543C65.8551 40.1238 65.8202 40.1586 65.7503 40.1586H65.55V37.0657C65.55 36.9962 65.585 36.9614 65.6548 36.9614H65.8551V40.0543Z" fill="white"/>
<path d="M65.7504 40.2444H65.4617V37.0658C65.4617 36.95 65.5385 36.8735 65.6549 36.8735H65.9437V40.0521C65.9437 40.168 65.8668 40.2444 65.7504 40.2444ZM65.6363 40.0707H65.7504L65.769 40.0521V37.0473H65.6549L65.6363 37.0658V40.0707Z" fill="white"/>
<path d="M70.9454 38.3445C70.9454 38.275 70.9804 38.2402 71.0502 38.2402H71.2505V39.6604C71.2924 39.7021 71.3436 39.7392 71.3995 39.767C71.4554 39.7948 71.5276 39.8226 71.6114 39.8434C71.6952 39.8643 71.7907 39.8759 71.9048 39.8759H71.9537V40.1608H71.9048C71.8629 40.1608 71.8093 40.1608 71.7464 40.1516C71.6836 40.1469 71.6184 40.1353 71.5485 40.1145C71.481 40.096 71.4135 40.0682 71.3459 40.0357C71.2784 40.0033 71.2202 39.9546 71.1713 39.8967C71.1224 39.9801 71.0502 40.045 70.9594 40.0913C70.8686 40.1377 70.7452 40.1608 70.5938 40.1608H68.8381C68.6379 40.1608 68.4679 40.133 68.3282 40.0821C68.1885 40.0288 68.0744 39.9593 67.9882 39.8735C67.8997 39.7878 67.8345 39.6859 67.7926 39.5701C67.7507 39.4542 67.7297 39.3314 67.7297 39.2063C67.7297 39.0441 67.7414 38.9121 67.7647 38.8055C67.7903 38.699 67.8136 38.6248 67.8345 38.5831C67.8974 38.5993 67.9672 38.6202 68.0464 38.641C68.0883 38.6549 68.1023 38.6943 68.0837 38.7569C68.0627 38.838 68.0487 38.9051 68.0394 38.9607C68.0301 39.0187 68.0278 39.0859 68.0278 39.1646C68.0278 39.3013 68.0557 39.4148 68.1116 39.5052C68.1675 39.5955 68.242 39.6697 68.3328 39.723C68.4236 39.7762 68.5284 39.8156 68.6472 39.8388C68.7659 39.862 68.8893 39.8735 69.0151 39.8735H70.496C70.6753 39.8735 70.7964 39.8318 70.8546 39.7484C70.9128 39.665 70.9431 39.5515 70.9431 39.4079V38.3468L70.9454 38.3445ZM69.3038 40.7771C69.3038 40.7192 69.3248 40.6682 69.3644 40.6288C69.4039 40.5894 69.4552 40.5686 69.5134 40.5686C69.5716 40.5686 69.6228 40.5894 69.6624 40.6288C69.702 40.6682 69.7229 40.7192 69.7229 40.7771C69.7229 40.835 69.702 40.886 69.6624 40.9254C69.6228 40.9647 69.5716 40.9856 69.5134 40.9856C69.4552 40.9856 69.4039 40.9647 69.3644 40.9254C69.3248 40.886 69.3038 40.835 69.3038 40.7771Z" fill="white"/>
<path d="M69.5134 41.0713C69.4319 41.0713 69.3573 41.0412 69.3015 40.9856C69.2456 40.9277 69.2153 40.8559 69.2153 40.7748C69.2153 40.6937 69.2456 40.6196 69.3015 40.564C69.4156 40.4504 69.6112 40.4504 69.7253 40.564C69.7811 40.6219 69.8114 40.6937 69.8114 40.7748C69.8114 40.8559 69.7811 40.93 69.7253 40.9856C69.667 41.0412 69.5949 41.0713 69.5134 41.0713ZM69.5134 40.6497C69.4784 40.6497 69.4482 40.6613 69.4249 40.6844C69.4016 40.7076 69.3899 40.7377 69.3899 40.7725C69.3899 40.8072 69.4016 40.8373 69.4249 40.8605C69.4738 40.9092 69.5529 40.9092 69.6018 40.8605C69.6251 40.8373 69.6368 40.8072 69.6368 40.7725C69.6368 40.7377 69.6251 40.7076 69.6018 40.6844C69.5786 40.6613 69.5483 40.6497 69.5134 40.6497ZM72.0421 40.2443H71.9071C71.8628 40.2443 71.8069 40.2443 71.7394 40.235C71.6719 40.2303 71.602 40.2165 71.5252 40.1933C71.4623 40.1747 71.3925 40.1493 71.311 40.1122C71.2667 40.0913 71.2225 40.0635 71.1829 40.0288C71.134 40.0844 71.0711 40.1307 70.999 40.1655C70.8988 40.2164 70.7614 40.2443 70.5961 40.2443H68.8404C68.6355 40.2443 68.4539 40.2165 68.3002 40.1608C68.1465 40.1029 68.0231 40.0265 67.9276 39.9315C67.8298 39.8365 67.7577 39.723 67.7111 39.5956C67.6645 39.4705 67.6436 39.3384 67.6436 39.2017C67.6436 39.0395 67.6552 38.8982 67.6808 38.7824C67.7088 38.6665 67.7344 38.5878 67.7576 38.5391L67.7903 38.4766L68.0697 38.553C68.1093 38.5669 68.2117 38.6156 68.1698 38.7754C68.1488 38.8519 68.1349 38.9168 68.1279 38.97C68.1209 39.0233 68.1162 39.0859 68.1162 39.16C68.1162 39.2805 68.1395 39.3801 68.1884 39.4542C68.2397 39.533 68.3049 39.5979 68.3817 39.6442C68.4609 39.6929 68.5587 39.7276 68.6681 39.7485C68.7775 39.7693 68.8963 39.7809 69.0197 39.7809H70.5006C70.6031 39.7809 70.7358 39.7647 70.7894 39.6905C70.8383 39.621 70.8616 39.5237 70.8616 39.401V38.3399C70.8616 38.224 70.9384 38.1499 71.0548 38.1499H71.3436V39.6187C71.3738 39.6442 71.4088 39.6674 71.446 39.6859C71.4949 39.7114 71.5601 39.7346 71.6393 39.7554C71.7138 39.774 71.8069 39.7832 71.9117 39.7832H72.0468V40.2419L72.0421 40.2443ZM67.888 38.6851C67.8787 38.7175 67.8648 38.7615 67.8508 38.8241C67.8275 38.926 67.8182 39.0558 67.8182 39.2063C67.8182 39.3222 67.8368 39.4357 67.8764 39.54C67.9137 39.6419 67.9742 39.7346 68.051 39.811C68.1279 39.8875 68.2327 39.9523 68.3607 40.001C68.4935 40.0496 68.6541 40.0728 68.8381 40.0728H70.5938C70.7312 40.0728 70.8406 40.052 70.9198 40.0126C70.9966 39.9755 71.0548 39.9222 71.0944 39.8527L71.155 39.7461L71.2341 39.8388C71.2807 39.8944 71.3296 39.9315 71.3808 39.9547C71.453 39.9894 71.5136 40.0126 71.5694 40.0265C71.6346 40.0473 71.6952 40.0566 71.7511 40.0612C71.7953 40.0659 71.8326 40.0682 71.8652 40.0682V39.9593C71.7604 39.9593 71.6696 39.9454 71.5881 39.9245C71.4973 39.9014 71.4204 39.8736 71.3575 39.8411C71.2923 39.8064 71.2341 39.7647 71.1852 39.7183L71.1596 39.6929V38.3237H71.0455L70.8732 38.3399H71.0269V39.401C71.0269 39.5608 70.992 39.6929 70.9221 39.7925C70.8453 39.9014 70.7009 39.957 70.4913 39.957H69.0104C68.8753 39.957 68.7449 39.9454 68.6262 39.9222C68.4958 39.8967 68.3794 39.855 68.2839 39.7948C68.1814 39.7346 68.0976 39.6512 68.0324 39.5469C67.9672 39.445 67.9346 39.3129 67.9346 39.16C67.9346 39.0766 67.9393 39.0048 67.9486 38.9422C67.9579 38.8843 67.9719 38.8125 67.9952 38.7291C67.9952 38.7221 67.9975 38.7175 67.9975 38.7129L67.8811 38.6804L67.888 38.6851Z" fill="white"/>
<path d="M72.8269 38.3445C72.8269 38.275 72.8619 38.2402 72.9317 38.2402H73.132V39.3592C73.132 39.8921 72.8106 40.1585 72.1703 40.1585H71.8V39.8735H72.1493C72.3566 39.8735 72.5219 39.8226 72.643 39.7253C72.7641 39.6233 72.8246 39.4774 72.8246 39.2805V38.3445H72.8269ZM72.0585 40.7307C72.0585 40.6728 72.0795 40.6219 72.1191 40.5825C72.1586 40.5431 72.2099 40.5222 72.2681 40.5222C72.3263 40.5222 72.3775 40.5431 72.4171 40.5825C72.4567 40.6219 72.4776 40.6728 72.4776 40.7307C72.4776 40.7887 72.4567 40.8396 72.4171 40.879C72.3775 40.9184 72.3263 40.9393 72.2681 40.9393C72.2099 40.9393 72.1586 40.9184 72.1191 40.879C72.0795 40.8396 72.0585 40.7887 72.0585 40.7307ZM72.629 40.7307C72.629 40.6728 72.65 40.6219 72.6895 40.5825C72.7291 40.5431 72.7804 40.5222 72.8386 40.5222C72.8968 40.5222 72.948 40.5431 72.9876 40.5825C73.0272 40.6219 73.0481 40.6728 73.0481 40.7307C73.0481 40.7887 73.0272 40.8396 72.9876 40.879C72.948 40.9184 72.8968 40.9393 72.8386 40.9393C72.7804 40.9393 72.7291 40.9184 72.6895 40.879C72.65 40.8396 72.629 40.7887 72.629 40.7307Z" fill="white"/>
<path d="M72.8409 41.0298C72.7594 41.0298 72.6849 40.9996 72.629 40.944C72.594 40.9093 72.5708 40.8676 72.5545 40.8236C72.5405 40.8699 72.5149 40.9093 72.4799 40.944C72.3682 41.0552 72.1703 41.0576 72.0562 40.944C72.0003 40.8884 71.97 40.8143 71.97 40.7332C71.97 40.6521 72.0003 40.578 72.0562 40.5224C72.1703 40.4089 72.3658 40.4089 72.4799 40.5224C72.5149 40.5571 72.5405 40.5988 72.5545 40.6429C72.5684 40.5988 72.594 40.5571 72.629 40.5224C72.7431 40.4089 72.9387 40.4089 73.0528 40.5224C73.1087 40.578 73.1389 40.6521 73.1389 40.7332C73.1389 40.8143 73.1087 40.8884 73.0528 40.944C72.9969 40.9996 72.9224 41.0298 72.8409 41.0298ZM72.8409 40.6081C72.8059 40.6081 72.7757 40.6197 72.7524 40.6429C72.7291 40.666 72.7175 40.6961 72.7175 40.7309C72.7175 40.7656 72.7291 40.7958 72.7524 40.8189C72.8013 40.8676 72.8805 40.8676 72.9294 40.8189C72.9526 40.7958 72.9643 40.7656 72.9643 40.7309C72.9643 40.6961 72.9526 40.666 72.9294 40.6429C72.9061 40.6197 72.8758 40.6081 72.8409 40.6081ZM72.2704 40.6081C72.2355 40.6081 72.2052 40.6197 72.1819 40.6429C72.1586 40.666 72.147 40.6961 72.147 40.7309C72.147 40.7656 72.1586 40.7958 72.1819 40.8189C72.2308 40.8676 72.31 40.8676 72.3589 40.8189C72.3821 40.7958 72.3938 40.7656 72.3938 40.7309C72.3938 40.6961 72.3821 40.666 72.3589 40.6429C72.3356 40.6197 72.3053 40.6081 72.2704 40.6081ZM72.1703 40.2444H71.7139V39.7857H72.1493C72.3333 39.7857 72.4823 39.7416 72.5894 39.6559C72.6895 39.5725 72.7384 39.4497 72.7384 39.2806V38.3446C72.7384 38.2288 72.8153 38.1523 72.9317 38.1523H73.2204V39.3594C73.2204 39.7648 73.0388 40.2467 72.1703 40.2467V40.2444ZM71.8885 40.0706H72.1703C72.7594 40.0706 73.0458 39.8366 73.0458 39.3571V38.3238H72.9317L72.9131 38.3423V39.2783C72.9131 39.4984 72.8409 39.6698 72.7012 39.788C72.5614 39.9015 72.3752 39.9571 72.1493 39.9571H71.8885V40.0683V40.0706Z" fill="white"/>
<path d="M74.28 38.3399C74.28 38.2727 74.3149 38.2402 74.3848 38.2402H74.585V40.6497C74.585 40.8906 74.5315 41.069 74.4244 41.1825C74.3173 41.2937 74.1682 41.3516 73.9773 41.3516C73.8539 41.3516 73.7165 41.3262 73.5652 41.2775C73.4767 41.2497 73.4417 41.1918 73.4627 41.1037L73.5046 40.9555C73.5535 40.9763 73.6164 40.9995 73.6955 41.0203C73.7747 41.0435 73.8399 41.0551 73.8958 41.0551C74.0541 41.0551 74.1589 41.0273 74.2055 40.9717C74.2521 40.9138 74.2777 40.8026 74.2777 40.6358V38.3422L74.28 38.3399Z" fill="white"/>
<path d="M73.9796 41.4352C73.8492 41.4352 73.7048 41.4097 73.5418 41.3587C73.4091 41.317 73.3509 41.2151 73.3811 41.0807L73.451 40.8351L73.5418 40.8745C73.5953 40.8977 73.6559 40.9186 73.7188 40.9348C73.7886 40.9556 73.8468 40.9649 73.8981 40.9649C74.082 40.9649 74.1286 40.9255 74.1379 40.9139C74.1542 40.8954 74.1891 40.8282 74.1891 40.6313V38.3377C74.1891 38.2242 74.2636 38.1523 74.3824 38.1523H74.6711V40.6475C74.6711 40.9139 74.6106 41.1085 74.4872 41.2383C74.3614 41.368 74.1915 41.4329 73.9772 41.4329L73.9796 41.4352ZM73.5651 41.0691L73.5488 41.1247C73.5395 41.1641 73.5488 41.178 73.593 41.1919C73.9563 41.3078 74.2078 41.28 74.3614 41.1201C74.4522 41.0251 74.4965 40.8653 74.4965 40.6475V38.3261H74.3824C74.3661 38.3261 74.3614 38.3284 74.3614 38.3284V38.3377L74.3638 40.6313C74.3638 40.8189 74.3335 40.9487 74.2729 41.0228C74.2078 41.1016 74.089 41.1386 73.8957 41.1386C73.8282 41.1386 73.7537 41.1271 73.6699 41.1016C73.6326 41.0923 73.5977 41.0807 73.5628 41.0691H73.5651Z" fill="white"/>
<path d="M76.9902 39.8736V39.3894C76.9902 39.2295 76.9762 39.0975 76.9459 38.9955C76.9157 38.8936 76.8644 38.8102 76.7969 38.743C76.727 38.6758 76.6386 38.6202 76.5268 38.5739C76.4174 38.5276 76.2916 38.4905 76.1542 38.4581C76.0168 38.4256 75.9121 38.4048 75.8445 38.3955C75.7747 38.3839 75.6932 38.3723 75.5931 38.3607C75.4976 38.3445 75.458 38.2982 75.472 38.2241C75.4836 38.1708 75.4953 38.1175 75.5069 38.0596C75.6722 38.0851 75.8026 38.1059 75.8981 38.1221C75.9936 38.1383 76.11 38.1638 76.245 38.1939C76.3801 38.2241 76.5245 38.2773 76.6781 38.3538C76.8295 38.4326 76.9529 38.5206 77.0391 38.6179C77.1252 38.7152 77.1881 38.8264 77.2207 38.9423C77.2556 39.0581 77.2719 39.1739 77.2719 39.2898V39.6512C77.3045 39.6929 77.3464 39.7323 77.3977 39.7624C77.4442 39.7902 77.5024 39.8157 77.5793 39.8388C77.6561 39.862 77.7493 39.8736 77.8634 39.8736H77.9099V40.1586H77.8634C77.8261 40.1586 77.7795 40.1586 77.726 40.1493C77.6724 40.1447 77.6189 40.1354 77.5607 40.1169C77.5024 40.103 77.4466 40.0798 77.3883 40.0473C77.3301 40.0172 77.2789 39.9848 77.2393 39.9454C77.2044 40.0242 77.1532 40.0751 77.088 40.1076C77.0204 40.14 76.932 40.1539 76.8202 40.1539H75.1506V39.9755C75.1506 39.906 75.1856 39.8713 75.2554 39.8713H76.9878V39.8759L76.9902 39.8736Z" fill="white"/>
<path d="M78.0032 40.2444H77.8704C77.8285 40.2444 77.7796 40.2444 77.7214 40.2351C77.6655 40.2305 77.605 40.2189 77.5421 40.2004C77.4816 40.1842 77.4187 40.161 77.3535 40.1239C77.3232 40.1077 77.2953 40.0915 77.2673 40.0753C77.2301 40.1216 77.1858 40.1587 77.1323 40.1842C77.0531 40.2212 76.953 40.2398 76.8249 40.2398H75.0669V39.9733C75.0669 39.8575 75.1437 39.7811 75.2602 39.7811H76.9041V39.3895C76.9041 39.2366 76.8901 39.1138 76.8622 39.0212C76.8366 38.9378 76.7947 38.8636 76.7364 38.8057C76.6759 38.7478 76.5967 38.6991 76.4943 38.6574C76.3918 38.6134 76.2754 38.5787 76.1357 38.5462C76.0006 38.5161 75.9005 38.4953 75.833 38.4837L75.8074 38.479C75.7445 38.4698 75.67 38.4582 75.5838 38.4466C75.5023 38.4327 75.4464 38.4026 75.4138 38.3539C75.3952 38.3261 75.3743 38.2775 75.3882 38.208C75.3952 38.1709 75.4045 38.1338 75.4138 38.0945L75.4418 37.9624L75.5233 37.974C75.6886 37.9995 75.8213 38.0203 75.9168 38.0365C76.0099 38.0528 76.1264 38.0782 76.2591 38.106C76.4035 38.1385 76.5525 38.1918 76.7201 38.2752C76.8878 38.3609 77.0182 38.4559 77.109 38.5601C77.2045 38.669 77.272 38.7895 77.3093 38.9169C77.3442 39.0397 77.3628 39.1648 77.3628 39.2876V39.6189C77.3861 39.6444 77.414 39.6675 77.4466 39.6861C77.4886 39.7116 77.5444 39.7324 77.6096 39.7533C77.6772 39.7741 77.761 39.7834 77.8681 39.7834H78.0008V40.2421L78.0032 40.2444ZM77.2208 39.7926L77.3093 39.8853C77.3372 39.9154 77.3791 39.9432 77.4327 39.971C77.4886 40.0011 77.5398 40.022 77.5887 40.0336C77.6422 40.0498 77.6911 40.0591 77.7377 40.0637C77.7703 40.0683 77.8006 40.0707 77.8262 40.0707V39.9618C77.7191 39.9594 77.6329 39.9479 77.5584 39.9247C77.4792 39.9015 77.4117 39.8737 77.3582 39.8413C77.2953 39.8042 77.2464 39.7602 77.2068 39.7069L77.1882 39.6838V39.2922C77.1882 39.1857 77.1719 39.0768 77.1416 38.9702C77.1113 38.8659 77.0554 38.7686 76.9786 38.6783C76.9018 38.5902 76.7877 38.5092 76.6433 38.4327C76.4896 38.3563 76.3546 38.3076 76.2312 38.2798C76.0938 38.2497 75.9797 38.2242 75.8889 38.208C75.8097 38.1941 75.7072 38.1779 75.5815 38.157C75.5745 38.1848 75.5699 38.2126 75.5629 38.2404C75.5629 38.2566 75.5722 38.2682 75.6141 38.2752C75.6979 38.2867 75.7724 38.296 75.8376 38.3076L75.8632 38.3122C75.9331 38.3238 76.0379 38.3447 76.1776 38.3771C76.3266 38.4119 76.4547 38.4512 76.5641 38.4976C76.6875 38.5485 76.7853 38.6088 76.8622 38.6829C76.9437 38.764 76.9996 38.8613 77.0345 38.9725C77.0671 39.0814 77.0834 39.2204 77.0834 39.3895V39.7811H77.1439L77.0042 40.0475C77.0252 40.0428 77.0461 40.0359 77.0624 40.0266C77.109 40.0035 77.1463 39.9664 77.1719 39.9062L77.2254 39.788L77.2208 39.7926ZM75.2415 40.0683H76.8249C76.8529 40.0683 76.8808 40.0683 76.9064 40.066V39.9594H75.2602L75.2415 39.978V40.0707V40.0683Z" fill="white"/>
<path d="M78.513 38.3442C78.513 38.2747 78.548 38.24 78.6178 38.24H78.8181V39.6648C78.86 39.7018 78.9112 39.7389 78.9671 39.7667C79.023 39.7945 79.0952 39.8223 79.1813 39.8432C79.2651 39.864 79.356 39.8756 79.4561 39.8756H79.5143V40.1606H79.4561C79.4142 40.1606 79.3653 40.1606 79.3094 40.1513C79.2535 40.1467 79.1953 40.1351 79.1301 40.1165C79.0649 40.098 79.002 40.0748 78.9368 40.0401C78.8739 40.0053 78.8157 39.959 78.7668 39.9011C78.6551 40.0725 78.4525 40.1606 78.1591 40.1606H77.7795V39.8756H78.017C78.1963 39.8756 78.3244 39.8409 78.3966 39.7713C78.4711 39.7018 78.506 39.5883 78.506 39.4354V38.3489L78.513 38.3442ZM78.1591 37.5542C78.1591 37.4963 78.18 37.4453 78.2196 37.4059C78.2592 37.3666 78.3104 37.3457 78.3687 37.3457C78.4269 37.3457 78.4781 37.3666 78.5177 37.4059C78.5573 37.4453 78.5782 37.4963 78.5782 37.5542C78.5782 37.6121 78.5573 37.6631 78.5177 37.7025C78.4781 37.7419 78.4269 37.7627 78.3687 37.7627C78.3104 37.7627 78.2592 37.7419 78.2196 37.7025C78.18 37.6631 78.1591 37.6121 78.1591 37.5542ZM78.7296 37.5542C78.7296 37.4963 78.7505 37.4453 78.7901 37.4059C78.8297 37.3666 78.8809 37.3457 78.9391 37.3457C78.9974 37.3457 79.0486 37.3666 79.0882 37.4059C79.1278 37.4453 79.1487 37.4963 79.1487 37.5542C79.1487 37.6121 79.1278 37.6631 79.0882 37.7025C79.0486 37.7419 78.9974 37.7627 78.9391 37.7627C78.8809 37.7627 78.8297 37.7419 78.7901 37.7025C78.7505 37.6631 78.7296 37.6121 78.7296 37.5542Z" fill="white"/>
<path d="M78.1638 40.2465H77.6958V39.7877H78.0195C78.1731 39.7877 78.2826 39.7599 78.3408 39.7067C78.3967 39.6557 78.4246 39.563 78.4246 39.4333L78.4293 38.305C78.4456 38.21 78.5154 38.1521 78.6202 38.1521H78.909V39.6233C78.9416 39.6487 78.9765 39.6719 79.0114 39.6904C79.0626 39.7159 79.1278 39.7391 79.2047 39.7576C79.2838 39.7762 79.3677 39.7877 79.4585 39.7877H79.6052V40.2465H79.4585C79.4142 40.2465 79.3607 40.2465 79.3025 40.2372C79.2513 40.2326 79.193 40.2233 79.1115 40.2024C79.0394 40.1839 78.9718 40.1561 78.8996 40.119C78.8554 40.0959 78.8158 40.0681 78.7786 40.0356C78.6435 40.177 78.4386 40.2488 78.1662 40.2488L78.1638 40.2465ZM77.8704 40.0727H78.1638C78.4246 40.0727 78.6039 39.9986 78.6971 39.8549L78.7623 39.7553L78.8391 39.848C78.881 39.8966 78.9276 39.936 78.9811 39.9661C79.0394 39.9963 79.0976 40.0194 79.1534 40.0333C79.2256 40.0519 79.2745 40.0611 79.3188 40.0634C79.3607 40.0681 79.3979 40.0704 79.4305 40.0704V39.9592C79.3351 39.9592 79.2466 39.9453 79.1628 39.9244C79.072 39.9013 78.9928 39.8735 78.9299 39.841C78.8694 39.8086 78.8112 39.7715 78.7623 39.7252L78.7343 39.6997V38.3236H78.6202V38.3606L78.5993 38.3815V39.4333C78.5993 39.614 78.5527 39.7484 78.4619 39.8341C78.3711 39.9198 78.222 39.9638 78.0218 39.9638H77.8728V40.075L77.8704 40.0727ZM78.9416 37.8533C78.8601 37.8533 78.7879 37.8231 78.7297 37.7675C78.6947 37.7328 78.6691 37.6911 78.6551 37.6471C78.6412 37.6934 78.6156 37.7328 78.5806 37.7675C78.4665 37.8811 78.2709 37.8811 78.1568 37.7675C78.101 37.7119 78.0707 37.6378 78.0707 37.5567C78.0707 37.4756 78.101 37.4015 78.1568 37.3459C78.2709 37.2324 78.4665 37.2324 78.5806 37.3459C78.6156 37.3806 78.6412 37.42 78.6551 37.4664C78.6691 37.4223 78.6947 37.3806 78.7297 37.3459C78.8438 37.2324 79.0394 37.2324 79.1534 37.3459C79.2093 37.4015 79.2396 37.4756 79.2396 37.5567C79.2396 37.6378 79.2093 37.7119 79.1534 37.7675C79.0976 37.8231 79.0231 37.8533 78.9416 37.8533ZM78.9416 37.4316C78.9066 37.4316 78.8764 37.4432 78.8531 37.4664C78.8298 37.4895 78.8181 37.5196 78.8181 37.5544C78.8181 37.5891 78.8298 37.6193 78.8531 37.6424C78.902 37.6911 78.9811 37.6911 79.03 37.6424C79.0533 37.6193 79.065 37.5891 79.065 37.5544C79.065 37.5196 79.0533 37.4895 79.03 37.4664C79.0068 37.4432 78.9765 37.4316 78.9416 37.4316ZM78.3711 37.4316C78.3361 37.4316 78.3059 37.4432 78.2826 37.4664C78.2593 37.4895 78.2477 37.5196 78.2477 37.5544C78.2477 37.5891 78.2593 37.6193 78.2826 37.6424C78.3315 37.6911 78.4107 37.6911 78.4596 37.6424C78.4828 37.6193 78.4945 37.5891 78.4945 37.5544C78.4945 37.5196 78.4828 37.4895 78.4596 37.4664C78.4363 37.4432 78.406 37.4316 78.3711 37.4316Z" fill="white"/>
<path d="M80.1803 36.9613H80.3759V39.658C80.4131 39.6997 80.462 39.7368 80.5226 39.7646C80.5831 39.7924 80.6506 39.8202 80.7345 39.841C80.8183 39.8619 80.9161 39.8735 81.0325 39.8735H81.0698V40.1584H81.0325C80.9906 40.1584 80.937 40.1538 80.8718 40.1468C80.8066 40.1399 80.7414 40.126 80.6716 40.1075C80.6017 40.0889 80.5365 40.0611 80.4713 40.0264C80.4061 39.9916 80.3479 39.9453 80.299 39.8827C80.2455 39.9661 80.1733 40.0333 80.0801 40.082C79.9893 40.1306 79.8636 40.1561 79.7099 40.1561H79.3513V39.8711H79.5772C79.7728 39.8711 79.9008 39.8271 79.9684 39.7437C80.0359 39.658 80.0708 39.5445 80.0708 39.3985V37.0632C80.0708 36.9937 80.1058 36.959 80.1803 36.959V36.9636V36.9613Z" fill="white"/>
<path d="M81.1582 40.2443H81.0325C80.9882 40.2443 80.9324 40.2397 80.8625 40.2327C80.7833 40.2258 80.7065 40.2049 80.6483 40.191C80.5738 40.1702 80.5016 40.1424 80.4271 40.1007C80.3828 40.0752 80.3409 40.0474 80.306 40.0149C80.2548 40.0729 80.1919 40.1215 80.122 40.1586C80.0196 40.2142 79.8799 40.242 79.7122 40.242H79.2651V39.7833H79.5795C79.7402 39.7833 79.8519 39.7508 79.9031 39.6883C79.959 39.6188 79.9846 39.5238 79.9846 39.3987V37.0634C79.9846 36.9452 80.0592 36.8711 80.1826 36.8711L80.4667 36.8757V39.6234C80.4946 39.6489 80.5272 39.6697 80.5644 39.6883C80.618 39.7161 80.6832 39.7392 80.7577 39.7578C80.8322 39.7763 80.9254 39.7856 81.0348 39.7856H81.1605V40.2443H81.1582ZM80.2897 39.7323L80.3665 39.8296C80.4061 39.8806 80.4527 39.9199 80.5109 39.9501C80.5714 39.9848 80.632 40.008 80.6925 40.0242C80.7694 40.0451 80.8252 40.0566 80.8788 40.0613C80.9184 40.0659 80.951 40.0682 80.9813 40.0705V39.9616C80.8788 39.9593 80.788 39.9477 80.7111 39.9269C80.6227 39.9037 80.5482 39.8782 80.483 39.8435C80.4154 39.8087 80.3572 39.767 80.3106 39.7161L80.2874 39.6906V37.0472H80.1546V39.3964C80.1546 39.5585 80.115 39.6929 80.0359 39.7948C79.9497 39.9014 79.7937 39.957 79.5748 39.957H79.4351V40.0682H79.7076C79.8449 40.0682 79.959 40.0474 80.0359 40.0057C80.115 39.964 80.1756 39.9084 80.2198 39.8365L80.285 39.7323H80.2897Z" fill="white"/>
<path d="M82.1223 39.1069C82.1223 39.2714 82.1083 39.4173 82.078 39.5494C82.0478 39.6791 81.9965 39.7903 81.922 39.8783C81.8475 39.9664 81.7474 40.0382 81.617 40.0869C81.4866 40.1355 81.3282 40.161 81.1326 40.161H80.9277V39.876H81.128C81.3655 39.876 81.5378 39.8251 81.6473 39.7231C81.759 39.6212 81.8149 39.4752 81.8149 39.2806V37.0681C81.8149 36.9986 81.8498 36.9639 81.9197 36.9639H82.1199V39.1092L82.1223 39.1069Z" fill="white"/>
<path d="M81.1327 40.2444H80.8394V39.7857H81.1281C81.3423 39.7857 81.496 39.7417 81.5891 39.656C81.6823 39.5702 81.7288 39.4474 81.7288 39.2783V37.0658C81.7288 36.95 81.8057 36.8735 81.9221 36.8735H82.2108V39.1069C82.2108 39.276 82.1945 39.4312 82.1643 39.5679C82.1317 39.7092 82.0735 39.832 81.9896 39.9317C81.9035 40.0336 81.7894 40.1124 81.6497 40.1656C81.51 40.2189 81.3353 40.2444 81.1351 40.2444H81.1327ZM81.014 40.0707H81.1327C81.312 40.0707 81.4657 40.0475 81.5868 40.0035C81.6986 39.9618 81.7894 39.8992 81.8546 39.8204C81.9198 39.7417 81.9664 39.6444 81.992 39.5285C82.0199 39.4057 82.0339 39.2621 82.0339 39.1069V37.0473H81.9198L81.9012 37.0658V39.2783C81.9012 39.4961 81.836 39.6675 81.7056 39.7834C81.5798 39.9015 81.3889 39.9595 81.1258 39.9595H81.0117V40.0707H81.014Z" fill="white"/>
<path d="M110.619 50.4776C110.6 50.5124 110.579 50.517 110.558 50.4915L110.47 50.3896L110.733 49.9077L110.153 49.2382L109.634 49.4235L109.538 49.3146C109.522 49.2938 109.529 49.2776 109.568 49.2613L111.408 48.5918C111.487 48.564 111.538 48.5686 111.571 48.6034C111.604 48.6381 111.599 48.6937 111.559 48.7655L110.621 50.4776H110.619ZM110.821 49.7502L111.361 48.7794L110.318 49.1687L110.819 49.7502H110.821Z" fill="white"/>
<path d="M110.127 51.1308L110.449 50.5446L110.328 50.4033L110.591 49.9214L110.116 49.3723L109.596 49.5577L109.45 49.3886C109.405 49.333 109.41 49.2843 109.417 49.2588C109.431 49.2102 109.466 49.1754 109.524 49.1522L111.366 48.4827C111.524 48.4271 111.611 48.4758 111.657 48.5267C111.694 48.5684 111.746 48.6657 111.657 48.8209L110.721 50.5284C110.702 50.5655 110.679 50.5863 110.656 50.6002L110.127 51.1261V51.1308ZM110.516 49.2217L110.8 49.5507L111.105 48.9993L110.514 49.2194L110.516 49.2217Z" fill="white"/>
<path d="M113.283 50.3409L113.206 50.422C113.178 50.4522 113.15 50.4522 113.122 50.4267L112.714 50.0583L111.506 51.3835L111.38 51.2676L112.589 49.9425L112.142 49.5393L112.218 49.4583C112.244 49.4281 112.274 49.4281 112.302 49.4536L113.283 50.3409Z" fill="white"/>
<path d="M111.51 51.5481L111.212 51.277L112.421 49.9518L111.972 49.5464L112.128 49.3796C112.193 49.3054 112.293 49.2985 112.372 49.3657L113.322 50.2252H113.543L113.289 50.5009C113.22 50.575 113.122 50.5796 113.045 50.5148L112.721 50.2229L111.51 51.5481Z" fill="white"/>
<path d="M114.999 51.4553L114.018 53.0886C113.997 53.1234 113.972 53.128 113.937 53.1095L113.839 53.0515L114.328 52.2384L113.478 51.7333L113.019 52.4978C112.998 52.5326 112.973 52.5372 112.938 52.5187L112.84 52.4608L113.82 50.8275C113.841 50.7927 113.867 50.7881 113.902 50.8066L114 50.8645L113.567 51.5874L114.416 52.0924L114.819 51.4182C114.84 51.3835 114.866 51.3788 114.901 51.3974L114.999 51.4553Z" fill="white"/>
<path d="M113.972 53.237C113.941 53.237 113.911 53.2278 113.881 53.2115L113.681 53.0957L114.17 52.2802L113.52 51.8933L113.122 52.5582C113.068 52.6463 112.973 52.6694 112.884 52.6208L112.684 52.5049L113.725 50.7697C113.781 50.6816 113.874 50.6585 113.962 50.7071L114.163 50.823L113.73 51.5481L114.379 51.935L114.724 51.3605C114.78 51.2724 114.873 51.2469 114.961 51.2979L115.162 51.4137L114.121 53.149C114.084 53.2069 114.032 53.237 113.974 53.237H113.972Z" fill="white"/>
<path d="M115.767 51.9329L115.609 52.5955L116.307 52.76L116.282 52.8689C116.272 52.906 116.247 52.9222 116.209 52.9129L115.571 52.7623L115.394 53.5106L116.386 53.7446L116.361 53.8535C116.351 53.8906 116.326 53.9068 116.289 53.8975L115.343 53.6751C115.241 53.6496 115.199 53.5871 115.224 53.4851L115.609 51.875C115.632 51.7777 115.695 51.7406 115.8 51.7661L116.801 52.0047L116.775 52.1136C116.766 52.1507 116.74 52.1669 116.703 52.1576L115.772 51.9375H115.767V51.9329Z" fill="white"/>
<path d="M116.307 54.0154C116.293 54.0154 116.279 54.0155 116.263 54.0108L115.315 53.7884C115.231 53.7676 115.171 53.7282 115.133 53.6679C115.099 53.61 115.089 53.5382 115.11 53.4594L115.494 51.8493C115.513 51.7705 115.553 51.7126 115.611 51.6778C115.671 51.6408 115.744 51.6338 115.827 51.6547L116.94 51.9188L116.889 52.1412C116.866 52.2408 116.782 52.2941 116.68 52.2732L115.855 52.0786L115.751 52.5142L116.447 52.6787L116.396 52.9011C116.372 53.0007 116.286 53.0563 116.186 53.0331L115.66 52.908L115.536 53.4316L116.528 53.6656L116.477 53.888C116.463 53.9506 116.428 53.983 116.4 54.0015C116.382 54.0131 116.351 54.0247 116.312 54.0247L116.307 54.0154Z" fill="white"/>
<path d="M117.634 52.1736L117.744 52.8454L118.449 52.7296L118.468 52.8408C118.475 52.8779 118.456 52.901 118.419 52.908L117.769 53.0122L117.895 53.7721L118.899 53.6077L118.917 53.7189C118.924 53.7559 118.906 53.7791 118.868 53.786L117.911 53.9436C117.807 53.9598 117.744 53.9181 117.728 53.8162L117.457 52.1828C117.441 52.0832 117.485 52.0253 117.59 52.0091L118.608 51.8423L118.626 51.9535C118.633 51.9906 118.615 52.0137 118.577 52.0207L117.63 52.1759L117.634 52.1736Z" fill="white"/>
<path d="M117.872 54.064C117.735 54.064 117.637 53.9806 117.613 53.8347L117.364 52.3357L117.32 52.3427L117.357 52.301L117.341 52.199C117.325 52.1017 117.353 52.0345 117.381 51.9975C117.42 51.9419 117.485 51.9048 117.572 51.8909L118.703 51.7056L118.743 51.9303C118.752 51.9928 118.733 52.0369 118.715 52.0623C118.696 52.0878 118.661 52.1203 118.598 52.1319L117.767 52.2685L117.839 52.7087L118.545 52.5929L118.584 52.8176C118.601 52.9195 118.543 53.0006 118.44 53.0192L117.905 53.1049L117.991 53.6354L118.994 53.4709L119.034 53.6957C119.046 53.7582 119.025 53.8022 119.006 53.8277C118.987 53.8532 118.952 53.8856 118.889 53.8949L117.932 54.0524C117.912 54.0548 117.891 54.0571 117.872 54.0571V54.064Z" fill="white"/>
<path d="M121.488 52.5187C121.502 52.5257 121.511 52.5349 121.514 52.5465C121.514 52.5581 121.507 52.5697 121.49 52.579L121.365 52.6531L120.443 52.2361L119.979 52.5048L120.396 53.2161L120.247 53.3018L119.309 51.7009C119.344 51.6523 119.381 51.6036 119.427 51.5526C119.474 51.5017 119.525 51.453 119.581 51.4044C119.639 51.3534 119.7 51.3094 119.767 51.2723C119.97 51.1542 120.147 51.1101 120.303 51.1379C120.457 51.1657 120.585 51.2677 120.687 51.4438C120.75 51.5526 120.78 51.6615 120.773 51.775C120.766 51.8886 120.71 52.0044 120.599 52.1249L121.488 52.5234V52.5187ZM120.368 52.0785C120.412 52.0531 120.452 52.0206 120.491 51.9812C120.526 51.9442 120.557 51.9002 120.575 51.8492C120.594 51.7982 120.601 51.7472 120.594 51.687C120.587 51.6268 120.561 51.5642 120.519 51.4924C120.475 51.4159 120.426 51.365 120.375 51.3372C120.324 51.3094 120.27 51.2978 120.21 51.2978C120.149 51.2978 120.086 51.3117 120.016 51.3349C119.949 51.358 119.884 51.3928 119.821 51.4345C119.758 51.4762 119.709 51.5156 119.672 51.5457C119.637 51.5781 119.586 51.6337 119.52 51.7171L119.893 52.3519L120.368 52.0762V52.0785Z" fill="white"/>
<path d="M120.207 53.4594L119.174 51.6941L119.216 51.6338C119.253 51.5805 119.292 51.5296 119.344 51.474C119.392 51.4207 119.446 51.3697 119.507 51.3164C119.572 51.2585 119.639 51.2098 119.714 51.1705C119.937 51.0407 120.145 50.9898 120.326 51.0222C120.512 51.0546 120.668 51.1774 120.792 51.3813C120.869 51.511 120.901 51.6454 120.894 51.7798C120.89 51.8794 120.852 51.979 120.787 52.0786L121.537 52.4122C121.567 52.4261 121.593 52.447 121.609 52.4725L122.021 52.8825L121.553 52.674C121.553 52.674 121.546 52.6787 121.544 52.6787L121.374 52.7783L120.452 52.3613L120.142 52.542L120.559 53.2532L120.21 53.4571L120.207 53.4594ZM119.66 51.7288L119.933 52.1945L120.343 51.9558C120.363 51.9396 120.384 51.9234 120.403 51.9026C120.431 51.8748 120.45 51.8423 120.461 51.8099C120.475 51.7751 120.478 51.7404 120.473 51.701C120.468 51.6616 120.45 51.613 120.415 51.5504C120.37 51.4763 120.336 51.4485 120.317 51.4392C120.252 51.4045 120.184 51.4021 120.051 51.4462C119.998 51.4647 119.94 51.4925 119.884 51.5319C119.826 51.5713 119.779 51.606 119.744 51.6361C119.73 51.65 119.702 51.6755 119.658 51.7311L119.66 51.7288Z" fill="white"/>
<path d="M121.39 50.473L122.543 51.6499C122.571 51.6777 122.571 51.7078 122.543 51.7333L122.461 51.8121L121.195 50.5194C121.16 50.4846 121.139 50.4475 121.136 50.4128C121.134 50.378 121.148 50.3456 121.181 50.3132C121.213 50.2807 121.265 50.2715 121.332 50.283L123.221 50.7116L122.068 49.5347C122.04 49.5069 122.04 49.4768 122.068 49.4513L122.149 49.3726L123.416 50.6653C123.451 50.7001 123.472 50.7371 123.474 50.7719C123.477 50.8066 123.463 50.8391 123.43 50.8715C123.397 50.9039 123.346 50.9132 123.279 50.9016L121.39 50.473Z" fill="white"/>
<path d="M122.461 51.9767L121.113 50.6005C121.057 50.5449 121.027 50.4847 121.022 50.4198C121.02 50.3758 121.029 50.3341 121.053 50.2947L121.032 50.2738L121.06 50.2808C121.071 50.2646 121.083 50.2484 121.099 50.2321C121.157 50.1742 121.248 50.1511 121.355 50.1719L122.864 50.5148L121.986 49.6182C121.914 49.5464 121.914 49.4444 121.986 49.3703L122.152 49.2104L123.5 50.5866C123.556 50.6422 123.586 50.7024 123.591 50.7673C123.593 50.8113 123.584 50.853 123.56 50.8924L123.581 50.9133L123.553 50.9063C123.542 50.9225 123.53 50.9387 123.514 50.955C123.453 51.0152 123.362 51.0361 123.258 51.0175L121.749 50.6746L122.627 51.5712C122.671 51.6152 122.68 51.6616 122.68 51.694C122.68 51.7264 122.671 51.7728 122.624 51.8191L122.459 51.979L122.461 51.9767Z" fill="white"/>
<path d="M125.113 48.724C125.151 48.7356 125.16 48.7565 125.141 48.782L125.06 48.8885L124.531 48.7333L123.991 49.4353L124.28 49.9033L124.191 50.0168C124.175 50.0376 124.156 50.033 124.133 50.0006L123.095 48.3487C123.053 48.2792 123.043 48.2236 123.074 48.1866C123.104 48.1495 123.155 48.1425 123.237 48.1657L125.113 48.7264V48.724ZM124.357 48.6754L123.29 48.3511L123.889 49.2847L124.357 48.6777V48.6754Z" fill="white"/>
<path d="M124.17 50.144C124.17 50.144 124.166 50.144 124.164 50.144C124.129 50.144 124.077 50.1255 124.038 50.0606L122.999 48.4087C122.911 48.2628 122.943 48.1678 122.985 48.1145C123.027 48.0612 123.111 48.0056 123.272 48.052L125.91 48.8397H125.242C125.242 48.8397 125.237 48.8466 125.235 48.8489L125.102 49.0204L124.573 48.8652L124.131 49.442L124.422 49.91L124.282 50.0861C124.252 50.1232 124.212 50.144 124.168 50.144H124.17ZM123.56 48.5547L123.9 49.0852L124.166 48.74L123.56 48.557V48.5547Z" fill="white"/>
<path d="M14.9422 19.2846V26.3669C14.9422 27.8543 14.4812 28.9733 13.5614 29.7309C12.6417 30.4861 11.3936 30.8638 9.82181 30.8638H7.9427C6.15672 30.8638 4.85042 30.4861 4.0238 29.7309C3.19717 28.9756 2.7827 27.8682 2.7827 26.4086V9.61447C2.7827 9.08393 2.51725 8.81982 1.98402 8.81982H0.46582V25.095C0.46582 26.316 0.579918 27.4164 0.805784 28.3964C1.03165 29.3787 1.42517 30.2081 1.98634 30.8823C2.54752 31.5588 3.30661 32.0824 4.26596 32.4531C5.06232 32.7612 6.04263 32.9349 7.18593 32.9882V33.0114H9.98481C14.8374 33.0114 17.2638 30.9958 17.2638 26.9623V18.4876H15.7432C15.21 18.4876 14.9446 18.7518 14.9446 19.2823L14.9422 19.2846Z" fill="white"/>
<path d="M9.98248 33.4747H6.71789V33.4238C5.69567 33.345 4.81549 33.1643 4.09598 32.8863C3.06677 32.4901 2.23549 31.9155 1.62775 31.1765C1.02466 30.449 0.596214 29.5478 0.354048 28.5006C0.121196 27.4882 0.00244141 26.3414 0.00244141 25.095V8.35645H1.98401C2.77571 8.35645 3.2484 8.82675 3.2484 9.61444V26.4063C3.2484 27.7245 3.6163 28.7277 4.33815 29.388C5.07396 30.0598 6.28479 30.4004 7.94269 30.4004H9.82181C11.2771 30.4004 12.4344 30.0552 13.2657 29.3717C14.0807 28.6999 14.4765 27.7176 14.4765 26.3646V19.28C14.4765 18.4923 14.9492 18.022 15.7409 18.022H17.7271V26.96C17.7271 31.2808 15.1215 33.4724 9.98248 33.4724V33.4747ZM7.6493 32.548H9.98248C14.5673 32.548 16.7957 30.7201 16.7957 26.9623V18.951H15.7409C15.4661 18.951 15.4079 19.0089 15.4079 19.2823V26.3669C15.4079 27.9886 14.8863 29.2397 13.8595 30.0876C12.8582 30.9101 11.4983 31.3271 9.82181 31.3271H7.94269C6.04495 31.3271 4.6199 30.9054 3.70712 30.0714C2.78269 29.2281 2.31466 27.9956 2.31466 26.4063V9.61444C2.31466 9.34107 2.25645 9.28315 1.98168 9.28315H0.931521V25.095C0.931521 26.2719 1.04096 27.3492 1.25984 28.2945C1.46941 29.2003 1.83266 29.9741 2.34493 30.5904C2.85255 31.2043 3.55343 31.6862 4.43361 32.0244C5.16244 32.3071 6.09618 32.4762 7.20688 32.5272L7.65163 32.5503L7.6493 32.548Z" fill="white"/>
<path d="M15.8619 12.0425C15.4102 12.0425 15.0283 12.1954 14.7233 12.5012C14.4182 12.807 14.2622 13.1846 14.2622 13.6341C14.2622 14.0835 14.4159 14.4635 14.7233 14.767C15.0306 15.0705 15.4102 15.2257 15.8619 15.2257C16.3136 15.2257 16.6955 15.0728 17.0005 14.767C17.3056 14.4612 17.4616 14.0835 17.4616 13.6341C17.4616 13.1846 17.3079 12.8047 17.0005 12.5012C16.6932 12.1977 16.3136 12.0425 15.8619 12.0425Z" fill="white"/>
<path d="M15.8618 15.6913C15.2843 15.6913 14.7883 15.4921 14.3925 15.0983C13.9966 14.7044 13.7964 14.2133 13.7964 13.6364C13.7964 13.0595 13.9966 12.5684 14.3925 12.1745C14.7883 11.7807 15.282 11.5791 15.8618 11.5791C16.4416 11.5791 16.9352 11.7783 17.3311 12.1745C17.7269 12.5684 17.9272 13.0595 17.9272 13.6364C17.9272 14.2133 17.7269 14.7044 17.3311 15.0983C16.9352 15.4921 16.4416 15.6913 15.8618 15.6913ZM15.8618 12.5058C15.5358 12.5058 15.2703 12.6124 15.0515 12.8278C14.8326 13.0456 14.7278 13.3097 14.7278 13.6341C14.7278 13.9584 14.8349 14.2225 15.0515 14.4403C15.268 14.6581 15.5358 14.7623 15.8618 14.7623C16.1878 14.7623 16.4532 14.6558 16.6721 14.4403C16.891 14.2248 16.9958 13.9584 16.9958 13.6341C16.9958 13.3097 16.8887 13.0456 16.6721 12.8278C16.4532 12.6101 16.1878 12.5058 15.8618 12.5058Z" fill="white"/>
<path d="M36.8184 35.7588C36.3667 35.7588 35.9848 35.9094 35.6798 36.2175C35.3724 36.5233 35.2188 36.9009 35.2188 37.3504C35.2188 37.7999 35.3701 38.1798 35.6798 38.4833C35.9872 38.7891 36.3667 38.9397 36.8184 38.9397C37.2702 38.9397 37.6521 38.7868 37.9571 38.4833C38.2645 38.1775 38.4181 37.7999 38.4181 37.3504C38.4181 36.9009 38.2645 36.521 37.9571 36.2175C37.6497 35.914 37.2702 35.7588 36.8184 35.7588Z" fill="white"/>
<path d="M36.8185 39.4033C36.2387 39.4033 35.745 39.204 35.3492 38.8102C34.9533 38.4186 34.7507 37.9275 34.7507 37.3483C34.7507 36.7691 34.951 36.2803 35.3492 35.8864C35.7427 35.4926 36.2363 35.291 36.8185 35.291C37.4006 35.291 37.8919 35.4903 38.2878 35.8864C38.6836 36.2803 38.8839 36.7714 38.8839 37.3483C38.8839 37.9252 38.6836 38.4163 38.2854 38.8102C37.8872 39.204 37.3936 39.4033 36.8161 39.4033H36.8185ZM36.8185 36.22C36.4901 36.22 36.2247 36.3243 36.0105 36.5421C35.7916 36.7598 35.6845 37.024 35.6845 37.3483C35.6845 37.6726 35.7893 37.9391 36.0081 38.1522C36.227 38.37 36.4901 38.4742 36.8185 38.4742C37.1468 38.4742 37.4099 38.37 37.6288 38.1522C37.8453 37.9367 37.9524 37.6726 37.9524 37.3483C37.9524 37.024 37.8453 36.7598 37.6288 36.5421C37.4122 36.3243 37.1444 36.22 36.8185 36.22Z" fill="white"/>
<path d="M41.138 35.7588C40.684 35.7588 40.3044 35.9094 39.9994 36.2175C39.692 36.5233 39.5383 36.9009 39.5383 37.3504C39.5383 37.7999 39.6897 38.1798 39.9994 38.4833C40.3067 38.7891 40.6863 38.9397 41.138 38.9397C41.5898 38.9397 41.9716 38.7868 42.2767 38.4833C42.584 38.1775 42.7377 37.7999 42.7377 37.3504C42.7377 36.9009 42.584 36.521 42.2767 36.2175C41.9693 35.914 41.5898 35.7588 41.138 35.7588Z" fill="white"/>
<path d="M41.1379 39.4033C40.5581 39.4033 40.0645 39.204 39.6686 38.8102C39.2728 38.4186 39.0725 37.9275 39.0725 37.3483C39.0725 36.7691 39.2728 36.2803 39.6686 35.8864C40.0621 35.4926 40.5558 35.291 41.1379 35.291C41.72 35.291 42.2114 35.4903 42.6072 35.8864C43.003 36.2803 43.2033 36.7714 43.2033 37.3483C43.2033 37.9252 43.0031 38.4163 42.6049 38.8102C42.2067 39.204 41.7131 39.4033 41.1356 39.4033H41.1379ZM41.1379 36.22C40.8049 36.22 40.5488 36.322 40.3299 36.5421C40.111 36.7598 40.0039 37.024 40.0039 37.3483C40.0039 37.6726 40.1087 37.9391 40.3276 38.1522C40.5465 38.37 40.8096 38.4742 41.1379 38.4742C41.4662 38.4742 41.7293 38.37 41.9482 38.1522C42.1648 37.9367 42.2719 37.6726 42.2719 37.3483C42.2719 37.024 42.1648 36.7598 41.9482 36.5421C41.7293 36.3243 41.4639 36.22 41.1379 36.22Z" fill="white"/>
<path d="M80.171 11.526C80.6227 11.526 81.0046 11.3754 81.3096 11.0673C81.617 10.7615 81.7707 10.3838 81.7707 9.93439C81.7707 9.48493 81.617 9.10499 81.3096 8.80149C81.0023 8.49568 80.6227 8.34277 80.171 8.34277C79.7192 8.34277 79.3374 8.49568 79.0323 8.80149C78.7273 9.1073 78.5713 9.48493 78.5713 9.93439C78.5713 10.3838 78.7226 10.7638 79.0323 11.0673C79.3397 11.3731 79.7192 11.526 80.171 11.526Z" fill="white"/>
<path d="M80.171 11.9893C79.5935 11.9893 79.0975 11.7901 78.7017 11.3962C78.3058 11.0047 78.1033 10.5135 78.1033 9.93436C78.1033 9.35517 78.3035 8.86633 78.7017 8.47248C79.0999 8.07864 79.5912 7.87939 80.171 7.87939C80.7508 7.87939 81.2444 8.07864 81.6403 8.47248C82.0361 8.86633 82.2387 9.35749 82.2387 9.93436C82.2387 10.5112 82.0385 11.0024 81.6403 11.3962C81.2468 11.7901 80.7531 11.9893 80.171 11.9893ZM80.171 8.80378C79.845 8.80378 79.5796 8.91035 79.3607 9.12581C79.1418 9.34359 79.037 9.6077 79.037 9.93204C79.037 10.2564 79.1418 10.5228 79.3607 10.7383C79.5796 10.956 79.845 11.0626 80.171 11.0626C80.497 11.0626 80.7648 10.9584 80.979 10.7406C81.1979 10.5228 81.305 10.2587 81.305 9.93436C81.305 9.61001 81.1979 9.3459 80.9813 9.12813C80.7624 8.91035 80.497 8.8061 80.171 8.8061V8.80378Z" fill="white"/>
<path d="M78.0123 15.2653C78.464 15.2653 78.8459 15.1147 79.1509 14.8065C79.4583 14.5007 79.612 14.1254 79.612 13.6736C79.612 13.2219 79.4583 12.8442 79.1509 12.5407C78.8436 12.2349 78.464 12.082 78.0123 12.082C77.5606 12.082 77.1787 12.2349 76.8736 12.5407C76.5686 12.8466 76.4126 13.2242 76.4126 13.6736C76.4126 14.1231 76.564 14.503 76.8736 14.8065C77.181 15.1123 77.5606 15.2653 78.0123 15.2653Z" fill="white"/>
<path d="M78.0123 15.7286C77.4348 15.7286 76.9389 15.5293 76.543 15.1355C76.1472 14.744 75.9446 14.2528 75.9446 13.6736C75.9446 13.0944 76.1448 12.6056 76.543 12.2117C76.9412 11.8179 77.4325 11.6187 78.0123 11.6187C78.5921 11.6187 79.0858 11.8179 79.4816 12.2117C79.8775 12.6056 80.08 13.0967 80.08 13.6736C80.08 14.2505 79.8798 14.7416 79.4816 15.1355C79.0881 15.5293 78.5944 15.7286 78.0123 15.7286ZM78.0123 12.543C77.6863 12.543 77.4209 12.6496 77.202 12.8651C76.9831 13.0828 76.8783 13.347 76.8783 13.6713C76.8783 13.9956 76.9831 14.2621 77.202 14.4775C77.4209 14.6953 77.6863 14.8019 78.0123 14.8019C78.3383 14.8019 78.6061 14.6976 78.8203 14.4798C79.0438 14.2574 79.1463 14.0026 79.1463 13.6736C79.1463 13.3446 79.0438 13.0875 78.8226 12.8674C78.6014 12.6473 78.3383 12.5454 78.0123 12.5454V12.543Z" fill="white"/>
<path d="M82.3319 12.082C81.8778 12.082 81.4983 12.2349 81.1932 12.5407C80.8882 12.8466 80.7322 13.2242 80.7322 13.6736C80.7322 14.1231 80.8859 14.503 81.1932 14.8065C81.5006 15.1123 81.8801 15.2653 82.3319 15.2653C82.7836 15.2653 83.1655 15.1147 83.4705 14.8065C83.7779 14.5007 83.9316 14.1254 83.9316 13.6736C83.9316 13.2219 83.7779 12.8442 83.4705 12.5407C83.1632 12.2349 82.7836 12.082 82.3319 12.082Z" fill="white"/>
<path d="M82.3318 15.7308C81.7543 15.7308 81.2583 15.5315 80.8625 15.1354C80.4666 14.7415 80.2664 14.2504 80.2664 13.6735C80.2664 13.0966 80.4666 12.6055 80.8625 12.2116C81.2583 11.8178 81.752 11.6162 82.3318 11.6162C82.9116 11.6162 83.4052 11.8155 83.8011 12.2116C84.1969 12.6055 84.3995 13.0966 84.3995 13.6735C84.3995 14.2504 84.1992 14.7415 83.8011 15.1354C83.4075 15.5292 82.9139 15.7285 82.3318 15.7285V15.7308ZM82.3318 12.5452C82.0011 12.5452 81.7426 12.6472 81.5214 12.8673C81.3026 13.085 81.1978 13.3491 81.1978 13.6735C81.1978 13.9978 81.3049 14.2619 81.5214 14.4797C81.7403 14.6975 82.0058 14.8018 82.3318 14.8018C82.6577 14.8018 82.9255 14.6975 83.1398 14.4797C83.3633 14.2573 83.4657 14.0025 83.4657 13.6735C83.4657 13.3445 83.3633 13.0874 83.1421 12.8673C82.9232 12.6495 82.6577 12.5452 82.3318 12.5452Z" fill="white"/>
<path d="M79.3722 19.2843V26.3666C79.3722 27.8539 78.9112 28.9729 77.9914 29.7305C77.0717 30.4858 75.8236 30.8634 74.2518 30.8634H45.0592C44.3141 30.8634 43.6202 30.7823 42.9798 30.6225C42.3395 30.4626 41.7993 30.2703 41.3615 30.0456C40.9237 29.8209 40.5419 29.5614 40.2228 29.2695V18.485H38.7023C38.1691 18.485 37.9036 18.7491 37.9036 19.2796V27.5157C37.9036 28.6833 37.6242 29.5313 37.0654 30.0618C36.5042 30.5923 35.5448 30.8565 34.185 30.8565H33.1861C32.4409 30.8565 31.7796 30.7823 31.2068 30.6387C30.634 30.4927 30.1473 30.3329 29.7492 30.1614C29.351 29.99 29.0227 29.8093 28.7689 29.6239C28.515 29.4386 28.3474 29.3065 28.2706 29.2255V18.4803H26.75C26.2168 18.4803 25.9513 18.7329 25.9513 19.2356V36.5835C25.9513 37.8554 25.7721 38.7056 25.4111 39.1296C25.0525 39.5536 24.2725 39.7667 23.071 39.7667C22.6449 39.7667 22.1372 39.681 21.5504 39.5072C20.966 39.3358 20.484 39.169 20.1114 39.0091L19.7924 40.1235C19.6341 40.7861 19.8856 41.2239 20.5538 41.4371C21.6995 41.8101 22.7403 41.9954 23.6741 41.9954C25.1131 41.9954 26.2401 41.5715 27.0551 40.7212C27.87 39.871 28.2752 38.5342 28.2752 36.7016V31.5283C29.181 32.2187 30.0868 32.6357 30.9949 32.7817C31.5235 32.8651 31.9845 32.9253 32.3944 32.9601V33.0018H35.2747C37.4892 33.0018 39.0213 32.3508 39.8759 31.0511C40.2485 31.5028 40.6746 31.855 41.1543 32.1052C41.6339 32.3577 42.1206 32.55 42.6119 32.6821C43.1056 32.8141 43.5573 32.8998 43.9718 32.9415C44.2232 32.967 44.4538 32.9786 44.6726 32.9902V33.0018H74.4265C79.2791 33.0018 81.7054 30.9862 81.7054 26.9527V18.478H80.1849C79.6517 18.478 79.3862 18.7421 79.3862 19.2727L79.3722 19.2843Z" fill="white"/>
<path d="M23.6648 42.4659C22.6845 42.4659 21.5854 42.2713 20.4002 41.8868C19.5061 41.6018 19.1149 40.9253 19.3314 40.0264L19.8018 38.3861L20.2884 38.5946C20.6424 38.7475 21.1104 38.9074 21.6762 39.0742C22.2165 39.2341 22.6822 39.3152 23.064 39.3152C24.4425 39.3152 24.8989 39.0186 25.0479 38.8425C25.2086 38.6526 25.4787 38.1081 25.4787 36.593V19.2428C25.4787 18.4806 25.9514 18.0242 26.7431 18.0242H28.7293V29.0218C28.7969 29.0751 28.8947 29.1515 29.0367 29.2558C29.2602 29.418 29.5606 29.5825 29.9285 29.74C30.3057 29.9045 30.7738 30.0551 31.3163 30.1941C31.8519 30.3285 32.4783 30.398 33.1791 30.398H34.1781C35.4075 30.398 36.2691 30.1732 36.7371 29.7307C37.1982 29.2929 37.431 28.5492 37.431 27.5182V19.2822C37.431 18.4945 37.9037 18.0242 38.6954 18.0242H40.6816V29.0612C40.9378 29.272 41.2335 29.4643 41.5688 29.6357C41.974 29.8419 42.4839 30.0226 43.0893 30.1756C43.6901 30.3261 44.3514 30.4003 45.0569 30.4003H74.2496C75.7049 30.4003 76.8622 30.0551 77.6935 29.3716C78.5084 28.6998 78.9043 27.7175 78.9043 26.3645V19.0968L78.9159 19.0829C78.9881 18.4134 79.4468 18.0195 80.171 18.0195H82.1572V26.9576C82.1572 31.2783 79.5516 33.47 74.4126 33.47H44.1954V33.4306C44.1046 33.4236 44.0114 33.4167 43.9136 33.4074C43.4782 33.3657 42.9962 33.2731 42.4792 33.1341C41.953 32.9927 41.4291 32.7865 40.9238 32.5201C40.5536 32.3278 40.2089 32.0776 39.8969 31.7787C38.9143 32.9024 37.3588 33.47 35.2608 33.47H31.9147V33.3819C31.6074 33.3472 31.2744 33.3009 30.9065 33.2429C30.18 33.1271 29.4488 32.8468 28.727 32.4112V36.7042C28.727 38.6502 28.2729 40.1098 27.3788 41.0435C26.4777 41.9841 25.2272 42.4613 23.6625 42.4613L23.6648 42.4659ZM20.4095 39.6372L20.2302 40.2604C20.1324 40.6658 20.2512 40.8674 20.6843 41.0041C21.7787 41.3585 22.78 41.5392 23.6625 41.5392C24.9804 41.5392 25.977 41.1686 26.7059 40.4087C27.43 39.6534 27.7979 38.4093 27.7979 36.7088V30.5972L28.5477 31.1671C29.3883 31.8065 30.2312 32.1981 31.0579 32.3301C31.5771 32.4135 32.0242 32.4691 32.4247 32.5039L32.8508 32.5433H35.2655C37.3286 32.5433 38.707 31.9734 39.4755 30.8034L39.8224 30.2752L40.2252 30.764C40.5559 31.1648 40.9378 31.4799 41.3592 31.7C41.804 31.934 42.2627 32.1147 42.7237 32.2398C43.1894 32.3649 43.6202 32.4483 44.0068 32.4854C44.2582 32.5108 44.4888 32.5224 44.6844 32.5317L44.9382 32.5433H74.4149C78.9997 32.5433 81.2281 30.7154 81.2281 26.9576V18.9462H80.1733C79.8986 18.9462 79.8403 19.0042 79.8403 19.2775V26.3622C79.8403 27.9839 79.3164 29.235 78.2896 30.0829C77.286 30.9053 75.9284 31.3223 74.2519 31.3223H45.0592C44.2792 31.3223 43.541 31.2366 42.8658 31.0698C42.1928 30.9007 41.613 30.6945 41.1473 30.4559C40.67 30.2126 40.2532 29.9277 39.9062 29.6079L39.7549 29.4713V18.9462H38.7001C38.4253 18.9462 38.3671 19.0042 38.3671 19.2775V27.5136C38.3671 28.8063 38.0364 29.7771 37.3844 30.3956C36.7278 31.0165 35.68 31.32 34.1827 31.32H33.1838C32.4061 31.32 31.7005 31.2413 31.0905 31.0884C30.499 30.9378 29.9844 30.7686 29.5606 30.5856C29.1298 30.4003 28.7689 30.201 28.4895 29.9972C28.2031 29.7887 28.0308 29.6496 27.933 29.55L27.8003 29.4157V18.9462H26.7454C26.4264 18.9462 26.4125 19.0366 26.4125 19.2381V36.586C26.4125 37.9853 26.1982 38.9167 25.7605 39.4333C25.3041 39.9731 24.4216 40.2349 23.064 40.2349C22.5937 40.2349 22.0372 40.1422 21.4108 39.9569C21.0382 39.848 20.7029 39.7391 20.4095 39.6326V39.6372Z" fill="white"/>
<path d="M116.54 22.2223C115.795 22.2501 114.754 22.4169 113.988 22.6231C108.819 24.0178 105.284 28.5331 105.214 33.8964C105.161 38.0133 105.121 42.1325 105.2 46.2494C105.289 50.9779 107.524 54.5318 111.741 56.6493C115.939 58.7552 120.126 58.3706 123.956 55.6762C127.177 53.4104 128.874 50.2064 128.939 46.2563C129.009 42.1255 129.023 37.9901 128.963 33.8593C128.874 27.9771 124.732 23.0934 118.799 22.3312C117.984 22.2269 117.593 22.1829 116.538 22.2246L116.54 22.2223ZM116.321 27.4929C116.729 27.4813 117.183 27.4651 117.593 27.4535C117.597 28.9942 117.6 30.5024 117.604 32.0361C117.185 32.0291 116.731 32.0222 116.307 32.0152C116.314 30.4792 116.319 28.9756 116.324 27.4929H116.321ZM109.799 27.6551C111.511 25.7831 113.62 24.6943 116.165 24.4278C116.161 24.9792 116.172 25.3985 116.165 26.0287C115.772 26.0287 115.793 26.0241 115.597 26.0287C115.052 26.0403 114.812 26.2743 114.805 26.8257C114.784 28.7555 114.77 30.6807 114.766 32.6106C114.766 33.1921 115.038 33.4562 115.613 33.4585C115.795 33.4585 115.974 33.3983 116.046 33.3844C116.046 34.4432 116.042 35.3791 116.039 36.3174C113.213 36.3313 110.311 36.3499 107.422 36.3661C106.895 33.2454 107.85 29.7818 109.797 27.6551H109.799ZM126.727 46.3629C126.571 50.3963 124.592 53.3386 120.883 54.9627C114.514 57.7474 107.396 53.0328 107.347 46.0501C107.329 43.4345 107.354 40.8166 107.359 38.2009C107.359 38.0666 107.373 37.9322 107.38 37.8094C113.841 37.8418 120.277 37.8696 126.744 37.9021C126.744 37.9391 126.762 38.0457 126.762 38.1477C126.758 40.8861 126.832 43.6291 126.727 46.3629ZM126.748 36.2271C123.691 36.2271 120.685 36.2271 117.753 36.2271C117.753 35.349 117.76 34.4223 117.763 33.396C117.923 33.4145 118.14 33.4701 118.349 33.4632C118.824 33.4516 119.076 33.2269 119.081 32.7566C119.097 30.7526 119.099 28.7486 119.09 26.7423C119.09 26.316 118.822 26.0727 118.389 26.0357C118.161 26.0171 117.93 26.0194 117.681 26.0102C117.688 25.4912 117.693 24.9908 117.7 24.4533C117.77 24.4417 117.811 24.4232 117.856 24.4255C117.963 24.4301 118.072 24.4348 118.177 24.4487C121.772 24.9584 124.345 26.8558 125.922 30.1016C126.888 32.0917 126.823 34.2115 126.746 36.2247L126.748 36.2271Z" fill="white"/>
</g>
<defs>
<clipPath id="clip0_228_3780">
<rect width="129" height="58" fill="white"/>
</clipPath>
</defs>
</svg>
