<svg width="212" height="235" viewBox="0 0 212 235" fill="none" xmlns="http://www.w3.org/2000/svg">
<g filter="url(#filter0_f_499_9008)">
<ellipse cx="105.135" cy="188.67" rx="75.7134" ry="17.5982" fill="#FFEBE7"/>
</g>
<path d="M106.118 202.504C157.969 202.504 200.003 160.47 200.003 108.619C200.003 56.7671 157.969 14.7332 106.118 14.7332C54.2664 14.7332 12.2324 56.7671 12.2324 108.619C12.2324 160.47 54.2664 202.504 106.118 202.504Z" fill="url(#paint0_linear_499_9008)"/>
<path d="M152.671 27.0115H58.1343C54.6167 27.0115 51.2431 28.4088 48.7558 30.8962C46.2685 33.3835 44.8711 36.7571 44.8711 40.2747V148.001H45.0332V185.831C45.0331 187.292 45.4073 188.728 46.1201 190.003C46.8329 191.278 47.8606 192.349 49.105 193.114C50.3495 193.879 51.7691 194.312 53.2286 194.372C54.688 194.432 56.1385 194.117 57.4417 193.457L101.048 171.352C102.236 170.756 103.547 170.446 104.876 170.446C106.205 170.446 107.516 170.756 108.704 171.352L153.652 193.619C154.956 194.266 156.403 194.568 157.857 194.498C159.31 194.428 160.722 193.988 161.958 193.22C163.194 192.452 164.214 191.381 164.92 190.108C165.626 188.836 165.996 187.404 165.994 185.949L165.876 148.001V40.2378C165.866 36.7368 164.472 33.3816 161.999 30.9039C159.525 28.4262 156.173 27.027 152.671 27.0115Z" fill="url(#paint1_linear_499_9008)"/>
<path d="M211.954 61.9011C211.957 64.7682 210.917 67.5386 209.028 69.6956C207.14 71.8527 204.531 73.2493 201.688 73.6248C201.169 73.6911 200.646 73.7251 200.122 73.7267H160.786C159.932 73.7248 159.08 73.6546 158.238 73.5166C154.623 72.8927 151.365 70.9534 149.094 68.0719C146.822 65.1905 145.696 61.5707 145.933 57.9091C146.171 54.2475 147.754 50.8031 150.378 48.2388C153.003 45.6745 156.483 44.1715 160.149 44.0192C162.049 39.8935 165.239 36.4975 169.238 34.3435C173.237 32.1896 177.828 31.3944 182.319 32.078C186.809 32.7616 190.956 34.8869 194.132 38.1333C197.309 41.3797 199.344 45.5711 199.931 50.0754H200.109C201.664 50.0729 203.203 50.3769 204.64 50.9701C206.077 51.5632 207.383 52.4339 208.483 53.5323C209.584 54.6306 210.456 55.9351 211.052 57.3711C211.647 58.8071 211.954 60.3465 211.954 61.9011Z" fill="url(#paint2_linear_499_9008)"/>
<path d="M11.9238 38.7394C11.9238 41.1039 12.8631 43.3716 14.5351 45.0435C16.2071 46.7155 18.4747 47.6548 20.8393 47.6548H50.4385C53.3549 47.6394 56.15 46.4859 58.2284 44.44C60.3068 42.3941 61.5043 39.6176 61.5657 36.7018C61.6271 33.786 60.5477 30.9615 58.5573 28.8299C56.5669 26.6983 53.8229 25.4281 50.9097 25.2898C49.473 22.1951 47.0712 19.65 44.0649 18.0365C41.0586 16.4229 37.61 15.8281 34.2369 16.3412C30.8638 16.8544 27.7481 18.4478 25.3576 20.8823C22.9671 23.3169 21.4308 26.4611 20.9794 29.843H20.8456C18.4833 29.8414 16.2169 30.7773 14.5441 32.4453C12.8713 34.1133 11.9289 36.3771 11.9238 38.7394Z" fill="url(#paint3_linear_499_9008)"/>
<g filter="url(#filter1_f_499_9008)">
<ellipse cx="109.321" cy="127.018" rx="42.678" ry="9.14528" fill="#E8A73F" fill-opacity="0.4"/>
</g>
<path d="M108.912 48.1295L119.404 69.3875C119.716 70.0177 120.175 70.5629 120.744 70.9762C121.313 71.3895 121.973 71.6585 122.669 71.7601L146.122 75.1422C146.917 75.2639 147.661 75.6036 148.274 76.1235C148.886 76.6434 149.343 77.3232 149.592 78.087C149.841 78.8509 149.873 79.6689 149.684 80.4499C149.496 81.2309 149.094 81.9443 148.524 82.5107L131.577 99.0528C131.073 99.5433 130.696 100.149 130.479 100.818C130.262 101.487 130.212 102.199 130.332 102.892L134.34 126.25C134.478 127.048 134.389 127.869 134.084 128.62C133.778 129.371 133.269 130.021 132.614 130.497C131.958 130.974 131.182 131.257 130.374 131.315C129.566 131.373 128.757 131.203 128.04 130.826L107.062 119.773C106.439 119.446 105.747 119.276 105.043 119.276C104.34 119.276 103.647 119.446 103.024 119.773L82.0463 130.826C81.3296 131.201 80.5222 131.369 79.7151 131.31C78.9081 131.251 78.1336 130.968 77.4791 130.492C76.8247 130.016 76.3163 129.366 76.0114 128.617C75.7065 127.867 75.6172 127.047 75.7537 126.25L79.7548 102.892C79.8749 102.199 79.8243 101.487 79.6073 100.818C79.3903 100.149 79.0135 99.5433 78.5095 99.0528L61.5621 82.5107C60.9922 81.9443 60.5907 81.2309 60.4023 80.4499C60.2139 79.6689 60.246 78.8509 60.495 78.087C60.744 77.3232 61.2002 76.6434 61.8127 76.1235C62.4252 75.6036 63.17 75.2639 63.9642 75.1422L87.4179 71.738C88.1135 71.6364 88.774 71.3674 89.3426 70.9541C89.9112 70.5408 90.3709 69.9956 90.6822 69.3654L101.175 48.1074C101.54 47.3945 102.095 46.7966 102.779 46.3798C103.463 45.963 104.249 45.7436 105.05 45.7459C105.851 45.7482 106.636 45.972 107.317 46.3927C107.999 46.8134 108.551 47.4145 108.912 48.1295Z" fill="url(#paint4_linear_499_9008)"/>
<path d="M4.04689 152.728C4.04548 155.583 5.08215 158.341 6.96375 160.489C8.84534 162.637 11.4435 164.027 14.2742 164.401C14.789 164.472 15.3082 164.508 15.828 164.509H54.9922C55.8456 164.508 56.6975 164.437 57.5395 164.299C61.1604 163.696 64.4282 161.77 66.7091 158.894C68.9899 156.018 70.121 152.397 69.883 148.734C69.645 145.071 68.0548 141.627 65.421 139.07C62.7871 136.513 59.2975 135.026 55.629 134.897C53.7346 130.791 50.5572 127.412 46.5755 125.27C42.5938 123.127 38.0235 122.336 33.5533 123.017C29.0832 123.697 24.9552 125.812 21.7915 129.042C18.6277 132.273 16.5996 136.444 16.0127 140.928H15.828C14.2793 140.928 12.7457 141.233 11.3151 141.826C9.88455 142.42 8.58496 143.289 7.49074 144.385C6.39651 145.481 5.52912 146.782 4.93818 148.214C4.34725 149.645 4.04438 151.179 4.04689 152.728Z" fill="url(#paint5_linear_499_9008)"/>
<path d="M180.806 88.9808C180.394 87.3651 181.886 85.9093 183.491 86.3604L187.563 87.5048C189.169 87.9559 189.683 89.9755 188.49 91.1402L185.463 94.0947C184.27 95.2593 182.263 94.6954 181.851 93.0797L180.806 88.9808Z" fill="#E8A73F"/>
<path d="M24.3179 88.9808C23.9059 87.3651 25.3975 85.9093 27.0028 86.3604L31.075 87.5048C32.6803 87.9559 33.1952 89.9755 32.0019 91.1402L28.9747 94.0947C27.7815 95.2593 25.7749 94.6954 25.3629 93.0797L24.3179 88.9808Z" fill="#E8A73F"/>
<path d="M75.63 10.467C76.2703 7.81457 80.0431 7.81457 80.6834 10.467L80.9455 11.5528C81.1743 12.5006 81.9144 13.2407 82.8622 13.4695L83.948 13.7316C86.6004 14.3719 86.6004 18.1447 83.948 18.785L82.8622 19.0471C81.9144 19.2759 81.1743 20.0159 80.9455 20.9638L80.6834 22.0496C80.0431 24.702 76.2703 24.702 75.63 22.0496L75.3679 20.9638C75.1391 20.0159 74.3991 19.2759 73.4512 19.0471L72.3654 18.785C69.713 18.1447 69.713 14.3719 72.3654 13.7316L73.4512 13.4695C74.3991 13.2407 75.1391 12.5006 75.3679 11.5528L75.63 10.467Z" fill="#E8A73F"/>
<path d="M112.438 185.616C112.438 187.337 111.042 188.733 109.32 188.733C107.598 188.733 106.203 187.337 106.203 185.616C106.203 183.894 107.598 182.498 109.32 182.498C111.042 182.498 112.438 183.894 112.438 185.616Z" stroke="#E8A73F" stroke-width="3.24907"/>
<path d="M178.601 158.824C179.241 156.171 183.014 156.171 183.654 158.824L183.916 159.909C184.145 160.857 184.885 161.597 185.833 161.826L186.919 162.088C189.571 162.729 189.571 166.501 186.919 167.142L185.833 167.404C184.885 167.633 184.145 168.373 183.916 169.32L183.654 170.406C183.014 173.059 179.241 173.059 178.601 170.406L178.339 169.32C178.11 168.373 177.37 167.633 176.422 167.404L175.336 167.142C172.684 166.501 172.684 162.729 175.336 162.088L176.422 161.826C177.37 161.597 178.11 160.857 178.339 159.909L178.601 158.824Z" fill="#E8A73F"/>
<circle cx="185.869" cy="131.421" r="3.11747" stroke="#E8A73F" stroke-width="3.24907"/>
<defs>
<filter id="filter0_f_499_9008" x="0.929871" y="142.58" width="208.412" height="92.1805" filterUnits="userSpaceOnUse" color-interpolation-filters="sRGB">
<feFlood flood-opacity="0" result="BackgroundImageFix"/>
<feBlend mode="normal" in="SourceGraphic" in2="BackgroundImageFix" result="shape"/>
<feGaussianBlur stdDeviation="14.246" result="effect1_foregroundBlur_499_9008"/>
</filter>
<filter id="filter1_f_499_9008" x="39.567" y="90.7976" width="139.507" height="72.4416" filterUnits="userSpaceOnUse" color-interpolation-filters="sRGB">
<feFlood flood-opacity="0" result="BackgroundImageFix"/>
<feBlend mode="normal" in="SourceGraphic" in2="BackgroundImageFix" result="shape"/>
<feGaussianBlur stdDeviation="13.5378" result="effect1_foregroundBlur_499_9008"/>
</filter>
<linearGradient id="paint0_linear_499_9008" x1="105.394" y1="-15.8383" x2="107.317" y2="313.873" gradientUnits="userSpaceOnUse">
<stop stop-color="#E8A73F" stop-opacity="0"/>
<stop offset="1" stop-color="#E8A73F" stop-opacity="0.33"/>
</linearGradient>
<linearGradient id="paint1_linear_499_9008" x1="195.462" y1="203.134" x2="50.25" y2="72.6597" gradientUnits="userSpaceOnUse">
<stop stop-color="#FF9999"/>
<stop offset="0.0001" stop-color="#E8A73F"/>
<stop offset="1" stop-color="#FFE7DA"/>
</linearGradient>
<linearGradient id="paint2_linear_499_9008" x1="199.419" y1="91.7919" x2="166.564" y2="31.8395" gradientUnits="userSpaceOnUse">
<stop stop-color="#E8A73F"/>
<stop offset="1" stop-color="#F8C97F" stop-opacity="0.08"/>
</linearGradient>
<linearGradient id="paint3_linear_499_9008" x1="52.1471" y1="61.2371" x2="27.4405" y2="16.1688" gradientUnits="userSpaceOnUse">
<stop stop-color="#E8A73F"/>
<stop offset="1" stop-color="#F8C97F" stop-opacity="0.08"/>
</linearGradient>
<linearGradient id="paint4_linear_499_9008" x1="67.5043" y1="68.7059" x2="227.812" y2="131.248" gradientUnits="userSpaceOnUse">
<stop stop-color="#FFDEAC"/>
<stop offset="0.70369" stop-color="#E8A73F"/>
</linearGradient>
<linearGradient id="paint5_linear_499_9008" x1="57.4145" y1="182.506" x2="24.6998" y2="122.752" gradientUnits="userSpaceOnUse">
<stop stop-color="#E8A73F"/>
<stop offset="1" stop-color="#F8C97F" stop-opacity="0.08"/>
</linearGradient>
</defs>
</svg>
