<svg width="212" height="210" viewBox="0 0 212 210" fill="none" xmlns="http://www.w3.org/2000/svg">
<path d="M109.758 195.956C161.61 195.956 203.644 153.922 203.644 102.071C203.644 50.219 161.61 8.18506 109.758 8.18506C57.907 8.18506 15.873 50.219 15.873 102.071C15.873 153.922 57.907 195.956 109.758 195.956Z" fill="url(#paint0_linear_499_8839)"/>
<path fill-rule="evenodd" clip-rule="evenodd" d="M191.363 148.374H181.698H181.684H144.302C144.084 148.374 143.884 148.478 143.76 148.649C143.64 148.739 143.563 148.883 143.563 149.044V167.778C143.515 167.894 143.468 168.011 143.421 168.13C143.323 168.382 143.387 168.657 143.563 168.84V178.411C143.516 178.525 143.469 178.64 143.423 178.756C143.322 179.009 143.386 179.286 143.563 179.47V185.778C143.546 185.8 143.529 185.822 143.512 185.845C143.309 186.112 143.337 186.483 143.563 186.717V195.132C143.563 195.406 143.785 195.627 144.059 195.627C144.332 195.627 144.554 195.406 144.554 195.132V186.69C144.563 186.679 144.572 186.669 144.58 186.658C150.937 178.312 157.949 176.248 163.342 176.226C166.054 176.215 168.374 176.721 170.017 177.23C170.837 177.484 171.485 177.738 171.926 177.927C172.146 178.022 172.314 178.1 172.425 178.154C172.453 178.167 172.477 178.179 172.497 178.189L178.475 184.167C178.737 184.429 179.162 184.429 179.424 184.167C179.686 183.905 179.686 183.48 179.424 183.218L173.447 177.241C173.437 177.221 173.426 177.199 173.414 177.172C173.362 177.063 173.286 176.898 173.194 176.682C173.01 176.249 172.763 175.61 172.518 174.803C172.027 173.185 171.544 170.897 171.578 168.218C171.645 162.929 173.722 156.038 181.919 149.715H191.363C191.733 149.715 192.034 149.415 192.034 149.045C192.034 148.674 191.733 148.374 191.363 148.374ZM170.188 175.879L163.384 169.076C163.289 169.059 163.162 169.039 163.005 169.017C162.621 168.963 162.062 168.9 161.372 168.866C159.991 168.796 158.099 168.842 156.05 169.295C151.974 170.198 147.265 172.714 144.67 179.252C144.641 179.323 144.602 179.387 144.554 179.443V184.537C150.903 176.922 157.85 174.907 163.337 174.884C166.093 174.873 168.464 175.364 170.188 175.879ZM164.26 168.054C164.222 168.003 164.176 167.957 164.124 167.918L163.927 167.721L163.917 167.664C163.856 167.297 163.781 166.761 163.732 166.099C163.635 164.772 163.641 162.95 164.051 160.963C164.863 157.038 167.253 152.443 173.662 149.715H179.783C172.331 156.01 170.304 162.821 170.236 168.201C170.202 170.921 170.668 173.258 171.164 174.958L164.26 168.054ZM162.737 160.691C162.296 162.825 162.29 164.773 162.393 166.187L157.404 161.198L163.831 149.75L163.918 149.715H170.673C165.603 152.691 163.507 156.965 162.737 160.691ZM163.779 149.771L163.812 149.715H163.85L163.831 149.75L163.779 149.771ZM157.226 160.614C157.197 160.433 157.168 160.219 157.145 159.977C157.065 159.153 157.054 158.023 157.319 156.789C157.834 154.393 159.404 151.535 163.779 149.771L157.226 160.614ZM157.226 160.614C157.247 160.741 157.267 160.852 157.286 160.945C157.299 161.012 157.311 161.069 157.322 161.116L157.212 161.006C157.197 160.99 157.182 160.975 157.166 160.96L157.073 160.867L157.226 160.614ZM161.859 167.551C161.725 167.541 161.585 167.533 161.44 167.525C159.974 167.452 157.956 167.499 155.76 167.985C151.888 168.843 147.467 171.07 144.554 176.349V168.813C144.603 168.757 144.643 168.691 144.671 168.618C146.429 164.114 149.396 162.524 151.9 162.02C153.17 161.764 154.336 161.786 155.188 161.873C155.612 161.916 155.955 161.976 156.189 162.023C156.26 162.038 156.321 162.051 156.371 162.063L161.859 167.551ZM151.635 160.705C149.235 161.188 146.52 162.547 144.554 165.807V150.246L154.804 160.496C153.923 160.442 152.823 160.465 151.635 160.705ZM160.915 149.715H145.922L155.769 159.563C155.726 158.711 155.761 157.652 156.007 156.507C156.498 154.22 157.823 151.642 160.915 149.715Z" fill="url(#paint1_linear_499_8839)"/>
<path fill-rule="evenodd" clip-rule="evenodd" d="M109.906 18.6548C109.437 18.4612 108.934 18.362 108.427 18.3629L108.423 18.3629C107.398 18.3638 106.416 18.7712 105.692 19.4956C104.968 20.2196 104.56 21.2011 104.559 22.2249V27.0865H94.9512L94.9512 22.2184C94.9543 18.6487 96.3737 15.226 98.8979 12.7018C101.422 10.178 104.844 8.75862 108.413 8.75502L108.415 8.75502C110.184 8.7525 111.936 9.09858 113.571 9.77349C115.208 10.4489 116.695 11.4405 117.948 12.6913C119.202 13.9422 120.196 15.4279 120.874 17.0634C121.552 18.6989 121.901 20.452 121.901 22.2226V26.9066H112.293V22.2226C112.293 21.7152 112.193 21.2127 111.999 20.744C111.805 20.2753 111.52 19.8495 111.161 19.491C110.801 19.1325 110.375 18.8484 109.906 18.6548ZM108.415 8.75502L108.413 8.75502L108.415 8.75502Z" fill="url(#paint2_linear_499_8839)"/>
<path d="M109.011 184.089C128.924 184.089 145.067 167.946 145.067 148.033C145.067 128.12 128.924 111.977 109.011 111.977C89.0979 111.977 72.9551 128.12 72.9551 148.033C72.9551 167.946 89.0979 184.089 109.011 184.089Z" fill="url(#paint3_linear_499_8839)"/>
<path d="M165.901 108.282V80.6202C165.901 65.5319 159.907 51.0616 149.238 40.3926C138.569 29.7235 124.099 23.7297 109.011 23.7297C93.9224 23.7297 79.4521 29.7235 68.7831 40.3926C58.114 51.0616 52.1202 65.5319 52.1202 80.6202V108.282C52.1209 114.637 50.3231 120.863 46.9346 126.239C43.5462 131.616 38.7054 135.924 32.9719 138.665C31.6541 139.292 30.5417 140.281 29.7642 141.517C28.9867 142.752 28.576 144.183 28.5801 145.642V145.792C28.5791 146.319 28.6821 146.842 28.8832 147.329C29.0842 147.816 29.3794 148.259 29.7518 148.632C30.1242 149.005 30.5666 149.301 31.0535 149.503C31.5405 149.705 32.0625 149.809 32.5897 149.809H185.424C185.952 149.809 186.474 149.705 186.96 149.503C187.447 149.301 187.89 149.005 188.262 148.632C188.635 148.259 188.93 147.816 189.131 147.329C189.332 146.842 189.435 146.319 189.434 145.792V145.642C189.434 144.187 189.023 142.762 188.247 141.531C187.471 140.3 186.363 139.314 185.05 138.687C179.313 135.945 174.47 131.633 171.081 126.252C167.692 120.872 165.896 114.641 165.901 108.282Z" fill="url(#paint4_linear_499_8839)"/>
<path fill-rule="evenodd" clip-rule="evenodd" d="M87.045 85.8822C87.0514 85.8885 87.0576 85.895 87.0637 85.9015L107.5 106.341C107.58 106.396 107.647 106.464 107.7 106.541L134.147 132.992C134.447 133.292 134.447 133.778 134.147 134.077C133.848 134.376 133.362 134.376 133.063 134.077L120.172 121.184C109.647 118.745 101.407 121.446 95.7774 124.767C92.9397 126.441 90.7655 128.273 89.3026 129.685C88.5716 130.39 88.0195 130.989 87.6523 131.409C87.4866 131.599 87.3587 131.752 87.269 131.862V133.782C87.269 134.205 86.9257 134.549 86.5022 134.549C86.0787 134.549 85.7354 134.205 85.7354 133.782V131.861C85.6457 131.751 85.518 131.599 85.3526 131.409C84.9855 130.989 84.4334 130.39 83.7023 129.685C82.2393 128.273 80.0649 126.441 77.2266 124.767C71.598 121.447 63.3593 118.747 52.8354 121.182L39.8149 134.204C39.5155 134.504 39.03 134.504 38.7305 134.204C38.431 133.905 38.431 133.419 38.7304 133.12L51.8458 120.002C51.8788 119.962 51.916 119.925 51.957 119.891L65.3127 106.533C65.3629 106.462 65.4258 106.398 65.4998 106.346L72.6489 99.196C72.6734 99.1676 72.7001 99.1409 72.7288 99.1161L85.9412 85.9016C86.0146 85.8228 86.1052 85.7589 86.2088 85.716C86.3105 85.6738 86.4177 85.6549 86.5235 85.6579C86.7128 85.663 86.9005 85.7377 87.045 85.8822ZM54.7906 119.226C64.6843 117.55 72.5301 120.217 78.0058 123.446C80.9683 125.193 83.2371 127.105 84.7672 128.581C85.1318 128.933 85.4547 129.26 85.7354 129.555V122.469C85.6984 122.386 85.6411 122.261 85.5612 122.103C85.3961 121.775 85.1348 121.301 84.7577 120.737C84.0033 119.609 82.7879 118.123 80.9539 116.717C77.3362 113.944 71.2303 111.422 61.3083 112.707L54.7906 119.226ZM111.697 112.708L118.216 119.228C108.321 117.549 100.474 120.216 94.9982 123.446C92.0362 125.193 89.7676 127.105 88.2376 128.581C87.8728 128.933 87.5498 129.261 87.269 129.556V122.47C87.3059 122.387 87.3634 122.262 87.4435 122.103C87.6087 121.775 87.8699 121.301 88.2471 120.737C89.0015 119.609 90.2169 118.123 92.0509 116.717C95.6686 113.944 101.775 111.422 111.697 112.708ZM63.0371 110.978C72.225 110.188 78.1754 112.655 81.8869 115.5C83.6538 116.854 84.8972 118.282 85.7354 119.455V113.207C85.6856 113.138 85.6216 113.051 85.5436 112.949C85.3225 112.659 84.9895 112.247 84.5492 111.767C83.667 110.806 82.3635 109.584 80.6763 108.532C77.354 106.46 72.5334 105.033 66.4054 107.61L63.0371 110.978ZM85.7354 103.606V110.792L85.6791 110.73C84.7301 109.696 83.3221 108.374 81.4878 107.23C78.3968 105.303 74.1036 103.892 68.8242 105.19L73.6727 100.341C77.8612 98.5615 80.8651 99.4408 82.8336 100.713C83.8462 101.367 84.6025 102.139 85.1059 102.749C85.3569 103.053 85.5427 103.315 85.6639 103.497C85.691 103.537 85.7148 103.574 85.7354 103.606ZM75.9945 98.019C79.259 97.3857 81.8197 98.2317 83.666 99.4249C84.5135 99.9726 85.2017 100.587 85.7354 101.148V88.2766L75.9945 98.019ZM109.968 110.978L106.598 107.608C100.472 105.034 95.6526 106.46 92.3311 108.532C90.6439 109.584 89.3404 110.806 88.4582 111.767C88.0179 112.247 87.6849 112.659 87.4638 112.949C87.3842 113.053 87.3192 113.141 87.269 113.211V119.455C88.1072 118.282 89.3507 116.854 91.1179 115.5C94.8294 112.655 100.78 110.188 109.968 110.978ZM87.3283 110.73L87.269 110.795V103.606C87.2896 103.574 87.3135 103.537 87.3406 103.496C87.4617 103.314 87.6472 103.053 87.8978 102.749C88.4005 102.139 89.1559 101.367 90.1675 100.713C92.1361 99.4394 95.1425 98.5595 99.3382 100.347L104.18 105.19C98.9021 103.893 94.61 105.303 91.5196 107.23C89.6853 108.374 88.2773 109.696 87.3283 110.73ZM97.0124 98.0209L87.269 88.2759V101.147C87.8018 100.586 88.4887 99.9722 89.3346 99.4251C91.1813 98.2305 93.7439 97.3841 97.0124 98.0209Z" fill="url(#paint5_linear_499_8839)"/>
<path fill-rule="evenodd" clip-rule="evenodd" d="M140.066 85.0922V0H141.026V85.0922H140.066Z" fill="#E8A73F"/>
<path fill-rule="evenodd" clip-rule="evenodd" d="M132.163 79.5423C132.517 79.4033 132.917 79.5779 133.056 79.9321L133.921 82.1394L136.797 83.1333C137.597 81.3567 138.977 80.1836 140.546 80.1836C142.116 80.1836 143.497 81.3598 144.298 83.1402L147.193 82.1394L148.059 79.9321C148.198 79.5779 148.597 79.4033 148.952 79.5423C149.306 79.6812 149.48 80.081 149.341 80.4352L148.36 82.9383C148.286 83.126 148.134 83.2721 147.943 83.3379L144.749 84.4421C144.865 84.8974 144.947 85.3766 144.991 85.8733L147.682 85.2595C147.949 85.1986 148.228 85.2848 148.414 85.4855L150.73 87.9812C151.018 88.2916 151 88.7768 150.69 89.0649C150.379 89.353 149.894 89.3348 149.606 89.0244L147.591 86.8532L144.999 87.4444C144.965 87.8941 144.899 88.3301 144.805 88.7475L146.723 88.3099C147.011 88.2442 147.312 88.3498 147.495 88.5815L149.406 90.9947C149.669 91.3267 149.613 91.809 149.281 92.0719C148.949 92.3348 148.467 92.2788 148.204 91.9468L146.593 89.9127L144.218 90.4545C144.004 90.8994 143.752 91.3037 143.47 91.6577C143.628 92.0451 143.715 92.4706 143.715 92.917C143.715 94.7175 142.296 96.1771 140.545 96.1771C138.794 96.1771 137.375 94.7175 137.375 92.917C137.375 92.4703 137.462 92.0447 137.62 91.657C137.337 91.3016 137.085 90.8956 136.871 90.4485L134.521 89.9127L132.911 91.9468C132.648 92.2788 132.165 92.3348 131.833 92.0719C131.501 91.809 131.445 91.3267 131.708 90.9947L133.619 88.5815C133.803 88.3498 134.103 88.2442 134.391 88.3099L136.285 88.7419C136.191 88.3247 136.126 87.8889 136.091 87.4394L133.521 86.8532L131.507 89.0244C131.219 89.3348 130.733 89.353 130.423 89.0649C130.113 88.7768 130.094 88.2916 130.382 87.9812L132.698 85.4855C132.885 85.2848 133.164 85.1986 133.431 85.2595L136.101 85.8685C136.145 85.3709 136.227 84.8908 136.344 84.4348L133.171 83.3379C132.98 83.2721 132.828 83.126 132.755 82.9383L131.773 80.4352C131.634 80.081 131.808 79.6812 132.163 79.5423Z" fill="url(#paint6_linear_499_8839)"/>
<path d="M211.161 72.8025C211.203 72.7258 211.229 72.6409 211.237 72.5535C211.244 72.466 211.233 72.378 211.204 72.2952C211.175 72.2124 211.129 72.1366 211.068 72.073C211.008 72.0093 210.935 71.9591 210.854 71.9257C208.485 70.9814 200.107 68.1784 195.527 73.8293C192.464 77.5432 188.133 79.9913 183.371 80.7017C183.252 80.7178 183.139 80.7697 183.05 80.8506C182.96 80.9316 182.897 81.0378 182.868 81.1553C182.84 81.2728 182.848 81.3961 182.891 81.5091C182.934 81.6221 183.01 81.7195 183.109 81.7884C187.156 84.6588 200.526 91.9734 211.161 72.8025Z" fill="url(#paint7_linear_499_8839)"/>
<path d="M33.6804 112.433C33.7142 112.371 33.7346 112.303 33.7403 112.233C33.7461 112.162 33.737 112.092 33.7136 112.025C33.6903 111.959 33.6533 111.898 33.605 111.847C33.5566 111.796 33.498 111.755 33.4331 111.728C31.537 110.979 24.7994 108.73 21.1196 113.227C18.6642 116.207 15.1944 118.174 11.3768 118.751C11.281 118.763 11.1913 118.805 11.1194 118.87C11.0476 118.934 10.997 119.019 10.9743 119.113C10.9516 119.207 10.9579 119.306 10.9923 119.397C11.0267 119.487 11.0876 119.565 11.167 119.62C14.3971 121.958 25.1367 127.834 33.6804 112.433Z" fill="url(#paint8_linear_499_8839)"/>
<path d="M192.726 103.932C192.697 103.88 192.68 103.823 192.675 103.765C192.67 103.706 192.678 103.647 192.698 103.592C192.718 103.536 192.749 103.486 192.79 103.444C192.831 103.402 192.881 103.369 192.936 103.347C194.525 102.71 200.153 100.829 203.226 104.621C205.285 107.116 208.195 108.76 211.395 109.238C211.48 109.246 211.56 109.28 211.624 109.336C211.688 109.392 211.733 109.467 211.752 109.55C211.771 109.633 211.764 109.72 211.731 109.799C211.697 109.877 211.64 109.943 211.567 109.987C208.854 111.928 199.868 116.837 192.726 103.932Z" fill="url(#paint9_linear_499_8839)"/>
<path d="M0.403987 79.6094C0.35773 79.5237 0.329939 79.4293 0.322403 79.3322C0.314867 79.2351 0.327755 79.1375 0.360234 79.0458C0.392714 78.954 0.444065 78.87 0.510979 78.7993C0.577892 78.7285 0.658883 78.6726 0.748732 78.6351C3.3718 77.5934 12.6574 74.4906 17.7312 80.741C21.1299 84.862 25.9368 87.5753 31.2212 88.3554C31.3534 88.3749 31.4766 88.4336 31.575 88.5239C31.6734 88.6143 31.7424 88.7321 31.7731 88.8621C31.8038 88.9921 31.7948 89.1283 31.7471 89.2531C31.6995 89.3779 31.6155 89.4855 31.506 89.562C27.0019 92.7397 12.1853 100.849 0.403987 79.6094Z" fill="url(#paint10_linear_499_8839)"/>
<path d="M32.2866 56.6595C31.8747 55.0438 33.3663 53.588 34.9715 54.0391L39.0438 55.1835C40.649 55.6346 41.164 57.6543 39.9707 58.8189L36.9435 61.7734C35.7502 62.938 33.7437 62.3741 33.3317 60.7584L32.2866 56.6595Z" fill="#E8A73F"/>
<path d="M186.761 26.0194C187.401 23.3669 191.174 23.3669 191.814 26.0194L192.076 27.1051C192.305 28.053 193.045 28.7931 193.993 29.0219L195.079 29.284C197.731 29.9243 197.731 33.697 195.079 34.3373L193.993 34.5994C193.045 34.8282 192.305 35.5683 192.076 36.5162L191.814 37.6019C191.174 40.2544 187.401 40.2544 186.761 37.6019L186.499 36.5162C186.27 35.5683 185.53 34.8282 184.582 34.5994L183.496 34.3373C180.844 33.697 180.844 29.9243 183.496 29.284L184.582 29.0219C185.53 28.7931 186.27 28.053 186.499 27.1051L186.761 26.0194Z" fill="#E8A73F"/>
<path d="M70.5285 187.268C71.1688 184.615 74.9415 184.615 75.5818 187.268L75.8439 188.354C76.0727 189.301 76.8128 190.041 77.7607 190.27L78.8464 190.532C81.4989 191.173 81.4989 194.945 78.8464 195.586L77.7607 195.848C76.8128 196.077 76.0727 196.817 75.8439 197.765L75.5818 198.85C74.9416 201.503 71.1688 201.503 70.5285 198.85L70.2664 197.765C70.0376 196.817 69.2975 196.077 68.3496 195.848L67.2639 195.586C64.6114 194.945 64.6114 191.173 67.2639 190.532L68.3496 190.27C69.2975 190.041 70.0376 189.301 70.2664 188.354L70.5285 187.268Z" fill="#E8A73F"/>
<path d="M49.1075 174.995C49.1075 176.716 47.7118 178.112 45.99 178.112C44.2683 178.112 42.8726 176.716 42.8726 174.995C42.8726 173.273 44.2683 171.877 45.99 171.877C47.7118 171.877 49.1075 173.273 49.1075 174.995Z" stroke="#E8A73F" stroke-width="3.24907"/>
<circle cx="51.7186" cy="28.4794" r="3.11747" stroke="#E8A73F" stroke-width="3.24907"/>
<circle cx="199.871" cy="167.629" r="3.11747" stroke="#E8A73F" stroke-width="3.24907"/>
<defs>
<linearGradient id="paint0_linear_499_8839" x1="109.035" y1="-22.3863" x2="110.958" y2="307.325" gradientUnits="userSpaceOnUse">
<stop stop-color="#E8A73F" stop-opacity="0"/>
<stop offset="1" stop-color="#E8A73F" stop-opacity="0.42"/>
</linearGradient>
<linearGradient id="paint1_linear_499_8839" x1="133.168" y1="156.149" x2="211.962" y2="165.201" gradientUnits="userSpaceOnUse">
<stop offset="0.0844027" stop-color="#E8A73F"/>
<stop offset="1" stop-color="#FFF6F5"/>
</linearGradient>
<linearGradient id="paint2_linear_499_8839" x1="128.458" y1="28.0306" x2="114.993" y2="3.43443" gradientUnits="userSpaceOnUse">
<stop stop-color="#E8A73F"/>
<stop offset="1" stop-color="#FFE7DA"/>
</linearGradient>
<linearGradient id="paint3_linear_499_8839" x1="169.755" y1="208.314" x2="58.8719" y2="88.5107" gradientUnits="userSpaceOnUse">
<stop stop-color="#FFDEAC"/>
<stop offset="0.70369" stop-color="#E8A73F"/>
</linearGradient>
<linearGradient id="paint4_linear_499_8839" x1="131.284" y1="139.558" x2="96.5381" y2="37.4051" gradientUnits="userSpaceOnUse">
<stop stop-color="#E8A73F"/>
<stop offset="1" stop-color="#FFE7DA"/>
</linearGradient>
<linearGradient id="paint5_linear_499_8839" x1="188.177" y1="197.59" x2="92.3723" y2="68.0039" gradientUnits="userSpaceOnUse">
<stop stop-color="#E8A73F"/>
<stop offset="1" stop-color="#FFF6F5"/>
</linearGradient>
<linearGradient id="paint6_linear_499_8839" x1="167.55" y1="54.1916" x2="121.386" y2="82.934" gradientUnits="userSpaceOnUse">
<stop stop-color="#FFDEAC"/>
<stop offset="1" stop-color="#E8A73F"/>
</linearGradient>
<linearGradient id="paint7_linear_499_8839" x1="218.145" y1="86.3548" x2="208.533" y2="64.0202" gradientUnits="userSpaceOnUse">
<stop stop-color="#E8A73F"/>
<stop offset="1" stop-color="#FFE7DA"/>
</linearGradient>
<linearGradient id="paint8_linear_499_8839" x1="39.2844" y1="123.316" x2="31.5651" y2="105.387" gradientUnits="userSpaceOnUse">
<stop stop-color="#E8A73F"/>
<stop offset="1" stop-color="#FFE7DA"/>
</linearGradient>
<linearGradient id="paint9_linear_499_8839" x1="216.407" y1="113.062" x2="209.93" y2="98.0308" gradientUnits="userSpaceOnUse">
<stop stop-color="#E8A73F"/>
<stop offset="1" stop-color="#FFE7DA"/>
</linearGradient>
<linearGradient id="paint10_linear_499_8839" x1="39.4475" y1="94.6213" x2="28.8068" y2="69.8754" gradientUnits="userSpaceOnUse">
<stop stop-color="#E8A73F"/>
<stop offset="1" stop-color="#FFE7DA"/>
</linearGradient>
</defs>
</svg>
