<svg width="25" height="24" viewBox="0 0 25 24" fill="none" xmlns="http://www.w3.org/2000/svg">
<path d="M12.5208 2.90997C9.07292 2.90997 6.27083 5.59997 6.27083 8.90997V11.8C6.27083 12.41 6 13.34 5.67708 13.86L4.47917 15.77C3.73958 16.95 4.25 18.26 5.60417 18.7C10.0937 20.14 14.9375 20.14 19.4271 18.7C20.6875 18.3 21.2396 16.87 20.5521 15.77L19.3542 13.86C19.0417 13.34 18.7708 12.41 18.7708 11.8V8.90997C18.7708 5.60997 15.9583 2.90997 12.5208 2.90997Z" stroke="#292D32" stroke-width="1.5" stroke-miterlimit="10" stroke-linecap="round"/>
<path d="M14.4479 3.2C14.125 3.11 13.7917 3.04 13.4479 3C12.4479 2.88 11.4896 2.95 10.5938 3.2C10.8958 2.46 11.6458 1.94 12.5208 1.94C13.3958 1.94 14.1458 2.46 14.4479 3.2Z" stroke="#292D32" stroke-width="1.5" stroke-miterlimit="10" stroke-linecap="round" stroke-linejoin="round"/>
<path d="M15.6458 19.06C15.6458 20.71 14.2396 22.06 12.5208 22.06C11.6667 22.06 10.875 21.72 10.3125 21.18C9.74999 20.64 9.39583 19.88 9.39583 19.06" stroke="#292D32" stroke-width="1.5" stroke-miterlimit="10"/>
</svg>
