<svg width="597" height="370" viewBox="0 0 597 370" fill="none" xmlns="http://www.w3.org/2000/svg">
<g clip-path="url(#clip0_228_4263)">
<path d="M158.733 310.909H117.934V326.638H158.733V310.909Z" stroke="black" stroke-width="1.35" stroke-linecap="round" stroke-linejoin="round"/>
<path d="M157.009 328.823H116.628C115.586 328.823 114.75 327.978 114.75 326.945C114.75 325.912 115.595 325.068 116.628 325.068H157.009C157.632 325.068 158.144 324.556 158.144 323.933V313.435C158.144 312.812 157.632 312.3 157.009 312.3H116.628C115.586 312.3 114.75 311.456 114.75 310.423C114.75 309.39 115.595 308.545 116.628 308.545H157.009C159.706 308.545 161.899 310.739 161.899 313.435V323.933C161.899 326.629 159.706 328.831 157.009 328.831V328.823Z" fill="#252541"/>
<path d="M157.009 328.823H116.628C115.586 328.823 114.75 327.978 114.75 326.945C114.75 325.912 115.595 325.068 116.628 325.068H157.009C157.632 325.068 158.144 324.556 158.144 323.933V313.435C158.144 312.812 157.632 312.3 157.009 312.3H116.628C115.586 312.3 114.75 311.456 114.75 310.423C114.75 309.39 115.595 308.545 116.628 308.545H157.009C159.706 308.545 161.899 310.739 161.899 313.435V323.933C161.899 326.629 159.706 328.831 157.009 328.831V328.823Z" stroke="black" stroke-width="1.35" stroke-linecap="round" stroke-linejoin="round"/>
<path d="M159.595 315.714H136.703" stroke="black" stroke-width="1.35" stroke-linecap="round" stroke-linejoin="round"/>
<path d="M159.595 320.502H133.809" stroke="black" stroke-width="1.35" stroke-linecap="round" stroke-linejoin="round"/>
<path d="M159.595 332.816H73.5666V361.116H159.595V332.816Z" fill="white"/>
<path d="M159.595 332.816H73.5666V361.116H159.595V332.816Z" stroke="black" stroke-width="1.35" stroke-linecap="round" stroke-linejoin="round"/>
<path d="M73.5666 342.52H110.892" stroke="black" stroke-width="1.35" stroke-linecap="round" stroke-linejoin="round"/>
<path d="M73.5666 351.438H121.297" stroke="black" stroke-width="1.35" stroke-linecap="round" stroke-linejoin="round"/>
<path d="M162.301 363.932H77.1429C73.6264 363.932 70.7585 361.073 70.7585 357.549V335.769C70.7585 332.253 73.6178 329.386 77.1429 329.386H162.309C163.863 329.386 165.117 330.64 165.117 332.193C165.117 333.747 163.863 335.001 162.309 335.001H77.1429C76.7247 335.001 76.3748 335.343 76.3748 335.769V357.549C76.3748 357.967 76.7162 358.317 77.1429 358.317H162.309C163.863 358.317 165.117 359.571 165.117 361.124C165.117 362.678 163.863 363.932 162.309 363.932H162.301Z" fill="#E8A73F"/>
<path d="M162.301 363.932H77.1429C73.6264 363.932 70.7585 361.073 70.7585 357.549V335.769C70.7585 332.253 73.6178 329.386 77.1429 329.386H162.309C163.863 329.386 165.117 330.64 165.117 332.193C165.117 333.747 163.863 335.001 162.309 335.001H77.1429C76.7247 335.001 76.3748 335.343 76.3748 335.769V357.549C76.3748 357.967 76.7162 358.317 77.1429 358.317H162.309C163.863 358.317 165.117 359.571 165.117 361.124C165.117 362.678 163.863 363.932 162.309 363.932H162.301Z" stroke="black" stroke-width="1.35" stroke-linecap="round" stroke-linejoin="round"/>
<path d="M509.896 364.495H379.049H358.956H342.312H339.026H55.941" stroke="black" stroke-width="1.35" stroke-linecap="round" stroke-linejoin="round"/>
<path d="M192.789 268.221V271.345C192.789 272.941 192.209 274.4 191.253 275.535H157.239V268.213H192.789V268.221Z" fill="white"/>
<path d="M192.789 268.221V271.345C192.789 272.941 192.209 274.4 191.253 275.535H157.239V268.213H192.789V268.221Z" stroke="black" stroke-width="1.35" stroke-linecap="round" stroke-linejoin="round"/>
<path d="M375.643 364.495L285.373 362.106L195.102 364.495C180.737 340.096 192.917 305.857 220.077 278.07C233.853 263.98 251.086 258.074 264.717 255.685C274.02 254.054 281.643 254.054 285.364 254.2C288.795 254.063 295.547 254.054 303.869 255.335C317.807 257.477 336.15 263.229 350.66 278.07C377.819 305.848 389.999 340.096 375.634 364.495H375.643Z" fill="#E8A73F"/>
<path d="M375.643 364.496L285.373 362.106L195.102 364.496C180.737 340.096 192.917 305.857 220.077 278.07C233.853 263.98 251.086 258.074 264.717 255.685C274.02 254.054 281.643 254.054 285.364 254.2C288.795 254.063 295.547 254.054 303.869 255.335C317.807 257.477 336.15 263.229 350.66 278.07C377.819 305.848 389.999 340.096 375.634 364.496H375.643Z" stroke="black" stroke-width="1.35" stroke-linecap="round" stroke-linejoin="round"/>
<path d="M192.456 321.116C192.456 321.116 201.393 311.891 212.728 315.304C223.721 318.624 230.976 332.535 229.858 340.233C229.278 344.244 223.388 346.446 217.149 341.649C210.901 336.853 192.465 321.108 192.465 321.108L192.456 321.116Z" fill="#252541"/>
<path d="M192.456 321.116C192.456 321.116 201.393 311.891 212.728 315.304C223.721 318.624 230.976 332.535 229.858 340.233C229.278 344.244 223.388 346.446 217.149 341.649C210.901 336.853 192.465 321.108 192.465 321.108L192.456 321.116Z" stroke="black" stroke-width="1.35" stroke-linecap="round" stroke-linejoin="round"/>
<path d="M378.272 321.116C378.272 321.116 369.335 311.891 358 315.304C347.007 318.624 339.752 332.535 340.87 340.233C341.45 344.244 347.34 346.446 353.579 341.649C359.827 336.853 378.263 321.108 378.263 321.108L378.272 321.116Z" fill="#252541"/>
<path d="M378.272 321.116C378.272 321.116 369.335 311.891 358 315.304C347.007 318.624 339.752 332.535 340.87 340.233C341.45 344.244 347.34 346.446 353.579 341.649C359.827 336.853 378.263 321.108 378.263 321.108L378.272 321.116Z" stroke="black" stroke-width="1.35" stroke-linecap="round" stroke-linejoin="round"/>
<path d="M287.831 270.039C286.969 270.099 286.055 270.133 285.099 270.133C284.34 270.133 283.614 270.116 282.914 270.082C263.863 269.126 264.725 255.693 264.725 255.693C274.029 254.063 281.651 254.063 285.373 254.208C288.804 254.072 295.555 254.063 303.877 255.343C303.877 255.343 306.182 268.836 287.831 270.048V270.039Z" fill="#252541"/>
<path d="M296.136 245.853V260.003C296.136 260.003 292.807 264.577 284.348 264.577C275.89 264.577 272.544 260.003 272.544 260.003V245.853H296.136Z" fill="white"/>
<path d="M296.136 245.853V260.003C296.136 260.003 292.807 264.577 284.348 264.577C275.89 264.577 272.544 260.003 272.544 260.003V245.853H296.136Z" stroke="black" stroke-width="1.35" stroke-linecap="round" stroke-linejoin="round"/>
<path d="M307.513 223.758C307.513 240.536 296.887 253.278 283.785 253.278C270.683 253.278 260.057 240.545 260.057 223.758C260.057 206.971 270.683 190.773 283.785 190.773C296.887 190.773 307.513 206.98 307.513 223.758Z" fill="white"/>
<path d="M307.513 223.758C307.513 240.536 296.887 253.278 283.785 253.278C270.683 253.278 260.057 240.545 260.057 223.758C260.057 206.971 270.683 190.773 283.785 190.773C296.887 190.773 307.513 206.98 307.513 223.758Z" stroke="black" stroke-width="1.35" stroke-linecap="round" stroke-linejoin="round"/>
<path d="M312.174 217.264C312.02 217.699 311.858 218.1 311.704 218.458C311.218 219.602 310.748 220.438 310.373 221.002C309.903 221.718 309.587 222.026 309.587 222.026C309.4 222.119 309.212 222.205 309.024 222.29C308.725 222.435 308.427 222.563 308.128 222.691C307.915 222.785 307.701 222.87 307.488 222.947C307.3 223.024 307.104 223.101 306.916 223.169C284.715 231.422 268.925 204.787 268.925 204.787C268.814 216.837 263.035 223.852 260.859 226.071C260.535 226.404 260.287 226.626 260.159 226.745C260.091 226.813 260.048 226.847 260.048 226.847C259.621 226.344 259.22 225.832 258.827 225.328C258.742 225.217 258.657 225.106 258.58 224.996C258.11 224.364 257.675 223.741 257.265 223.118C256.591 222.102 255.994 221.087 255.464 220.071C254.987 219.167 254.568 218.262 254.21 217.357C253.049 214.49 252.409 211.657 252.212 208.9C251.06 192.489 265.69 178.791 279.338 177.46C297.792 175.659 301.402 184.953 301.402 184.953C301.402 184.953 301.411 184.953 301.436 184.945C303.86 184.287 313.898 186.865 314.18 202.047C314.316 209.284 313.283 214.157 312.174 217.272V217.264Z" fill="#E8A73F"/>
<path d="M257.974 228.887L254.884 228.128L255.832 224.253C255.473 221.548 253.501 203.737 262.899 192.787C267.645 187.257 274.464 184.458 283.179 184.458C292.995 184.458 300.455 187.556 305.345 193.658C315.007 205.7 311.073 225.021 310.586 227.18L307.479 226.489C307.923 224.475 311.593 206.528 302.862 195.646C298.594 190.33 291.97 187.641 283.17 187.641C275.437 187.641 269.428 190.065 265.314 194.853C256.292 205.341 258.99 223.903 259.015 224.091L259.066 224.398L257.965 228.879L257.974 228.887Z" fill="white"/>
<path d="M257.974 228.887L254.884 228.128L255.832 224.253C255.473 221.548 253.501 203.737 262.899 192.787C267.645 187.257 274.464 184.458 283.179 184.458C292.995 184.458 300.455 187.556 305.345 193.658C315.007 205.7 311.073 225.021 310.586 227.18L307.479 226.489C307.923 224.475 311.593 206.528 302.862 195.646C298.594 190.33 291.97 187.641 283.17 187.641C275.437 187.641 269.428 190.065 265.314 194.853C256.292 205.341 258.99 223.903 259.015 224.091L259.066 224.398L257.965 228.879L257.974 228.887Z" stroke="black" stroke-width="1.35" stroke-linecap="round" stroke-linejoin="round"/>
<path d="M290.127 219.508C289.717 220.208 294.813 222.316 295.538 221.59C296.264 220.865 290.699 218.518 290.127 219.508Z" fill="black"/>
<path d="M291.561 229.374C291.04 229.374 290.622 228.955 290.622 228.435V226.148C290.622 225.627 291.04 225.209 291.561 225.209C292.081 225.209 292.5 225.627 292.5 226.148V228.435C292.5 228.955 292.081 229.374 291.561 229.374Z" fill="black"/>
<path d="M277.23 229.374C276.709 229.374 276.291 228.955 276.291 228.435V226.148C276.291 225.627 276.709 225.209 277.23 225.209C277.75 225.209 278.169 225.627 278.169 226.148V228.435C278.169 228.955 277.75 229.374 277.23 229.374Z" fill="black"/>
<path d="M290.272 229.374C290.272 229.374 291.373 228.503 292.85 229.374" stroke="black" stroke-width="1.35" stroke-linecap="round" stroke-linejoin="round"/>
<path d="M281.916 242.38C281.916 242.38 288.923 241.757 292.534 236.551" stroke="black" stroke-width="1.35" stroke-linecap="round" stroke-linejoin="round"/>
<path d="M278.664 219.508C279.073 220.208 273.978 222.316 273.252 221.59C272.527 220.865 278.092 218.518 278.664 219.508Z" fill="black"/>
<path d="M278.519 229.374C278.519 229.374 277.418 228.503 275.941 229.374" stroke="black" stroke-width="1.35" stroke-linecap="round" stroke-linejoin="round"/>
<path d="M282.189 230.449C282.189 230.449 281.643 233.222 284.348 232.949C287.046 232.668 287.122 229.758 285.176 229.689" stroke="black" stroke-width="1.35" stroke-linecap="round" stroke-linejoin="round"/>
<path d="M210.79 315.364C227.46 320.732 225.633 356.892 215.929 364.504H180.131C180.131 364.504 178.586 343.228 184.971 331.024C191.355 318.812 202.613 312.736 210.799 315.373L210.79 315.364Z" fill="white"/>
<path d="M210.79 315.364C227.46 320.732 225.633 356.892 215.929 364.504H180.131C180.131 364.504 178.586 343.228 184.971 331.024C191.355 318.812 202.613 312.736 210.799 315.373L210.79 315.364Z" stroke="black" stroke-width="1.35" stroke-linecap="round" stroke-linejoin="round"/>
<path d="M191.705 364.495H211.797C213.351 368.464 220.939 368.711 228.441 364.495C228.484 364.47 228.527 364.453 228.569 364.427C230.865 363.13 232.265 360.672 232.265 358.035V357.224C232.265 354.587 230.865 352.138 228.569 350.841C228.552 350.832 228.535 350.824 228.518 350.815C226.854 349.876 221.647 351.131 218.839 350.397C216.074 349.68 211.439 346.36 210.048 344.944C210.031 344.927 210.014 344.901 209.988 344.884C208.682 343.501 204.303 339.618 198.038 343.032C193.907 345.285 192.311 356.874 191.705 364.504V364.495Z" fill="white"/>
<path d="M191.705 364.495H211.797C213.351 368.464 220.939 368.711 228.441 364.495C228.484 364.47 228.527 364.453 228.569 364.427C230.865 363.13 232.265 360.672 232.265 358.035V357.224C232.265 354.587 230.865 352.138 228.569 350.841C228.552 350.832 228.535 350.824 228.518 350.815C226.854 349.876 221.647 351.131 218.839 350.397C216.074 349.68 211.439 346.36 210.048 344.944C210.031 344.927 210.014 344.901 209.988 344.884C208.682 343.501 204.303 339.618 198.038 343.032C193.907 345.285 192.311 356.874 191.705 364.504V364.495Z" stroke="black" stroke-width="1.35" stroke-linecap="round" stroke-linejoin="round"/>
<path d="M228.791 364.299C228.672 364.367 228.561 364.436 228.441 364.495C220.93 368.711 213.351 368.464 211.797 364.495C211.422 363.548 211.396 362.379 211.797 361.005C214.239 352.787 222.68 353.205 222.68 353.205" stroke="black" stroke-width="1.35" stroke-linecap="round" stroke-linejoin="round"/>
<path d="M359.963 315.364C343.294 320.732 345.12 356.892 354.825 364.504H390.623C390.623 364.504 392.167 343.228 385.783 331.024C379.399 318.812 368.14 312.736 359.955 315.373L359.963 315.364Z" fill="white"/>
<path d="M359.963 315.364C343.294 320.732 345.12 356.892 354.825 364.504H390.623C390.623 364.504 392.167 343.228 385.783 331.024C379.399 318.812 368.14 312.736 359.955 315.373L359.963 315.364Z" stroke="black" stroke-width="1.35" stroke-linecap="round" stroke-linejoin="round"/>
<path d="M379.049 364.495H358.956C357.403 368.464 349.815 368.711 342.312 364.495C342.27 364.47 342.227 364.453 342.184 364.427C339.888 363.13 338.488 360.672 338.488 358.035V357.224C338.488 354.587 339.888 352.138 342.184 350.841C342.201 350.832 342.218 350.824 342.235 350.815C343.9 349.876 349.106 351.131 351.915 350.397C354.68 349.68 359.315 346.36 360.706 344.944C360.723 344.927 360.74 344.901 360.766 344.884C362.072 343.501 366.45 339.618 372.715 343.032C376.846 345.285 378.443 356.874 379.049 364.504V364.495Z" fill="white"/>
<path d="M379.049 364.495H358.956C357.403 368.464 349.815 368.711 342.312 364.495C342.27 364.47 342.227 364.453 342.184 364.427C339.888 363.13 338.488 360.672 338.488 358.035V357.224C338.488 354.587 339.888 352.138 342.184 350.841C342.201 350.832 342.218 350.824 342.235 350.815C343.9 349.876 349.106 351.131 351.915 350.397C354.68 349.68 359.315 346.36 360.706 344.944C360.723 344.927 360.74 344.901 360.766 344.884C362.072 343.501 366.45 339.618 372.715 343.032C376.846 345.285 378.443 356.874 379.049 364.504V364.495Z" stroke="black" stroke-width="1.35" stroke-linecap="round" stroke-linejoin="round"/>
<path d="M348.065 353.205C348.065 353.205 356.515 352.787 358.948 361.005C359.357 362.379 359.332 363.548 358.948 364.495C357.394 368.464 349.806 368.711 342.304 364.495C342.184 364.427 342.073 364.367 341.954 364.299" stroke="black" stroke-width="1.35" stroke-linecap="round" stroke-linejoin="round"/>
<path d="M386.56 365.306C386.56 365.306 390.793 367.662 392.483 362.046C394.429 355.569 391.186 342.827 387.712 342.136C384.247 341.444 382.301 346.437 382.301 346.437L386.56 365.306Z" fill="white"/>
<path d="M386.56 365.306C386.56 365.306 390.793 367.662 392.483 362.046C394.429 355.569 391.186 342.827 387.712 342.136C384.247 341.444 382.301 346.437 382.301 346.437L386.56 365.306Z" stroke="black" stroke-width="1.35" stroke-linecap="round" stroke-linejoin="round"/>
<path d="M371.273 345.396C371.273 345.396 373.56 340.711 379.706 341.129C385.851 341.547 388.207 363.318 387.405 366.023C386.602 368.729 378.041 370.478 376.898 365.375C375.754 360.28 371.281 345.396 371.281 345.396H371.273Z" fill="white"/>
<path d="M371.273 345.396C371.273 345.396 373.56 340.711 379.706 341.129C385.851 341.547 388.207 363.318 387.405 366.023C386.602 368.729 378.041 370.478 376.898 365.375C375.754 360.28 371.281 345.396 371.281 345.396H371.273Z" stroke="black" stroke-width="1.35" stroke-linecap="round" stroke-linejoin="round"/>
<path d="M377.896 364.495C377.811 365.34 377.64 366.049 377.359 366.569C375.165 370.717 366.16 370.606 364.077 364.495C364.043 364.393 364.018 364.291 363.984 364.188C362.678 359.716 361.372 350.26 360.706 344.935C360.723 344.918 360.74 344.892 360.766 344.875C362.072 343.493 366.45 339.61 372.715 343.023C374.781 345.473 378.519 358.487 377.896 364.495Z" fill="white"/>
<path d="M360.706 344.935C360.706 344.935 360.74 344.892 360.766 344.875C362.072 343.493 366.45 339.61 372.715 343.023C374.781 345.473 378.519 358.487 377.896 364.495C377.811 365.34 377.64 366.049 377.359 366.569C375.165 370.717 366.16 370.606 364.077 364.495C364.043 364.393 364.018 364.291 363.984 364.188C363.122 361.235 362.259 356.098 361.577 351.421" stroke="black" stroke-width="1.35" stroke-linecap="round" stroke-linejoin="round"/>
<path d="M184.194 365.306C184.194 365.306 179.96 367.662 178.27 362.046C176.324 355.569 179.568 342.827 183.042 342.136C186.507 341.444 188.453 346.437 188.453 346.437L184.194 365.306Z" fill="white"/>
<path d="M184.194 365.306C184.194 365.306 179.96 367.662 178.27 362.046C176.324 355.569 179.568 342.827 183.042 342.136C186.507 341.444 188.453 346.437 188.453 346.437L184.194 365.306Z" stroke="black" stroke-width="1.35" stroke-linecap="round" stroke-linejoin="round"/>
<path d="M199.481 345.396C199.481 345.396 197.193 340.711 191.048 341.129C184.902 341.547 182.547 363.318 183.349 366.023C184.151 368.729 192.712 370.478 193.856 365.375C195 360.271 199.472 345.396 199.472 345.396H199.481Z" fill="white"/>
<path d="M199.481 345.396C199.481 345.396 197.193 340.711 191.048 341.129C184.902 341.547 182.547 363.318 183.349 366.023C184.151 368.729 192.712 370.478 193.856 365.375C195 360.271 199.472 345.396 199.472 345.396H199.481Z" stroke="black" stroke-width="1.35" stroke-linecap="round" stroke-linejoin="round"/>
<path d="M192.857 364.495C192.943 365.34 193.113 366.049 193.395 366.569C195.589 370.717 204.594 370.606 206.676 364.495C206.71 364.393 206.736 364.291 206.77 364.188C208.076 359.716 209.382 350.26 210.048 344.935C210.031 344.918 210.014 344.892 209.988 344.875C208.682 343.493 204.303 339.61 198.038 343.023C195.973 345.473 192.234 358.487 192.857 364.495Z" fill="white"/>
<path d="M210.048 344.935C210.048 344.935 210.014 344.892 209.988 344.875C208.682 343.493 204.303 339.61 198.038 343.023C195.973 345.473 192.234 358.487 192.857 364.495C192.943 365.34 193.113 366.049 193.395 366.569C195.589 370.717 204.594 370.606 206.676 364.495C206.71 364.393 206.736 364.291 206.77 364.188C207.572 361.432 208.375 356.781 209.032 352.368" stroke="black" stroke-width="1.35" stroke-linecap="round" stroke-linejoin="round"/>
<path d="M301.411 184.945C288.923 175.233 258.665 175.369 252.221 208.891C251.069 192.48 265.698 178.783 279.347 177.452C297.8 175.651 301.411 184.945 301.411 184.945Z" fill="white"/>
<path d="M312.174 217.264C312.02 217.699 311.858 218.1 311.704 218.458C311.218 219.602 310.748 220.438 310.373 221.002C309.903 221.718 309.587 222.026 309.587 222.026C309.4 222.119 309.212 222.205 309.024 222.29C308.725 222.435 308.427 222.563 308.128 222.691C307.915 222.785 307.701 222.87 307.488 222.947C307.3 223.024 307.104 223.101 306.916 223.169C284.715 231.422 268.925 204.787 268.925 204.787C268.814 216.837 263.035 223.852 260.859 226.071C260.535 226.404 260.287 226.626 260.159 226.745C260.091 226.813 260.048 226.847 260.048 226.847C259.621 226.344 259.22 225.832 258.827 225.328C258.742 225.217 258.657 225.106 258.58 224.996C258.11 224.364 257.675 223.741 257.265 223.118C256.591 222.102 255.994 221.087 255.464 220.071C254.987 219.167 254.568 218.262 254.21 217.357C253.049 214.49 252.409 211.657 252.212 208.9C251.06 192.489 265.69 178.791 279.338 177.46C297.792 175.659 301.402 184.953 301.402 184.953C301.402 184.953 301.411 184.953 301.436 184.945C303.86 184.287 313.898 186.865 314.18 202.047C314.316 209.284 313.283 214.157 312.174 217.272V217.264Z" stroke="black" stroke-width="1.35" stroke-linecap="round" stroke-linejoin="round"/>
<path d="M309.499 217.021L314.269 217.441C316.369 217.626 317.92 219.476 317.735 221.575L317.06 229.244C316.717 233.137 313.276 236.013 309.391 235.671L307.869 235.537L309.499 217.021Z" fill="white"/>
<path d="M309.391 235.68L308.171 235.569C307.18 235.484 306.429 234.656 306.438 233.658L306.481 227.214C306.506 223.596 307.556 220.063 309.511 217.025L311.03 217.161C311.03 217.161 309.357 225.089 309.4 235.68H309.391Z" fill="black"/>
<path d="M259.536 235.542L258.015 235.679C254.121 236.032 250.681 233.156 250.329 229.272L249.634 221.606C249.443 219.506 250.989 217.653 253.089 217.462L257.858 217.03L259.536 235.542Z" fill="white"/>
<path d="M309.499 217.021L314.269 217.441C316.369 217.626 317.92 219.476 317.735 221.575L317.06 229.244C316.717 233.137 313.276 236.013 309.391 235.671L307.869 235.537L309.499 217.021Z" stroke="black" stroke-width="1.35" stroke-linecap="round" stroke-linejoin="round"/>
<path d="M259.536 235.542L258.015 235.679C254.121 236.032 250.681 233.156 250.329 229.272L249.634 221.606C249.443 219.506 250.989 217.653 253.089 217.462L257.858 217.03L259.536 235.542Z" stroke="black" stroke-width="1.35" stroke-linecap="round" stroke-linejoin="round"/>
<path d="M258.025 235.672L259.246 235.561C260.236 235.475 260.987 234.639 260.978 233.649L260.919 227.206C260.885 223.587 259.826 220.054 257.863 217.016L256.344 217.153C256.344 217.153 258.034 225.081 258.025 235.672Z" fill="black"/>
<path d="M309.391 235.68L308.171 235.569C307.18 235.484 306.429 234.656 306.438 233.658L306.481 227.214C306.506 223.596 307.556 220.063 309.511 217.025L311.03 217.161C311.03 217.161 309.357 225.089 309.4 235.68H309.391Z" stroke="black" stroke-width="1.35" stroke-linecap="round" stroke-linejoin="round"/>
<path d="M258.025 235.672L259.246 235.561C260.236 235.475 260.987 234.639 260.978 233.649L260.919 227.206C260.885 223.587 259.826 220.054 257.863 217.016L256.344 217.153C256.344 217.153 258.034 225.081 258.025 235.672Z" stroke="black" stroke-width="1.35" stroke-linecap="round" stroke-linejoin="round"/>
<path d="M564.745 66.1144H373.193C368.338 66.1144 364.402 70.0499 364.402 74.9046V273.436C364.402 278.29 368.338 282.226 373.193 282.226H564.745C569.6 282.226 573.536 278.29 573.536 273.436V74.9046C573.536 70.0499 569.6 66.1144 564.745 66.1144Z" fill="white"/>
<path d="M436.014 282.226H373.193C368.337 282.226 364.402 278.292 364.402 273.436V154.332" stroke="black" stroke-width="1.35" stroke-linecap="round" stroke-linejoin="round"/>
<path d="M364.402 92.5362V74.9046C364.402 70.0486 368.337 66.1144 373.193 66.1144H564.753C569.61 66.1144 573.545 70.0486 573.545 74.9046V257.152" stroke="black" stroke-width="1.35" stroke-linecap="round" stroke-linejoin="round"/>
<path d="M573.536 74.9046V83.6009H364.402V74.9046C364.402 70.0486 368.337 66.1144 373.193 66.1144H564.753C569.61 66.1144 573.545 70.0486 573.545 74.9046H573.536Z" fill="#E8A73F"/>
<path d="M573.536 74.9046V83.6009H364.402V74.9046C364.402 70.0486 368.337 66.1144 373.193 66.1144H564.753C569.61 66.1144 573.545 70.0486 573.545 74.9046H573.536Z" stroke="black" stroke-width="1.35" stroke-linecap="round" stroke-linejoin="round"/>
<path d="M547.281 74.7169C547.281 76.3981 545.916 77.7636 544.234 77.7636C542.553 77.7636 541.187 76.3981 541.187 74.7169C541.187 73.0356 542.553 71.6702 544.234 71.6702C545.916 71.6702 547.281 73.0356 547.281 74.7169Z" fill="white"/>
<path d="M566.324 74.7169C566.324 76.3981 564.958 77.7636 563.277 77.7636C561.595 77.7636 560.229 76.3981 560.229 74.7169C560.229 73.0356 561.595 71.6702 563.277 71.6702C564.958 71.6702 566.324 73.0356 566.324 74.7169Z" fill="black"/>
<path d="M528.23 74.7169C528.23 76.3981 526.865 77.7636 525.183 77.7636C523.502 77.7636 522.136 76.3981 522.136 74.7169C522.136 73.0356 523.502 71.6702 525.183 71.6702C526.865 71.6702 528.23 73.0356 528.23 74.7169Z" fill="white"/>
<path d="M336.098 359.964H234.109L225.838 297.852C225.625 296.247 226.871 294.822 228.493 294.822H341.715C343.336 294.822 344.583 296.247 344.369 297.852L336.098 359.964Z" fill="#252541"/>
<path d="M336.098 359.964H234.109L225.838 297.852C225.625 296.247 226.871 294.822 228.493 294.822H341.715C343.336 294.822 344.583 296.247 344.369 297.852L336.098 359.964Z" stroke="black" stroke-width="1.35" stroke-linecap="round" stroke-linejoin="round"/>
<path d="M336.098 357.881H234.109V364.495H336.098V357.881Z" fill="white"/>
<path d="M336.098 357.881H234.109V364.495H336.098V357.881Z" stroke="black" stroke-width="1.35" stroke-linecap="round" stroke-linejoin="round"/>
<path d="M282.923 339.174C289.013 339.174 293.951 334.238 293.951 328.148C293.951 322.059 289.013 317.122 282.923 317.122C276.832 317.122 271.895 322.059 271.895 328.148C271.895 334.238 276.832 339.174 282.923 339.174Z" fill="white"/>
<path d="M414.786 98.8943H328.306C324.448 98.8943 321.324 102.018 321.324 105.875V145.918C321.324 149.775 324.448 152.899 328.306 152.899H405.781L416.135 167.347C417.432 169.165 419.532 170.24 421.76 170.24V105.875C421.76 102.018 418.636 98.8943 414.778 98.8943H414.786ZM347.382 128.482C345.701 128.482 344.335 127.117 344.335 125.436C344.335 123.754 345.701 122.389 347.382 122.389C349.064 122.389 350.429 123.754 350.429 125.436C350.429 127.117 349.064 128.482 347.382 128.482ZM369.941 128.482C368.26 128.482 366.894 127.117 366.894 125.436C366.894 123.754 368.26 122.389 369.941 122.389C371.623 122.389 372.988 123.754 372.988 125.436C372.988 127.117 371.623 128.482 369.941 128.482ZM392.5 128.482C390.819 128.482 389.453 127.117 389.453 125.436C389.453 123.754 390.819 122.389 392.5 122.389C394.182 122.389 395.547 123.754 395.547 125.436C395.547 127.117 394.182 128.482 392.5 128.482Z" fill="#E8A73F"/>
<path d="M408.999 92.5363H322.519C318.661 92.5363 315.537 95.6598 315.537 99.5172V139.56C315.537 143.417 318.661 146.541 322.519 146.541H399.994L410.348 160.989C411.645 162.807 413.745 163.882 415.973 163.882V99.5172C415.973 95.6598 412.849 92.5363 408.991 92.5363H408.999ZM341.595 122.124C339.914 122.124 338.548 120.759 338.548 119.078C338.548 117.396 339.914 116.031 341.595 116.031C343.277 116.031 344.642 117.396 344.642 119.078C344.642 120.759 343.277 122.124 341.595 122.124ZM364.154 122.124C362.473 122.124 361.107 120.759 361.107 119.078C361.107 117.396 362.473 116.031 364.154 116.031C365.836 116.031 367.201 117.396 367.201 119.078C367.201 120.759 365.836 122.124 364.154 122.124ZM386.713 122.124C385.032 122.124 383.666 120.759 383.666 119.078C383.666 117.396 385.032 116.031 386.713 116.031C388.395 116.031 389.761 117.396 389.761 119.078C389.761 120.759 388.395 122.124 386.713 122.124Z" stroke="black" stroke-width="1.35" stroke-linecap="round" stroke-linejoin="round"/>
<path d="M544.08 111.303C544.08 112.984 542.715 114.35 541.033 114.35C539.352 114.35 537.986 112.984 537.986 111.303C537.986 109.622 539.352 108.256 541.033 108.256C542.715 108.256 544.08 109.622 544.08 111.303Z" fill="#E8A73F"/>
<path d="M566.64 111.303C566.64 112.984 565.274 114.35 563.592 114.35C561.911 114.35 560.545 112.984 560.545 111.303C560.545 109.622 561.911 108.256 563.592 108.256C565.274 108.256 566.64 109.622 566.64 111.303Z" fill="#E8A73F"/>
<path d="M589.199 111.303C589.199 112.984 587.833 114.35 586.152 114.35C584.47 114.35 583.104 112.984 583.104 111.303C583.104 109.622 584.47 108.256 586.152 108.256C587.833 108.256 589.199 109.622 589.199 111.303Z" fill="#E8A73F"/>
<path d="M544.08 131.52C544.08 133.202 542.715 134.567 541.033 134.567C539.352 134.567 537.986 133.202 537.986 131.52C537.986 129.839 539.352 128.474 541.033 128.474C542.715 128.474 544.08 129.839 544.08 131.52Z" fill="#E8A73F"/>
<path d="M566.64 131.52C566.64 133.202 565.274 134.567 563.592 134.567C561.911 134.567 560.545 133.202 560.545 131.52C560.545 129.839 561.911 128.474 563.592 128.474C565.274 128.474 566.64 129.839 566.64 131.52Z" fill="#E8A73F"/>
<path d="M589.199 131.52C589.199 133.202 587.833 134.567 586.152 134.567C584.47 134.567 583.104 133.202 583.104 131.52C583.104 129.839 584.47 128.474 586.152 128.474C587.833 128.474 589.199 129.839 589.199 131.52Z" fill="#E8A73F"/>
<path d="M544.08 151.747C544.08 153.428 542.715 154.793 541.033 154.793C539.352 154.793 537.986 153.428 537.986 151.747C537.986 150.065 539.352 148.7 541.033 148.7C542.715 148.7 544.08 150.065 544.08 151.747Z" fill="#E8A73F"/>
<path d="M566.64 151.747C566.64 153.428 565.274 154.793 563.592 154.793C561.911 154.793 560.545 153.428 560.545 151.747C560.545 150.065 561.911 148.7 563.592 148.7C565.274 148.7 566.64 150.065 566.64 151.747Z" fill="#E8A73F"/>
<path d="M589.199 151.747C589.199 153.428 587.833 154.793 586.152 154.793C584.47 154.793 583.104 153.428 583.104 151.747C583.104 150.065 584.47 148.7 586.152 148.7C587.833 148.7 589.199 150.065 589.199 151.747Z" fill="#E8A73F"/>
<path d="M438.463 54.8749C438.463 54.8749 407.215 13.6718 311.815 18.0413C216.415 22.4108 184.202 69.0075 238.428 79.7862C292.124 90.4625 325.719 64.8684 277.315 54.2519C228.911 43.6353 167.712 69.8609 142.737 111.303" stroke="black" stroke-width="1.69" stroke-linecap="round" stroke-linejoin="round"/>
<path d="M274.814 124.181H226.53C224.609 124.181 223.064 125.734 223.064 127.646V152.899C223.064 154.819 224.618 156.363 226.53 156.363H263.582L273.261 167.594C273.799 168.217 274.823 167.833 274.823 167.014V156.363C276.743 156.363 278.288 154.81 278.288 152.899V127.646C278.288 125.726 276.735 124.181 274.823 124.181H274.814ZM250.668 149.152C245.948 149.152 238.052 135.301 242.755 132.365C247.194 129.592 250.668 134.866 250.668 134.866C250.668 134.866 254.133 129.592 258.58 132.365C263.283 135.301 255.388 149.152 250.668 149.152Z" fill="#E8A73F"/>
<path d="M270.188 127.646H221.903C219.983 127.646 218.438 129.199 218.438 131.111V156.363C218.438 158.284 219.991 159.828 221.903 159.828H258.955L268.635 171.059C269.172 171.682 270.197 171.298 270.197 170.479V159.828C272.117 159.828 273.662 158.275 273.662 156.363V131.111C273.662 129.191 272.109 127.646 270.197 127.646H270.188ZM246.041 152.617C241.321 152.617 233.426 138.766 238.129 135.83C242.568 133.057 246.041 138.331 246.041 138.331C246.041 138.331 249.507 133.057 253.954 135.83C258.657 138.766 250.762 152.617 246.041 152.617Z" stroke="black" stroke-width="1.35" stroke-linecap="round" stroke-linejoin="round"/>
<path d="M453.187 15.4213V17.4439L465.521 28.0519C466.784 29.1442 468.747 28.2396 468.747 26.5755V4.26707C468.747 2.59436 466.784 1.69827 465.521 2.79065L453.187 13.3987V15.4213Z" fill="#E8A73F"/>
<path d="M455.935 11.6235H450.422V19.2104H455.935V11.6235Z" fill="black"/>
<path d="M452.607 13.6888V15.7114L464.94 26.3194C466.204 27.4118 468.167 26.5072 468.167 24.843V2.53464C468.167 0.861943 466.204 -0.0341478 464.94 1.05823L452.607 11.6662V13.6888Z" stroke="black" stroke-width="1.35" stroke-linecap="round" stroke-linejoin="round"/>
<path d="M455.364 9.89111H449.85V17.478H455.364V9.89111Z" stroke="black" stroke-width="1.35" stroke-linecap="round" stroke-linejoin="round"/>
<path d="M446.751 5.17175H428.597C425.575 5.17175 423.125 7.62094 423.125 10.6422V20.2005C423.125 23.2217 425.575 25.6709 428.597 25.6709H446.751C449.773 25.6709 452.223 23.2217 452.223 20.2005V10.6422C452.223 7.62094 449.773 5.17175 446.751 5.17175Z" fill="#E8A73F"/>
<path d="M441.459 15.4213C441.459 17.5121 439.761 19.2104 437.67 19.2104C435.579 19.2104 433.88 17.5121 433.88 15.4213C433.88 13.3304 435.579 11.6321 437.67 11.6321C439.761 11.6321 441.459 13.3304 441.459 15.4213Z" fill="white"/>
<path d="M446.171 3.43921H428.016C424.994 3.43921 422.545 5.8884 422.545 8.90963V18.4679C422.545 21.4892 424.994 23.9383 428.016 23.9383H446.171C449.193 23.9383 451.642 21.4892 451.642 18.4679V8.90963C451.642 5.8884 449.193 3.43921 446.171 3.43921Z" stroke="black" stroke-width="1.35" stroke-linecap="round" stroke-linejoin="round"/>
<path d="M440.888 13.6803C440.888 15.7712 439.189 17.4695 437.098 17.4695C435.007 17.4695 433.308 15.7712 433.308 13.6803C433.308 11.5894 435.007 9.89111 437.098 9.89111C439.189 9.89111 440.888 11.5894 440.888 13.6803Z" stroke="black" stroke-width="1.35" stroke-linecap="round" stroke-linejoin="round"/>
<path d="M192.789 129.771V271.353C192.789 272.949 192.209 274.409 191.253 275.544C190.058 276.952 188.282 277.848 186.294 277.848H44.6657C41.0723 277.848 38.1703 274.938 38.1703 271.353V129.771C38.1703 126.187 41.0809 123.276 44.6657 123.276H186.294C189.878 123.276 192.789 126.187 192.789 129.771Z" stroke="black" stroke-width="1.35" stroke-linecap="round" stroke-linejoin="round"/>
<path d="M192.789 129.771V141.693H38.1703V129.771C38.1703 126.187 41.0809 123.276 44.6657 123.276H186.294C189.878 123.276 192.789 126.187 192.789 129.771Z" fill="#252541"/>
<path d="M149.976 132.784C149.976 134.465 148.61 135.83 146.928 135.83C145.247 135.83 143.881 134.465 143.881 132.784C143.881 131.102 145.247 129.737 146.928 129.737C148.61 129.737 149.976 131.102 149.976 132.784Z" fill="white"/>
<path d="M169.027 132.784C169.027 134.465 167.661 135.83 165.979 135.83C164.298 135.83 162.932 134.465 162.932 132.784C162.932 131.102 164.298 129.737 165.979 129.737C167.661 129.737 169.027 131.102 169.027 132.784Z" fill="white"/>
<path d="M188.069 132.784C188.069 134.465 186.703 135.83 185.022 135.83C183.34 135.83 181.975 134.465 181.975 132.784C181.975 131.102 183.34 129.737 185.022 129.737C186.703 129.737 188.069 131.102 188.069 132.784Z" fill="white"/>
<path d="M188.069 132.784C188.069 134.465 186.703 135.83 185.022 135.83C183.34 135.83 181.975 134.465 181.975 132.784C181.975 131.102 183.34 129.737 185.022 129.737C186.703 129.737 188.069 131.102 188.069 132.784Z" fill="#E8A73F"/>
<path d="M192.789 129.771V141.693H38.1703V129.771C38.1703 126.187 41.0809 123.276 44.6657 123.276H186.294C189.878 123.276 192.789 126.187 192.789 129.771Z" stroke="black" stroke-width="1.35" stroke-linecap="round" stroke-linejoin="round"/>
<path d="M130.122 80.5286C129.67 80.8188 129.2 81.0833 128.722 81.3052H114.076V74.3499H117.515L109.142 64.7915L100.769 74.3499H104.217V81.3052H88.6145C85.9771 78.3268 84.381 74.4181 84.381 70.134C84.381 68.0687 84.7565 66.0887 85.4393 64.2539C87.8207 57.8362 94.0004 53.2704 101.247 53.2704C106.172 53.2704 110.602 55.3869 113.683 58.7493C114.895 57.6399 116.576 56.9572 118.429 56.9572C122.107 56.9572 125.095 59.6369 125.095 62.9482V62.9908C128.816 62.4702 132.418 63.8101 134.322 66.78C134.851 67.5993 135.209 68.4869 135.406 69.4086C136.268 73.3343 134.245 77.8745 130.114 80.5201L130.122 80.5286Z" fill="#E8A73F"/>
<path d="M133.016 82.5512C132.555 82.8414 132.094 83.1059 131.616 83.3278H116.969V76.3724H120.409L112.036 66.8141L103.662 76.3724H107.111V83.3278H91.508C88.8706 80.3494 87.2745 76.4407 87.2745 72.1565C87.2745 70.0913 87.65 68.1113 88.3328 66.2765C90.7142 59.8588 96.8939 55.293 104.14 55.293C109.065 55.293 113.495 57.4094 116.576 60.7719C117.789 59.6625 119.47 58.9797 121.322 58.9797C125.001 58.9797 127.988 61.6595 127.988 64.9707V65.0134C131.71 64.4928 135.312 65.8327 137.215 68.8026C137.744 69.6219 138.103 70.5094 138.299 71.4311C139.161 75.3569 137.138 79.8971 133.007 82.5427L133.016 82.5512Z" stroke="black" stroke-width="1.35" stroke-linecap="round" stroke-linejoin="round"/>
<path d="M209.962 16.4454L213.155 23.5202L235.15 2.71387L209.962 16.4454Z" fill="#E8A73F"/>
<path d="M209.962 16.4454L213.155 23.5202L235.15 2.71387L209.962 16.4454Z" stroke="black" stroke-width="1.02" stroke-linecap="round" stroke-linejoin="round"/>
<path d="M211.149 16.4966L213.155 23.5202L209.962 16.4454L209.621 16.2662L211.166 15.9077L211.149 16.4966Z" fill="black"/>
<path d="M235.15 2.71387L224.746 17.0684L211.149 16.4966L209.962 16.4454L209.621 16.2662L202.818 12.7671L235.15 2.71387Z" fill="#E8A73F"/>
<path d="M235.15 2.71387L224.746 17.0684L211.149 16.4966L209.962 16.4454L209.621 16.2662L202.818 12.7671L235.15 2.71387Z" stroke="black" stroke-width="1.02" stroke-linecap="round" stroke-linejoin="round"/>
<path d="M235.15 2.71387L211.149 16.4966L209.962 16.4454L209.621 16.2662L235.15 2.71387Z" fill="black"/>
<path d="M188.163 179.431H189.119C190.459 179.431 191.543 180.515 191.543 181.855V198.369H188.163V179.431Z" fill="white"/>
<path d="M170.836 182.103L157.376 198.684H165.143C165.1 197.012 165.553 195.365 166.457 193.957L170.836 187.104V182.111V182.103Z" fill="white"/>
<path d="M188.163 179.431H189.119C190.459 179.431 191.543 180.515 191.543 181.855V198.369H188.163V179.431Z" stroke="black" stroke-width="1.35" stroke-linecap="round" stroke-linejoin="round"/>
<path d="M170.836 182.103L157.376 198.684H165.143C165.1 197.012 165.553 195.365 166.457 193.957L170.836 187.104V182.111V182.103Z" stroke="black" stroke-width="1.35" stroke-linecap="round" stroke-linejoin="round"/>
<path d="M183.742 174.746H175.001V198.369H183.742V174.746Z" fill="#252541"/>
<path d="M183.742 174.746H175.001V198.369H183.742V174.746Z" stroke="black" stroke-width="1.35" stroke-linecap="round" stroke-linejoin="round"/>
<path d="M176.043 172.041H169.274V198.369H176.043V172.041Z" fill="#E8A73F"/>
<path d="M176.043 172.041H169.274V198.369H176.043V172.041Z" stroke="black" stroke-width="1.35" stroke-linecap="round" stroke-linejoin="round"/>
<path d="M189.366 172.041H182.598V198.369H189.366V172.041Z" fill="#E8A73F"/>
<path d="M189.366 172.041H182.598V198.369H189.366V172.041Z" stroke="black" stroke-width="1.35" stroke-linecap="round" stroke-linejoin="round"/>
<path d="M192.789 197.643H140.757V200.562H192.789V197.643Z" fill="white"/>
<path d="M192.789 197.643H140.757V200.562H192.789V197.643Z" stroke="black" stroke-width="1.35" stroke-linecap="round" stroke-linejoin="round"/>
<path d="M70.3061 268.221V320.63H49.4882" stroke="black" stroke-width="1.35" stroke-linecap="round" stroke-linejoin="round"/>
<path d="M70.3061 296.64H49.4882" stroke="black" stroke-width="1.35" stroke-linecap="round" stroke-linejoin="round"/>
<path d="M30.5482 299.823H0.580407" stroke="black" stroke-width="1.35" stroke-linecap="round" stroke-linejoin="round"/>
<path d="M33.0491 292.33H22.2262" stroke="black" stroke-width="1.35" stroke-linecap="round" stroke-linejoin="round"/>
<path d="M30.5482 323.915H0.580407" stroke="black" stroke-width="1.35" stroke-linecap="round" stroke-linejoin="round"/>
<path d="M33.0491 316.422H22.2262" stroke="black" stroke-width="1.35" stroke-linecap="round" stroke-linejoin="round"/>
<path d="M51.9464 289.625H38.1703V303.399H51.9464V289.625Z" fill="#E8A73F"/>
<path d="M51.9464 313.743H38.1703V327.517H51.9464V313.743Z" fill="#E8A73F"/>
<path d="M49.9236 287.022H36.1474V300.796H49.9236V287.022Z" stroke="black" stroke-width="1.35" stroke-linecap="round" stroke-linejoin="round"/>
<path d="M49.9236 311.148H36.1474V324.922H49.9236V311.148Z" stroke="black" stroke-width="1.35" stroke-linecap="round" stroke-linejoin="round"/>
<path d="M402.077 197.942C402.077 197.942 393.03 171.947 393.021 169.225C393.021 165.512 398.262 163.293 401.454 165.06C406.097 167.629 413.216 199.606 413.216 199.606L402.077 197.942Z" fill="white"/>
<path d="M402.077 197.942C402.077 197.942 393.03 171.947 393.021 169.225C393.021 165.512 398.262 163.293 401.454 165.06C406.097 167.629 413.216 199.606 413.216 199.606L402.077 197.942Z" stroke="black" stroke-width="1.35" stroke-linecap="round" stroke-linejoin="round"/>
<path d="M421.768 207.023C410.578 216.257 396.7 217.306 390.844 217.298C388.642 206.109 387.097 197.217 387.097 197.217L414.573 191.26C414.573 191.26 417.492 197.498 421.768 207.031V207.023Z" fill="white"/>
<path d="M421.768 207.023C410.578 216.257 396.7 217.306 390.844 217.298C388.642 206.109 387.097 197.217 387.097 197.217L414.573 191.26C414.573 191.26 417.492 197.498 421.768 207.031V207.023Z" stroke="black" stroke-width="1.35" stroke-linecap="round" stroke-linejoin="round"/>
<path d="M389.069 190.244C389.069 190.244 390.008 186.293 394.276 185.038C398.543 183.792 402.495 191.908 403.434 196.38C404.373 200.852 403.639 204.701 399.482 204.812C395.317 204.915 394.173 199.922 393.345 197.012C392.509 194.102 389.078 190.244 389.078 190.244H389.069Z" fill="white"/>
<path d="M389.069 190.244C389.069 190.244 390.008 186.293 394.276 185.038C398.543 183.792 402.495 191.908 403.434 196.38C404.373 200.852 403.639 204.701 399.482 204.812C395.317 204.915 394.173 199.922 393.345 197.012C392.509 194.102 389.078 190.244 389.078 190.244H389.069Z" stroke="black" stroke-width="1.35" stroke-linecap="round" stroke-linejoin="round"/>
<path d="M490.034 225.934L449.124 263.809L446.734 266.83C443.525 270.124 436.842 274.903 425.191 274.63C407.83 274.221 400.285 259.175 395.88 240.912L404.168 234.468C408.854 224.782 415.99 217.537 424.047 212.109C447.835 196.082 479.596 195.962 479.596 195.962L490.043 225.926L490.034 225.934Z" fill="#252541"/>
<path d="M490.034 225.934L449.124 263.809L446.734 266.83C443.525 270.124 436.842 274.903 425.191 274.63C407.83 274.221 400.285 259.175 395.88 240.912L404.168 234.468C408.854 224.782 415.99 217.537 424.047 212.109C447.835 196.082 479.596 195.962 479.596 195.962L490.043 225.926L490.034 225.934Z" stroke="black" stroke-width="1.35" stroke-linecap="round" stroke-linejoin="round"/>
<path d="M446.726 266.83C443.516 270.124 436.833 274.903 425.182 274.63C407.821 274.221 400.276 259.175 395.872 240.912C395.786 240.57 395.71 240.221 395.624 239.879C395.283 238.411 394.941 236.901 394.6 235.382C394.412 234.537 394.225 233.692 394.045 232.847C393.892 232.156 393.747 231.464 393.601 230.773C393.439 230.031 393.286 229.28 393.123 228.529C392.816 227.086 392.526 225.653 392.236 224.236C392.142 223.784 392.048 223.331 391.954 222.879C391.92 222.683 391.877 222.486 391.835 222.29C391.775 221.991 391.715 221.701 391.655 221.411C391.544 220.865 391.442 220.327 391.331 219.79C391.254 219.406 391.177 219.03 391.109 218.646C391.015 218.185 390.93 217.741 390.844 217.289C390.768 216.897 390.691 216.495 390.614 216.103C390.554 215.804 390.495 215.514 390.443 215.215C390.426 215.147 390.418 215.07 390.401 215.002C390.349 214.754 390.307 214.507 390.256 214.26C390.256 214.242 390.256 214.225 390.247 214.208C390.187 213.875 390.119 213.543 390.059 213.21C389.999 212.911 389.94 212.621 389.889 212.331C389.829 212.006 389.76 211.691 389.701 211.375C395.855 211.75 406.413 210.376 418.764 200.366C418.841 200.537 418.917 200.707 418.994 200.878C419.105 201.125 419.225 201.381 419.344 201.646C419.438 201.851 419.532 202.064 419.634 202.278C420.3 203.745 421.017 205.333 421.777 207.023C422.494 208.627 423.253 210.325 424.047 212.109C430.867 227.445 440.017 248.695 446.734 266.83H446.726Z" fill="#252541"/>
<path d="M446.726 266.83C443.516 270.124 436.833 274.903 425.182 274.63C407.821 274.221 400.276 259.175 395.872 240.912C395.786 240.57 395.71 240.221 395.624 239.879C395.283 238.411 394.941 236.901 394.6 235.382C394.412 234.537 394.225 233.692 394.045 232.847C393.892 232.156 393.747 231.464 393.601 230.773C393.439 230.031 393.286 229.28 393.123 228.529C392.816 227.086 392.526 225.653 392.236 224.236C392.142 223.784 392.048 223.331 391.954 222.879C391.92 222.683 391.877 222.486 391.835 222.29C391.775 221.991 391.715 221.701 391.655 221.411C391.544 220.865 391.442 220.327 391.331 219.79C391.254 219.406 391.177 219.03 391.109 218.646C391.015 218.185 390.93 217.741 390.844 217.289C390.435 215.224 390.059 213.244 389.701 211.375C395.855 211.75 406.413 210.376 418.764 200.366C420.24 203.617 422.041 207.603 424.039 212.1C426.352 217.298 428.929 223.169 431.592 229.374" stroke="black" stroke-width="1.35" stroke-linecap="round" stroke-linejoin="round"/>
<path d="M421.768 207.023C410.578 216.257 396.7 217.306 390.844 217.298C390.768 216.905 390.691 216.504 390.614 216.111C390.554 215.813 390.495 215.523 390.443 215.224C390.426 215.156 390.418 215.079 390.401 215.011C390.358 214.763 390.307 214.516 390.256 214.268C390.256 214.251 390.256 214.234 390.247 214.217C390.187 213.884 390.119 213.551 390.059 213.218C389.999 212.92 389.948 212.629 389.889 212.339C389.829 212.015 389.76 211.699 389.701 211.384C395.855 211.759 406.413 210.385 418.764 200.374C418.841 200.545 418.917 200.716 418.994 200.886C419.105 201.134 419.225 201.39 419.344 201.655C419.438 201.859 419.532 202.073 419.634 202.286C420.3 203.754 421.017 205.341 421.777 207.031L421.768 207.023Z" fill="#E8A73F"/>
<path d="M421.768 207.023C410.578 216.257 396.7 217.306 390.844 217.298C390.768 216.905 390.691 216.504 390.614 216.111C390.554 215.813 390.495 215.523 390.443 215.224C390.426 215.156 390.418 215.079 390.401 215.011C390.358 214.763 390.307 214.516 390.256 214.268C390.256 214.251 390.256 214.234 390.247 214.217C390.187 213.884 390.119 213.551 390.059 213.218C389.999 212.92 389.948 212.629 389.889 212.339C389.829 212.015 389.76 211.699 389.701 211.384C395.855 211.759 406.413 210.385 418.764 200.374C418.841 200.545 418.917 200.716 418.994 200.886C419.105 201.134 419.225 201.39 419.344 201.655C419.438 201.859 419.532 202.073 419.634 202.286C420.3 203.754 421.017 205.341 421.777 207.031L421.768 207.023Z" stroke="black" stroke-width="1.35" stroke-linecap="round" stroke-linejoin="round"/>
<path d="M384.076 192.634C383.205 195.587 386.159 206.886 392.611 205.537C399.064 204.189 393.362 191.379 389.803 189.51C387.618 188.367 384.597 190.859 384.076 192.634Z" fill="white"/>
<path d="M384.076 192.634C383.205 195.587 386.159 206.886 392.611 205.537C399.064 204.189 393.362 191.379 389.803 189.51C387.618 188.367 384.597 190.859 384.076 192.634Z" stroke="black" stroke-width="1.35" stroke-linecap="round" stroke-linejoin="round"/>
<path d="M415.162 192.54C415.162 192.54 414.249 187.01 410.817 186.6C407.386 186.182 395.676 193.154 396.427 196.073C397.178 198.983 399.482 201.416 403.793 200.135C408.103 198.855 415.162 192.549 415.162 192.549V192.54Z" fill="white"/>
<path d="M415.162 192.54C415.162 192.54 414.249 187.01 410.817 186.6C407.386 186.182 395.676 193.154 396.427 196.073C397.178 198.983 399.482 201.416 403.793 200.135C405.901 199.504 408.666 197.678 410.945 195.971" stroke="black" stroke-width="1.35" stroke-linecap="round" stroke-linejoin="round"/>
<path d="M479.587 195.962C479.587 195.962 511.142 190.97 530.501 214.481C549.859 238.002 551.592 269.877 552.01 278.821L437.047 278.787C437.047 278.787 431.883 258.842 439.957 236.329C448.032 213.816 479.578 195.954 479.578 195.954L479.587 195.962Z" fill="#252541"/>
<path d="M479.587 195.962C479.587 195.962 511.142 190.97 530.501 214.481C549.859 238.002 551.592 269.877 552.01 278.821L437.047 278.787C437.047 278.787 431.883 258.842 439.957 236.329" stroke="black" stroke-width="1.35" stroke-linecap="round" stroke-linejoin="round"/>
<path d="M519.029 237.507C519.029 237.507 522.384 252.467 521.137 279.623" stroke="black" stroke-width="1.35" stroke-linecap="round" stroke-linejoin="round"/>
<path d="M490.034 184.04V199.751C490.034 199.751 487.201 204.829 479.988 204.829C472.776 204.829 469.934 199.751 469.934 199.751V184.04H490.026H490.034Z" fill="#E8A73F"/>
<path d="M490.034 184.04V199.751C490.034 199.751 487.201 204.829 479.988 204.829C472.776 204.829 469.934 199.751 469.934 199.751V184.04H490.026H490.034Z" stroke="black" stroke-width="1.35" stroke-linecap="round" stroke-linejoin="round"/>
<path d="M488.498 182.453V195.757C488.498 195.757 486.1 200.059 479.997 200.059C473.894 200.059 471.487 195.757 471.487 195.757V182.453H488.507H488.498Z" fill="white"/>
<path d="M488.498 182.453V195.757C488.498 195.757 486.1 200.059 479.997 200.059C473.894 200.059 471.487 195.757 471.487 195.757V182.453H488.507H488.498Z" stroke="black" stroke-width="1.35" stroke-linecap="round" stroke-linejoin="round"/>
<path d="M516.349 208.516C509.273 216.564 493.867 216.837 488.114 205.606C482.352 194.366 488.498 168.149 488.498 168.149L466.255 168.286C466.255 168.286 478.324 184.654 471.478 201.305C466.263 213.986 454.851 218.296 447.502 213.5C445.206 212.006 443.303 209.608 442.117 206.306C437.123 192.429 450.302 186.191 455.159 181.053C460.015 175.924 457.514 165.094 457.241 155.945C456.96 146.788 462.806 129.788 478.409 129.029C492.774 128.337 503.725 141.796 502.197 161.219C500.669 180.643 506.917 183.835 510.801 186.89C514.685 189.946 523.425 200.485 516.349 208.533V208.516Z" fill="#252541"/>
<path d="M459.042 173.705C460.075 183.63 449.329 188.691 446 193.53C442.671 198.369 442.117 206.297 447.502 213.491C445.206 211.998 443.303 209.6 442.117 206.297C437.123 192.42 450.302 186.182 455.159 181.044C460.015 175.915 457.514 165.085 457.241 155.937C456.96 146.78 462.806 129.779 478.409 129.02C456.908 133.449 458.018 163.771 459.042 173.696V173.705Z" fill="white"/>
<path d="M478.401 129.02C462.806 129.771 456.96 146.78 457.233 155.937C457.506 165.094 460.007 175.915 455.15 181.044C450.294 186.182 437.115 192.42 442.108 206.297C447.101 220.174 464.624 217.955 471.47 201.305C478.324 184.654 466.246 168.286 466.246 168.286L488.489 168.149C488.489 168.149 482.344 194.375 488.105 205.606C493.867 216.845 509.265 216.564 516.34 208.516C523.416 200.468 514.676 189.928 510.792 186.873C506.909 183.818 500.661 180.626 502.189 161.202C503.717 141.779 492.766 128.32 478.392 129.011L478.401 129.02Z" stroke="black" stroke-width="1.35" stroke-linecap="round" stroke-linejoin="round"/>
<path d="M496.701 166.511C496.701 178.612 489.036 187.803 479.587 187.803C470.138 187.803 462.474 178.612 462.474 166.511C462.474 154.409 470.138 142.717 479.587 142.717C489.036 142.717 496.701 154.409 496.701 166.511Z" fill="white"/>
<path d="M496.701 166.511C496.701 178.612 489.036 187.803 479.587 187.803C470.138 187.803 462.474 178.612 462.474 166.511C462.474 154.409 470.138 142.717 479.587 142.717C489.036 142.717 496.701 154.409 496.701 166.511Z" stroke="black" stroke-width="1.35" stroke-linecap="round" stroke-linejoin="round"/>
<path d="M473.177 165.836H471.291V162.909C471.291 162.389 471.709 161.97 472.23 161.97C472.75 161.97 473.168 162.389 473.168 162.909V165.836H473.177Z" fill="#252541"/>
<path d="M483.863 158.019C483.957 159.086 489.522 159.752 489.684 158.523C489.847 157.294 483.735 156.526 483.863 158.019Z" fill="#252541"/>
<path d="M486.501 165.836H484.614V162.909C484.614 162.389 485.033 161.97 485.553 161.97C486.074 161.97 486.492 162.389 486.492 162.909V165.836H486.501Z" fill="#252541"/>
<path d="M484.358 165.837C484.358 165.837 485.383 165.034 486.757 165.837" stroke="black" stroke-width="1.35" stroke-linecap="round" stroke-linejoin="round"/>
<path d="M473.911 157.789C473.911 158.855 468.406 159.956 468.15 158.745C467.894 157.533 473.92 156.287 473.911 157.789Z" stroke="black" stroke-width="0.43" stroke-miterlimit="10"/>
<path d="M473.433 165.837C473.433 165.837 472.409 165.034 471.035 165.837" stroke="black" stroke-width="1.35" stroke-linecap="round" stroke-linejoin="round"/>
<path d="M478.145 171.341C478.145 171.341 477.752 173.347 479.698 173.142C481.644 172.945 481.695 170.837 480.295 170.786" stroke="black" stroke-width="1.35" stroke-linecap="round" stroke-linejoin="round"/>
<path d="M485.195 144.134C485.195 144.134 478.469 163.208 461.398 165.265C461.398 165.265 457.105 136.931 478.401 135.404C499.696 133.876 498.169 165.06 498.169 165.06C498.169 165.06 492.066 164.377 485.195 144.134Z" fill="#252541"/>
<path d="M485.195 144.134C485.195 144.134 478.469 163.208 461.398 165.265C461.398 165.265 457.105 136.931 478.401 135.404C499.696 133.876 498.169 165.06 498.169 165.06C498.169 165.06 492.066 164.377 485.195 144.134Z" stroke="black" stroke-width="1.35" stroke-linecap="round" stroke-linejoin="round"/>
<path d="M495.07 165.06C495.07 165.06 496.598 162.457 500.968 163.78C505.338 165.094 504.092 176.265 495.07 173.841V165.068V165.06Z" fill="white"/>
<path d="M496.197 164.027C497.11 163.49 498.63 163.071 500.968 163.78C505.244 165.068 504.143 175.77 495.659 173.978" stroke="black" stroke-width="1.35" stroke-linecap="round" stroke-linejoin="round"/>
<path d="M497.614 167.56C497.614 167.56 500.115 165.828 501.497 168.789" stroke="black" stroke-width="1.35" stroke-linecap="round" stroke-linejoin="round"/>
<path d="M499.142 170.291V167.057" stroke="black" stroke-width="1.35" stroke-linecap="round" stroke-linejoin="round"/>
<path d="M484.879 180.438C484.358 180.592 483.769 180.643 483.18 180.618C481.345 180.541 479.51 179.653 479.621 178.271C479.8 176.052 483.812 176.743 484.879 175.079C485.954 173.415 488.114 173.065 488.498 175.079C488.498 175.113 488.507 175.147 488.515 175.181C488.856 177.17 487.994 179.534 484.879 180.43V180.438Z" fill="#252541"/>
<path d="M484.879 180.438C484.358 180.592 483.769 180.643 483.18 180.618C481.345 180.541 479.51 179.653 479.621 178.271C479.8 176.052 483.812 176.743 484.879 175.079C485.954 173.415 488.114 173.065 488.498 175.079C488.498 175.113 488.507 175.147 488.515 175.181C488.856 177.17 487.994 179.534 484.879 180.43V180.438Z" stroke="black" stroke-width="1.35" stroke-linecap="round" stroke-linejoin="round"/>
<path d="M484.879 180.438C484.358 180.592 483.769 180.643 483.18 180.618C482.907 179.039 482.762 177.025 484.367 176.538C485.63 176.154 486.33 174.302 488.515 175.181C488.857 177.17 487.994 179.534 484.879 180.43V180.438Z" fill="white"/>
<path d="M463.908 165.06C463.908 165.06 462.38 162.457 458.01 163.78C453.639 165.094 454.886 176.265 463.908 173.841V165.068V165.06Z" fill="white"/>
<path d="M463.626 165.06C463.626 165.06 462.098 162.457 457.728 163.78C453.358 165.094 454.604 176.265 463.626 173.841" stroke="black" stroke-width="1.35" stroke-linecap="round" stroke-linejoin="round"/>
<path d="M461.364 167.56C461.364 167.56 458.863 165.828 457.48 168.789" stroke="black" stroke-width="1.35" stroke-linecap="round" stroke-linejoin="round"/>
<path d="M459.845 170.291V167.057" stroke="black" stroke-width="1.35" stroke-linecap="round" stroke-linejoin="round"/>
<path d="M121.16 229.271V275.544H46.6545V231.294C46.6545 228.964 47.4995 226.822 48.8908 225.166C50.632 223.101 53.2438 221.787 56.1544 221.787H111.933C116.372 221.787 120.093 224.825 121.143 228.938C121.143 229.049 121.143 229.16 121.143 229.271H121.16Z" fill="#E8A73F"/>
<path d="M121.16 229.271V275.544H46.3728V229.271C46.3728 226.941 47.2178 224.799 48.6091 223.144C50.3503 221.078 52.9622 219.764 55.8727 219.764H111.652C116.79 219.764 120.981 223.843 121.151 228.938C121.151 229.049 121.151 229.16 121.151 229.271H121.16Z" stroke="black" stroke-width="1.35" stroke-linecap="round" stroke-linejoin="round"/>
<path d="M81.8033 275.543H46.3728V255.377C53.7816 235.399 69.5464 232.813 69.5464 232.813C69.5464 232.813 72.0473 238.778 76.4004 244.189C80.762 249.6 78.5684 255.565 80.7876 266.941C81.5216 270.696 81.8033 273.418 81.8118 275.543H81.8033Z" fill="black"/>
<path d="M83.7664 221.795V231.703C77.9879 229.271 75.2822 225.414 74.0873 221.795H83.7664Z" fill="black"/>
<path d="M73.5666 248.49V275.544H64.9459C62.1036 275.544 59.4576 273.973 58.2029 271.422C57.6566 270.304 57.2469 268.938 57.1957 267.317C57.1957 267.189 57.1957 267.069 57.1957 266.941V248.49H73.5666Z" fill="white"/>
<path d="M73.5666 275.544H64.9459C62.1036 275.544 59.4576 273.973 58.2029 271.422C57.6566 270.304 57.2469 268.938 57.1957 267.317C57.1957 267.189 57.1957 267.069 57.1957 266.941V254.916" stroke="black" stroke-width="1.35" stroke-linecap="round" stroke-linejoin="round"/>
<path d="M74.4799 275.407H64.8434C62.3084 275.407 59.9185 274.153 58.5358 272.028C58.5187 272.002 58.5016 271.976 58.4846 271.951C57.7164 270.756 57.3323 269.356 57.3323 267.931V250.018L69.683 250.12L73.9848 250.154L74.4884 275.407H74.4799Z" fill="white"/>
<path d="M177.775 265.345C177.775 265.345 181.172 264.099 183.255 265.064C185.338 266.036 188.598 270.543 188.666 271.515C188.735 272.488 186.311 273.529 184.296 271.865C182.282 270.201 177.775 265.345 177.775 265.345Z" fill="white"/>
<path d="M177.775 265.345C177.775 265.345 181.172 264.099 183.255 265.064C185.338 266.036 188.598 270.543 188.666 271.515C188.735 272.488 186.311 273.529 184.296 271.865C182.282 270.201 177.775 265.345 177.775 265.345Z" stroke="black" stroke-width="1.35" stroke-linecap="round" stroke-linejoin="round"/>
<path d="M171.672 265.482C171.672 265.482 173.269 262.708 175.974 263.126C178.68 263.544 184.544 269.16 185.218 270.176C186.379 271.934 183.844 274.562 181.164 274.212C178.492 273.862 172.296 268.221 172.296 268.221L171.672 265.482Z" fill="white"/>
<path d="M171.672 265.482C171.672 265.482 173.269 262.708 175.974 263.126C178.68 263.544 184.544 269.16 185.218 270.176C186.379 271.934 183.844 274.562 181.164 274.212C178.492 273.862 172.296 268.221 172.296 268.221L171.672 265.482Z" stroke="black" stroke-width="1.35" stroke-linecap="round" stroke-linejoin="round"/>
<path d="M139.75 275.544H73.8397L73.4215 264.859C66.3457 255.428 55.1045 254.592 55.1045 254.592C54.968 251.818 58.4333 239.333 68.5649 231.558C73.8312 227.513 82.3922 226.062 89.3827 225.601C95.8355 225.175 100.948 225.593 100.948 225.593C105.327 226.071 109.219 226.89 112.693 227.982C146.57 238.667 139.75 275.535 139.75 275.535V275.544Z" fill="#E8A73F"/>
<path d="M139.75 275.544H73.8397L73.4215 264.859C66.3457 255.428 55.1045 254.592 55.1045 254.592C54.968 251.818 58.4333 239.333 68.5649 231.558C73.8312 227.513 82.3922 226.062 89.3827 225.601C95.8355 225.175 100.948 225.593 100.948 225.593C105.327 226.071 109.219 226.89 112.693 227.982C146.57 238.667 139.75 275.535 139.75 275.535V275.544Z" stroke="black" stroke-width="1.35" stroke-linecap="round" stroke-linejoin="round"/>
<path d="M121.16 266.941C121.16 266.941 119.914 274.016 119.914 275.544H157.521L169.035 269.851C169.035 269.851 174.865 273.734 176.947 274.289C176.947 274.289 181.249 274.98 180.276 270.543C180.276 270.543 169.94 262.427 167.857 261.59C165.775 260.754 158.98 262.904 154.602 265.542L139.34 260.89L121.16 266.924V266.941Z" fill="white"/>
<path d="M121.16 266.941C121.16 266.941 119.914 274.016 119.914 275.544H157.521L169.035 269.851C169.035 269.851 174.865 273.734 176.947 274.289C176.947 274.289 181.249 274.98 180.276 270.543C180.276 270.543 169.94 262.427 167.857 261.59C165.775 260.754 158.98 262.904 154.602 265.542L139.34 260.89L121.16 266.924V266.941Z" stroke="black" stroke-width="1.35" stroke-linecap="round" stroke-linejoin="round"/>
<path d="M119.914 255.01L121.16 266.941" stroke="black" stroke-width="1.35" stroke-linecap="round" stroke-linejoin="round"/>
<path d="M112.693 227.991V232.804C112.693 234.946 111.873 237.012 110.38 238.539C108.553 240.408 105.523 242.397 100.948 242.388C96.0232 242.38 93.1297 240.57 91.4653 238.77C90.0911 237.285 89.3742 235.296 89.3742 233.274V225.61C95.8269 225.183 100.94 225.601 100.94 225.601C105.318 226.079 109.21 226.899 112.684 227.991H112.693Z" fill="black"/>
<path d="M150.573 272.147C150.573 272.147 155.148 276.158 159.108 277.003C163.069 277.848 167.149 275.049 166.876 273.052C166.602 271.055 155.848 268.887 155.848 268.887L150.573 272.147Z" fill="white"/>
<path d="M152.254 273.47C153.944 274.716 156.65 276.465 159.108 276.994C163.06 277.839 167.149 275.04 166.876 273.043C166.713 271.857 162.821 270.602 159.706 269.783" stroke="black" stroke-width="1.35" stroke-linecap="round" stroke-linejoin="round"/>
<path d="M108.468 219.773V231.772C108.468 233.052 107.862 234.264 106.803 234.998C104.533 236.576 100.12 238.471 94.6747 234.938C93.548 234.204 92.8566 232.949 92.8566 231.61V219.781H108.459L108.468 219.773Z" fill="white"/>
<path d="M108.468 219.773V231.772C108.468 233.052 107.862 234.264 106.803 234.998C104.533 236.576 100.12 238.471 94.6747 234.938C93.548 234.204 92.8566 232.949 92.8566 231.61V219.781H108.459L108.468 219.773Z" stroke="black" stroke-width="1.02" stroke-linecap="round" stroke-linejoin="round"/>
<path d="M113.837 207.816C113.837 217.511 107.7 224.876 100.129 224.876C92.5579 224.876 86.4209 217.52 86.4209 207.816C86.4209 198.113 92.5579 188.751 100.129 188.751C107.7 188.751 113.837 198.113 113.837 207.816Z" fill="white"/>
<path d="M113.837 207.816C113.837 217.511 107.7 224.876 100.129 224.876C92.5579 224.876 86.4209 217.52 86.4209 207.816C86.4209 198.113 92.5579 188.751 100.129 188.751C107.7 188.751 113.837 198.113 113.837 207.816Z" stroke="black" stroke-width="1.35" stroke-linecap="round" stroke-linejoin="round"/>
<path d="M104.132 205.008C104.789 205.563 108.314 202.781 107.708 201.996C107.102 201.211 103.21 204.232 104.132 205.008Z" fill="black"/>
<path d="M105.668 209.591H104.157V207.244C104.157 206.826 104.499 206.493 104.909 206.493C105.327 206.493 105.66 206.835 105.66 207.244V209.591H105.668Z" fill="black"/>
<path d="M94.9905 209.591H93.4797V207.244C93.4797 206.826 93.8211 206.493 94.2308 206.493C94.649 206.493 94.9819 206.835 94.9819 207.244V209.591H94.9905Z" fill="black"/>
<path d="M103.953 209.591C103.953 209.591 104.772 208.943 105.873 209.591" stroke="black" stroke-width="1.02" stroke-linecap="round" stroke-linejoin="round"/>
<path d="M95.1356 204.863C94.521 205.469 90.791 202.969 91.3288 202.141C91.8665 201.313 95.9891 204.018 95.1356 204.863Z" fill="black"/>
<path d="M95.1953 209.591C95.1953 209.591 94.3759 208.943 93.2748 209.591" stroke="black" stroke-width="1.02" stroke-linecap="round" stroke-linejoin="round"/>
<path d="M98.9765 211.682C98.9765 211.682 98.6607 213.287 100.223 213.124C101.785 212.962 101.827 211.281 100.701 211.238" stroke="black" stroke-width="1.02" stroke-linecap="round" stroke-linejoin="round"/>
<path d="M117.148 204.326C119.999 205.759 119.171 213.013 113.418 212.493" stroke="black" stroke-width="1.35" stroke-linecap="round" stroke-linejoin="round"/>
<path d="M113.999 208.874C113.999 208.874 115.475 207.39 116.781 209.224" stroke="black" stroke-width="1.35" stroke-linecap="round" stroke-linejoin="round"/>
<path d="M94.8112 214.345C94.8112 214.345 96.8426 217.366 100.59 217.204C100.59 217.204 97.884 220.379 95.1953 218.612C93.4882 217.485 94.8112 214.345 94.8112 214.345Z" fill="black"/>
<path d="M94.8112 214.345C94.8112 214.345 96.8426 217.366 100.59 217.204C100.59 217.204 97.884 220.379 95.1953 218.612C93.4882 217.485 94.8112 214.345 94.8112 214.345Z" stroke="black" stroke-width="1.35" stroke-linecap="round" stroke-linejoin="round"/>
<path d="M111.951 211.046C114.468 208.53 114.468 204.45 111.951 201.934C109.435 199.418 105.355 199.418 102.838 201.934C100.321 204.45 100.321 208.53 102.838 211.046C105.355 213.563 109.435 213.563 111.951 211.046Z" stroke="black" stroke-width="1.35" stroke-linecap="round" stroke-linejoin="round"/>
<path d="M99.2134 207.528C99.7836 204.015 97.398 200.705 93.8849 200.135C90.3719 199.565 87.0617 201.95 86.4914 205.463C85.9212 208.975 88.3068 212.285 91.8199 212.855C95.3329 213.425 98.6431 211.04 99.2134 207.528Z" stroke="black" stroke-width="1.35" stroke-linecap="round" stroke-linejoin="round"/>
<path d="M95.2124 229.758C94.521 235.305 90.3557 249.6 84.6626 262.085C78.9695 274.571 74.5311 275.407 74.5311 275.407H64.8349C62.2999 275.407 59.91 274.153 58.5272 272.028C58.5102 272.002 58.4931 271.976 58.476 271.951C57.7078 270.756 57.3237 269.356 57.3237 267.931V266.549C61.0366 261.471 65.5519 255.505 69.6745 250.12C76.0163 241.834 81.4021 234.964 81.4021 234.964C81.4021 234.964 81.8203 228.375 81.4021 227.266C80.9839 226.156 77.1003 220.327 76.3577 218.663C75.6151 216.999 74.9493 207.978 75.8456 206.109C76.7503 204.24 78.3464 205.068 78.3464 205.068L81.1887 210.061C81.1887 210.061 84.1761 206.382 85.4906 204.65C86.805 202.918 89.3059 203.122 89.8607 206.109C90.4155 209.096 88.0597 211.034 88.128 212.007C88.1963 212.979 88.4097 215.062 91.5251 218.595C94.6405 222.128 95.8952 224.21 95.2038 229.766L95.2124 229.758Z" fill="white"/>
<path d="M60.6782 262.017C63.5887 258.108 66.7383 253.969 69.683 250.12C76.0248 241.834 81.4106 234.964 81.4106 234.964C81.4106 234.964 81.8289 228.375 81.4106 227.266C80.9924 226.156 77.1088 220.327 76.3662 218.663C75.6236 216.999 74.9579 207.978 75.8541 206.109C76.7589 204.24 78.355 205.068 78.355 205.068L81.1973 210.061C81.1973 210.061 84.1846 206.382 85.4991 204.65C86.8135 202.918 89.3144 203.122 89.8692 206.109C90.424 209.096 88.0683 211.034 88.1365 212.007C88.2048 212.979 88.4182 215.062 91.5336 218.595C94.649 222.128 95.9038 224.21 95.2124 229.766C94.521 235.313 90.3557 249.608 84.6626 262.094C78.9695 274.579 74.5311 275.416 74.5311 275.416H64.8349C62.2999 275.416 59.91 274.161 58.5272 272.036C58.5102 272.01 58.4931 271.985 58.476 271.959C57.7078 270.764 57.3237 269.365 57.3237 267.94V266.557" stroke="black" stroke-width="1.35" stroke-linecap="round" stroke-linejoin="round"/>
<path d="M114.741 207.944L114.016 205.239C108.084 201.697 107.042 197.848 107.042 197.848C107.042 197.848 104.132 203.361 100.385 203.361C96.6378 203.361 96.322 200.562 96.322 200.562C88.8279 205.947 80.6595 205.188 78.722 200.46C78.372 199.606 78.2269 198.633 78.3208 197.533C78.9439 190.355 85.8149 189.621 85.8149 189.621C85.8149 189.621 83.3909 186.925 83.1945 184.185C83.0665 182.461 83.8347 180.72 86.6514 179.628C93.8467 176.854 100.94 181.693 101.11 181.813C101.059 181.642 100.146 178.467 102.886 177.861C105.694 177.238 108.502 184.185 108.502 184.185C108.502 184.185 110.892 180.771 112.249 181.19C113.606 181.608 111.003 184.731 111.003 184.731C115.996 184.006 118.395 185.772 119.325 195.134C120.264 204.496 114.75 207.936 114.75 207.936L114.741 207.944Z" fill="black"/>
<path d="M101.11 181.821C88.6231 178.177 83.186 184.194 83.186 184.194C83.058 182.47 83.8262 180.729 86.6428 179.636C93.8382 176.863 100.931 181.702 101.102 181.821H101.11Z" fill="white"/>
<path d="M78.722 200.46C78.372 199.606 78.2269 198.633 78.3208 197.533C78.9439 190.355 85.8149 189.621 85.8149 189.621L86.4209 189.937C78.1757 192.224 78.722 200.46 78.722 200.46Z" fill="white"/>
<path d="M114.741 207.944C114.741 207.944 120.255 204.513 119.316 195.143C118.377 185.781 115.988 184.006 110.994 184.74C110.994 184.74 113.598 181.616 112.241 181.198C110.883 180.78 108.493 184.194 108.493 184.194C108.493 184.194 105.685 177.247 102.877 177.87C100.069 178.493 101.11 181.821 101.11 181.821C101.11 181.821 93.9321 176.829 86.6428 179.636C79.3621 182.444 85.8064 189.621 85.8064 189.621C85.8064 189.621 78.9354 190.347 78.3123 197.533C77.6892 204.71 87.4708 206.912 96.3134 200.554C96.3134 200.554 96.6293 203.353 100.376 203.353C104.123 203.353 107.034 197.84 107.034 197.84C107.034 197.84 108.075 201.689 114.007 205.23L114.733 207.936L114.741 207.944Z" stroke="black" stroke-width="1.35" stroke-linecap="round" stroke-linejoin="round"/>
<path d="M80.5144 217.477C80.5144 217.477 78.2952 214.285 78.0136 212.066C77.7319 209.847 77.9282 203.31 78.5513 201.953C79.089 200.784 81.1546 199.726 82.5373 201.117C82.9299 201.509 83.1263 202.056 83.1007 202.61C83.0238 204.804 82.819 211.776 83.1263 212.826C83.4933 214.072 84.8419 215.113 84.8419 215.113L80.5059 217.468L80.5144 217.477Z" fill="white"/>
<path d="M80.5144 217.477C80.5144 217.477 78.2952 214.285 78.0136 212.066C77.7319 209.847 77.9282 203.31 78.5513 201.953C79.089 200.784 81.1546 199.726 82.5373 201.117C82.9299 201.509 83.1263 202.056 83.1007 202.61C83.0238 204.804 82.819 211.776 83.1263 212.826C83.4933 214.072 84.8419 215.113 84.8419 215.113" stroke="black" stroke-width="1.35" stroke-linecap="round" stroke-linejoin="round"/>
<path d="M74.4799 275.407H64.8434C62.3084 275.407 59.9185 274.152 58.5358 272.027C58.5187 272.002 58.5016 271.976 58.4846 271.951C57.7164 270.756 57.3323 269.356 57.3323 267.931V254.916" stroke="black" stroke-width="1.35" stroke-linecap="round" stroke-linejoin="round"/>
<path d="M591 260.907H448.953C445.64 260.907 442.953 263.594 442.953 266.907V340.13C442.953 343.444 445.64 346.13 448.953 346.13H591C594.314 346.13 597 343.444 597 340.13V266.907C597 263.594 594.314 260.907 591 260.907Z" fill="#E8A73F"/>
<path d="M584.069 342.366H442.014C438.702 342.366 436.014 339.678 436.014 336.367V263.135C436.014 259.824 438.702 257.135 442.014 257.135H584.069C587.381 257.135 590.069 259.824 590.069 263.135V336.367C590.069 339.678 587.381 342.366 584.069 342.366Z" stroke="black" stroke-width="1.35" stroke-linecap="round" stroke-linejoin="round"/>
<path d="M474.304 284.265H565.777" stroke="white" stroke-width="1.35" stroke-linecap="round" stroke-linejoin="round"/>
<path d="M474.304 305.481H565.777" stroke="white" stroke-width="1.35" stroke-linecap="round" stroke-linejoin="round"/>
<path d="M474.304 326.689H565.777" stroke="white" stroke-width="1.35" stroke-linecap="round" stroke-linejoin="round"/>
</g>
<defs>
<clipPath id="clip0_228_4263">
<rect width="597" height="370" fill="white"/>
</clipPath>
</defs>
</svg>
