<svg width="82" height="32" viewBox="0 0 82 32" fill="none" xmlns="http://www.w3.org/2000/svg">
<path d="M31.6954 11.8018H27.6116C27.3322 11.8018 27.0945 11.9932 27.0508 12.2536L25.3991 22.1326C25.3702 22.3078 25.4972 22.4719 25.6829 22.4995C25.7003 22.502 25.7181 22.5034 25.7361 22.5034H27.6857C27.9654 22.5034 28.2031 22.3115 28.2465 22.051L28.6921 19.3864C28.7352 19.1262 28.973 18.9342 29.2523 18.934H30.5452C33.2354 18.934 34.7879 17.706 35.1933 15.2723C35.3761 14.2076 35.201 13.371 34.6727 12.7852C34.0921 12.1419 33.0627 11.8015 31.696 11.8015L31.6954 11.8018ZM32.1664 15.4099C31.9432 16.7923 30.8234 16.7923 29.7408 16.7923H29.1244L29.5568 14.2107C29.5831 14.0547 29.7254 13.9396 29.8928 13.9396H30.1752C30.9125 13.9396 31.6083 13.9396 31.9677 14.3363C32.1821 14.5728 32.2476 14.9244 32.1658 15.4099H32.1664ZM43.9029 15.3654H41.9473C41.7799 15.3654 41.6373 15.4804 41.6113 15.6364L41.5248 16.1524L41.388 15.9654C40.9646 15.3857 40.0205 15.1921 39.0781 15.1921C36.9171 15.1921 35.0711 16.7363 34.7117 18.9022C34.5248 19.9825 34.7905 21.0158 35.4402 21.7362C36.0361 22.3987 36.889 22.6747 37.9034 22.6747C39.6448 22.6747 40.6102 21.6186 40.6102 21.6186L40.5231 22.1312C40.4932 22.3064 40.6199 22.4711 40.8054 22.4989C40.8231 22.5017 40.8408 22.5028 40.8585 22.5028H42.6201C42.8997 22.5028 43.1374 22.3109 43.1808 22.0504L44.2378 15.7362C44.2676 15.5618 44.1415 15.3974 43.9566 15.3696C43.9389 15.3668 43.9209 15.3654 43.9029 15.3654ZM41.1769 18.956C40.9882 20.0098 40.1014 20.7174 38.9703 20.7174C38.4025 20.7174 37.9486 20.5455 37.6571 20.2199C37.368 19.8965 37.2581 19.4362 37.3503 18.9237C37.5266 17.8787 38.4281 17.148 39.5418 17.148C40.0972 17.148 40.5485 17.3221 40.8458 17.6506C41.1438 17.9823 41.2619 18.4453 41.1766 18.9557L41.1769 18.956ZM54.3184 15.3654H52.3531C52.165 15.3657 51.989 15.4537 51.8833 15.6002L49.173 19.3666L48.0239 15.7473C47.9516 15.5205 47.7304 15.3654 47.4794 15.3654H45.548C45.3599 15.3648 45.2073 15.5083 45.2067 15.6857C45.2067 15.7214 45.2129 15.7565 45.225 15.7902L47.3896 21.7827L45.3546 24.4927C45.2456 24.6373 45.2817 24.8379 45.4349 24.9404C45.4925 24.9791 45.5616 24.9997 45.6322 24.9997H47.5951C47.7812 24.9997 47.9554 24.9142 48.0614 24.7699L54.5978 15.8693C54.705 15.7236 54.6666 15.5236 54.5121 15.4225C54.4551 15.3852 54.3875 15.3651 54.3181 15.3651L54.3184 15.3654Z" fill="#253B80"/>
<path d="M60.8254 11.8018H56.741C56.4619 11.8018 56.2242 11.9935 56.1808 12.2537L54.5291 22.1326C54.4999 22.3076 54.6263 22.4717 54.8114 22.4993C54.8291 22.5018 54.8469 22.5032 54.8646 22.5032H56.9607C57.1562 22.5032 57.3221 22.3686 57.3526 22.1867L57.8212 19.3864C57.8643 19.1262 58.102 18.9343 58.3814 18.934H59.6737C62.3645 18.934 63.9164 17.706 64.3224 15.2724C64.5058 14.2076 64.3295 13.3711 63.8012 12.7852C63.2215 12.142 62.1924 11.8015 60.8257 11.8015L60.8254 11.8018ZM61.2964 15.41C61.0737 16.7923 59.9539 16.7923 58.8707 16.7923H58.255L58.6879 14.2107C58.7136 14.0547 58.856 13.9396 59.0234 13.9396H59.3057C60.0425 13.9396 60.7389 13.9396 61.0982 14.3363C61.3126 14.5729 61.3776 14.9244 61.2958 15.41H61.2964ZM73.0323 15.3654H71.0779C70.9105 15.3649 70.7678 15.4802 70.7424 15.6365L70.6559 16.1524L70.5186 15.9655C70.0951 15.3857 69.1516 15.1921 68.2093 15.1921C66.0482 15.1921 64.2031 16.7363 63.8434 18.9022C63.6571 19.9826 63.9217 21.0158 64.5714 21.7362C65.1685 22.3987 66.0202 22.6748 67.0345 22.6748C68.776 22.6748 69.7413 21.6187 69.7413 21.6187L69.6542 22.1313C69.6244 22.3065 69.7511 22.4711 69.9365 22.499C69.9546 22.5018 69.9729 22.5032 69.9909 22.5029H71.7518C72.0312 22.5029 72.2686 22.3109 72.312 22.0505L73.3695 15.7362C73.3981 15.5607 73.2706 15.3963 73.0845 15.3693C73.0671 15.3668 73.0497 15.3654 73.0323 15.3657V15.3654ZM70.3063 18.956C70.1187 20.0099 69.2308 20.7175 68.0997 20.7175C67.533 20.7175 67.078 20.5456 66.7865 20.2199C66.4974 19.8965 66.3887 19.4363 66.4797 18.9237C66.6571 17.8787 67.5575 17.148 68.6711 17.148C69.2266 17.148 69.6778 17.3221 69.9752 17.6506C70.2744 17.9824 70.3925 18.4454 70.306 18.9557L70.3063 18.956ZM75.3377 12.0729L73.6616 22.1326C73.6323 22.3076 73.7587 22.4717 73.9439 22.4993C73.9616 22.5018 73.9793 22.5032 73.997 22.5032H75.6821C75.962 22.5032 76.1997 22.3115 76.2429 22.0507L77.8957 12.1723C77.9249 11.9971 77.7983 11.8327 77.6125 11.8052C77.5951 11.8027 77.5777 11.8013 77.5599 11.8013H75.6729C75.5055 11.8018 75.3634 11.9169 75.3374 12.0729H75.3377Z" fill="#179BD7"/>
<path d="M8.43961 24.423L8.75205 22.5515L8.0563 22.5362H4.73438L7.0428 8.7279C7.05698 8.6407 7.13671 8.57635 7.23032 8.57691H12.8317C14.6913 8.57691 15.9744 8.94185 16.6445 9.66253C16.9587 10.0004 17.1586 10.3537 17.2555 10.7423C17.357 11.1501 17.3588 11.6374 17.2596 12.2319L17.2525 12.2753V12.6561L17.5667 12.8241C17.8065 12.9386 18.0221 13.0938 18.2028 13.2815C18.4715 13.5704 18.6452 13.9379 18.7187 14.3733C18.7946 14.8213 18.7695 15.3542 18.6452 15.9573C18.502 16.6512 18.2701 17.2558 17.9574 17.7502C17.6813 18.1935 17.3101 18.5771 16.8677 18.8768C16.4522 19.1551 15.9582 19.3663 15.4 19.5017C14.859 19.6345 14.2421 19.7017 13.5656 19.7017H13.1297C12.8179 19.7017 12.5152 19.8075 12.2774 19.9975C12.04 20.1895 11.8826 20.4544 11.8333 20.7455L11.8005 20.9141L11.2489 24.2124L11.2238 24.3336C11.2173 24.3721 11.2058 24.391 11.1892 24.4041C11.173 24.4166 11.1529 24.4236 11.1319 24.4239H8.4405L8.43961 24.423Z" fill="#253B80"/>
<path d="M17.8638 12.3191C17.8469 12.4199 17.828 12.523 17.8065 12.6289C17.0679 16.2067 14.5407 17.4424 11.3129 17.4424H9.66955C9.27472 17.4424 8.94221 17.7129 8.88078 18.0801L8.03945 23.114L7.80113 24.5409C7.76481 24.7574 7.92133 24.9604 8.15078 24.9947C8.17234 24.9981 8.19419 24.9994 8.21634 24.9994H11.131C11.4763 24.9994 11.7695 24.7629 11.8238 24.4417L11.8525 24.3022L12.4012 21.0169L12.4363 20.8366C12.49 20.5143 12.7839 20.2778 13.1291 20.2778H13.565C16.389 20.2778 18.5997 19.1964 19.2458 16.0665C19.5157 14.7592 19.3761 13.6674 18.6617 12.8997C18.4352 12.662 18.165 12.4656 17.8638 12.3194V12.3191Z" fill="#179BD7"/>
<path d="M17.0911 12.0283C16.8552 11.964 16.6154 11.9138 16.3726 11.8779C15.8934 11.8085 15.4088 11.7751 14.9239 11.7781H10.5335C10.1883 11.7781 9.89446 12.0152 9.84131 12.337L8.90724 17.9172L8.88037 18.0799C8.94061 17.7127 9.27549 17.4419 9.66914 17.4422H11.3125C14.5403 17.4422 17.0672 16.2056 17.8061 12.6286C17.8282 12.5228 17.8468 12.4197 17.8634 12.3189C17.6685 12.2225 17.4653 12.1417 17.2559 12.0773C17.201 12.0601 17.1461 12.0439 17.0905 12.0283H17.0911Z" fill="#222D65"/>
<path d="M9.84129 12.3369C9.89386 12.0149 10.188 11.7775 10.5335 11.7786H14.9239C15.4439 11.7786 15.9294 11.8107 16.3726 11.8784C16.6724 11.9229 16.9683 11.9892 17.2571 12.0773C17.475 12.1455 17.6776 12.226 17.8645 12.3188C18.0842 10.9967 17.8628 10.0966 17.105 9.28146C16.269 8.38416 14.7611 8 12.8319 8H7.23047C6.83623 8 6.50017 8.2705 6.43934 8.63822L4.1061 22.5889C4.06447 22.8366 4.24372 23.0692 4.50625 23.1084C4.53105 23.1121 4.55586 23.114 4.58096 23.114H8.03903L8.90723 17.9174L9.84129 12.3372V12.3369Z" fill="#253B80"/>
</svg>
