<svg width="67" height="28" viewBox="0 0 67 28" fill="none" xmlns="http://www.w3.org/2000/svg">
<path fill-rule="evenodd" clip-rule="evenodd" d="M12.5607 21.6795H9.08249L6.47425 10.9775C6.35045 10.4852 6.08759 10.05 5.70093 9.84492C4.73598 9.32944 3.67267 8.9192 2.5127 8.7123V8.30027H8.11585C8.88916 8.30027 9.46915 8.9192 9.56582 9.63801L10.9191 17.3577L14.3957 8.30027H17.7772L12.5607 21.6795ZM19.7105 21.6795H16.4256L19.1305 8.30027H22.4154L19.7105 21.6795ZM26.6652 12.0067C26.7619 11.2861 27.3419 10.8741 28.0185 10.8741C29.0818 10.7706 30.2401 10.9775 31.2067 11.4912L31.7867 8.61063C30.8201 8.1986 29.7568 7.9917 28.7918 7.9917C25.6036 7.9917 23.2836 9.84492 23.2836 12.4169C23.2836 14.3736 24.9269 15.401 26.0869 16.0199C27.3419 16.6371 27.8252 17.0491 27.7285 17.6662C27.7285 18.592 26.7619 19.004 25.7969 19.004C24.6369 19.004 23.477 18.6954 22.4154 18.1799L21.8354 21.0623C22.9953 21.576 24.2503 21.7829 25.4103 21.7829C28.9852 21.8846 31.2067 20.0332 31.2067 17.2542C31.2067 13.7547 26.6652 13.5496 26.6652 12.0067ZM42.7032 21.6795L40.095 8.30027H37.2934C36.7134 8.30027 36.1334 8.7123 35.9401 9.32944L31.1103 21.6795H34.4918L35.1668 19.7246H39.3217L39.7083 21.6795H42.7032ZM37.7766 11.9033L38.7416 16.9457H36.0367L37.7766 11.9033Z" fill="#172B85"/>
<path fill-rule="evenodd" clip-rule="evenodd" d="M52.6824 20.0982C51.4243 21.2061 49.7924 21.875 48.0092 21.875C44.0302 21.875 40.8047 18.5451 40.8047 14.4375C40.8047 10.3299 44.0302 7 48.0092 7C49.7924 7 51.4243 7.66883 52.6824 8.77676C53.9404 7.66884 55.5723 7 57.3556 7C61.3345 7 64.5601 10.3299 64.5601 14.4375C64.5601 18.5451 61.3345 21.875 57.3556 21.875C55.5723 21.875 53.9404 21.2061 52.6824 20.0982Z" fill="#ED0006"/>
<path fill-rule="evenodd" clip-rule="evenodd" d="M52.6826 20.0983C54.2317 18.7341 55.2139 16.7042 55.2139 14.4375C55.2139 12.1708 54.2317 10.1409 52.6826 8.77672C53.9407 7.66882 55.5726 7 57.3558 7C61.3347 7 64.5603 10.3299 64.5603 14.4375C64.5603 18.5451 61.3347 21.875 57.3558 21.875C55.5726 21.875 53.9407 21.2062 52.6826 20.0983Z" fill="#F9A000"/>
<path fill-rule="evenodd" clip-rule="evenodd" d="M52.6826 20.0982C54.2317 18.734 55.2139 16.7042 55.2139 14.4375C55.2139 12.1708 54.2317 10.1409 52.6826 8.77673C51.1336 10.1409 50.1514 12.1708 50.1514 14.4375C50.1514 16.7042 51.1336 18.734 52.6826 20.0982Z" fill="#FF5E00"/>
</svg>
