<svg width="28" height="21" viewBox="0 0 28 21" fill="none" xmlns="http://www.w3.org/2000/svg">
<path d="M27.7222 4.93597C27.7222 4.93597 27.4498 3.01316 26.611 2.16887C25.5488 1.05767 24.3613 1.05222 23.8166 0.98686C19.9166 0.703613 14.061 0.703613 14.061 0.703613H14.0501C14.0501 0.703613 8.1945 0.703613 4.29442 0.98686C3.74971 1.05222 2.56226 1.05767 1.50008 2.16887C0.661236 3.01316 0.394331 4.93597 0.394331 4.93597C0.394331 4.93597 0.111084 7.1965 0.111084 9.45157V11.565C0.111084 13.8201 0.388883 16.0806 0.388883 16.0806C0.388883 16.0806 0.661236 18.0034 1.49463 18.8477C2.55681 19.9589 3.95125 19.9208 4.57222 20.0406C6.80551 20.2531 14.0555 20.3184 14.0555 20.3184C14.0555 20.3184 19.9166 20.3075 23.8166 20.0297C24.3613 19.9644 25.5488 19.9589 26.611 18.8477C27.4498 18.0034 27.7222 16.0806 27.7222 16.0806C27.7222 16.0806 28 13.8256 28 11.565V9.45157C28 7.1965 27.7222 4.93597 27.7222 4.93597ZM11.174 14.1306V6.29228L18.7073 10.2251L11.174 14.1306Z" fill="white"/>
</svg>
